<svg width="1366" height="757" xmlns="http://www.w3.org/2000/svg"><g fill="none" fill-rule="evenodd"><path fill="#6DC1D2" fill-rule="nonzero" d="M1366 0v756H0V0z"/><path d="M752.456 629.818v86.034a6.278 6.278 0 0 0 6.278 6.278h338.434a6.278 6.278 0 0 0 6.278-6.278v-85.39" stroke="#FFF" stroke-width="1.5"/><path fill="#FFD200" fill-rule="nonzero" d="M845.651 546.084l4.828 17.944h10.944l4.345-16.94z"/><path fill="#58595B" fill-rule="nonzero" d="M855.018 562.753h2.004v66.606h-2.004z"/><path d="M860.408 564.947h-8.778a2.708 2.708 0 0 1-2.714-1.97l-3.879-15.4 1.945-.491 3.884 15.425a.755.755 0 0 0 .764.43h8.778c.31.034.61-.124.757-.4l3.893-15.455 1.945.491L863.116 563a2.7 2.7 0 0 1-2.708 1.947z" fill="#58595B" fill-rule="nonzero"/><path d="M855.164 541h1.71c5.011 0 9.692 1.949 12.488 5.2l.572.665c.525.61-.034 1.431-.976 1.431h-25.877c-.942 0-1.5-.821-.976-1.431l.572-.665c2.796-3.247 7.477-5.2 12.487-5.2z" fill="#58595B" fill-rule="nonzero"/><circle fill="#58595B" fill-rule="nonzero" cx="856.019" cy="578.635" r="2.414"/><circle fill="#58595B" fill-rule="nonzero" cx="856.019" cy="540.826" r="2.414"/><path d="M858.738 578.3H853.3a1.355 1.355 0 0 1-1.214-.723l-1.073-2.1a1.287 1.287 0 0 1 1.214-1.841h7.582a1.287 1.287 0 0 1 1.215 1.841l-1.073 2.1c-.237.45-.705.728-1.213.723zM858.381 568.159h-4.723a1.219 1.219 0 0 1-1.055-.538l-.932-1.564c-.377-.634.19-1.37 1.055-1.37h6.587c.865 0 1.432.736 1.055 1.37l-.932 1.564a1.22 1.22 0 0 1-1.055.538z" fill="#58595B" fill-rule="nonzero"/><path fill="#FFD200" fill-rule="nonzero" d="M411.264 546.084l4.828 17.944h10.944l4.345-16.94zM40.085 546.084l4.828 17.944h10.943l4.345-16.94z"/><path fill="#58595B" fill-rule="nonzero" d="M49.451 562.753h2.004v66.606h-2.004z"/><path d="M54.842 564.947h-8.779a2.708 2.708 0 0 1-2.714-1.97l-3.879-15.4 1.945-.491 3.885 15.427a.752.752 0 0 0 .763.43h8.779c.31.034.61-.124.756-.4l3.893-15.455 1.945.491L57.549 563a2.7 2.7 0 0 1-2.707 1.947z" fill="#58595B" fill-rule="nonzero"/><path d="M49.6 541h1.711c5.01 0 9.691 1.949 12.487 5.2l.572.665c.525.61-.034 1.431-.976 1.431h-25.88c-.942 0-1.5-.821-.976-1.431l.572-.665c2.796-3.247 7.477-5.2 12.49-5.2z" fill="#58595B" fill-rule="nonzero"/><circle fill="#58595B" fill-rule="nonzero" cx="50.452" cy="578.635" r="2.414"/><circle fill="#58595B" fill-rule="nonzero" cx="50.452" cy="540.826" r="2.414"/><path d="M53.171 578.3h-5.437a1.355 1.355 0 0 1-1.214-.723l-1.073-2.1a1.287 1.287 0 0 1 1.214-1.841h7.583a1.287 1.287 0 0 1 1.214 1.841l-1.073 2.1c-.237.45-.706.729-1.214.723zM52.814 568.159h-4.723a1.22 1.22 0 0 1-1.055-.538l-.932-1.564c-.377-.634.19-1.37 1.055-1.37h6.587c.865 0 1.432.736 1.055 1.37l-.932 1.564a1.22 1.22 0 0 1-1.055.538z" fill="#58595B" fill-rule="nonzero"/><path fill="#6DC1D2" fill-rule="nonzero" d="M1079.744 586.14h15.514v22.486h-15.514z"/><path fill="#58595B" fill-rule="nonzero" d="M420.63 562.753h2.004v66.606h-2.004z"/><path d="M426.021 564.947h-8.778a2.71 2.71 0 0 1-2.715-1.97l-3.878-15.4 1.944-.491 3.885 15.425a.754.754 0 0 0 .764.43h8.778c.31.034.61-.124.757-.4l3.893-15.455 1.944.491L428.729 563a2.7 2.7 0 0 1-2.708 1.947z" fill="#58595B" fill-rule="nonzero"/><path d="M420.777 541h1.71c5.01 0 9.692 1.949 12.488 5.2l.572.665c.525.61-.035 1.431-.976 1.431h-25.878c-.941 0-1.5-.821-.976-1.431l.572-.665c2.796-3.247 7.478-5.2 12.488-5.2z" fill="#58595B" fill-rule="nonzero"/><circle fill="#58595B" fill-rule="nonzero" cx="421.632" cy="578.635" r="2.414"/><circle fill="#58595B" fill-rule="nonzero" cx="421.632" cy="540.826" r="2.414"/><path d="M424.351 578.3h-5.437a1.356 1.356 0 0 1-1.215-.723l-1.072-2.1a1.286 1.286 0 0 1 1.214-1.841h7.582a1.286 1.286 0 0 1 1.214 1.841l-1.072 2.1c-.237.45-.706.729-1.214.723zM423.994 568.159h-4.724c-.42.015-.82-.188-1.054-.538l-.932-1.564c-.377-.634.19-1.37 1.055-1.37h6.587c.864 0 1.431.736 1.054 1.37l-.931 1.564a1.22 1.22 0 0 1-1.055.538z" fill="#58595B" fill-rule="nonzero"/><path d="M1163.571 611.769s4.741 2.309 9.359 0 7.354.514 7.354.514" stroke="#58595B" stroke-width="1.5" stroke-linecap="round" stroke-linejoin="round"/><path fill="#FFF" fill-rule="nonzero" d="M1118.232 629.132l.232-95.908-75.812-14.141v110.049"/><path stroke="#58595B" stroke-width="1.5" stroke-linejoin="round" d="M1112.179 629.132l.232-95.908-75.811-14.141v110.049"/><path fill="#FFD200" fill-rule="nonzero" d="M1056.027 549.856h15.514v22.486h-15.514z"/><path stroke="#58595B" stroke-width="1.5" stroke-linejoin="round" d="M1052.672 586.011h15.471v21.972h-15.471zM1076.331 586.011h15.471v21.972h-15.471zM1052.672 550.113h15.471v21.972h-15.471zM1076.331 550.113h15.471v21.972h-15.471zM1299.619 629.46l-37.377-212.908-37.376 212.908"/><path d="M1243.769 416.555h37.5" stroke="#58595B" stroke-width="1.5" stroke-linecap="round" stroke-linejoin="round"/><path d="M1232.122 589.705h60.795M1241.713 533.495h41.059" stroke="#58595B" stroke-width="1.5" stroke-linejoin="round"/><path d="M1262.242 416.56a361.2 361.2 0 0 1-257.759-1.15M1171.943 581.337l-59.836-15.427M1163.571 579.649v50.168" stroke="#58595B" stroke-width="1.5" stroke-linecap="round" stroke-linejoin="round"/><circle fill="#EE4036" fill-rule="nonzero" cx="1120.839" cy="616.811" r="10.189"/><circle stroke="#58595B" stroke-width="1.5" stroke-linecap="round" stroke-linejoin="round" cx="1119.177" cy="617.579" r="10.189"/><path stroke="#58595B" stroke-width="1.5" fill="#FFF" fill-rule="nonzero" stroke-linecap="round" stroke-linejoin="round" d="M1112.778 614.638h12.798v3.902h-12.798zM1119.177 615.082v3.458"/><path d="M1116.051 615.082v3.458M1122.335 615.082v3.458" stroke="#58595B" stroke-width="1.5" stroke-linecap="round" stroke-linejoin="round"/><circle fill="#FFF" fill-rule="nonzero" cx="1115.288" cy="622.022" r="1.12"/><circle fill="#FFF" fill-rule="nonzero" cx="1119.177" cy="622.022" r="1.12"/><circle fill="#FFF" fill-rule="nonzero" cx="1123.066" cy="622.022" r="1.12"/><path d="M1129.366 617.579h1.758a3.784 3.784 0 0 1 3.784 3.784v7.621M1103.446 628.984v-7.621a3.784 3.784 0 0 1 3.784-3.784h1.758" stroke="#FFF" stroke-width="1.5"/><ellipse fill="#FFD200" fill-rule="nonzero" cx="1330.327" cy="580.491" rx="21.215" ry="24.156"/><path d="M1326.1 557.14c-11.251 0-20.406 10.484-20.406 23.371 0 12.887 9.155 23.37 20.406 23.37s20.406-10.483 20.406-23.37-9.156-23.371-20.406-23.371z" stroke="#58595B" stroke-width="1.5" stroke-linejoin="round"/><path d="M1326.099 588.089v41.371" stroke="#58595B" stroke-width="1.5" stroke-linecap="round" stroke-linejoin="round"/><ellipse fill="#FFD200" fill-rule="nonzero" cx="643.785" cy="580.491" rx="21.215" ry="24.156"/><path d="M639.556 557.14c-11.251 0-20.406 10.484-20.406 23.371 0 12.887 9.155 23.37 20.406 23.37s20.406-10.483 20.406-23.37-9.154-23.371-20.406-23.371z" stroke="#58595B" stroke-width="1.5" stroke-linejoin="round"/><path d="M639.556 588.089v41.371" stroke="#58595B" stroke-width="1.5" stroke-linecap="round" stroke-linejoin="round"/><path fill="#FFF" fill-rule="nonzero" d="M892.137 403.238v225.894h121.216V403.238zM474.742 535.438h120.485v93.694H474.742z"/><path d="M463.199 607.306h5.061a2.36 2.36 0 0 1 2.36 2.36v18.06a.731.731 0 0 1-.731.731h-8.319a.731.731 0 0 1-.731-.73v-18.061a2.36 2.36 0 0 1 2.36-2.36z" stroke="#58595B" stroke-width="1.5" fill="#FFF" fill-rule="nonzero" stroke-linejoin="round"/><path d="M464.214 602.789h4.007v4.28h-4.983v-3.304c0-.539.437-.976.976-.976z" stroke="#58595B" stroke-width="1.5" stroke-linejoin="round"/><path d="M467.769 602.789h.452v4.28h-1.428v-3.304c0-.539.437-.976.976-.976z" stroke="#59595B" stroke-width="1.5"/><path fill="#58595B" fill-rule="nonzero" d="M464.954 605.089h1.553v1.885h-1.553z"/><path fill="#58595B" fill-rule="nonzero" d="M465.342 604.108h1v2.588h-1z"/><rect fill="#58595B" fill-rule="nonzero" x="464.54" y="604.092" width="2.381" height="1" rx=".173"/><rect fill="#EE4036" fill-rule="nonzero" transform="rotate(45 465.73 617.983)" x="462.576" y="614.829" width="6.308" height="6.308" rx=".516"/><path d="M465.024 619.97a.052.052 0 0 0 .067-.074c-.23-.352-.255-.8-.068-1.176.392-.877.631-1.332.631-1.332.097.358.257.697.471 1 .374.407.461 1.002.22 1.5a.052.052 0 0 0 .068.073c.493-.245.807-.745.813-1.295.015-.32-.03-.638-.135-.94a1.849 1.849 0 0 0-.478-.843.052.052 0 0 0-.086.043c.034.545-.172.683-.288.371a1.892 1.892 0 0 1-.074-.6c.005-.45-.138-.89-.406-1.252a1.43 1.43 0 0 0-.256-.26.052.052 0 0 0-.083.045 3.32 3.32 0 0 1-.742 2.159 1.805 1.805 0 0 0-.321 1.859c.137.308.371.561.667.722z" fill="#FFF" fill-rule="nonzero"/><path fill="#7D4260" fill-rule="nonzero" d="M558.3 541.814h12.266V564.3H558.3z"/><path stroke="#58595B" stroke-width="1.5" stroke-linejoin="round" d="M506.06 542h15.471v21.972H506.06zM529.719 542h15.471v21.972h-15.471zM553.378 542h15.471v21.972h-15.471z"/><path fill="#FFD200" fill-rule="nonzero" d="M558.3 571.119h12.266v22.486H558.3zM508.337 571.119h39.675v22.486h-39.675z"/><path stroke="#58595B" stroke-width="1.5" stroke-linejoin="round" d="M553.378 571.305h15.471v21.972h-15.471z"/><path fill="#EE4036" fill-rule="nonzero" d="M485.735 541.814h15.471v81.424h-15.471z"/><path stroke="#58595B" stroke-width="1.5" stroke-linejoin="round" d="M482.401 541.814h15.471v81.096h-15.471zM506.06 571.305h39.13v21.972h-39.13z"/><path fill="#FFD200" fill-rule="nonzero" d="M558.3 600.752h12.266v22.486H558.3z"/><path fill="#6DC1D2" fill-rule="nonzero" d="M535.747 600.752h12.266v22.486h-12.266z"/><path stroke="#58595B" stroke-width="1.5" stroke-linejoin="round" d="M506.06 600.938h15.471v21.972H506.06zM529.719 600.938h15.471v21.972h-15.471zM553.378 600.938h15.471v21.972h-15.471z"/><path fill="#FFF" fill-rule="nonzero" d="M609.359 535.438H463.637l19.7-20.381h106.321z"/><path stroke="#58595B" stroke-width="1.5" stroke-linejoin="round" d="M603.306 535.438H457.583l19.7-20.381H583.6zM470.202 535.438h120.485v93.694H470.202z"/><path fill="#FFD200" fill-rule="nonzero" d="M705.419 573.946h63.867v42.103h-63.867z"/><path fill="#FFF" fill-rule="nonzero" d="M738.1 578.78l-29.621 36.562h59.241z"/><path d="M700.106 541.829v88.633h118.718v-88.633H700.106zm75.345 74.7h-63.867v-43.108h63.867v43.108z" fill="#FFF" fill-rule="nonzero"/><path d="M737.352 573.643v5.331" stroke="#58595B" stroke-width="1.5"/><path d="M737.352 578.257a6.891 6.891 0 0 0-6.891 6.891h13.782a6.891 6.891 0 0 0-6.891-6.891z" fill="#58595B" fill-rule="nonzero"/><path stroke="#58595B" stroke-width="1.5" stroke-linejoin="round" d="M693.941 541.829h118.718v87.631H693.941z"/><path fill="#EE4036" fill-rule="nonzero" d="M840.148 573.946H676.34l22.147-20.381H818z"/><path stroke="#58595B" stroke-width="1.5" stroke-linejoin="round" d="M779.014 586.786h20.948v42.674h-20.948z"/><circle fill="#58595B" fill-rule="nonzero" cx="795.301" cy="608.123" r="1.62"/><path stroke="#58595B" stroke-width="1.5" stroke-linejoin="round" d="M705.419 573.946h63.867v42.103h-63.867zM835.356 573.946H671.548l22.147-20.381h119.514z"/><path d="M234.859 629.818v86.034a6.278 6.278 0 0 0 6.278 6.278H649.1a6.277 6.277 0 0 0 6.277-6.278v-61.679a6.278 6.278 0 0 1 6.278-6.278h226.974a6.278 6.278 0 0 0 6.278-6.278v-11.155" stroke="#FFF" stroke-width="1.5"/><path fill="#FFD200" fill-rule="nonzero" d="M917.195 585.784h14.615v22.486h-14.615zM964.168 585.784h14.615v22.486h-14.615zM964.168 440.503h14.615v22.486h-14.615zM964.168 513.143h14.615v22.486h-14.615z"/><path fill="#EE4036" fill-rule="nonzero" d="M940.853 440.652h13.928v22.486h-13.928z"/><path fill="#6DC1D2" fill-rule="nonzero" d="M940.853 476.914h13.928V499.4h-13.928zM940.853 549.481h13.928v22.486h-13.928z"/><path stroke="#58595B" stroke-width="1.5" stroke-linejoin="round" d="M912.27 440.909h15.471v21.972H912.27zM935.929 440.909H951.4v21.972h-15.471zM959.588 440.909h15.471v21.972h-15.471zM912.27 477.171h15.471v21.972H912.27zM935.929 477.171H951.4v21.972h-15.471zM959.588 477.171h15.471v21.972h-15.471zM912.27 513.466h15.471v21.972H912.27zM935.929 513.466H951.4v21.972h-15.471zM959.588 513.466h15.471v21.972h-15.471zM912.27 549.738h15.471v21.972H912.27zM935.929 549.738H951.4v21.972h-15.471zM959.588 549.738h15.471v21.972h-15.471zM912.27 586.011h15.471v21.972H912.27zM935.929 586.011H951.4v21.972h-15.471zM959.588 586.011h15.471v21.972h-15.471z"/><path d="M1195.393 592.616l.528.234-.624 1.068a35.126 35.126 0 0 1-7.846 9.1c-4.131 3.527-4.29 8.124-4.068 13.769.077 1.913 3.181 3.577 4.475 4.106l15.529-.341h40.062l15.413.24c1.52-.314 5.5-1.353 7.122-2.7.04-.147.064-.297.074-.448a7.8 7.8 0 0 0-.093-1.063 6.459 6.459 0 0 1-.03-2.173 5.121 5.121 0 0 0-.989-4.255 18.76 18.76 0 0 0-15.146-8.389c-3.621-.2-6.729-1.743-9.549-3.382a86.666 86.666 0 0 0-12-5.975 26.826 26.826 0 0 0-8.088-1.35c-8.29-.509-16.61.015-24.77 1.559z" fill="#7D4260" fill-rule="nonzero"/><path d="M1265.25 617.191c-1.668 1.264-5.757 2.238-7.319 2.533l-15.843-.226h-41.179l-15.962.32c-1.33-.5-4.521-2.056-4.6-3.849-.228-5.29-.065-9.6 4.181-12.9a33.985 33.985 0 0 0 8.065-8.532l.641-1-.543-.219a112.786 112.786 0 0 1 25.464-1.46c2.817.029 5.615.454 8.313 1.264a93 93 0 0 1 12.332 5.6 23.33 23.33 0 0 0 9.815 3.17c6.643.332 11.737 2.9 15.568 7.863a4.481 4.481 0 0 1 1.017 3.988 5.528 5.528 0 0 0 .03 2.037 6.6 6.6 0 0 1 .1.995 1.9 1.9 0 0 1-.08.416z" stroke="#58595B" stroke-width="1.5" stroke-linejoin="round"/><path fill="#FFF" fill-rule="nonzero" d="M1216.526 594.943l-8.475 11.865h5.12l-2.329 8.275 8.158-11.467h-5.833z"/><circle stroke="#FFF" stroke-width="1.5" fill="#FFF" fill-rule="nonzero" stroke-linejoin="round" cx="1194.445" cy="621.148" r="6.688"/><circle stroke="#FFF" stroke-width="1.5" fill="#FFF" fill-rule="nonzero" stroke-linejoin="round" cx="1248.903" cy="621.148" r="6.688"/><circle stroke="#58595B" stroke-width="1.5" stroke-linejoin="round" cx="1250.018" cy="621.148" r="6.688"/><circle stroke="#58595B" stroke-width="1.5" stroke-linejoin="round" cx="1195.781" cy="621.148" r="6.688"/><path fill="#FFD200" fill-rule="nonzero" d="M1145.311 439.786l-13.114-6.373.856 5.048-8.548-.913 12.668 6.126-.974-5.751z"/><path d="M81.491 600.955h69.753V611.8a4.644 4.644 0 0 1-4.644 4.644H86.135a4.644 4.644 0 0 1-4.644-4.644v-10.845zM116.367 594.279a12.473 12.473 0 0 0 12.474-12.473h-24.947c0 6.889 5.584 12.473 12.473 12.473zM106.068 622.23h20.6v6.645h-20.6z" fill="#429CA5" fill-rule="nonzero"/><path fill="#58595B" fill-rule="nonzero" d="M112.384 593.523h1.936v6.356h-1.936zM112.384 615.613h1.936v5.815h-1.936zM94.979 627.076h36.745v1.936H94.979z"/><path d="M78.464 600.198h69.753v8.818a6.671 6.671 0 0 1-6.671 6.671H85.135a6.671 6.671 0 0 1-6.671-6.671v-8.818zM113.34 593.523c6.89 0 12.474-5.585 12.474-12.474h-24.947c0 6.889 5.584 12.473 12.473 12.474zM103.041 621.473h20.6v6.645h-20.6z" stroke="#58595B" stroke-width="1.5"/><path fill="#FFD200" fill-rule="nonzero" d="M1366 629.46V757H0V629.46z"/><path stroke="#58595B" stroke-width="1.5" stroke-linejoin="round" d="M883.057 403.238v225.894h121.216V403.238z"/><path fill="#FFF" fill-rule="nonzero" d="M490.542 684.067h36.024v5.741h-36.024z"/><path fill="#59595C" fill-rule="nonzero" d="M490.542 683.306h36.024v1h-36.024zM490.542 689.808h36.024v1h-36.024z"/><path fill="#59595C" fill-rule="nonzero" d="M490.542 682.897h1.798v8.081h-1.798z"/><path fill="#FFF" fill-rule="nonzero" d="M526.566 684.067h36.024v5.741h-36.024z"/><path fill="#59595C" fill-rule="nonzero" d="M526.566 683.306h36.024v1h-36.024zM526.566 689.808h36.024v1h-36.024z"/><path fill="#59595C" fill-rule="nonzero" d="M526.566 682.897h1.798v8.081h-1.798z"/><path fill="#FFF" fill-rule="nonzero" d="M562.591 684.067h36.024v5.741h-36.024z"/><path fill="#59595C" fill-rule="nonzero" d="M562.591 683.306h36.024v1h-36.024zM562.591 689.808h36.024v1h-36.024z"/><path fill="#59595C" fill-rule="nonzero" d="M562.591 682.897h1.798v8.081h-1.798z"/><path fill="#FFF" fill-rule="nonzero" d="M598.615 684.067h36.024v5.741h-36.024z"/><path fill="#59595C" fill-rule="nonzero" d="M598.615 683.306h36.024v1h-36.024zM598.615 689.808h36.024v1h-36.024z"/><path fill="#59595C" fill-rule="nonzero" d="M598.615 682.897h1.798v8.081h-1.798z"/><path fill="#FFF" fill-rule="nonzero" d="M634.639 684.067h36.024v5.741h-36.024z"/><path fill="#59595C" fill-rule="nonzero" d="M634.639 683.306h36.024v1h-36.024zM634.639 689.808h36.024v1h-36.024z"/><path fill="#59595C" fill-rule="nonzero" d="M634.639 682.897h1.798v8.081h-1.798z"/><path fill="#FFF" fill-rule="nonzero" d="M670.664 684.067h36.024v5.741h-36.024z"/><path fill="#59595C" fill-rule="nonzero" d="M670.664 683.306h36.024v1h-36.024zM670.664 689.808h36.024v1h-36.024z"/><path fill="#59595C" fill-rule="nonzero" d="M670.664 682.897h1.798v8.081h-1.798z"/><path fill="#FFF" fill-rule="nonzero" d="M706.688 684.067h36.024v5.741h-36.024z"/><path fill="#59595C" fill-rule="nonzero" d="M706.688 683.306h36.024v1h-36.024zM706.688 689.808h36.024v1h-36.024z"/><path fill="#59595C" fill-rule="nonzero" d="M706.688 682.897h1.798v8.081h-1.798z"/><path fill="#FFF" fill-rule="nonzero" d="M742.712 684.067h36.024v5.741h-36.024z"/><path fill="#59595C" fill-rule="nonzero" d="M742.712 683.306h36.024v1h-36.024zM742.712 689.808h36.024v1h-36.024z"/><path fill="#59595C" fill-rule="nonzero" d="M742.712 682.897h1.798v8.081h-1.798z"/><path d="M793.995 707.976v-13.509c0-.218-.009-.313-.015-.427 0-.115-.008-.229-.026-.342a3.963 3.963 0 0 0-.136-.667 4.659 4.659 0 0 0-.566-1.234 4.49 4.49 0 0 0-2.1-1.685 4.109 4.109 0 0 0-1.327-.287c-.135 0-.184-.019-.39-.017h-10.698v-5.741h10.694c.17 0 .495.016.735.027a9.845 9.845 0 0 1 3.053.663 10.239 10.239 0 0 1 4.812 3.858 10.4 10.4 0 0 1 1.308 2.839c.146.503.25 1.016.313 1.536.035.258.056.518.063.779.014.261.025.541.021.7v13.509l-5.741-.002z" fill="#FFF" fill-rule="nonzero"/><path d="M799.736 707.976v-13.509c0-.157-.007-.437-.021-.7a7.012 7.012 0 0 0-.063-.779 9.614 9.614 0 0 0-.313-1.536 10.4 10.4 0 0 0-1.308-2.839 10.239 10.239 0 0 0-4.812-3.858 9.845 9.845 0 0 0-3.053-.663c-.24-.011-.565-.03-.735-.027h-10.694v-.761h10.694c.165 0 .527.016.781.029 1.125.06 2.232.301 3.281.712a11 11 0 0 1 5.172 4.146c.62.94 1.094 1.97 1.406 3.052.156.54.269 1.093.336 1.651.038.278.06.557.069.837.014.28.025.585.021.734v13.509l-.761.002z" fill="#59595C" fill-rule="nonzero"/><path d="M793.234 707.976v-13.509a3.772 3.772 0 0 0-.014-.391 1.581 1.581 0 0 0-.021-.284 3.123 3.123 0 0 0-.113-.552 3.9 3.9 0 0 0-.468-1.022 3.729 3.729 0 0 0-1.744-1.4 3.36 3.36 0 0 0-1.1-.237c-.121 0-.133-.018-.344-.016h-10.693v-.761h10.694c.206 0 .255.015.39.017.455.021.904.118 1.327.287a4.49 4.49 0 0 1 2.1 1.685c.248.381.439.797.566 1.234.064.218.11.441.136.667.018.113.026.227.026.342.006.114.019.209.015.427v13.509l-.757.004z" fill="#59595C" fill-rule="nonzero"/><path fill="#59595C" fill-rule="nonzero" d="M778.737 682.897h1.798v8.081h-1.798z"/><path d="M798.508 745.291a10.25 10.25 0 0 1-3.837-4.829 9.766 9.766 0 0 1-.651-3.055c-.035-.581-.024-.91-.025-1.287v-28.144h5.741v28.144c0 .374 0 .8.017.964.018.456.113.905.281 1.329.33.858.915 1.594 1.675 2.111l-3.201 4.767z" fill="#FFF" fill-rule="nonzero"/><path d="M801.709 740.524a4.511 4.511 0 0 1-1.675-2.111 4.038 4.038 0 0 1-.281-1.329c-.019-.168-.018-.59-.017-.964v-28.144h.761v28.848l.006.074.01.143c.013.377.092.75.232 1.1a3.759 3.759 0 0 0 1.388 1.752l-.424.631zM798.084 745.922a11.006 11.006 0 0 1-4.124-5.189 10.544 10.544 0 0 1-.7-3.283c-.037-.636-.024-.952-.026-1.33v-28.144h.761v28.144c0 .377-.01.706.025 1.287a9.766 9.766 0 0 0 .651 3.055 10.25 10.25 0 0 0 3.837 4.829l-.424.631z" fill="#59595C" fill-rule="nonzero"/><path fill="#59595C" fill-rule="nonzero" d="M792.825 707.976h8.081v1.798h-8.081z"/><path d="M835.887 747.017h-31.521c-.155 0-.459-.01-.71-.023a6.351 6.351 0 0 1-.778-.067 9.85 9.85 0 0 1-1.536-.317 10.611 10.611 0 0 1-2.834-1.319l3.2-4.767c.382.248.797.44 1.233.572.218.064.441.11.667.136.113.02.227.03.342.029.124 0 .194.019.415.015h31.521l.001 5.741z" fill="#FFF" fill-rule="nonzero"/><path d="M835.887 741.276h-31.521c-.221 0-.291-.011-.415-.015-.115 0-.23-.01-.342-.029a4.045 4.045 0 0 1-.667-.136 4.83 4.83 0 0 1-1.233-.572l.424-.631c.317.203.66.362 1.021.471a3.2 3.2 0 0 0 .552.113c.094.017.189.025.284.023.125.012.25.017.376.015h31.521v.761zM835.887 747.779h-31.521c-.146 0-.481-.011-.749-.024a7.124 7.124 0 0 1-.836-.073c-.559-.07-1.11-.184-1.651-.341a11.313 11.313 0 0 1-3.046-1.419l.424-.631c.874.577 1.83 1.022 2.834 1.319a9.85 9.85 0 0 0 1.536.317c.258.038.518.06.778.067.251.013.555.028.71.023h31.521v.762z" fill="#59595C" fill-rule="nonzero"/><path d="M797.856 746.262c.777.516 1.613.936 2.491 1.251l2.731-7.606a3.411 3.411 0 0 1-.717-.354l-4.505 6.709z" fill="#59595C" fill-rule="nonzero"/><path fill="#FFF" fill-rule="nonzero" d="M835.887 741.276h36.024v5.741h-36.024z"/><path fill="#59595C" fill-rule="nonzero" d="M835.887 740.515h36.024v1h-36.024zM835.887 747.017h36.024v1h-36.024z"/><path fill="#59595C" fill-rule="nonzero" d="M835.887 740.106h1.798v8.081h-1.798z"/><path fill="#FFF" fill-rule="nonzero" d="M871.911 741.276h36.024v5.741h-36.024z"/><path fill="#59595C" fill-rule="nonzero" d="M871.911 740.515h36.024v1h-36.024zM871.911 747.017h36.024v1h-36.024z"/><path fill="#59595C" fill-rule="nonzero" d="M871.911 740.106h1.798v8.081h-1.798z"/><path d="M942.358 736.531v.281l-.015.384c-.015.26-.019.52-.052.779-.061.52-.161 1.034-.3 1.539a10.194 10.194 0 0 1-6.038 6.771c-.973.39-2 .627-3.046.7l-.768.034h-24.2v-5.741h24.2l.356-.019c.454-.03.901-.131 1.324-.3a4.462 4.462 0 0 0 2.08-1.713c.25-.381.436-.8.553-1.24.06-.22.105-.442.132-.668.017-.113.01-.229.021-.343l.011-.179v-.281l5.742-.004z" fill="#FFF" fill-rule="nonzero"/><path d="M936.617 736.531v.281l-.011.179c-.011.114 0 .23-.021.343a4.568 4.568 0 0 1-.132.668c-.117.44-.303.859-.553 1.24a4.462 4.462 0 0 1-2.08 1.713c-.423.169-.87.27-1.324.3l-.356.019h-24.2v-.761h24.2l.3-.018a3.531 3.531 0 0 0 1.1-.249 3.7 3.7 0 0 0 1.725-1.42c.206-.315.36-.662.457-1.026a3.95 3.95 0 0 0 .11-.553c.015-.093.006-.19.016-.285l.011-.152v-.281l.758.002z" fill="#59595C" fill-rule="nonzero"/><path d="M943.119 736.531v.281l-.015.411c-.016.279-.021.559-.057.837a11.108 11.108 0 0 1-.321 1.654 10.755 10.755 0 0 1-1.371 3.068 10.966 10.966 0 0 1-5.118 4.21c-1.046.419-2.15.672-3.274.75l-.823.037h-24.2v-.762h24.2l.768-.034a10.041 10.041 0 0 0 3.046-.7 10.194 10.194 0 0 0 6.338-8.31c.033-.259.037-.519.052-.779l.015-.384v-.281l.76.002z" fill="#59595C" fill-rule="nonzero"/><path fill="#59595C" fill-rule="nonzero" d="M907.936 740.106h1.798v8.081h-1.798z"/><path fill="#FFF" fill-rule="nonzero" d="M936.617 700.506h5.741v36.024h-5.741z"/><path fill="#59595C" fill-rule="nonzero" d="M935.856 700.506h1v36.024h-1zM942.358 700.506h1v36.024h-1z"/><path fill="#59595C" fill-rule="nonzero" d="M935.447 734.733h8.081v1.798h-8.081z"/><path fill="#FFF" fill-rule="nonzero" d="M936.617 664.482h5.741v36.024h-5.741z"/><path fill="#59595C" fill-rule="nonzero" d="M935.856 664.482h1v36.024h-1zM942.358 664.482h1v36.024h-1z"/><path fill="#59595C" fill-rule="nonzero" d="M935.447 698.708h8.081v1.798h-8.081z"/><path fill="#FFF" fill-rule="nonzero" d="M936.617 628.458h5.741v36.024h-5.741z"/><path fill="#59595C" fill-rule="nonzero" d="M935.856 628.458h1v36.024h-1zM942.358 628.458h1v36.024h-1z"/><path fill="#59595C" fill-rule="nonzero" d="M935.447 662.684h8.081v1.798h-8.081z"/><path d="M114.506 666.321a8.74 8.74 0 0 1-3.532-5.45 9.561 9.561 0 0 1-.163-1.65v-30.144h5.741v30.128c.006.19.025.38.057.568.15.752.584 1.417 1.21 1.859l-3.313 4.689z" fill="#6DC1D2" fill-rule="nonzero"/><path d="M117.819 661.632a2.994 2.994 0 0 1-1.21-1.859 4.092 4.092 0 0 1-.057-.568v-30.128h.761V659.2c.006.142.02.284.043.424.112.56.434 1.054.9 1.383l-.437.625zM114.066 666.942a9.5 9.5 0 0 1-3.839-5.925 10.338 10.338 0 0 1-.177-1.794v-30.146h.761v30.144c.006.554.061 1.106.163 1.65a8.74 8.74 0 0 0 3.532 5.45l-.44.621z" fill="#59595C" fill-rule="nonzero"/><path fill="#59595C" fill-rule="nonzero" d="M109.64 629.077h8.081v1.783h-8.081z"/><path d="M151.655 667.921h-32.089l-.4-.015a8.691 8.691 0 0 1-4.662-1.585l3.313-4.689a2.952 2.952 0 0 0 1.588.537l.159.01h32.089l.002 5.742z" fill="#6DC1D2" fill-rule="nonzero"/><path d="M151.655 662.179h-32.089l-.159-.01a2.952 2.952 0 0 1-1.588-.537l.439-.622a2.166 2.166 0 0 0 1.181.399l.127.009h32.089v.761zM151.655 668.682h-32.089l-.43-.016a9.449 9.449 0 0 1-5.07-1.724l.44-.621a8.691 8.691 0 0 0 4.662 1.585l.4.015h32.089l-.002.761z" fill="#59595C" fill-rule="nonzero"/><path d="M113.831 667.276c.824.58 1.73 1.033 2.688 1.344l2.462-7.7a2.059 2.059 0 0 1-.487-.245l-4.663 6.601z" fill="#59595C" fill-rule="nonzero"/><path fill="#6DC1D2" fill-rule="nonzero" d="M151.655 662.179h35.716v5.741h-35.716z"/><path fill="#59595C" fill-rule="nonzero" d="M151.655 661.418h35.716v1h-35.716zM151.655 667.921h35.716v1h-35.716z"/><path fill="#59595C" fill-rule="nonzero" d="M151.655 661.01h1.783v8.081h-1.783z"/><path fill="#6DC1D2" fill-rule="nonzero" d="M187.371 662.179h35.716v5.741h-35.716z"/><path fill="#59595C" fill-rule="nonzero" d="M187.371 661.418h35.716v1h-35.716zM187.371 667.921h35.716v1h-35.716z"/><path fill="#59595C" fill-rule="nonzero" d="M187.371 661.01h1.783v8.081h-1.783z"/><path fill="#6DC1D2" fill-rule="nonzero" d="M223.087 662.179h35.716v5.741h-35.716z"/><path fill="#59595C" fill-rule="nonzero" d="M223.087 661.418h35.716v1h-35.716zM223.087 667.921h35.716v1h-35.716z"/><path fill="#59595C" fill-rule="nonzero" d="M223.087 661.01h1.783v8.081h-1.783z"/><path fill="#6DC1D2" fill-rule="nonzero" d="M258.803 662.179h35.716v5.741h-35.716z"/><path fill="#59595C" fill-rule="nonzero" d="M258.803 661.418h35.716v1h-35.716zM258.803 667.921h35.716v1h-35.716z"/><path fill="#59595C" fill-rule="nonzero" d="M258.803 661.01h1.783v8.081h-1.783z"/><path fill="#6DC1D2" fill-rule="nonzero" d="M294.519 662.179h35.716v5.741h-35.716z"/><path fill="#59595C" fill-rule="nonzero" d="M294.519 661.418h35.716v1h-35.716zM294.519 667.921h35.716v1h-35.716z"/><path fill="#59595C" fill-rule="nonzero" d="M294.519 661.01h1.783v8.081h-1.783z"/><path fill="#6DC1D2" fill-rule="nonzero" d="M330.235 662.179h35.716v5.741h-35.716z"/><path fill="#59595C" fill-rule="nonzero" d="M330.235 661.418h35.716v1h-35.716zM330.235 667.921h35.716v1h-35.716z"/><path fill="#59595C" fill-rule="nonzero" d="M330.235 661.01h1.783v8.081h-1.783z"/><path fill="#6DC1D2" fill-rule="nonzero" d="M365.951 662.179h35.716v5.741h-35.716z"/><path fill="#59595C" fill-rule="nonzero" d="M365.951 661.418h35.716v1h-35.716zM365.951 667.921h35.716v1h-35.716z"/><path fill="#59595C" fill-rule="nonzero" d="M365.951 661.01h1.783v8.081h-1.783z"/><path fill="#6DC1D2" fill-rule="nonzero" d="M401.667 662.179h35.716v5.741h-35.716z"/><path fill="#59595C" fill-rule="nonzero" d="M401.667 661.418h35.716v1h-35.716zM401.667 667.921h35.716v1h-35.716z"/><path fill="#59595C" fill-rule="nonzero" d="M401.667 661.01h1.783v8.081h-1.783z"/><path fill="#6DC1D2" fill-rule="nonzero" d="M437.383 662.179h35.716v5.741h-35.716z"/><path fill="#59595C" fill-rule="nonzero" d="M437.383 661.418h35.716v1h-35.716zM437.383 667.921h35.716v1h-35.716z"/><path fill="#59595C" fill-rule="nonzero" d="M437.383 661.01h1.783v8.081h-1.783z"/><path fill="#6DC1D2" fill-rule="nonzero" d="M473.099 662.179h35.716v5.741h-35.716z"/><path fill="#59595C" fill-rule="nonzero" d="M473.099 661.418h35.716v1h-35.716zM473.099 667.921h35.716v1h-35.716z"/><path fill="#59595C" fill-rule="nonzero" d="M473.099 661.01h1.783v8.081h-1.783z"/><path fill="#6DC1D2" fill-rule="nonzero" d="M508.815 662.179h35.716v5.741h-35.716z"/><path fill="#59595C" fill-rule="nonzero" d="M508.815 661.418h35.716v1h-35.716zM508.815 667.921h35.716v1h-35.716z"/><path fill="#59595C" fill-rule="nonzero" d="M508.815 661.01h1.783v8.081h-1.783z"/><path fill="#6DC1D2" fill-rule="nonzero" d="M544.531 662.179h35.716v5.741h-35.716z"/><path fill="#59595C" fill-rule="nonzero" d="M544.531 661.418h35.716v1h-35.716zM544.531 667.921h35.716v1h-35.716z"/><path fill="#59595C" fill-rule="nonzero" d="M544.531 661.01h1.783v8.081h-1.783z"/><path fill="#6DC1D2" fill-rule="nonzero" d="M580.247 662.179h35.716v5.741h-35.716z"/><path fill="#59595C" fill-rule="nonzero" d="M580.247 661.418h35.716v1h-35.716zM580.247 667.921h35.716v1h-35.716z"/><path fill="#59595C" fill-rule="nonzero" d="M580.247 661.01h1.783v8.081h-1.783z"/><path fill="#6DC1D2" fill-rule="nonzero" d="M615.963 662.179h35.716v5.741h-35.716z"/><path fill="#59595C" fill-rule="nonzero" d="M615.963 661.418h35.716v1h-35.716zM615.963 667.921h35.716v1h-35.716z"/><path fill="#59595C" fill-rule="nonzero" d="M615.963 661.01h1.783v8.081h-1.783z"/><path fill="#6DC1D2" fill-rule="nonzero" d="M651.679 662.179h35.716v5.741h-35.716z"/><path fill="#59595C" fill-rule="nonzero" d="M651.679 661.418h35.716v1h-35.716zM651.679 667.921h35.716v1h-35.716z"/><path fill="#59595C" fill-rule="nonzero" d="M651.679 661.01h1.783v8.081h-1.783z"/><path fill="#6DC1D2" fill-rule="nonzero" d="M687.395 662.179h35.716v5.741h-35.716z"/><path fill="#59595C" fill-rule="nonzero" d="M687.395 661.418h35.716v1h-35.716zM687.395 667.921h35.716v1h-35.716z"/><path fill="#59595C" fill-rule="nonzero" d="M687.395 661.01h1.783v8.081h-1.783z"/><path fill="#6DC1D2" fill-rule="nonzero" d="M723.111 662.179h35.716v5.741h-35.716z"/><path fill="#59595C" fill-rule="nonzero" d="M723.111 661.418h35.716v1h-35.716zM723.111 667.921h35.716v1h-35.716z"/><path fill="#59595C" fill-rule="nonzero" d="M723.111 661.01h1.783v8.081h-1.783z"/><path fill="#6DC1D2" fill-rule="nonzero" d="M758.827 662.179h35.716v5.741h-35.716z"/><path fill="#59595C" fill-rule="nonzero" d="M758.827 661.418h35.716v1h-35.716zM758.827 667.921h35.716v1h-35.716z"/><path fill="#59595C" fill-rule="nonzero" d="M758.827 661.01h1.783v8.081h-1.783z"/><path fill="#6DC1D2" fill-rule="nonzero" d="M794.544 662.179h35.716v5.741h-35.716z"/><path fill="#59595C" fill-rule="nonzero" d="M794.544 661.418h35.716v1h-35.716zM794.544 667.921h35.716v1h-35.716z"/><path fill="#59595C" fill-rule="nonzero" d="M794.544 661.01h1.783v8.081h-1.783z"/><path fill="#6DC1D2" fill-rule="nonzero" d="M830.259 662.179h35.716v5.741h-35.716z"/><path fill="#59595C" fill-rule="nonzero" d="M830.259 661.418h35.716v1h-35.716zM830.259 667.921h35.716v1h-35.716z"/><path fill="#59595C" fill-rule="nonzero" d="M830.259 661.01h1.783v8.081h-1.783z"/><path fill="#6DC1D2" fill-rule="nonzero" d="M865.976 662.179h35.716v5.741h-35.716z"/><path fill="#59595C" fill-rule="nonzero" d="M865.976 661.418h35.716v1h-35.716zM865.976 667.921h35.716v1h-35.716z"/><path fill="#59595C" fill-rule="nonzero" d="M865.976 661.01h1.783v8.081h-1.783z"/><path fill="#6DC1D2" fill-rule="nonzero" d="M901.692 662.179h35.716v5.741h-35.716z"/><path fill="#59595C" fill-rule="nonzero" d="M901.692 661.418h35.716v1h-35.716zM901.692 667.921h35.716v1h-35.716z"/><path fill="#59595C" fill-rule="nonzero" d="M901.692 661.01h1.783v8.081h-1.783z"/><path fill="#6DC1D2" fill-rule="nonzero" d="M937.408 662.179h35.716v5.741h-35.716z"/><path fill="#59595C" fill-rule="nonzero" d="M937.408 661.418h35.716v1h-35.716zM937.408 667.921h35.716v1h-35.716z"/><path fill="#59595C" fill-rule="nonzero" d="M937.408 661.01h1.783v8.081h-1.783z"/><path fill="#6DC1D2" fill-rule="nonzero" d="M973.124 662.179h35.716v5.741h-35.716z"/><path fill="#59595C" fill-rule="nonzero" d="M973.124 661.418h35.716v1h-35.716zM973.124 667.921h35.716v1h-35.716z"/><path fill="#59595C" fill-rule="nonzero" d="M973.124 661.01h1.783v8.081h-1.783z"/><path d="M1047.8 666.321a8.744 8.744 0 0 0 3.532-5.45 9.663 9.663 0 0 0 .163-1.65v-30.144h-5.741v30.128c-.005.19-.024.38-.056.568a3 3 0 0 1-1.211 1.859l3.313 4.689z" fill="#6DC1D2" fill-rule="nonzero"/><path d="M1044.486 661.632a3 3 0 0 0 1.211-1.859c.032-.188.05-.378.056-.568v-30.128h-.761V659.2c-.006.142-.02.284-.043.424a2.227 2.227 0 0 1-.9 1.383l.437.625zM1048.239 666.942a9.5 9.5 0 0 0 3.84-5.925c.111-.592.17-1.192.177-1.794v-30.146h-.762v30.144a9.663 9.663 0 0 1-.163 1.65 8.744 8.744 0 0 1-3.532 5.45l.44.621z" fill="#59595C" fill-rule="nonzero"/><path fill="#59595C" fill-rule="nonzero" d="M1044.584 629.077h8.081v1.783h-8.081z"/><path d="M1010.651 667.921h32.088l.4-.015a8.692 8.692 0 0 0 4.662-1.585l-3.314-4.689a2.947 2.947 0 0 1-1.588.537l-.159.01h-32.088l-.001 5.742z" fill="#6DC1D2" fill-rule="nonzero"/><path d="M1010.651 662.179h32.088l.159-.01a2.947 2.947 0 0 0 1.588-.537l-.439-.622a2.17 2.17 0 0 1-1.181.399l-.127.009h-32.088v.761zM1010.651 668.682h32.088l.43-.016a9.444 9.444 0 0 0 5.07-1.724l-.439-.621a8.692 8.692 0 0 1-4.662 1.585l-.4.015h-32.088l.001.761z" fill="#59595C" fill-rule="nonzero"/><path d="M1048.475 667.276a10.11 10.11 0 0 1-2.689 1.344l-2.461-7.7c.172-.06.336-.142.486-.245l4.664 6.601z" fill="#59595C" fill-rule="nonzero"/><path fill="#6DC1D2" fill-rule="nonzero" d="M974.935 662.179h35.716v5.741h-35.716z"/><path fill="#59595C" fill-rule="nonzero" d="M974.935 661.418h35.716v1h-35.716zM974.935 667.921h35.716v1h-35.716z"/><path fill="#59595C" fill-rule="nonzero" d="M1008.868 661.01h1.783v8.081h-1.783z"/><path fill="#6DC1D2" fill-rule="nonzero" d="M939.219 662.179h35.716v5.741h-35.716z"/><path fill="#59595C" fill-rule="nonzero" d="M939.219 661.418h35.716v1h-35.716zM939.219 667.921h35.716v1h-35.716z"/><path fill="#59595C" fill-rule="nonzero" d="M973.152 661.01h1.783v8.081h-1.783z"/><path fill="#6DC1D2" fill-rule="nonzero" d="M903.503 662.179h35.716v5.741h-35.716z"/><path fill="#59595C" fill-rule="nonzero" d="M903.503 661.418h35.716v1h-35.716zM903.503 667.921h35.716v1h-35.716z"/><path fill="#59595C" fill-rule="nonzero" d="M937.436 661.01h1.783v8.081h-1.783z"/><path fill="#6DC1D2" fill-rule="nonzero" d="M867.786 662.179h35.716v5.741h-35.716z"/><path fill="#59595C" fill-rule="nonzero" d="M867.786 661.418h35.716v1h-35.716zM867.786 667.921h35.716v1h-35.716z"/><path fill="#59595C" fill-rule="nonzero" d="M901.72 661.01h1.783v8.081h-1.783z"/><path fill="#6DC1D2" fill-rule="nonzero" d="M832.07 662.179h35.716v5.741H832.07z"/><path fill="#59595C" fill-rule="nonzero" d="M832.07 661.418h35.716v1H832.07zM832.07 667.921h35.716v1H832.07z"/><path fill="#59595C" fill-rule="nonzero" d="M866.004 661.01h1.783v8.081h-1.783z"/><path fill="#6DC1D2" fill-rule="nonzero" d="M796.354 662.179h35.716v5.741h-35.716z"/><path fill="#59595C" fill-rule="nonzero" d="M796.354 661.418h35.716v1h-35.716zM796.354 667.921h35.716v1h-35.716z"/><path fill="#59595C" fill-rule="nonzero" d="M830.288 661.01h1.783v8.081h-1.783z"/><path fill="#6DC1D2" fill-rule="nonzero" d="M760.638 662.179h35.716v5.741h-35.716z"/><path fill="#59595C" fill-rule="nonzero" d="M760.638 661.418h35.716v1h-35.716zM760.638 667.921h35.716v1h-35.716z"/><path fill="#59595C" fill-rule="nonzero" d="M794.572 661.01h1.783v8.081h-1.783z"/><path fill="#6DC1D2" fill-rule="nonzero" d="M724.922 662.179h35.716v5.741h-35.716z"/><path fill="#59595C" fill-rule="nonzero" d="M724.922 661.418h35.716v1h-35.716zM724.922 667.921h35.716v1h-35.716z"/><path fill="#59595C" fill-rule="nonzero" d="M758.856 661.01h1.783v8.081h-1.783z"/><path fill="#6DC1D2" fill-rule="nonzero" d="M689.206 662.179h35.716v5.741h-35.716z"/><path fill="#59595C" fill-rule="nonzero" d="M689.206 661.418h35.716v1h-35.716zM689.206 667.921h35.716v1h-35.716z"/><path fill="#59595C" fill-rule="nonzero" d="M723.14 661.01h1.783v8.081h-1.783z"/><path fill="#6DC1D2" fill-rule="nonzero" d="M653.49 662.179h35.716v5.741H653.49z"/><path fill="#59595C" fill-rule="nonzero" d="M653.49 661.418h35.716v1H653.49zM653.49 667.921h35.716v1H653.49z"/><path fill="#59595C" fill-rule="nonzero" d="M687.424 661.01h1.783v8.081h-1.783z"/><path fill="#6DC1D2" fill-rule="nonzero" d="M617.774 662.179h35.716v5.741h-35.716z"/><path fill="#59595C" fill-rule="nonzero" d="M617.774 661.418h35.716v1h-35.716zM617.774 667.921h35.716v1h-35.716z"/><path fill="#59595C" fill-rule="nonzero" d="M651.708 661.01h1.783v8.081h-1.783z"/><path fill="#6DC1D2" fill-rule="nonzero" d="M582.058 662.179h35.716v5.741h-35.716z"/><path fill="#59595C" fill-rule="nonzero" d="M582.058 661.418h35.716v1h-35.716zM582.058 667.921h35.716v1h-35.716z"/><path fill="#59595C" fill-rule="nonzero" d="M615.991 661.01h1.783v8.081h-1.783z"/><path fill="#6DC1D2" fill-rule="nonzero" d="M546.342 662.179h35.716v5.741h-35.716z"/><path fill="#59595C" fill-rule="nonzero" d="M546.342 661.418h35.716v1h-35.716zM546.342 667.921h35.716v1h-35.716z"/><path fill="#59595C" fill-rule="nonzero" d="M580.275 661.01h1.783v8.081h-1.783z"/><path fill="#6DC1D2" fill-rule="nonzero" d="M510.626 662.179h35.716v5.741h-35.716z"/><path fill="#59595C" fill-rule="nonzero" d="M510.626 661.418h35.716v1h-35.716zM510.626 667.921h35.716v1h-35.716z"/><path fill="#59595C" fill-rule="nonzero" d="M544.559 661.01h1.783v8.081h-1.783z"/><path fill="#6DC1D2" fill-rule="nonzero" d="M474.91 662.179h35.716v5.741H474.91z"/><path fill="#59595C" fill-rule="nonzero" d="M474.91 661.418h35.716v1H474.91zM474.91 667.921h35.716v1H474.91z"/><path fill="#59595C" fill-rule="nonzero" d="M508.843 661.01h1.783v8.081h-1.783z"/><path fill="#6DC1D2" fill-rule="nonzero" d="M439.194 662.179h35.716v5.741h-35.716z"/><path fill="#59595C" fill-rule="nonzero" d="M439.194 661.418h35.716v1h-35.716zM439.194 667.921h35.716v1h-35.716z"/><path fill="#59595C" fill-rule="nonzero" d="M473.127 661.01h1.783v8.081h-1.783z"/><path fill="#6DC1D2" fill-rule="nonzero" d="M403.478 662.179h35.716v5.741h-35.716z"/><path fill="#59595C" fill-rule="nonzero" d="M403.478 661.418h35.716v1h-35.716zM403.478 667.921h35.716v1h-35.716z"/><path fill="#59595C" fill-rule="nonzero" d="M437.411 661.01h1.783v8.081h-1.783z"/><path fill="#6DC1D2" fill-rule="nonzero" d="M367.762 662.179h35.716v5.741h-35.716z"/><path fill="#59595C" fill-rule="nonzero" d="M367.762 661.418h35.716v1h-35.716zM367.762 667.921h35.716v1h-35.716z"/><path fill="#59595C" fill-rule="nonzero" d="M401.695 661.01h1.783v8.081h-1.783z"/><path fill="#6DC1D2" fill-rule="nonzero" d="M332.046 662.179h35.716v5.741h-35.716z"/><path fill="#59595C" fill-rule="nonzero" d="M332.046 661.418h35.716v1h-35.716zM332.046 667.921h35.716v1h-35.716z"/><path fill="#59595C" fill-rule="nonzero" d="M365.979 661.01h1.783v8.081h-1.783z"/><path fill="#6DC1D2" fill-rule="nonzero" d="M296.33 662.179h35.716v5.741H296.33z"/><path fill="#59595C" fill-rule="nonzero" d="M296.33 661.418h35.716v1H296.33zM296.33 667.921h35.716v1H296.33z"/><path fill="#59595C" fill-rule="nonzero" d="M330.263 661.01h1.783v8.081h-1.783z"/><path fill="#6DC1D2" fill-rule="nonzero" d="M260.614 662.179h35.716v5.741h-35.716z"/><path fill="#59595C" fill-rule="nonzero" d="M260.614 661.418h35.716v1h-35.716zM260.614 667.921h35.716v1h-35.716z"/><path fill="#59595C" fill-rule="nonzero" d="M294.547 661.01h1.783v8.081h-1.783z"/><path fill="#6DC1D2" fill-rule="nonzero" d="M224.898 662.179h35.716v5.741h-35.716z"/><path fill="#59595C" fill-rule="nonzero" d="M224.898 661.418h35.716v1h-35.716zM224.898 667.921h35.716v1h-35.716z"/><path fill="#59595C" fill-rule="nonzero" d="M258.831 661.01h1.783v8.081h-1.783z"/><path fill="#6DC1D2" fill-rule="nonzero" d="M189.182 662.179h35.716v5.741h-35.716z"/><path fill="#59595C" fill-rule="nonzero" d="M189.182 661.418h35.716v1h-35.716zM189.182 667.921h35.716v1h-35.716z"/><path fill="#59595C" fill-rule="nonzero" d="M223.115 661.01h1.783v8.081h-1.783z"/><path fill="#6DC1D2" fill-rule="nonzero" d="M153.466 662.179h35.716v5.741h-35.716z"/><path fill="#59595C" fill-rule="nonzero" d="M153.466 661.418h35.716v1h-35.716zM153.466 667.921h35.716v1h-35.716z"/><path fill="#59595C" fill-rule="nonzero" d="M187.399 661.01h1.783v8.081h-1.783z"/><path fill="#EE4036" fill-rule="nonzero" d="M484.703 629.36h5.741v35.316h-5.741z"/><path fill="#59595C" fill-rule="nonzero" d="M490.444 629.36h1v35.316h-1zM483.942 629.36h1v35.316h-1z"/><path fill="#59595C" fill-rule="nonzero" d="M483.533 629.36h8.081v1.763h-8.081z"/><path fill="#EE4036" fill-rule="nonzero" d="M484.703 664.675h5.741v35.316h-5.741z"/><path fill="#59595C" fill-rule="nonzero" d="M490.444 664.675h1v35.316h-1zM483.942 664.675h1v35.316h-1z"/><path fill="#59595C" fill-rule="nonzero" d="M483.533 664.675h8.081v1.763h-8.081z"/><path d="M509.96 718.306h-16.565a9.65 9.65 0 0 1-1.632-.161 8.727 8.727 0 0 1-6.79-6.433 11.079 11.079 0 0 1-.27-2.891v-8.829h5.741v8.829c-.035.5-.001 1 .1 1.491a2.994 2.994 0 0 0 2.314 2.196c.185.032.373.05.561.056h16.541v5.742z" fill="#EE4036" fill-rule="nonzero"/><path d="M509.96 712.564h-16.544a3.993 3.993 0 0 1-.561-.056 2.994 2.994 0 0 1-2.314-2.196 5.463 5.463 0 0 1-.1-1.491v-8.829h.761v8.829c-.036.437-.01.876.074 1.306a2.232 2.232 0 0 0 1.72 1.634 3.2 3.2 0 0 0 .42.042h16.544v.761z" fill="#59595C" fill-rule="nonzero"/><path d="M509.96 719.067h-16.567a10.389 10.389 0 0 1-1.774-.175 9.484 9.484 0 0 1-7.384-6.994 8.607 8.607 0 0 1-.27-1.764c-.039-.7-.018-.906-.023-1.313v-8.829h.761v8.829c-.037.971.054 1.943.27 2.891a8.727 8.727 0 0 0 6.79 6.433 9.65 9.65 0 0 0 1.632.161h16.565v.761z" fill="#59595C" fill-rule="nonzero"/><path fill="#59595C" fill-rule="nonzero" d="M483.533 699.991h8.081v1.763h-8.081z"/><path fill="#EE4036" fill-rule="nonzero" d="M509.96 712.564h35.316v5.741H509.96z"/><path fill="#59595C" fill-rule="nonzero" d="M509.96 711.803h35.316v1H509.96zM509.96 718.306h35.316v1H509.96z"/><path fill="#59595C" fill-rule="nonzero" d="M509.96 711.394h1.763v8.081h-1.763z"/><path fill="#EE4036" fill-rule="nonzero" d="M545.276 712.564h35.316v5.741h-35.316z"/><path fill="#59595C" fill-rule="nonzero" d="M545.276 711.803h35.316v1h-35.316zM545.276 718.306h35.316v1h-35.316z"/><path fill="#59595C" fill-rule="nonzero" d="M545.276 711.394h1.763v8.081h-1.763z"/><path fill="#EE4036" fill-rule="nonzero" d="M580.591 712.564h35.316v5.741h-35.316z"/><path fill="#59595C" fill-rule="nonzero" d="M580.591 711.803h35.316v1h-35.316zM580.591 718.306h35.316v1h-35.316z"/><path fill="#59595C" fill-rule="nonzero" d="M580.591 711.394h1.763v8.081h-1.763z"/><path fill="#EE4036" fill-rule="nonzero" d="M615.907 712.564h35.316v5.741h-35.316z"/><path fill="#59595C" fill-rule="nonzero" d="M615.907 711.803h35.316v1h-35.316zM615.907 718.306h35.316v1h-35.316z"/><path fill="#59595C" fill-rule="nonzero" d="M615.907 711.394h1.763v8.081h-1.763z"/><path fill="#EE4036" fill-rule="nonzero" d="M651.223 712.564h35.316v5.741h-35.316z"/><path fill="#59595C" fill-rule="nonzero" d="M651.223 711.803h35.316v1h-35.316zM651.223 718.306h35.316v1h-35.316z"/><path fill="#59595C" fill-rule="nonzero" d="M651.223 711.394h1.763v8.081h-1.763z"/><path fill="#EE4036" fill-rule="nonzero" d="M686.538 712.564h35.316v5.741h-35.316z"/><path fill="#59595C" fill-rule="nonzero" d="M686.538 711.803h35.316v1h-35.316zM686.538 718.306h35.316v1h-35.316z"/><path fill="#59595C" fill-rule="nonzero" d="M686.538 711.394h1.763v8.081h-1.763z"/><path fill="#EE4036" fill-rule="nonzero" d="M721.854 712.564h35.316v5.741h-35.316z"/><path fill="#59595C" fill-rule="nonzero" d="M721.854 711.803h35.316v1h-35.316zM721.854 718.306h35.316v1h-35.316z"/><path fill="#59595C" fill-rule="nonzero" d="M721.854 711.394h1.763v8.081h-1.763z"/><path fill="#EE4036" fill-rule="nonzero" d="M757.17 712.564h35.316v5.741H757.17z"/><path fill="#59595C" fill-rule="nonzero" d="M757.17 711.803h35.316v1H757.17zM757.17 718.306h35.316v1H757.17z"/><path fill="#59595C" fill-rule="nonzero" d="M757.17 711.394h1.763v8.081h-1.763z"/><path fill="#EE4036" fill-rule="nonzero" d="M792.486 712.564h35.316v5.741h-35.316z"/><path fill="#59595C" fill-rule="nonzero" d="M792.486 711.803h35.316v1h-35.316zM792.486 718.306h35.316v1h-35.316z"/><path fill="#59595C" fill-rule="nonzero" d="M792.486 711.394h1.763v8.081h-1.763z"/><path fill="#EE4036" fill-rule="nonzero" d="M827.801 712.564h35.316v5.741h-35.316z"/><path fill="#59595C" fill-rule="nonzero" d="M827.801 711.803h35.316v1h-35.316zM827.801 718.306h35.316v1h-35.316z"/><path fill="#59595C" fill-rule="nonzero" d="M827.801 711.394h1.763v8.081h-1.763z"/><path d="M882.553 694.17V709.64a8.716 8.716 0 0 1-8.241 8.645l-.41.018h-10.785v-5.742h10.736l.142-.01c.374-.02.74-.11 1.08-.266a3.009 3.009 0 0 0 1.517-1.589 2.9 2.9 0 0 0 .217-1.1V694.17h5.744z" fill="#EE4036" fill-rule="nonzero"/><path d="M876.812 694.17v15.432a2.9 2.9 0 0 1-.217 1.1 3.009 3.009 0 0 1-1.517 1.589c-.34.156-.706.247-1.08.266l-.142.01h-10.739v-.767h10.73l.106-.009a2.17 2.17 0 0 0 .8-.2c.513-.238.917-.66 1.131-1.183.107-.258.162-.535.162-.815V694.17h.766z" fill="#59595C" fill-rule="nonzero"/><path d="M883.315 694.17v15.475a9.474 9.474 0 0 1-8.961 9.4l-.444.019h-10.793v-.761H873.9l.41-.018a8.715 8.715 0 0 0 8.241-8.645V694.17h.764z" fill="#59595C" fill-rule="nonzero"/><path fill="#59595C" fill-rule="nonzero" d="M863.117 711.394h1.763v8.081h-1.763z"/><path fill="#EE4036" fill-rule="nonzero" d="M876.812 658.855h5.741v35.316h-5.741z"/><path fill="#59595C" fill-rule="nonzero" d="M876.051 658.855h1v35.316h-1zM882.553 658.855h1v35.316h-1z"/><path fill="#59595C" fill-rule="nonzero" d="M875.642 692.408h8.081v1.763h-8.081z"/><path d="M904.874 649.086h-19.313l-.3.016a2.983 2.983 0 0 0-2.527 1.949 2.325 2.325 0 0 0-.14.539c-.019.092-.03.186-.031.28 0 .113-.018.137-.014.363v6.622h-5.741v-6.622a12.01 12.01 0 0 1 .026-.74c.013-.273.044-.546.092-.815.082-.544.22-1.077.414-1.592a8.724 8.724 0 0 1 7.411-5.7l.806-.038h19.313l.004 5.738z" fill="#EE4036" fill-rule="nonzero"/><path d="M904.874 643.345h-19.313l-.806.038a8.724 8.724 0 0 0-7.411 5.7 7.835 7.835 0 0 0-.414 1.592c-.048.27-.079.542-.092.815-.014.255-.031.6-.026.74v6.622h-.761v-6.622c-.005-.131.012-.517.027-.789a7 7 0 0 1 .1-.887c.089-.592.24-1.172.45-1.732a9.487 9.487 0 0 1 8.058-6.2l.874-.041h19.313l.001.764z" fill="#59595C" fill-rule="nonzero"/><path d="M904.874 649.848h-19.313c-.1.007-.15.013-.228.012a2.233 2.233 0 0 0-1.879 1.451 1.493 1.493 0 0 0-.1.4.966.966 0 0 0-.024.209c0 .094-.015.076-.011.313v6.622h-.762v-6.622c0-.226.013-.25.014-.363.002-.094.012-.188.031-.28.025-.185.072-.366.14-.539a2.983 2.983 0 0 1 2.527-1.949l.3-.016h19.313l-.008.762z" fill="#59595C" fill-rule="nonzero"/><path fill="#59595C" fill-rule="nonzero" d="M875.642 657.092h8.081v1.763h-8.081z"/><path fill="#EE4036" fill-rule="nonzero" d="M904.874 643.345h35.316v5.741h-35.316z"/><path fill="#59595C" fill-rule="nonzero" d="M904.874 642.584h35.316v1h-35.316zM904.874 649.086h35.316v1h-35.316z"/><path fill="#59595C" fill-rule="nonzero" d="M904.874 642.175h1.763v8.081h-1.763z"/><path fill="#EE4036" fill-rule="nonzero" d="M940.19 643.345h35.316v5.741H940.19z"/><path fill="#59595C" fill-rule="nonzero" d="M940.19 642.584h35.316v1H940.19zM940.19 649.086h35.316v1H940.19z"/><path fill="#59595C" fill-rule="nonzero" d="M940.19 642.175h1.763v8.081h-1.763z"/><path fill="#EE4036" fill-rule="nonzero" d="M975.506 643.345h35.316v5.741h-35.316z"/><path fill="#59595C" fill-rule="nonzero" d="M975.506 642.584h35.316v1h-35.316zM975.506 649.086h35.316v1h-35.316z"/><path fill="#59595C" fill-rule="nonzero" d="M975.506 642.175h1.763v8.081h-1.763z"/><path fill="#EE4036" fill-rule="nonzero" d="M1010.821 643.345h35.316v5.741h-35.316z"/><path fill="#59595C" fill-rule="nonzero" d="M1010.821 642.584h35.316v1h-35.316zM1010.821 649.086h35.316v1h-35.316z"/><path fill="#59595C" fill-rule="nonzero" d="M1010.821 642.175h1.763v8.081h-1.763z"/><path fill="#EE4036" fill-rule="nonzero" d="M1046.137 643.345h35.316v5.741h-35.316z"/><path fill="#59595C" fill-rule="nonzero" d="M1046.137 642.584h35.316v1h-35.316zM1046.137 649.086h35.316v1h-35.316z"/><path fill="#59595C" fill-rule="nonzero" d="M1046.137 642.175h1.763v8.081h-1.763z"/><path d="M1105.9 629.961v9.932l-.005.592c-.012.273-.021.546-.047.818a8.622 8.622 0 0 1-.959 3.133 8.748 8.748 0 0 1-4.881 4.173 8.3 8.3 0 0 1-1.6.384c-.27.043-.543.069-.816.076l-.409.017h-15.729v-5.741h15.724l.142-.011c.094.001.189-.007.281-.026.185-.023.367-.066.542-.129a3 3 0 0 0 1.67-1.427c.177-.33.288-.691.326-1.064l.016-.283c.007-.1 0-.346 0-.512v-9.932h5.745z" fill="#EE4036" fill-rule="nonzero"/><path d="M1100.157 629.961v10.444l-.016.283c-.038.373-.15.734-.326 1.064a3 3 0 0 1-1.67 1.427 2.561 2.561 0 0 1-.542.129 1.311 1.311 0 0 1-.281.026l-.142.011h-15.724v-.761h15.723l.107-.01a.915.915 0 0 0 .21-.019c.137-.019.27-.052.4-.1a2.236 2.236 0 0 0 1.244-1.063 2.1 2.1 0 0 0 .243-.789c0-.071 0-.142.011-.213.011-.071 0-.339 0-.5v-9.932l.763.003z" fill="#59595C" fill-rule="nonzero"/><path d="M1106.66 629.961v9.932l-.005.6c-.012.3-.023.593-.052.888a9.394 9.394 0 0 1-1.042 3.407 9.5 9.5 0 0 1-5.307 4.538 9 9 0 0 1-1.74.417c-.294.047-.59.075-.887.083l-.445.018h-15.729v-.762h15.729l.409-.017c.273-.007.546-.033.816-.076a8.3 8.3 0 0 0 1.6-.384 8.748 8.748 0 0 0 4.881-4.173 8.622 8.622 0 0 0 .959-3.133c.026-.272.035-.545.047-.818l.005-.592v-9.932l.761.004z" fill="#59595C" fill-rule="nonzero"/><path fill="#59595C" fill-rule="nonzero" d="M1081.453 642.175h1.763v8.081h-1.763z"/><path d="M113.352 578.752v-7.888a5.669 5.669 0 0 1 5.67-5.67h.381a5.67 5.67 0 0 1 5.671 5.67" stroke="#FFF" stroke-width="1.5" stroke-linecap="round"/><path d="M0 629.36l1366-.001" stroke="#58595B" stroke-width="1.5" fill="#FFF" fill-rule="nonzero" stroke-linejoin="round"/><circle fill="#FFF" fill-rule="nonzero" cx="125.073" cy="573.018" r="1"/><circle fill="#FFF" fill-rule="nonzero" cx="125.073" cy="575.284" r="1"/><path d="M113.352 576.808v-7.888c0-3.132-2.54-5.67-5.671-5.67h-.381a5.671 5.671 0 0 0-5.671 5.67" stroke="#FFF" stroke-width="1.5" stroke-linecap="round"/><circle fill="#FFF" fill-rule="nonzero" cx="101.629" cy="571.074" r="1"/><circle fill="#FFF" fill-rule="nonzero" cx="101.629" cy="573.34" r="1"/><path d="M1168.691 403.238s6.685-7.512 19.066-7.512M1168.691 403.238s-6.686-7.512-19.067-7.512M1281.269 367.185s6.686-7.512 19.067-7.512M1281.269 367.185s-6.685-7.512-19.066-7.512" stroke="#58595B" stroke-width="1.5" stroke-linecap="round" stroke-linejoin="round"/></g></svg>