<svg xmlns="http://www.w3.org/2000/svg" width="230.434" height="190.029"><defs><style>.b{fill:#5ab6c9}</style></defs><path d="M115.217 0C51.584 0 .001 38.62.001 86.261c0 26.418 15.876 50.046 40.859 65.871-2.991 19.666-6.171 29.843-13 37.3 0 0 20.852 5.97 56.876-19.986a151.824 151.824 0 0 0 30.481 3.078c63.635 0 115.218-38.62 115.218-86.263S178.851 0 115.217 0z" fill="#fff"/><path class="b" d="M42.318 122.972V69.377a1.477 1.477 0 0 1 1.551-1.5h11.442a1.479 1.479 0 0 1 1.553 1.5v23.794a13.278 13.278 0 0 1 12.013-7.115c8.907 0 11.36 5.691 11.36 13.2v23.714a1.479 1.479 0 0 1-1.553 1.5H67.243a1.478 1.478 0 0 1-1.553-1.5v-20.866c0-2.766-1.635-3.558-3.106-3.558a16.076 16.076 0 0 0-5.719 1.346v23.081a1.479 1.479 0 0 1-1.553 1.5H43.87a1.477 1.477 0 0 1-1.552-1.501zM85.303 105.502c0-11.541 6.782-19.761 19.2-19.761 10.133 0 17.244 4.584 17.244 16.362a41.714 41.714 0 0 1-.408 6.165h-21.49c0 4.98 2.941 6.167 9.725 6.167a25.77 25.77 0 0 0 5.474-.554c2.208-.474 3.6-1.107 4.5-1.107.98 0 1.635.713 1.635 2.135v2.292c0 2.135-.329 3.319-.982 3.953-2.533 2.451-8.907 4.11-15.446 4.11-13.405-.001-19.452-8.22-19.452-19.762zm23.616-3.953a21.344 21.344 0 0 0 .163-2.135c0-3.4-1.714-4.741-4.494-4.741-3.27 0-4.821 1.818-4.821 6.876zM127.633 122.972V64.347a1.479 1.479 0 0 1 1.553-1.5h11.44a1.481 1.481 0 0 1 1.555 1.5v58.625a1.479 1.479 0 0 1-1.555 1.5h-11.44a1.478 1.478 0 0 1-1.553-1.5zM148.377 140.047V88.034a1.479 1.479 0 0 1 1.551-1.5h5.476c3.106 0 5.884 1.266 6.948 3.875 1.714-2.057 4.086-4.269 10.46-4.269 8.254 0 15.936 5.3 15.936 19.367s-7.682 19.367-15.936 19.367c-5.884 0-8.335-2.214-9.889-3.8v18.973a1.48 1.48 0 0 1-1.553 1.5h-11.447a1.478 1.478 0 0 1-1.546-1.5zm25.823-34.544c0-6.165-2.206-7.905-6.211-7.905a11.353 11.353 0 0 0-5.066 1.187v13.436a11.327 11.327 0 0 0 5.066 1.187c3.999 0 6.206-1.74 6.206-7.905z"/><g><path class="b" d="M95.15 44.066l-4.259 12.736c-.131.347-.293.566-.651.566h-2.471c-.356 0-.552-.189-.649-.566l-1.822-5.818a30.39 30.39 0 0 1-.781-3.08c0-.253 0-.346-.129-.346s-.129.094-.129.346a30.4 30.4 0 0 1-.781 3.08l-1.822 5.818c-.129.376-.293.566-.649.566h-2.468c-.358 0-.52-.219-.651-.566l-4.259-12.736a4.172 4.172 0 0 1-.259-1.227.545.545 0 0 1 .552-.565h2.634a.7.7 0 0 1 .749.534l2.015 6.92a21 21 0 0 1 .649 2.609c0 .253 0 .346.131.346s.129-.094.129-.346a17.865 17.865 0 0 1 .585-2.609l2.015-6.92a.681.681 0 0 1 .749-.534h1.625a.681.681 0 0 1 .749.534l2.049 6.92a16.775 16.775 0 0 1 .552 2.609c0 .253 0 .346.129.346s.131-.094.131-.346a23.117 23.117 0 0 1 .683-2.609l1.983-6.92a.653.653 0 0 1 .747-.534h2.634a.545.545 0 0 1 .552.565 4.4 4.4 0 0 1-.262 1.227zM109.619 50.482h-9.462c0 2.8 1.527 4.118 4.618 4.118a7.875 7.875 0 0 0 3.186-.691 3.989 3.989 0 0 1 1.137-.378c.358 0 .554.253.554.693v.691a1.456 1.456 0 0 1-.52 1.322 9.738 9.738 0 0 1-5.5 1.446c-5.137 0-7.479-3.27-7.479-7.861s2.537-7.861 7.252-7.861c3.933 0 6.406 2.011 6.406 6.257a11.323 11.323 0 0 1-.192 2.264zm-6.147-5.818c-2.176 0-3.055 1.352-3.25 3.648h5.916c.034-.347.066-.661.066-.944a2.536 2.536 0 0 0-2.732-2.705zM113.584 45.197a.915.915 0 0 1-.683.472h-1.105c-.325 0-.52-.251-.293-.659a9.162 9.162 0 0 0 1.561-3.995 2.29 2.29 0 0 1-1.366-2.045 2.064 2.064 0 0 1 2.113-1.981 2.278 2.278 0 0 1 2.212 2.453c0 2.173-1.334 4.309-2.439 5.755zM125.222 42.214c.912 0 1.92.44 1.92 1.131v2.957a.537.537 0 0 1-.585.565 1.134 1.134 0 0 1-.617-.219 2.85 2.85 0 0 0-1.724-.566 4.842 4.842 0 0 0-2.925 1.1v9.592a.589.589 0 0 1-.619.6h-2.8a.588.588 0 0 1-.617-.6v-13.9a.588.588 0 0 1 .617-.6h1.593a1.65 1.65 0 0 1 1.788 1.571v.221a5.666 5.666 0 0 1 3.969-1.852zM141.545 50.482h-9.467c0 2.8 1.529 4.118 4.618 4.118a7.875 7.875 0 0 0 3.186-.691 4 4 0 0 1 1.139-.378c.356 0 .552.253.552.693v.691a1.456 1.456 0 0 1-.52 1.322 9.73 9.73 0 0 1-5.494 1.446c-5.137 0-7.479-3.27-7.479-7.861s2.537-7.861 7.25-7.861c3.935 0 6.406 2.011 6.406 6.257a11.176 11.176 0 0 1-.191 2.264zm-6.145-5.818c-2.178 0-3.057 1.352-3.252 3.648h5.918c.032-.347.064-.661.064-.944a2.535 2.535 0 0 0-2.73-2.705z"/></g><g><path class="b" d="M77.669 79.239h-2.8a.587.587 0 0 1-.617-.6v-9.15a1.781 1.781 0 0 0-2.017-2.013 9.236 9.236 0 0 0-3.447.755v10.408a.587.587 0 0 1-.617.6h-2.8a.587.587 0 0 1-.617-.6v-21.32a.587.587 0 0 1 .617-.6h2.8a.587.587 0 0 1 .617.6v8.68a6.571 6.571 0 0 1 4.91-2.045c3.122 0 4.584 1.7 4.584 4.938v9.747a.587.587 0 0 1-.613.6zM94.022 72.353H84.56c0 2.8 1.529 4.12 4.618 4.12a7.869 7.869 0 0 0 3.186-.693 3.972 3.972 0 0 1 1.137-.376c.358 0 .554.251.554.691v.693a1.452 1.452 0 0 1-.52 1.32 9.738 9.738 0 0 1-5.5 1.446c-5.137 0-7.477-3.27-7.477-7.861s2.535-7.862 7.25-7.862c3.935 0 6.406 2.013 6.406 6.258a11.3 11.3 0 0 1-.192 2.264zm-6.145-5.818c-2.178 0-3.057 1.352-3.252 3.648h5.918c.032-.347.064-.661.064-.944a2.536 2.536 0 0 0-2.728-2.705zM104.687 64.081c.91 0 1.918.44 1.918 1.133v2.955a.538.538 0 0 1-.583.568 1.137 1.137 0 0 1-.619-.221 2.843 2.843 0 0 0-1.722-.566 4.861 4.861 0 0 0-2.927 1.1v9.592a.587.587 0 0 1-.617.6h-2.8a.587.587 0 0 1-.617-.6v-13.9a.587.587 0 0 1 .617-.6h1.593a1.65 1.65 0 0 1 1.788 1.571v.221a5.67 5.67 0 0 1 3.969-1.853zM121.009 72.353h-9.462c0 2.8 1.527 4.12 4.618 4.12a7.869 7.869 0 0 0 3.189-.696 3.972 3.972 0 0 1 1.137-.376c.358 0 .554.251.554.691v.693a1.452 1.452 0 0 1-.52 1.32 9.738 9.738 0 0 1-5.5 1.446c-5.137 0-7.479-3.27-7.479-7.861s2.537-7.862 7.252-7.862c3.935 0 6.406 2.013 6.406 6.258a11.3 11.3 0 0 1-.195 2.267zm-6.147-5.818c-2.176 0-3.055 1.352-3.25 3.648h5.916c.034-.347.066-.661.066-.944a2.536 2.536 0 0 0-2.732-2.705z"/></g><g><path class="b" d="M149.248 66.723a.589.589 0 0 1-.617-.6v-1.384a.588.588 0 0 1 .617-.6h1.366v-3.051a.588.588 0 0 1 .617-.6h2.8a.589.589 0 0 1 .619.6v3.051h2.34a.589.589 0 0 1 .619.6v1.384a.59.59 0 0 1-.619.6h-2.34v8.837c0 .659.293 1.006.942 1.006a2.511 2.511 0 0 0 .944-.157 3.169 3.169 0 0 1 .683-.189c.227 0 .454.1.454.568v.659a1.379 1.379 0 0 1-.422 1.195 5.346 5.346 0 0 1-3.381.818c-1.822 0-3.252-.976-3.252-2.925v-9.811zM166.579 79.552c-4.552 0-7.609-2.83-7.609-7.861s3.057-7.862 7.609-7.862c4.52 0 7.575 2.83 7.575 7.862s-3.055 7.861-7.575 7.861zm0-12.421c-2.178 0-3.576 1.352-3.576 4.56s1.4 4.56 3.576 4.56c2.145 0 3.544-1.352 3.544-4.56s-1.4-4.561-3.544-4.561z"/></g></svg>