<svg xmlns="http://www.w3.org/2000/svg" xmlns:xlink="http://www.w3.org/1999/xlink" width="109" height="109" viewBox="0 0 109 109"><defs><style>.a{fill:none;}.b{clip-path:url(#a);}.c{fill:#67314d;}.d{clip-path:url(#b);}.e{fill:#3b192c;}.f{fill:#fff;}.g{fill:#d1d2d4;}.h{fill:#3f1b2f;}</style><clipPath id="a"><rect class="a" width="108.777" height="108.843"/></clipPath><clipPath id="b"><path class="a" d="M54.622,0A54.5,54.5,0,1,0,108.9,54.5,54.5,54.5,0,0,0,54.622,0Z" transform="translate(0.101 0)"/></clipPath></defs><g transform="translate(54.5 54.5)"><g transform="translate(-54.5 -54.5)"><g class="b" transform="translate(0.223 0)"><path class="c" d="M54.5,108.9A54.5,54.5,0,1,0,0,54.622,54.5,54.5,0,0,0,54.5,108.9" transform="translate(0 -0.122)"/></g><g class="d"><rect class="e" width="51.398" height="68.611" transform="translate(33.377 76.605) rotate(-46)"/></g><path class="f" d="M67.264,38.771,39.793,11.3,12.1,38.771h6.425V62.919H61.061V38.771Z" transform="translate(14.93 13.735)"/><path class="g" d="M24.5,11.522v51.4H45.99V38.771h6.2L24.722,11.3Z" transform="translate(30.001 13.735)"/><rect class="h" width="3.545" height="25.787" transform="translate(52.728 50.733)"/><path class="h" d="M41.4,37.873,31.428,27.017,21.458,37.873,18.8,35.436,31.428,21.7,44.056,35.436Z" transform="translate(23.073 26.375)"/></g></g></svg>