<svg xmlns="http://www.w3.org/2000/svg" width="373.018" height="386.447" viewBox="0 0 373.018 386.447"><defs><style>.a{opacity:0.2;}.b{fill:#82c0d0;}.c{fill:#f7d147;}.d{fill:none;stroke:#58595b;stroke-linejoin:round;stroke-width:3px;}</style></defs><g class="a" transform="translate(-177.63 -307.447)"><rect class="b" width="232.867" height="20.987" transform="translate(419.417 581.319) rotate(180)"/><path class="c" d="M328.6,468.219l202-160.772V537.309l-202-4.491Z"/><circle class="d" cx="6.307" cy="6.307" r="6.307" transform="translate(536.534 677.923)"/><circle class="d" cx="6.307" cy="6.307" r="6.307" transform="translate(434.094 677.923)"/><path class="d" d="M0,0H93.822a0,0,0,0,1,0,0V2.679A16.817,16.817,0,0,1,77.005,19.5H16.817A16.817,16.817,0,0,1,0,2.679V0A0,0,0,0,1,0,0Z" transform="translate(539.226 627.776) rotate(180)"/><rect class="d" width="79.957" height="61.672" rx="26.598" transform="translate(532.294 578.037) rotate(180)"/><rect class="d" width="18.232" height="30.244" transform="translate(501.431 608.28) rotate(180)"/><rect class="d" width="98.207" height="7.944" transform="translate(541.419 635.721) rotate(180)"/><rect class="d" width="8.225" height="11.223" transform="translate(496.428 646.944) rotate(180)"/><rect class="d" width="10.687" height="20.999" transform="translate(497.659 667.943) rotate(180)"/><path class="d" d="M544.863,676.755l-50.244-8.813v8.813Z"/><path class="d" d="M440.4,676.755l50.244-8.813v8.813Z"/><rect class="d" width="9.988" height="12.613" transform="translate(497.078 690.537) rotate(180)"/><rect class="d" width="240.818" height="7.082" transform="translate(419.947 560.332) rotate(180)"/><rect class="d" width="232.867" height="20.987" transform="translate(415.972 581.319) rotate(180)"/><rect class="d" width="6.928" height="111.075" transform="translate(403.333 692.394) rotate(180)"/><rect class="d" width="6.928" height="111.075" transform="translate(202.671 692.394) rotate(180)"/><rect class="d" width="9.965" height="67.678" transform="translate(328.928 534.357) rotate(180)"/><path class="d" d="M287.844,485.19l31.119-12.758v61.925H267.582V515.4A32.644,32.644,0,0,1,287.844,485.19Z"/><rect class="d" width="74.999" height="18.075" transform="translate(335.664 552.315) rotate(180)"/><rect class="d" width="39.237" height="5.114" transform="translate(406.868 552.315) rotate(180)"/><path class="d" d="M0,0H25.09a0,0,0,0,1,0,0V2.118a13.3,13.3,0,0,1-13.3,13.3H8.346A8.346,8.346,0,0,1,0,7.069V0A0,0,0,0,1,0,0Z" transform="translate(364.193 552.723) rotate(180)"/><path class="d" d="M341.174,547.984H244.482a2.968,2.968,0,0,1-2.968-2.968h0a2.968,2.968,0,0,1,2.968-2.968h16.183"/></g></svg>