<svg width="406" height="413" xmlns="http://www.w3.org/2000/svg"><g transform="translate(1.917 .066)" fill="none" fill-rule="evenodd" opacity=".2"><path stroke="#404041" stroke-width="2.154" stroke-linecap="round" stroke-linejoin="round" d="M77.64 87.768l72.315 55.235-77.558 101.54L.083 189.31z"/><path d="M67.911 132.173l-5.974-4.529a.639.639 0 0 1-.143-.924l12.462-16.438a.641.641 0 0 1 .929-.112l5.608 4.253c3.55 2.692 4.068 5.873 2.042 8.545a4.925 4.925 0 0 1-5.129 1.906c1.416 2.405 1.51 4.622-.123 6.775-2.294 3.027-5.952 3.345-9.672.524zm5.157-8.5l-2.144-1.625-4.009 5.288 2.17 1.646c2.03 1.539 3.687 1.636 5.154-.3 1.322-1.741.943-3.403-1.171-5.006v-.003zm4.775-7.412l-1.606-1.219-3.39 4.47 1.889 1.433c1.717 1.3 3.165 1.327 4.425-.336 1.178-1.551.57-2.909-1.318-4.345v-.003zM78.987 140.571l-2.48-1.881a.639.639 0 0 1-.143-.924l12.462-16.438a.641.641 0 0 1 .929-.112l2.48 1.881a.639.639 0 0 1 .142.923l-12.462 16.438a.641.641 0 0 1-.928.113zM92.345 150.7l-9.1-6.9a.639.639 0 0 1-.142-.924l12.462-16.437a.639.639 0 0 1 .928-.112l2.481 1.88a.64.64 0 0 1 .141.923l-10.581 13.957 6.088 4.616a.64.64 0 0 1 .143.924l-1.488 1.962a.64.64 0 0 1-.932.111zM104.21 159.693l-9.1-6.9a.639.639 0 0 1-.142-.924l12.462-16.438a.638.638 0 0 1 .927-.112l2.481 1.881a.639.639 0 0 1 .142.923l-10.58 13.956 6.087 4.615a.639.639 0 0 1 .143.924l-1.487 1.963a.642.642 0 0 1-.933.112zM107.73 162.661a2.4 2.4 0 0 1-.519-3.355 2.378 2.378 0 0 1 3.35-.38 2.349 2.349 0 0 1 .511 3.307 2.375 2.375 0 0 1-3.342.428zm7.233-9.541a2.379 2.379 0 0 1-.539-3.328 2.4 2.4 0 0 1 3.37-.407 2.376 2.376 0 0 1 .49 3.334 2.346 2.346 0 0 1-3.321.401z" fill="#404041" fill-rule="nonzero"/><path d="M31.165 162.113c-.466-1.44-.4-2.251.325-3.19l1.982-2.55c.624-.8 1.3-.843 1.883-.393.45.372.758.89.869 1.463.715 2.134 1.87 5.257 4.508 7.307 2.058 1.6 4.774 2.345 6.93-.429 1.843-2.37.953-4.639-1.362-7.656-3.134-4.084-5.188-9.194-1.121-14.425 4-5.144 9.486-4.821 13.989-2.038l1.843-2.369a1.046 1.046 0 0 1 1.514-.19l1.07.832a1.046 1.046 0 0 1 .19 1.514l-1.843 2.37a17.677 17.677 0 0 1 4.359 6.113 2.633 2.633 0 0 1-.268 3.016l-2.051 2.637c-.594.765-1.274.806-1.809.39a2.942 2.942 0 0 1-.825-1.43c-.514-1.547-.78-4.26-3.728-6.552-2.1-1.635-4.459-2.108-6.407.4-1.563 2.009-.8 4.177 1.209 6.749 3.724 4.9 5.757 9.566 1.168 15.469-3.859 4.964-9.539 4.99-14.207 2.227l-1.911 2.457a1.041 1.041 0 0 1-1.51.185l-1.07-.832a1.042 1.042 0 0 1-.194-1.509l1.843-2.37a18.784 18.784 0 0 1-5.376-7.196zM51.964 178.284c-.466-1.44-.4-2.251.325-3.19l1.983-2.551c.624-.8 1.3-.843 1.882-.393.45.373.758.89.869 1.464.71 2.129 1.87 5.256 4.508 7.307 2.059 1.6 4.774 2.345 6.931-.429 1.842-2.37.952-4.639-1.363-7.657-3.134-4.083-5.188-9.194-1.121-14.425 4-5.144 9.486-4.82 13.99-2.037L81.81 154a1.047 1.047 0 0 1 1.514-.19l1.07.832a1.047 1.047 0 0 1 .19 1.515l-1.842 2.369a17.718 17.718 0 0 1 4.358 6.114c.556.96.448 2.167-.268 3.015l-2.05 2.638c-.595.764-1.275.805-1.81.389a2.942 2.942 0 0 1-.825-1.43c-.514-1.547-.779-4.259-3.728-6.552-2.1-1.634-4.459-2.108-6.407.4-1.563 2.01-.809 4.173 1.21 6.749 3.723 4.9 5.762 9.571 1.173 15.474-3.859 4.963-9.545 4.985-14.213 2.223L58.272 190a1.042 1.042 0 0 1-1.51.184l-1.071-.832a1.041 1.041 0 0 1-.193-1.509l1.842-2.37a18.775 18.775 0 0 1-5.376-7.189zM72.763 194.454c-.466-1.44-.405-2.251.325-3.19l1.983-2.55c.624-.8 1.3-.844 1.883-.394.45.373.756.89.868 1.464.716 2.133 1.871 5.257 4.508 7.307 2.059 1.6 4.774 2.345 6.931-.429 1.842-2.37.952-4.639-1.363-7.656-3.134-4.084-5.188-9.194-1.121-14.425 4-5.144 9.486-4.821 13.99-2.038l1.842-2.37a1.047 1.047 0 0 1 1.514-.189l1.071.832a1.047 1.047 0 0 1 .189 1.514l-1.842 2.37a17.67 17.67 0 0 1 4.358 6.113 2.631 2.631 0 0 1-.268 3.016l-2.05 2.637c-.595.765-1.275.806-1.81.39a2.937 2.937 0 0 1-.824-1.43c-.515-1.548-.78-4.26-3.729-6.552-2.1-1.635-4.458-2.109-6.407.4-1.562 2.009-.8 4.177 1.21 6.749 3.724 4.9 5.757 9.566 1.167 15.469-3.859 4.963-9.538 4.989-14.207 2.227l-1.91 2.457a1.04 1.04 0 0 1-1.51.184l-1.07-.832a1.04 1.04 0 0 1-.194-1.508l1.842-2.37a18.783 18.783 0 0 1-5.376-7.196z" fill="#DB4F40" fill-rule="nonzero"/><path d="M93.306 217.7l-7.87 9.776 13.1 10.766L121.682 225l-11.636-20.317s4.837-15.376-11.346-23.549l-7.2-3.9a3.158 3.158 0 0 0-1.449-.387 3.554 3.554 0 0 0-3.643 2.313 3.165 3.165 0 0 0 .687 3.234l10.892 11.735s-9.983 11.406-4.683 23.568" fill="#F7D147" fill-rule="nonzero"/><path d="M121.682 225l-11.636-20.317s4.837-15.376-11.346-23.549l-7.2-3.9a3.158 3.158 0 0 0-1.449-.387 3.554 3.554 0 0 0-3.643 2.313 3.165 3.165 0 0 0 .687 3.234l10.892 11.735s-12.753 12.017-2.054 28.617" stroke="#414042" stroke-width="2.154" stroke-linecap="round" stroke-linejoin="round"/><path fill="#FFD200" fill-rule="nonzero" d="M293.915 186.844l.287 39.873h48.608v-39.873z"/><ellipse fill="#FFD200" fill-rule="nonzero" cx="318.362" cy="125.997" rx="70.77" ry="76.075"/><path d="M404.009 411.075h-165.42V260.334c0-21.692 5.1-39.276 26.79-39.276h99.353a39.276 39.276 0 0 1 39.277 39.276v150.741z" fill="#F99D1C" fill-rule="nonzero"/><circle fill="#FFF" fill-rule="nonzero" cx="288.089" cy="114.902" r="15.346"/><circle fill="#404041" fill-rule="nonzero" cx="288.089" cy="114.902" r="6.706"/><circle fill="#FFF" fill-rule="nonzero" cx="338.079" cy="114.902" r="15.346"/><circle fill="#404041" fill-rule="nonzero" cx="338.079" cy="114.902" r="6.706"/><ellipse stroke="#404041" stroke-width="2.154" stroke-linecap="round" cx="313.084" cy="122.478" rx="70.77" ry="76.075"/><path d="M269.014 87.768s9.616-12.881 29-6.9M357.154 87.768s-9.616-12.881-29-6.9M288.78 194.349v26.709M337.388 194.349v26.709" stroke="#404041" stroke-width="2.154" stroke-linecap="round"/><path d="M268.564 221.058h86.868c21.692 0 39.276 17.584 39.276 39.276v150.741h-165.42V260.334c0-21.692 17.584-39.276 39.276-39.276z" stroke="#404041" stroke-width="2.154" stroke-linecap="round" stroke-linejoin="round"/><path d="M379.276 32.416s-2.924 6.32-7.381 7.331c-4.457 1.011-8.355-23-8.355-23s-2.367 14.535-9.609 16.179c-7.242 1.644-10.722-24.9-10.722-24.9s-3.456 12.766-8.691 15.042C329.283 25.344 321.568.19 321.568.19s-2.287 14.215-7.594 20.532a1.192 1.192 0 0 1-1.781 0C306.887 14.405 304.6.19 304.6.19s-7.715 25.153-12.95 22.878c-5.235-2.275-8.691-15.042-8.691-15.042s-3.481 26.544-10.722 24.9c-7.241-1.644-9.609-16.179-9.609-16.179s-3.9 24.015-8.355 23c-4.455-1.015-7.381-7.331-7.381-7.331l-2.027 69.757c5.459-15.674 15.932-29.515 24.111-37.313 21.01-20.031 44.144-18.445 44.144-18.445s20.812-.4 44.772 17.948c5.836 4.471 16.345 18.664 23.411 37.81l-2.027-69.757z" fill="#404041" fill-rule="nonzero"/><ellipse fill="#404041" fill-rule="nonzero" cx="314.275" cy="164.3" rx="13.994" ry="18.042"/><path d="M329.684 133.129s4.571 7.458 16.643 7.085M298.027 133.129s-4.571 7.458-16.644 7.085" stroke="#404041" stroke-width="2.154" stroke-linecap="round"/><path d="M229.156 291.057l-38.4 30.807s-18.709 14.1-34.666-1c-15.957-15.1-61.735-80.259-61.735-80.259l30.765-17.474 47.227 58.223 63.1-49.412a33.041 33.041 0 0 1 7.329-4.339 87.237 87.237 0 0 1 18.865-5.931" fill="#F99D1C" fill-rule="nonzero"/><path d="M229.156 291.057l-38.4 30.807s-18.709 14.1-34.666-1c-15.957-15.1-61.735-80.259-61.735-80.259l30.765-17.474 47.227 58.223 63.1-49.412a33.041 33.041 0 0 1 7.329-4.339 87.237 87.237 0 0 1 18.865-5.931" stroke="#404041" stroke-width="2.154" stroke-linecap="round" stroke-linejoin="round"/><path d="M170.646 249.6c-4.263-5.294-1.743-9.508-.421-11.113.374-.453.5-1.062.336-1.626a6.253 6.253 0 0 1 1.316-6.2 8.663 8.663 0 0 1 1.677-1.445c.152-.1.29-.22.41-.357a2.01 2.01 0 0 0 .471-1.772 6.261 6.261 0 0 1 1.477-5.773 8.48 8.48 0 0 1 .95-.912 2.049 2.049 0 0 0 .057-3.113l-9.266-8.235a4.809 4.809 0 1 1 6.389-7.189l19.744 17.546a2.038 2.038 0 0 0 2.239.315c9.312-4.493 14.881 16.187 15.776 19.8.086.352.265.674.518.934l9.955 9.513c.775.78.845 2.016.163 2.878l-15.411 17.138a2.111 2.111 0 0 1-2.732.292l-11.059-8.549a2.133 2.133 0 0 0-.857-.338c-11.212-1.706-17.778-6.883-21.732-11.794z" fill="#F7D147" fill-rule="nonzero"/><path d="M171.233 249.241c-4.263-5.293-1.743-9.508-.421-11.113.374-.453.5-1.062.336-1.626a6.253 6.253 0 0 1 1.316-6.2 8.666 8.666 0 0 1 1.677-1.445c.152-.1.29-.22.41-.357.433-.48.608-1.14.471-1.772a6.261 6.261 0 0 1 1.477-5.773c.293-.328.61-.633.95-.912a2.049 2.049 0 0 0 .057-3.113l-9.266-8.234a4.81 4.81 0 0 1 6.389-7.19l19.744 17.547c.615.547 1.498.67 2.239.314 9.312-4.492 14.882 16.187 15.776 19.8.087.352.265.675.518.935l9.955 9.513c.775.78.845 2.015.163 2.877l-15.411 17.138a2.111 2.111 0 0 1-2.732.292l-11.059-8.549a2.132 2.132 0 0 0-.857-.338c-11.212-1.71-17.781-6.887-21.732-11.794z" stroke="#414042" stroke-width="2.154"/><path d="M390.781 301.488l-53.309 34.078s-24.116 12.431-47.809-3.82c-15.908-10.912-76.436-61.523-76.436-61.523l20.7-22.321 82.846 50.664 46.244-35.8" fill="#F99D1C" fill-rule="nonzero"/><path d="M382.931 302.61l-53.309 34.078s-24.117 12.431-47.809-3.821c-15.908-10.911-76.437-61.522-76.437-61.522l20.7-22.321 82.846 50.664 46.244-35.8" stroke="#404041" stroke-width="2.154" stroke-linecap="round" stroke-linejoin="round"/><path d="M85.436 227.473l13.095 10.766" stroke="#414042" stroke-width="2.154" stroke-linecap="round" stroke-linejoin="round"/></g></svg>