<svg xmlns="http://www.w3.org/2000/svg" width="383.422" height="234.546" viewBox="0 0 383.422 234.546"><defs><style>.a{opacity:0.2;}.b{fill:#f3bab9;}.c,.d,.f{fill:none;stroke-width:3px;}.c,.d{stroke:#58595b;stroke-linejoin:round;}.d,.f{stroke-linecap:round;}.e{fill:#58595b;}.f{stroke:#f3bab9;stroke-miterlimit:10;}</style></defs><g class="a" transform="translate(-802.415 -329.104)"><path class="b" d="M1122.746,518.906l-56.077,12.644v30.6h25.236Z"/><path class="b" d="M1098.625,518.906l-56.077,12.644v30.6h25.236Z"/><path class="b" d="M930.6,518.906l56.077,12.644v30.6H961.445Z"/><path class="b" d="M945.268,518.906l56.077,12.644v30.6H976.109Z"/><path class="b" d="M1172.771,433.271a98.284,98.284,0,0,0-84.407-97.286h.12c-82.922-11.78-119.843-.468-119.843-.468h.026A98.3,98.3,0,0,0,945.28,525.659h-.012s38.724,25.514,142.709,4.948a97.809,97.809,0,0,0,13.674-2.888l.394-.087h-.084A98.3,98.3,0,0,0,1172.771,433.271Zm-77.4-75.151c-53.728-10.216-95.8-4.689-96.216-4.633l-1.569-11.469c1.781-.241,44.252-5.859,99.948,4.73Z"/><path class="c" d="M1086.172,527.631l-.394.087A97.744,97.744,0,0,1,1074.7,530.2l-22.785,31.948h24.122l30.841-43.244-.14.032a97.749,97.749,0,0,1-20.646,8.692Z"/><path class="c" d="M929.4,525.658h.012a97.788,97.788,0,0,1-14.614-6.739l-.062-.014,30.841,43.244h14.663l-23.51-32.965A45.2,45.2,0,0,1,929.4,525.658Z"/><path class="c" d="M1072.491,335.985h.121c-82.922-11.78-119.843-.468-119.843-.468h.025a98.327,98.327,0,0,0-23.386,190.142H929.4a45.2,45.2,0,0,0,7.33,3.527l23.51,32.965h25.237V538.317a298.436,298.436,0,0,0,41.2-1.058V562.15h25.236L1074.7,530.2a97.744,97.744,0,0,0,11.082-2.484l.394-.087h-.084a98.271,98.271,0,0,0-13.6-191.645Z"/><path class="b" d="M996.364,381.867a18.356,18.356,0,0,0,1.609-12.126c-2.944-13.477-16.333-26.481-22.654-27.324-7.981-1.064-18.259,3.23-23.392,8.78,0,0-22.4-11.183-46.6-10.114a94.042,94.042,0,0,0-45.545,13.937l.816-.94c-2.434-4.281-10.5-7.427-18.7-7.763-19.161-.788-31.346,17.686-27.545,34.787,1.193,7.163,6.891,12.066,13.315,15.2l-2.742.022c-4.813,10.572-5.851,18.475-5.851,31.012A86.255,86.255,0,1,0,985.31,395l-.278,0A35.037,35.037,0,0,0,996.364,381.867Z"/><rect class="c" width="73.668" height="47.99" rx="16.308" transform="translate(861.109 419.736)"/><path class="d" d="M861.109,380.619s7.649-8.989,12.893,0"/><path class="d" d="M917.083,380.619s7.65-8.989,12.893,0"/><ellipse class="e" cx="4.391" cy="7.116" rx="4.391" ry="7.116" transform="translate(921.194 400.844)"/><ellipse class="e" cx="4.391" cy="7.116" rx="4.391" ry="7.116" transform="translate(865.22 400.844)"/><ellipse class="e" cx="5.993" cy="12.985" rx="5.993" ry="12.985" transform="translate(876.249 431.056)"/><ellipse class="e" cx="5.993" cy="12.985" rx="5.993" ry="12.985" transform="translate(906.962 431.056)"/><path class="d" d="M986.721,381.867a18.349,18.349,0,0,0,1.609-12.126c-2.944-13.477-16.333-26.481-22.654-27.324-7.981-1.064-18.259,3.23-23.392,8.78,0,0-22.4-11.183-46.6-10.114a94.042,94.042,0,0,0-45.545,13.937l.816-.94c-2.435-4.281-10.5-7.427-18.7-7.763C813.087,345.529,800.9,364,804.7,381.1c1.193,7.163,6.891,12.066,13.315,15.2l-2.742.022c-4.813,10.572-5.851,18.475-5.851,31.012A86.255,86.255,0,1,0,975.667,395l-.278,0A35.037,35.037,0,0,0,986.721,381.867Z"/><line class="d" y1="15.685" x2="16.24" transform="translate(818.017 380.619)"/><path class="d" d="M975.389,395.005h0a9.365,9.365,0,0,1-12.564-6.577l-5.679-24.307"/><path class="d" d="M995.449,354.427s55.728-8.333,97,1.979"/><path class="f" d="M1139.241,388.027c1.461,15.334,18.883,24.536,27.993,17.372,17.891-14.07,9.036-39.175-6.234-33.309-9.084,3.49-9.1,16.879-2.208,22.374,9.339,7.441,26.043-.168,25.531-18.976"/><path class="d" d="M1137.726,385.862c1.462,15.333,18.883,24.535,27.993,17.371,17.892-14.069,9.037-39.175-6.233-33.308-9.084,3.489-9.1,16.878-2.208,22.373,9.339,7.441,26.043-.167,25.531-18.975"/></g></svg>