<svg xmlns="http://www.w3.org/2000/svg" width="494.687" height="334.636"><defs><style>.b{fill:#f7d147}.d,.h{fill:none;stroke:#58595b}.d{stroke-linejoin:round;stroke-width:1.5px}.f{fill:#fff}.g{fill:#58595b;fill-rule:evenodd}.h{stroke-miterlimit:10}</style></defs><g transform="translate(-59.795 -230.178)" opacity=".2"><path class="b" d="M223.635 254.635l-64.41 308.129h140.806l-64.41-308.129a6.123 6.123 0 0 0-11.986 0zM472.678 255.4l-64.25 307.365h140.806L484.984 255.4a6.286 6.286 0 0 0-12.306 0z"/><path d="M321.071 469.619a223.565 223.565 0 0 0-30.825 15.829 223.671 223.671 0 0 0 15.828 30.825 223.563 223.563 0 0 0 30.826-15.829 223.671 223.671 0 0 0-15.829-30.825zm-6.627 25.025a1.909 1.909 0 1 1 .826-2.57 1.909 1.909 0 0 1-.826 2.57z" fill="#f99d1c"/><path class="d" d="M245.852 483.755h32.868v79.008h-35.248v-76.628a2.38 2.38 0 0 1 2.38-2.38zM518.483 483.755h32.868a2.38 2.38 0 0 1 2.38 2.38v76.628h-35.248v-79.008zM317.721 445.77h80.883v63.371H278.721V484.77a39 39 0 0 1 39-39z"/><path class="d" d="M398.602 445.77h80.883a39 39 0 0 1 39 39v24.371H398.602V445.77zM330.2 500.444a223.565 223.565 0 0 1-30.825 15.829 223.565 223.565 0 0 1-15.829-30.825 223.565 223.565 0 0 1 30.825-15.829 223.677 223.677 0 0 1 15.829 30.825z"/><path fill="#db4f40" d="M73.053 428.995h186.321v135.069H73.053z"/><path class="f" d="M78.636 435.302h1.849v16.026h-1.849zM82.974 435.302h1.849v16.026h-1.849zM87.312 435.302h1.849v16.026h-1.849zM91.649 435.302h1.849v16.026h-1.849zM95.987 435.302h1.849v16.026h-1.849zM100.325 435.302h1.849v16.026h-1.849zM117.676 435.302h1.849v16.026h-1.849zM161.054 435.302h1.849v16.026h-1.849zM200.094 435.302h1.849v16.026h-1.849zM239.135 435.302h1.849v16.026h-1.849zM243.472 435.302h1.849v16.026h-1.849zM247.81 435.302h1.849v16.026h-1.849zM252.148 435.302h1.849v16.026h-1.849zM234.797 435.302h1.849v16.026h-1.849zM230.459 435.302h1.849v16.026h-1.849zM226.121 435.302h1.849v16.026h-1.849zM221.783 435.302h1.849v16.026h-1.849zM217.446 435.302h1.849v16.026h-1.849zM213.108 435.302h1.849v16.026h-1.849zM208.77 435.302h1.849v16.026h-1.849zM204.432 435.302h1.849v16.026h-1.849zM195.757 435.302h1.849v16.026h-1.849zM191.419 435.302h1.849v16.026h-1.849zM187.081 435.302h1.849v16.026h-1.849zM182.743 435.302h1.849v16.026h-1.849zM178.405 435.302h1.849v16.026h-1.849zM174.068 435.302h1.849v16.026h-1.849zM169.73 435.302h1.849v16.026h-1.849zM165.392 435.302h1.849v16.026h-1.849zM156.716 435.302h1.849v16.026h-1.849zM152.379 435.302h1.849v16.026h-1.849zM148.041 435.302h1.849v16.026h-1.849zM143.703 435.302h1.849v16.026h-1.849zM139.365 435.302h1.849v16.026h-1.849zM135.027 435.302h1.849v16.026h-1.849zM130.69 435.302h1.849v16.026h-1.849zM126.352 435.302h1.849v16.026h-1.849zM122.014 435.302h1.849v16.026h-1.849zM113.338 435.302h1.849v16.026h-1.849zM109.001 435.302h1.849v16.026h-1.849zM104.663 435.302h1.849v16.026h-1.849z"/><path class="d" d="M103.577 495.583h100.255v68.48H103.577z"/><path class="d" d="M203.833 468.191H82.212v95.872h21.366v-68.48h100.255v68.48H225.2v-95.872zM203.832 495.583l21.366-27.392M103.578 495.583l-21.366-27.392"/><path class="d" d="M60.545 428.995h186.321v135.069H60.545zM153.705 413.965a7.075 7.075 0 0 1 7.075 7.075v3.815h-14.15v-3.815a7.075 7.075 0 0 1 7.075-7.075zM144.861 424.855h17.689v4.14h-17.689zM157.543 415.023l52.363-52.363M208.864 359.78a1.3 1.3 0 0 1 1.839 0l2.086 2.086a1.3 1.3 0 0 1 0 1.838 1.3 1.3 0 0 1-1.84 0l-2.085-2.086a1.3 1.3 0 0 1 0-1.838zM149.866 415.023L97.503 362.66M94.623 363.702a1.3 1.3 0 0 1 0-1.839l2.086-2.086a1.3 1.3 0 0 1 1.838 0 1.3 1.3 0 0 1 0 1.84l-2.086 2.085a1.3 1.3 0 0 1-1.838 0zM398.602 509.141h119.881v23.478H398.602zM278.721 509.141h119.881v23.478H278.721zM398.602 532.619h119.881v30.145H398.602zM278.721 532.619h119.881v30.145H278.721z"/><circle class="f" cx="4.523" cy="4.523" r="4.523" transform="translate(224.817 274.306)"/><circle class="f" cx="4.523" cy="4.523" r="4.523" transform="translate(474.146 274.306)"/><path class="g" d="M241.155 278.829h-23.631c1.99-12.189 3.971-23.14 5.941-32.536a6.08 6.08 0 0 1 11.916.071c1.919 9.619 3.843 20.641 5.774 32.465z"/><path class="h" d="M229.339 246.805v-16.627"/><path class="g" d="M490.552 278.829h-23.631c1.99-12.189 3.972-23.14 5.941-32.536a6.08 6.08 0 0 1 11.916.071c1.922 9.619 3.843 20.641 5.774 32.465z"/><path class="h" d="M478.737 246.805v-16.627"/></g></svg>