<svg xmlns="http://www.w3.org/2000/svg" width="1213.359" height="563.251"><defs><style>.e{fill:#fff}.j{fill:none}.f{fill:#b3dae3}.g{fill:#b9dde5}.h{fill:#5ab6c9}.j{stroke:#fff;stroke-miterlimit:10}</style><clipPath id="a"><path transform="translate(736 2956)" stroke="#707070" fill="#fff" d="M0 0h1213.359v563.251H0z"/></clipPath><clipPath id="b"><path d="M2030.054-859.83s132.781 17.923 213.6-1.386c0 0 9.622 7.28 0 16.757s-86.079 29.108-101.473 32.067-101.867-28.982-107.642-30.918-15.392-14.425-4.485-16.52z" transform="translate(-2025.087 861.216)" fill="none"/></clipPath></defs><g transform="translate(-736 -2956)" clip-path="url(#a)"><g transform="translate(626.117 3101.7)" opacity=".2"><path class="e" d="M608.546 294.297L834.69 149.386l-24.136 58.049s102.623-82.148 196.8-102.6c0 0-174.9 154.656-216.822 217.525l11.6-72.59-134.005 79.69z"/><path class="f" d="M707.024 278.946l107.278-50.809-11.425 20.323s48.674-28.789 93.372-35.988c0 0-82.944 54.2-102.808 76.213l5.462-25.4-63.573 27.942z"/><path class="e" d="M597.382 345.276L376.12 157.751l23.6 75.054s-100.4-106.28-192.559-132.808c0 0 171.1 200.07 212.109 281.367l-11.323-93.827 131.109 103.134zM679.756 440.35l183-167.254-12.859 56.585s80.476-90.807 162.939-124.166c0 0-134.863 168.091-163.146 231.848l-.821-67.848-109.412 93.488z"/><path class="e" d="M588.736 509.184l300.553-115.285-42.4 62.286s140.36-71.552 255.852-72.732c0 0-242.762 139.146-307.207 202.778l31.206-82.388-176.592 61.059zM497.603 555.967L203.811 454.833l44.563 60.093s-138.4-64.869-248.375-60.8c0 0 240.419 127.517 306.051 187.949l-35.276-80.615 172.169 52.775z"/><path class="e" d="M429.83 586.198L232.679 435.877l57.975 2.583s-103.68-63.035-151.182-138.245c0 0 189.407 102.8 257.18 119.288l-66.617 12.88 111.461 91.028z"/><path class="g" d="M733.509 348.529l147.118-94.542-15.666 37.818s66.747-53.576 128.047-66.97c0 0-113.744 100.847-140.987 141.813l7.49-47.271-87.182 52zM446.435 289.89L275.083 181.997l18.244 43.157s-77.741-61.137-149.138-76.423c0 0 132.48 115.085 164.21 161.838l-8.727-53.945 101.545 59.339zM753.374 474.596l147.118-94.542-15.665 37.815s66.746-53.572 128.045-66.967c0 0-113.742 100.847-140.986 141.814l7.49-47.271-87.177 52zM391.038 346.978l-108.523-46.763 25.355 29.054s-54.548-30.481-86.832-27.41c0 0 97.7 60.229 129.469 89.241l-26.644-39.215 62.306 24.217z"/><path class="f" d="M362.839 346.381s31.647-133 226.222-129.148 237.766 131.286 237.766 131.286 1.233 120.146 5.2 165.691c5.223 60.083-482.947 25.81-482.947 25.81s1.357-67.702 13.759-193.639z"/><path class="g" d="M424.214 290.121l-37.192 77.453 54.477-33.314-9.954 24.861 28.739-32.687-10.707 85.9 16.343-25.037 8.514 39.893 8.386-68.536-15.771 7.792 21.247-32.189 14.255 67.126 11.074-42.729 34.008 91.583 12.659-74.081 12.7 18.465 13.23-40.655 20.58 58.371 17.476-55.47 40.963 99.186 9.8-61.161 17.075 32.3 1.926-25.806 35.259 52.558-23.505-92.007s-16.147 30.433-16.147 24.8-1.687-41.075-1.687-41.075l62.837 35.442-17.285-32.571 53.067 7.775-53.073-45.712 74.414 4.054c-27.468-38.046-89.913-94.868-218.86-97.417-122.817-2.43-180.7 49.654-206.71 88.408z"/><path class="e" d="M692.11 588.74l300.553-115.288-42.4 62.286s140.361-71.552 255.852-72.732c0 0-242.762 139.146-307.206 202.778l31.206-82.388-176.595 61.063z"/><path class="f" d="M679.756 187.465l164.912-58.181-23.939 33.2s77.277-36.791 140.014-35.73c0 0-133.886 71.986-169.82 105.591l18.163-44.278-96.8 30.558zM391.039 462.246l-110.635-100.81 21.567 46.529s-53.962-59.514-90.889-67.984c0 0 95.322 113.733 124.084 162.661l-20.607-59.9 64.14 54.545zM479.573 210.349l-90.638-84.069 13.052 36.493s-42.431-48.739-77.01-57.965c0 0 73.478 92.536 93.136 131.388l-9.819-46.417 53.219 45.821zM406.582 319.499l-73.894-65.153s23.305 43.953 21.007 42.736-69.806-48.779-69.806-48.779l70.32 94.034-3.539-30.7 47.471 14.279z"/><ellipse class="g" cx="153.629" cy="124.443" rx="153.629" ry="124.443" transform="translate(446.433 81.074)"/><path class="g" d="M617.701 104.809l138.555-76.975-14.754 30.789s62.863-43.618 120.594-54.524c0 0-107.124 82.107-132.781 115.465l7.057-38.489-82.108 42.336zM482.815 128.995l94.8-87.919-5.44 26.169S613.397 20.886 657.258 0c0 0-68.641 84.788-82.26 115.282l-2.294-30.2-56.856 49.661z"/><path class="g" d="M563.821 104.805c1.925-.641 85.954-56.449 85.954-56.449l-39.125 53.249zM694.036 141.369c4.49-.641 86.6-32.714 86.6-32.714l-57.734 59.656zM705.79 198.754c3.928-2.268 68.221-62.574 68.221-62.574l-31.406 76.846z"/><path class="h" d="M493.261 239.311s132.781 17.923 213.6-1.386c0 0 9.622 7.28 0 16.757s-86.079 29.108-101.473 32.067-101.867-28.982-107.642-30.918-15.392-14.425-4.485-16.52z"/><g clip-path="url(#b)" transform="translate(488.294 237.925)"><path class="e" d="M126.693 9.025l-11.782 18.4-14.284-19.5zM84.553 44.601l14.6-16.254 10.941 21.55zM113.866 49.895l7.388-20.565 18.266 15.825zM208.037 2.415l-9.269 19.788-16.715-17.462z"/><path class="e" d="M185.505 4.945l-9.737 19.562-16.294-17.85zM101.608 6.66c-.814.464-12.059 19.9-12.059 19.9L83.427 7.847zM143.621 7.463c-.813.464-12.059 19.9-12.059 19.9L125.441 8.65zM65.05 6.517c-1.078.3-19.045 17.177-19.045 17.177L43.131 4.147z"/><path class="e" d="M45.324 5.074c-1.078.3-19.044 17.177-19.044 17.177L23.406 2.704z"/><path class="e" d="M29.286 2.429c-1.078.227-19.045 13.113-19.045 13.113L7.367.622zM223.41-4.732c-.912.617-12.646 19.353-12.646 19.353l-8.321-12.71zM83.003 7.572c-.813.461-12.058 19.9-12.058 19.9l-8.891-20.81zM161.823 6.537c-.763.546-9.907 21.054-9.907 21.054L140.893 7.824z"/></g><g transform="translate(514.567 141.928)"><circle class="e" cx="37.612" cy="37.612" r="37.612"/><circle class="h" cx="14.067" cy="14.067" r="14.067" transform="translate(27.233 37.612)"/><circle class="e" cx="5.602" cy="5.602" r="5.602" transform="translate(30.096 38.219)"/></g><circle class="e" cx="37.612" cy="37.612" r="37.612" transform="translate(599.811 141.928)"/><circle class="h" cx="14.067" cy="14.067" r="14.067" transform="translate(619.668 179.539)"/><circle class="e" cx="5.602" cy="5.602" r="5.602" transform="translate(633.734 180.147)"/><path class="f" d="M776.78 333.809l85.957-38.489s-30.152 28.223-27.583 27.583 79.538-27.583 79.538-27.583l-85.954 58.646 7.7-20.8-51.636 5.776zM800.837 401.658l63.4-52.633s-19.214 32.873-17.218 31.8 60.324-40.842 60.324-40.842l-59.266 72.356 2.115-21.7-41.647 14.648z"/><path class="g" d="M739.904 229.894c2.243-.963 32.392-24.377 32.392-24.377l-18.6 27.332 12.188-5.521s-14.754 14.754-13.791 14.432 11.544-2.244 11.544-2.244-35.28 11.517-34.317 12.334 10.584-21.956 10.584-21.956zM742.605 213.027c5.314.509 24.237-21.675 24.237-21.675l-13.48 6.07 9.629-15.523-23.091 13.032zM619.667 89.326c7.657-2.478 33.958-16.591 33.958-16.591l-10.907 8.338 14.544-4.491-17.927 16.207zM692.11 112.184c.963 0 27.583-12.188 27.583-12.188l-8.552 8.66 13.683-5.131-9.941 8.66h7.7l-16.795 14.434zM451.565 197.468l-23.413-17.321 11.707 1.753-11.707-15.512 16.037 8.217-4.33-8.217 17.479 8.217zM479.149 144.579c-1.284-6.094-5.772-42.977-3.85-54.524l3.85 18.6 5.772-25.898 1.6 22.047 6.738-9.622v28.223zM506.409 110.58c.322-6.735 8.158-37.845 8.158-37.845v13.469l7.88-13.469-7.88 34z"/><path class="f" d="M778.387 295.321c1.285 0 39.13-8.379 39.13-8.379l-12.828 8.379 20.2-4.1-16.034 9.87h16.034l-39.126 21.811zM817.914 450.24c8.982-4.169 34-22.129 34-22.129l-14.174 1.556 11.287-11.819-26.3 11.819z"/><path class="j" d="M615.731 138.298l13.568-12.821 1.461 6.177 11.836-19.332 4.984 8.631 12.661-13.179M577.399 137.063l-14.439-11.831-1.022 6.265-13.171-18.448-4.363 8.961-13.561-12.251"/></g></g></svg>