<?xml version="1.0" encoding="UTF-8"?>
<svg width="226px" height="120px" viewBox="0 0 226 120" version="1.1" xmlns="http://www.w3.org/2000/svg" xmlns:xlink="http://www.w3.org/1999/xlink">
    <!-- Generator: Sketch 53.2 (72643) - https://sketchapp.com -->
    <title>cloud</title>
    <desc>Created with Sketch.</desc>
    <g id="Page-1" stroke="none" stroke-width="1" fill="none" fill-rule="evenodd">
        <g id="cloud" transform="translate(1.000000, 1.000000)">
            <path d="M58.6713828,118.028868 C43.7302235,117.978585 30.3261453,108.833521 24.8296594,94.940018 C19.3331735,81.0465155 22.8526567,65.2062265 33.7154161,54.9475117 C44.5781754,44.6887969 60.5937148,42.0803458 74.1503828,48.3618681 C74.3591628,33.7516341 83.2570814,20.6724115 96.7698821,15.1130283 C110.282683,9.55364512 125.808557,12.5845273 136.238383,22.8178681 C146.084629,17.1005594 158.032963,16.2987597 168.554815,20.6492558 C179.076666,24.9997518 186.969859,34.0054764 189.903383,45.0068681 C209.03678,45.8112328 224.300031,61.2571633 224.876711,80.3987754 C225.453391,99.5403875 211.147656,115.877143 192.097383,117.831868 L192.097383,118.031868 L58.6713828,118.031868 L58.6713828,118.028868 Z" id="Path" fill="#FFFFFF" fill-rule="nonzero"></path>
            <path d="M36.4043828,105.661868 C21.4632235,105.611585 8.05914534,96.4665206 2.56265944,82.573018 C-2.93382647,68.6795155 0.585656705,52.8392265 11.4484161,42.5805117 C22.3111754,32.3217969 38.3267148,29.7133458 51.8833828,35.9948681 C52.0930906,21.3850958 60.991082,8.30666522 74.5034681,2.74745261 C88.0158543,-2.81175999 103.541223,0.218508166 113.971383,10.4508681 C123.817553,4.73313243 135.766073,3.93110544 146.288062,8.28165817 C156.810051,12.6322109 164.703215,21.638228 167.636383,32.6398681 C186.772602,33.440715 202.039882,48.8877972 202.616634,68.0320808 C203.193386,87.1763645 188.883687,103.514501 169.830383,105.465868 L169.830383,105.665868 L36.4043828,105.665868 L36.4043828,105.661868 Z" id="Path" stroke="#58595B" stroke-width="1.5"></path>
        </g>
    </g>
</svg>