<?xml version="1.0" encoding="UTF-8"?>
<svg width="238px" height="159px" viewBox="0 0 238 159" version="1.1" xmlns="http://www.w3.org/2000/svg" xmlns:xlink="http://www.w3.org/1999/xlink">
    <title>dasboard-graphic</title>
    <g id="Page-1" stroke="none" stroke-width="1" fill="none" fill-rule="evenodd">
        <g id="Desktop-HD" transform="translate(-853.000000, -409.000000)">
            <g id="dasboard-graphic" transform="translate(853.000000, 409.000000)">
                <path d="M231.417711,147.542076 C226.154042,151.900014 218.663851,153.703596 211.420091,154.8427 L210.200908,155.028236 C202.635059,156.154396 194.984905,156.754152 187.30881,157.118752 C183.201635,157.317232 179.09446,157.457463 174.987284,157.582592 L171.768556,157.677517 C167.589325,157.801208 163.402168,157.922741 159.207084,158.042117 C155.099909,158.158616 150.992734,158.267924 146.885559,158.370041 C141.625492,158.498046 136.365425,158.604478 131.105359,158.689335 C126.998183,158.754057 122.891008,158.798643 118.783833,158.823094 C113.522325,158.853297 108.262259,158.843229 103.003633,158.79289 C98.8935755,158.75118 94.7864002,158.679267 90.6821072,158.577151 C85.4191583,158.441954 80.1590917,158.244193 74.9019074,157.983867 C71.3337087,157.809837 67.7676718,157.60057 64.2037965,157.356065 L62.5803815,157.241723 C47.2822343,156.141452 31.709555,154.167436 18.3223252,147.92825 L17.9613261,147.757815 C17.7819074,147.673677 17.6024886,147.589539 17.4230699,147.501085 C14.9650724,146.328228 12.6105908,144.950521 10.3846685,143.382619 C6.4266485,140.565061 3.15820163,137.126174 1.43102634,133.04654 C-1.27538601,126.647707 0.155640327,119.454953 3.24683015,113.198507 C6.33801998,106.942062 10.9791281,101.294003 14.9933515,95.4021574 C16.1693006,93.6762415 17.284723,91.8856038 18.3223252,90.0496608 C24.8073388,78.5356445 28.0239055,65.2115739 21.2254496,54.1160923 C20.3280926,52.701442 19.3591295,51.33332 18.3223252,50.0170421 C16.6643233,47.8596472 14.9782198,45.7022524 13.8390191,43.3140163 C11.1823252,37.7565672 11.7530064,31.5065943 12.7214351,25.5694437 C14.0184378,17.675536 16.3962761,9.17324288 23.8281017,4.24143826 C31.5387829,-0.880217096 42.4833243,-0.621329715 52.0530427,1.22108548 C66.9318256,4.06668928 80.6649228,10.0232564 94.5277203,15.3951696 C108.390518,20.7670828 122.912625,25.6794708 138.154569,26.2080326 C141.428776,26.3198574 144.706808,26.2009051 147.964233,25.8520624 C152.306788,25.4066941 156.590316,24.5064163 160.744033,23.1661058 C166.74267,21.1942469 172.20089,18.227829 176.247539,14.1050475 C184.926649,5.29208955 201.236458,4.62545455 212.995949,9.94774763 C224.217184,15.0262551 231.473915,25.7743962 230.93782,36.5095929 C230.328229,48.459403 221.361617,58.2841791 213.145104,68.3613704 C212.148574,69.5824559 211.165014,70.8078562 210.207393,72.041886 C209.67274,72.7308141 209.148174,73.4211805 208.633697,74.1129851 C207.73228,75.3340706 206.861126,76.5616282 206.039691,77.8042877 C201.841726,84.1750746 198.873751,91.8273541 201.763906,98.7051289 C203.385159,102.556079 206.47851,105.49445 210.207393,108.059593 C218.562252,113.804735 230.094768,117.670787 235.282779,125.713555 C239.753115,132.645265 238.097275,142.001886 231.417711,147.542076 Z" id="Path" fill="#4D6B00" fill-rule="nonzero" opacity="0.1"></path>
                <path d="M74.9019074,109.209484 L74.9019074,157.966608 C71.3337087,157.792578 67.7676718,157.583311 64.2037965,157.338806 L62.5803815,157.224464 L62.5803815,109.209484 C62.5803815,108.704825 62.7812542,108.220834 63.1388099,107.863986 C63.4963657,107.507137 63.9813153,107.306662 64.4869755,107.306662 L72.9953134,107.306662 C73.5009735,107.306662 73.9859232,107.507137 74.3434789,107.863986 C74.7010346,108.220834 74.9019074,108.704825 74.9019074,109.209484 L74.9019074,109.209484 Z" id="Path" fill="#464749" fill-rule="nonzero"></path>
                <path d="M90.6821072,158.572836 L90.6821072,76.6328223 C90.6821072,75.5819225 91.5357184,74.73 92.5887012,74.73 L101.097039,74.73 C101.602699,74.73 102.087649,74.9304753 102.445205,75.2873237 C102.80276,75.6441721 103.003633,76.1281624 103.003633,76.6328223 L103.003633,158.786418 L90.6821072,158.572836 Z" id="Path" fill="#464749" fill-rule="nonzero"></path>
                <path d="M118.783833,158.829566 L118.783833,93.6762415 C118.783833,92.6253418 119.637444,91.7734193 120.690427,91.7734193 L129.198765,91.7734193 C130.251748,91.7734193 131.105359,92.6253418 131.105359,93.6762415 L131.105359,158.689335 L118.783833,158.829566 Z" id="Path" fill="#464749" fill-rule="nonzero"></path>
                <path d="M159.207084,45.350597 L159.207084,158.042117 C155.099909,158.158616 150.992734,158.267924 146.885559,158.370041 L146.885559,45.350597 C146.885559,44.2996973 147.73917,43.4477748 148.792153,43.4477748 L157.30049,43.4477748 C158.353473,43.4477748 159.207084,44.2996973 159.207084,45.350597 L159.207084,45.350597 Z" id="Path" fill="#464749" fill-rule="nonzero"></path>
                <path d="M187.30881,68.0032429 L187.30881,157.10365 C183.201635,157.30213 179.09446,157.442361 174.987284,157.56749 L174.987284,68.0032429 C174.987284,66.9523432 175.840895,66.1004206 176.893878,66.1004206 L185.402216,66.1004206 C186.455199,66.1004206 187.30881,66.9523432 187.30881,68.0032429 Z" id="Path" fill="#464749" fill-rule="nonzero"></path>
                <polyline id="Path" stroke="#464749" stroke-width="4" stroke-linecap="round" points="68.849228 80.7750204 96.9509537 49.4927951 125.052679 65.2417775 153.154405 16.916133 181.256131 40.0002578"></polyline>
                <ellipse id="Oval" fill="#8AB120" fill-rule="nonzero" cx="68.7411444" cy="80.7750204" rx="6.05267938" ry="6.04070556"></ellipse>
                <ellipse id="Oval" fill="#8AB120" fill-rule="nonzero" cx="96.8428701" cy="49.4927951" rx="6.05267938" ry="6.04070556"></ellipse>
                <ellipse id="Oval" fill="#8AB120" fill-rule="nonzero" cx="124.944596" cy="65.2417775" rx="6.05267938" ry="6.04070556"></ellipse>
                <ellipse id="Oval" fill="#8AB120" fill-rule="nonzero" cx="153.046322" cy="16.916133" rx="6.05267938" ry="6.04070556"></ellipse>
                <ellipse id="Oval" fill="#8AB120" fill-rule="nonzero" cx="181.364214" cy="40.1275441" rx="6.05267938" ry="6.04070556"></ellipse>
            </g>
        </g>
    </g>
</svg>