<svg xmlns="http://www.w3.org/2000/svg" width="700" height="866.5" viewBox="0 0 700 866.5"><defs><style>.a,.b,.c{fill:#464749;}.a,.f{font-size:28px;}.a,.b,.f{font-family:ProgramOT-Bold, Program OT;font-weight:700;}.b{font-size:40px;}.c{font-size:24px;font-family:OpenSans-Light, Open Sans;font-weight:300;}.d{fill:none;}.d,.h{stroke:#464749;stroke-linecap:round;stroke-width:4px;}.e{fill:#267f58;}.f,.h{fill:#fff;}.g{fill:#b23232;}</style></defs><g transform="translate(-350 -1104.5)"><text class="a" transform="translate(484 1485)"><tspan x="-133.588" y="0">Complaint not sorted?</tspan></text><text class="a" transform="translate(872 1639)"><tspan x="-158.858" y="0">Complaint still not sorted?</tspan></text><text class="a" transform="translate(682 1262)"><tspan x="-184.03" y="0">Complained to your company?</tspan></text><text class="b" transform="translate(678 1962)"><tspan x="-89.36" y="0">Contact us</tspan></text><text class="a" transform="translate(694 1463)"><tspan x="12.996" y="22">Contact your company first</tspan></text><text class="c" transform="translate(694 1499)"><tspan x="46.527" y="26">Use the word ‘complaint’</tspan></text><path class="d" d="M11488,1131.059v123.727" transform="translate(-10805 -24.559)"/><path class="d" d="M11488.029,1131.059v67.292" transform="translate(-10810 722.956)"/><path class="d" d="M11488,1131.059v151.259" transform="translate(-11004 376.016)"/><path class="d" d="M11488,1131.059v49.4" transform="translate(-10614 417.129)"/><path class="d" d="M11548.7,1131.059V1408.4" transform="translate(-6492.545 -7306.61) rotate(45)"/><path class="d" d="M11488,1254.785V1131.059h389.523v123.727" transform="translate(-11004 189.441)"/><g transform="translate(170 -100)"><circle class="e" cx="35" cy="35" r="35" transform="translate(478 1233)"/><text class="f" transform="translate(513 1276)"><tspan x="-20.832" y="0">YES</tspan></text></g><g transform="translate(162 115)"><circle class="g" cx="35" cy="35" r="35" transform="translate(675 1233)"/><text class="f" transform="translate(710 1276)"><tspan x="-17.192" y="0">NO</tspan></text></g><g transform="translate(-29 115)"><circle class="e" cx="35" cy="35" r="35" transform="translate(478 1233)"/><text class="f" transform="translate(513 1276)"><tspan x="-20.832" y="0">YES</tspan></text></g><path class="h" d="M11488.834,1307.547V1345.6" transform="translate(-10805 -25)"/><path class="d" d="M11488.348,1131.059v59.266" transform="translate(-6603.68 -7043.969) rotate(45)"/><path class="d" d="M11488.348,1131.059v59.266" transform="translate(-8287.146 9203.008) rotate(-45)"/><path class="d" d="M11488.348,1131.059v43.249" transform="translate(-8080.461 8891.975) rotate(-45)"/><path class="d" d="M0,43.248V0" transform="translate(873.807 1598.847) rotate(-135)"/><g transform="translate(-1 4)"><path class="d" d="M11488.348,1131.059v43.249" transform="translate(-8469.461 8891.975) rotate(-45)"/><path class="d" d="M0,43.248V0" transform="translate(484.807 1598.847) rotate(-135)"/></g><path class="d" d="M0,276.228,2.528,0" transform="translate(679.516 1853.655) rotate(135)"/></g></svg>