<svg width="1366" height="186" xmlns="http://www.w3.org/2000/svg"><g fill="none" fill-rule="evenodd"><path fill="#FFD200" fill-rule="nonzero" d="M402.024 122.153h3.208v20.323h-3.208z"/><path fill="#59595C" fill-rule="nonzero" d="M405.232 122.153h1v20.323h-1zM401.599 122.153h1v20.323h-1z"/><path fill="#59595C" fill-rule="nonzero" d="M401.371 122.153h4.515v1.015h-4.515z"/><path fill="#FFD200" fill-rule="nonzero" d="M402.024 142.477h3.208V162.8h-3.208z"/><path fill="#59595C" fill-rule="nonzero" d="M405.232 142.477h1V162.8h-1zM401.599 142.477h1V162.8h-1z"/><path fill="#59595C" fill-rule="nonzero" d="M401.371 142.477h4.515v1.014h-4.515z"/><path d="M416.45 173.354h-8.891l-.671-.005a5.2 5.2 0 0 1-.929-.106 4.975 4.975 0 0 1-3.924-4.662c-.01-.175-.009-.285-.009-.383v-5.4h3.208v5.4c0 .114 0 .215.006.252a1.765 1.765 0 0 0 1.722 1.692h9.491l-.003 3.212z" fill="#FFD200" fill-rule="nonzero"/><path d="M416.45 170.146h-9.491a1.765 1.765 0 0 1-1.722-1.692 2.565 2.565 0 0 1-.006-.252v-5.4h.426v5.4c-.003.078-.002.157.005.235a1.32 1.32 0 0 0 .233.707c.193.282.487.478.821.55.083.015.167.024.252.027h9.48l.002.425z" fill="#59595C" fill-rule="nonzero"/><path d="M416.45 173.779h-9.572a5.739 5.739 0 0 1-1.008-.116 5.4 5.4 0 0 1-4.262-5.061 5.865 5.865 0 0 1-.009-.4v-5.4h.425v5.4c0 .1 0 .208.009.383a4.975 4.975 0 0 0 3.924 4.662 5.2 5.2 0 0 0 .929.106l.671.005h8.891l.002.421z" fill="#59595C" fill-rule="nonzero"/><path fill="#59595C" fill-rule="nonzero" d="M401.371 162.8h4.515v1.014h-4.515z"/><path fill="#FFD200" fill-rule="nonzero" d="M416.45 170.146h20.323v3.208H416.45z"/><path fill="#59595C" fill-rule="nonzero" d="M416.45 169.72h20.323v1H416.45zM416.45 173.354h20.323v1H416.45z"/><path fill="#59595C" fill-rule="nonzero" d="M416.45 169.492h1.014v4.515h-1.014z"/><path fill="#FFD200" fill-rule="nonzero" d="M436.774 170.146h20.323v3.208h-20.323z"/><path fill="#59595C" fill-rule="nonzero" d="M436.774 169.72h20.323v1h-20.323zM436.774 173.354h20.323v1h-20.323z"/><path fill="#59595C" fill-rule="nonzero" d="M436.774 169.492h1.014v4.515h-1.014z"/><path fill="#FFD200" fill-rule="nonzero" d="M457.097 170.146h20.323v3.208h-20.323z"/><path fill="#59595C" fill-rule="nonzero" d="M457.097 169.72h20.323v1h-20.323zM457.097 173.354h20.323v1h-20.323z"/><path fill="#59595C" fill-rule="nonzero" d="M457.097 169.492h1.014v4.515h-1.014z"/><path fill="#FFD200" fill-rule="nonzero" d="M477.42 170.146h20.323v3.208H477.42z"/><path fill="#59595C" fill-rule="nonzero" d="M477.42 169.72h20.323v1H477.42zM477.42 173.354h20.323v1H477.42z"/><path fill="#59595C" fill-rule="nonzero" d="M477.42 169.492h1.015v4.515h-1.015z"/><path fill="#FFD200" fill-rule="nonzero" d="M497.743 170.146h20.323v3.208h-20.323z"/><path fill="#59595C" fill-rule="nonzero" d="M497.743 169.72h20.323v1h-20.323zM497.743 173.354h20.323v1h-20.323z"/><path fill="#59595C" fill-rule="nonzero" d="M497.743 169.492h1.014v4.515h-1.014z"/><path fill="#FFD200" fill-rule="nonzero" d="M518.066 170.146h20.323v3.208h-20.323z"/><path fill="#59595C" fill-rule="nonzero" d="M518.066 169.72h20.323v1h-20.323zM518.066 173.354h20.323v1h-20.323z"/><path fill="#59595C" fill-rule="nonzero" d="M518.066 169.492h1.014v4.515h-1.014z"/><path fill="#FFD200" fill-rule="nonzero" d="M538.389 170.146h20.323v3.208h-20.323z"/><path fill="#59595C" fill-rule="nonzero" d="M538.389 169.72h20.323v1h-20.323zM538.389 173.354h20.323v1h-20.323z"/><path fill="#59595C" fill-rule="nonzero" d="M538.389 169.492h1.014v4.515h-1.014z"/><path fill="#FFD200" fill-rule="nonzero" d="M558.712 170.146h20.323v3.208h-20.323z"/><path fill="#59595C" fill-rule="nonzero" d="M558.712 169.72h20.323v1h-20.323zM558.712 173.354h20.323v1h-20.323z"/><path fill="#59595C" fill-rule="nonzero" d="M558.712 169.492h1.015v4.515h-1.015z"/><path d="M593.807 163.146v5.244l-.01.233a3.473 3.473 0 0 1-.044.465 4.978 4.978 0 0 1-4.385 4.236l-.466.027H579.035v-3.208l9.989-.012a1.769 1.769 0 0 0 1.569-1.669l.006-.084v-5.235l3.208.003z" fill="#FFD200" fill-rule="nonzero"/><path d="M590.6 163.146v5.235l-.006.084a.772.772 0 0 1-.016.167 1.769 1.769 0 0 1-1.553 1.502l-9.989.012v-.426l9.943-.008c.339-.037.65-.203.871-.463a1.306 1.306 0 0 0 .307-.678.482.482 0 0 0 .012-.126l.006-.065v-5.234h.425z" fill="#59595C" fill-rule="nonzero"/><path d="M594.233 163.146v5.245l-.01.253a3.882 3.882 0 0 1-.048.5 5.4 5.4 0 0 1-4.761 4.599c-.168.016-.337.022-.505.029h-9.873v-.425H588.903l.466-.027a4.978 4.978 0 0 0 4.429-4.701l.01-.233v-5.244l.425.004z" fill="#59595C" fill-rule="nonzero"/><path fill="#59595C" fill-rule="nonzero" d="M579.035 169.492h1.014v4.515h-1.014z"/><path fill="#FFD200" fill-rule="nonzero" d="M590.599 142.823h3.208v20.323h-3.208z"/><path fill="#59595C" fill-rule="nonzero" d="M590.174 142.823h1v20.323h-1zM593.807 142.823h1v20.323h-1z"/><path fill="#59595C" fill-rule="nonzero" d="M589.946 162.132h4.515v1.014h-4.515z"/><path fill="#FFD200" fill-rule="nonzero" d="M590.599 122.5h3.208v20.323h-3.208z"/><path fill="#59595C" fill-rule="nonzero" d="M590.174 122.5h1v20.323h-1zM593.807 122.5h1v20.323h-1z"/><path fill="#59595C" fill-rule="nonzero" d="M589.946 141.808h4.515v1.014h-4.515z"/><path fill="#FFD200" fill-rule="nonzero" d="M453.7 77.166l2.594 9.641h5.88l2.335-9.1z"/><path fill="#58595B" fill-rule="nonzero" d="M458.731 86.122h1.077v35.785h-1.077z"/><path d="M461.628 87.301h-4.717a1.455 1.455 0 0 1-1.458-1.059l-2.084-8.273 1.045-.263 2.087 8.287c.074.156.238.25.41.231h4.717a.409.409 0 0 0 .406-.215l2.092-8.3 1.044.263-2.088 8.288a1.45 1.45 0 0 1-1.454 1.041z" fill="#58595B" fill-rule="nonzero"/><path d="M458.81 74.437h.919a8.88 8.88 0 0 1 6.709 2.793l.307.356c.283.328-.018.77-.524.77h-13.9c-.506 0-.807-.442-.524-.77l.307-.356a8.88 8.88 0 0 1 6.706-2.793z" fill="#58595B" fill-rule="nonzero"/><circle fill="#58595B" fill-rule="nonzero" cx="459.269" cy="94.655" r="1.297"/><circle fill="#58595B" fill-rule="nonzero" cx="459.269" cy="74.341" r="1.297"/><path d="M460.73 94.475h-2.921a.728.728 0 0 1-.652-.389l-.577-1.13a.692.692 0 0 1 .653-.989h4.073a.692.692 0 0 1 .653.989l-.577 1.13a.728.728 0 0 1-.652.389zM460.538 89.026H458a.654.654 0 0 1-.567-.289l-.5-.84c-.2-.341.1-.736.567-.736h3.539c.465 0 .769.4.567.736l-.5.84a.654.654 0 0 1-.568.289z" fill="#58595B" fill-rule="nonzero"/><path fill="#FFD200" fill-rule="nonzero" d="M220.317 77.166l2.594 9.641h5.88l2.335-9.1zM20.894 77.166l2.594 9.641h5.88l2.335-9.1z"/><path fill="#58595B" fill-rule="nonzero" d="M25.926 86.122h1.077v35.785h-1.077z"/><path d="M28.823 87.301h-4.717a1.456 1.456 0 0 1-1.458-1.059l-2.084-8.273 1.045-.263 2.087 8.287c.074.156.238.25.41.231h4.717a.409.409 0 0 0 .406-.215l2.092-8.3 1.044.263-2.088 8.288a1.45 1.45 0 0 1-1.454 1.041z" fill="#58595B" fill-rule="nonzero"/><path d="M26 74.437h.919a8.88 8.88 0 0 1 6.709 2.793l.307.356c.283.328-.018.77-.524.77h-13.9c-.506 0-.807-.442-.524-.77l.307-.356A8.88 8.88 0 0 1 26 74.437z" fill="#58595B" fill-rule="nonzero"/><circle fill="#58595B" fill-rule="nonzero" cx="26.464" cy="94.655" r="1.297"/><circle fill="#58595B" fill-rule="nonzero" cx="26.464" cy="74.341" r="1.297"/><path d="M27.925 94.475H25a.728.728 0 0 1-.652-.389l-.577-1.13a.692.692 0 0 1 .653-.989H28.5a.692.692 0 0 1 .653.989l-.577 1.13a.728.728 0 0 1-.651.389zM27.733 89.026H25.2a.654.654 0 0 1-.567-.289l-.5-.84c-.2-.341.1-.736.567-.736h3.539c.465 0 .769.4.567.736l-.5.84a.654.654 0 0 1-.573.289z" fill="#58595B" fill-rule="nonzero"/><path fill="#6DC1D2" fill-rule="nonzero" d="M579.469 98.687h8.335v12.081h-8.335z"/><path fill="#58595B" fill-rule="nonzero" d="M225.349 86.122h1.077v35.785h-1.077z"/><path d="M228.245 87.301h-4.716a1.455 1.455 0 0 1-1.458-1.059l-2.084-8.273 1.044-.263 2.088 8.287a.4.4 0 0 0 .41.231h4.716a.409.409 0 0 0 .407-.215l2.091-8.3 1.045.263-2.088 8.288a1.451 1.451 0 0 1-1.455 1.041z" fill="#58595B" fill-rule="nonzero"/><path d="M225.428 74.437h.919a8.882 8.882 0 0 1 6.709 2.793l.307.356c.282.328-.018.77-.524.77h-13.9c-.506 0-.807-.442-.525-.77l.308-.356a8.88 8.88 0 0 1 6.706-2.793z" fill="#58595B" fill-rule="nonzero"/><circle fill="#58595B" fill-rule="nonzero" cx="225.887" cy="94.655" r="1.297"/><circle fill="#58595B" fill-rule="nonzero" cx="225.887" cy="74.341" r="1.297"/><path d="M227.348 94.475h-2.921a.729.729 0 0 1-.653-.389l-.576-1.13a.691.691 0 0 1 .652-.989h4.074a.691.691 0 0 1 .652.989l-.576 1.13a.728.728 0 0 1-.652.389zM227.156 89.026h-2.538a.653.653 0 0 1-.566-.289l-.5-.84c-.2-.341.1-.736.567-.736h3.539c.464 0 .769.4.566.736l-.5.84a.655.655 0 0 1-.568.289z" fill="#58595B" fill-rule="nonzero"/><path fill="#FFF" fill-rule="nonzero" d="M600.148 121.785l.125-51.528-40.731-7.6v59.126"/><path stroke="#58595B" stroke-width=".838" stroke-linejoin="round" d="M596.9 121.785l.125-51.528-40.731-7.6v59.126"/><path fill="#FFD200" fill-rule="nonzero" d="M566.727 79.193h8.335v12.081h-8.335z"/><path stroke="#58595B" stroke-width=".838" stroke-linejoin="round" d="M564.925 98.617h8.312v11.805h-8.312zM577.636 98.617h8.312v11.805h-8.312zM564.925 79.331h8.312v11.805h-8.312zM577.636 79.331h8.312v11.805h-8.312z"/><path d="M629.005 96.107l-32.148-8.289M624.507 95.2v26.954" stroke="#58595B" stroke-width=".838" stroke-linecap="round" stroke-linejoin="round"/><circle fill="#EE4036" fill-rule="nonzero" cx="601.548" cy="115.165" r="5.474"/><circle stroke="#58595B" stroke-width=".838" stroke-linecap="round" stroke-linejoin="round" cx="600.655" cy="115.578" r="5.474"/><path stroke="#58595B" stroke-width=".838" fill="#FFF" fill-rule="nonzero" stroke-linecap="round" stroke-linejoin="round" d="M597.218 113.998h6.876v2.096h-6.876zM600.655 114.236v1.858"/><path d="M598.976 114.236v1.858M602.352 114.236v1.858" stroke="#58595B" stroke-width=".838" stroke-linecap="round" stroke-linejoin="round"/><circle fill="#FFF" fill-rule="nonzero" cx="598.566" cy="117.966" r="1"/><circle fill="#FFF" fill-rule="nonzero" cx="600.656" cy="117.966" r="1"/><circle fill="#FFF" fill-rule="nonzero" cx="602.745" cy="117.966" r="1"/><path d="M606.129 115.578h.945c1.123 0 2.033.91 2.033 2.033v4.1M592.2 121.706v-4.1c0-1.123.911-2.033 2.034-2.033h.944" stroke="#FFF" stroke-width=".838"/><ellipse fill="#FFD200" fill-rule="nonzero" cx="714.099" cy="95.652" rx="11.398" ry="12.978"/><path d="M711.828 83.106c-6.045 0-10.964 5.633-10.964 12.557s4.919 12.555 10.964 12.555c6.045 0 10.963-5.632 10.963-12.555s-4.918-12.557-10.963-12.557z" stroke="#58595B" stroke-width=".838" stroke-linejoin="round"/><path d="M711.828 99.734v22.227" stroke="#58595B" stroke-width=".838" stroke-linecap="round" stroke-linejoin="round"/><ellipse fill="#82C0D0" fill-rule="nonzero" cx="662.468" cy="95.652" rx="11.398" ry="12.978"/><path d="M660.2 83.106c-6.045 0-10.963 5.633-10.963 12.557s4.914 12.551 10.963 12.551c6.049 0 10.964-5.632 10.964-12.555s-4.923-12.553-10.964-12.553z" stroke="#58595B" stroke-width=".838" stroke-linejoin="round"/><path d="M660.196 99.734v22.227" stroke="#58595B" stroke-width=".838" stroke-linecap="round" stroke-linejoin="round"/><ellipse fill="#82C0D0" fill-rule="nonzero" cx="382.628" cy="99.375" rx="9.785" ry="11.141"/><path d="M380.678 88.605c-5.189 0-9.412 4.836-9.412 10.779s4.223 10.779 9.412 10.779c5.189 0 9.412-4.835 9.412-10.779s-4.222-10.779-9.412-10.779z" stroke="#58595B" stroke-width=".838" stroke-linejoin="round"/><path d="M380.678 102.88v19.082" stroke="#58595B" stroke-width=".838" stroke-linecap="round" stroke-linejoin="round"/><ellipse fill="#FFD200" fill-rule="nonzero" cx="345.243" cy="95.652" rx="11.398" ry="12.978"/><path d="M342.971 83.106c-6.045 0-10.964 5.633-10.964 12.557s4.919 12.555 10.964 12.555c6.045 0 10.963-5.632 10.963-12.555s-4.918-12.557-10.963-12.557z" stroke="#58595B" stroke-width=".838" stroke-linejoin="round"/><path d="M342.971 99.734v22.227" stroke="#58595B" stroke-width=".838" stroke-linecap="round" stroke-linejoin="round"/><path fill="#FFF" fill-rule="nonzero" d="M478.674.419v121.366H543.8V.419zM254.422 71.446h64.733v50.339h-64.733z"/><path d="M248.22 110.059h2.719c.7 0 1.268.568 1.268 1.268v9.7a.393.393 0 0 1-.393.393h-4.469a.393.393 0 0 1-.393-.39v-9.7a1.268 1.268 0 0 1 1.268-1.271z" stroke="#58595B" stroke-width=".838" fill="#FFF" fill-rule="nonzero" stroke-linejoin="round"/><path d="M248.765 107.632h2.153v2.3h-2.677v-1.776c0-.29.235-.524.524-.524z" stroke="#58595B" stroke-width=".838" stroke-linejoin="round"/><path d="M250.675 107.632h.243v2.3h-.767v-1.776c0-.29.235-.524.524-.524z" stroke="#59595B" stroke-width=".838"/><path fill="#58595B" fill-rule="nonzero" d="M249.162 108.867h1v1.013h-1z"/><path fill="#58595B" fill-rule="nonzero" d="M249.371 108.34h1v1.39h-1z"/><rect fill="#58595B" fill-rule="nonzero" x="248.94" y="108.332" width="1.279" height="1" rx=".093"/><rect fill="#EE4036" fill-rule="nonzero" transform="rotate(45 249.58 115.795)" x="247.886" y="114.101" width="3.389" height="3.389" rx=".277"/><path d="M249.2 116.863a.028.028 0 0 0 .037-.04.635.635 0 0 1-.037-.632c.211-.471.339-.715.339-.715a1.7 1.7 0 0 0 .253.538c.2.219.247.538.118.805a.028.028 0 0 0 .037.039.787.787 0 0 0 .437-.7 1.365 1.365 0 0 0-.073-.506.984.984 0 0 0-.257-.452.027.027 0 0 0-.046.022c.018.293-.092.368-.155.2a1.021 1.021 0 0 1-.04-.323 1.107 1.107 0 0 0-.218-.673.789.789 0 0 0-.137-.14.028.028 0 0 0-.045.025c.008.422-.134.832-.4 1.159a.97.97 0 0 0-.172 1c.073.167.2.305.359.393z" fill="#FFF" fill-rule="nonzero"/><path fill="#7D4260" fill-rule="nonzero" d="M299.315 74.872h6.59v12.081h-6.59z"/><path stroke="#58595B" stroke-width=".838" stroke-linejoin="round" d="M271.248 74.972h8.312v11.805h-8.312zM283.959 74.972h8.312v11.805h-8.312zM296.67 74.972h8.312v11.805h-8.312z"/><path fill="#FFD200" fill-rule="nonzero" d="M299.315 90.617h6.59v12.081h-6.59zM272.471 90.617h21.316v12.081h-21.316z"/><path stroke="#58595B" stroke-width=".838" stroke-linejoin="round" d="M296.67 90.716h8.312v11.805h-8.312z"/><path fill="#EE4036" fill-rule="nonzero" d="M260.328 74.872h8.312v43.747h-8.312z"/><path stroke="#58595B" stroke-width=".838" stroke-linejoin="round" d="M258.537 74.872h8.312v43.57h-8.312zM271.248 90.716h21.023v11.805h-21.023z"/><path fill="#FFD200" fill-rule="nonzero" d="M299.315 106.538h6.59v12.081h-6.59z"/><path fill="#6DC1D2" fill-rule="nonzero" d="M287.197 106.538h6.59v12.081h-6.59z"/><path stroke="#58595B" stroke-width=".838" stroke-linejoin="round" d="M271.248 106.637h8.312v11.805h-8.312zM283.959 106.637h8.312v11.805h-8.312zM296.67 106.637h8.312v11.805h-8.312z"/><path fill="#FFF" fill-rule="nonzero" d="M326.747 71.446h-78.292l10.585-10.95h57.122z"/><path stroke="#58595B" stroke-width=".838" stroke-linejoin="round" d="M323.495 71.446H245.2l10.585-10.95h57.125zM251.982 71.446h64.733v50.339h-64.733z"/><path fill="#FFF" fill-rule="nonzero" d="M1047.855 71.446h64.733v50.339h-64.733z"/><path d="M1041.653 110.059h2.719c.7 0 1.268.568 1.268 1.268v9.7a.393.393 0 0 1-.393.393h-4.469a.393.393 0 0 1-.393-.39v-9.7a1.268 1.268 0 0 1 1.268-1.271z" stroke="#58595B" stroke-width=".838" fill="#FFF" fill-rule="nonzero" stroke-linejoin="round"/><path d="M1042.198 107.632h2.153v2.3h-2.677v-1.776c0-.29.235-.524.524-.524z" stroke="#58595B" stroke-width=".838" stroke-linejoin="round"/><path d="M1044.108 107.632h.243v2.3h-.767v-1.776c0-.29.235-.524.524-.524z" stroke="#59595B" stroke-width=".838"/><path fill="#58595B" fill-rule="nonzero" d="M1042.596 108.867h1v1.013h-1z"/><path fill="#58595B" fill-rule="nonzero" d="M1042.804 108.34h1v1.39h-1z"/><rect fill="#58595B" fill-rule="nonzero" x="1042.374" y="108.332" width="1.279" height="1" rx=".093"/><rect fill="#EE4036" fill-rule="nonzero" transform="rotate(45 1043.013 115.795)" x="1041.319" y="114.101" width="3.389" height="3.389" rx=".277"/><path d="M1042.634 116.863a.028.028 0 0 0 .036-.04.638.638 0 0 1-.037-.632c.211-.471.339-.715.339-.715a1.7 1.7 0 0 0 .253.538.724.724 0 0 1 .119.805.027.027 0 0 0 .036.039.787.787 0 0 0 .437-.7 1.365 1.365 0 0 0-.073-.506.985.985 0 0 0-.257-.452.028.028 0 0 0-.046.022c.018.293-.092.368-.155.2a1.025 1.025 0 0 1-.039-.323 1.108 1.108 0 0 0-.218-.673.8.8 0 0 0-.138-.14.028.028 0 0 0-.044.025c.008.421-.134.832-.4 1.159a.971.971 0 0 0-.173 1c.073.167.2.305.36.393z" fill="#FFF" fill-rule="nonzero"/><path fill="#7D4260" fill-rule="nonzero" d="M1092.748 74.872h6.59v12.081h-6.59z"/><path stroke="#58595B" stroke-width=".838" stroke-linejoin="round" d="M1064.681 74.972h8.312v11.805h-8.312zM1077.393 74.972h8.312v11.805h-8.312zM1090.104 74.972h8.312v11.805h-8.312z"/><path fill="#FFD200" fill-rule="nonzero" d="M1092.748 90.617h6.59v12.081h-6.59zM1065.905 90.617h21.316v12.081h-21.316z"/><path stroke="#58595B" stroke-width=".838" stroke-linejoin="round" d="M1090.104 90.716h8.312v11.805h-8.312z"/><path fill="#EE4036" fill-rule="nonzero" d="M1053.761 74.872h8.312v43.747h-8.312z"/><path stroke="#58595B" stroke-width=".838" stroke-linejoin="round" d="M1051.97 74.872h8.312v43.57h-8.312zM1064.681 90.716h21.023v11.805h-21.023z"/><path fill="#FFD200" fill-rule="nonzero" d="M1092.748 106.538h6.59v12.081h-6.59z"/><path fill="#6DC1D2" fill-rule="nonzero" d="M1080.631 106.538h6.59v12.081h-6.59z"/><path stroke="#58595B" stroke-width=".838" stroke-linejoin="round" d="M1064.681 106.637h8.312v11.805h-8.312zM1077.393 106.637h8.312v11.805h-8.312zM1090.104 106.637h8.312v11.805h-8.312z"/><path fill="#FFF" fill-rule="nonzero" d="M1120.181 71.446h-78.292l10.585-10.95h57.126z"/><path stroke="#58595B" stroke-width=".838" stroke-linejoin="round" d="M1116.928 71.446h-78.292l10.585-10.95h57.122zM1045.416 71.446h64.733v50.339h-64.733z"/><path fill="#FFD200" fill-rule="nonzero" d="M759.236 92.135h34.314v22.621h-34.314z"/><path fill="#FFF" fill-rule="nonzero" d="M776.794 94.732l-15.914 19.643h31.829z"/><path d="M756.381 74.88v47.62h63.784V74.88h-63.784zm40.48 40.136h-34.313V91.853h34.313v23.163z" fill="#FFF" fill-rule="nonzero"/><path d="M776.392 91.972v2.864" stroke="#58595B" stroke-width=".838"/><path d="M776.392 94.451a3.7 3.7 0 0 0-3.7 3.7h7.4a3.7 3.7 0 0 0-3.7-3.7z" fill="#58595B" fill-rule="nonzero"/><path stroke="#58595B" stroke-width=".838" stroke-linejoin="round" d="M753.069 74.88h63.783v47.081h-63.783z"/><path fill="#EE4036" fill-rule="nonzero" d="M831.621 92.135h-88.008l11.9-10.95h64.211z"/><path stroke="#58595B" stroke-width=".838" stroke-linejoin="round" d="M798.776 99.034h11.255v22.927h-11.255z"/><circle fill="#58595B" fill-rule="nonzero" cx="807.526" cy="110.497" r="1"/><path stroke="#58595B" stroke-width=".838" stroke-linejoin="round" d="M759.236 92.135h34.314v22.621h-34.314zM829.046 92.135h-88.008l11.9-10.95h64.211z"/><path fill="#EE4036" fill-rule="nonzero" d="M123.936 122.153h3.208v19.464h-3.208z"/><path fill="#59595C" fill-rule="nonzero" d="M127.144 122.153h1v19.464h-1zM123.511 122.153h1v19.464h-1z"/><path fill="#59595C" fill-rule="nonzero" d="M123.282 122.153h4.515v1h-4.515z"/><path fill="#EE4036" fill-rule="nonzero" d="M123.936 141.618h3.208v19.464h-3.208z"/><path fill="#59595C" fill-rule="nonzero" d="M127.144 141.618h1v19.464h-1zM123.511 141.618h1v19.464h-1z"/><path fill="#59595C" fill-rule="nonzero" d="M123.282 141.618h4.515v1h-4.515z"/><path d="M135.785 173.354H129.7a12.61 12.61 0 0 1-1.416-.043 4.942 4.942 0 0 1-3.1-1.645 5 5 0 0 1-1.247-3.284v-7.3h3.208v7.3c.004.429.161.842.444 1.165.282.324.674.533 1.1.585.13.022.621.016 1.014.017h6.083l-.001 3.205z" fill="#EE4036" fill-rule="nonzero"/><path d="M135.785 170.146H129.7c-.393 0-.884 0-1.014-.017a1.737 1.737 0 0 1-1.1-.585 1.791 1.791 0 0 1-.444-1.165v-7.3h.425v7.3c.002.326.122.64.337.885.213.246.51.405.834.444.058.016.572.014.961.013h6.083l.003.425z" fill="#59595C" fill-rule="nonzero"/><path d="M135.785 173.779H129.7c-.49.013-.98-.003-1.469-.046a5.369 5.369 0 0 1-3.369-1.785 5.425 5.425 0 0 1-1.353-3.565v-7.3h.425v7.3a5 5 0 0 0 1.247 3.284c.797.91 1.9 1.494 3.1 1.645.47.04.944.055 1.416.043h6.083l.005.424z" fill="#59595C" fill-rule="nonzero"/><path fill="#59595C" fill-rule="nonzero" d="M123.282 161.081h4.515v1h-4.515z"/><path fill="#EE4036" fill-rule="nonzero" d="M135.785 170.146h19.464v3.208h-19.464z"/><path fill="#59595C" fill-rule="nonzero" d="M135.785 169.72h19.464v1h-19.464zM135.785 173.354h19.464v1h-19.464z"/><path fill="#59595C" fill-rule="nonzero" d="M135.785 169.492h1v4.515h-1z"/><path fill="#EE4036" fill-rule="nonzero" d="M155.249 170.146h19.464v3.208h-19.464z"/><path fill="#59595C" fill-rule="nonzero" d="M155.249 169.72h19.464v1h-19.464zM155.249 173.354h19.464v1h-19.464z"/><path fill="#59595C" fill-rule="nonzero" d="M155.249 169.492h1v4.515h-1z"/><path fill="#EE4036" fill-rule="nonzero" d="M174.713 170.146h19.464v3.208h-19.464z"/><path fill="#59595C" fill-rule="nonzero" d="M174.713 169.72h19.464v1h-19.464zM174.713 173.354h19.464v1h-19.464z"/><path fill="#59595C" fill-rule="nonzero" d="M174.713 169.492h1v4.515h-1z"/><path fill="#EE4036" fill-rule="nonzero" d="M194.177 170.146h19.464v3.208h-19.464z"/><path fill="#59595C" fill-rule="nonzero" d="M194.177 169.72h19.464v1h-19.464zM194.177 173.354h19.464v1h-19.464z"/><path fill="#59595C" fill-rule="nonzero" d="M194.177 169.492h1v4.515h-1z"/><path fill="#EE4036" fill-rule="nonzero" d="M213.641 170.146h19.464v3.208h-19.464z"/><path fill="#59595C" fill-rule="nonzero" d="M213.641 169.72h19.464v1h-19.464zM213.641 173.354h19.464v1h-19.464z"/><path fill="#59595C" fill-rule="nonzero" d="M213.641 169.492h1v4.515h-1z"/><path fill="#EE4036" fill-rule="nonzero" d="M233.105 170.146h19.464v3.208h-19.464z"/><path fill="#59595C" fill-rule="nonzero" d="M233.105 169.72h19.464v1h-19.464zM233.105 173.354h19.464v1h-19.464z"/><path fill="#59595C" fill-rule="nonzero" d="M233.105 169.492h1v4.515h-1z"/><path fill="#EE4036" fill-rule="nonzero" d="M252.569 170.146h19.464v3.208h-19.464z"/><path fill="#59595C" fill-rule="nonzero" d="M252.569 169.72h19.464v1h-19.464zM252.569 173.354h19.464v1h-19.464z"/><path fill="#59595C" fill-rule="nonzero" d="M252.569 169.492h1v4.515h-1z"/><path fill="#EE4036" fill-rule="nonzero" d="M272.033 170.146h19.464v3.208h-19.464z"/><path fill="#59595C" fill-rule="nonzero" d="M272.033 169.72h19.464v1h-19.464zM272.033 173.354h19.464v1h-19.464z"/><path fill="#59595C" fill-rule="nonzero" d="M272.033 169.492h1v4.515h-1z"/><path fill="#EE4036" fill-rule="nonzero" d="M291.497 170.146h19.464v3.208h-19.464z"/><path fill="#59595C" fill-rule="nonzero" d="M291.497 169.72h19.464v1h-19.464zM291.497 173.354h19.464v1h-19.464z"/><path fill="#59595C" fill-rule="nonzero" d="M291.497 169.492h1v4.515h-1z"/><path fill="#EE4036" fill-rule="nonzero" d="M310.961 170.146h19.464v3.208h-19.464z"/><path fill="#59595C" fill-rule="nonzero" d="M310.961 169.72h19.464v1h-19.464zM310.961 173.354h19.464v1h-19.464z"/><path fill="#59595C" fill-rule="nonzero" d="M310.961 169.492h1v4.515h-1z"/><path d="M350.618 172.665a4.956 4.956 0 0 1-1.679.614c-.29.048-.582.073-.875.075h-17.639v-3.208h17.639c.113-.002.225-.013.336-.032.21-.036.41-.11.593-.217l1.625 2.768z" fill="#EE4036" fill-rule="nonzero"/><path d="M348.992 169.9a1.758 1.758 0 0 1-.593.217c-.11.018-.223.028-.335.029h-17.639v-.426h17.639c.088 0 .177-.008.264-.023.158-.027.31-.082.448-.163l.216.366zM350.834 173.032a5.4 5.4 0 0 1-1.823.666 6 6 0 0 1-.947.081h-17.639v-.425h17.639c.293-.002.586-.027.875-.075a4.956 4.956 0 0 0 1.679-.614l.216.367z" fill="#59595C" fill-rule="nonzero"/><path fill="#59595C" fill-rule="nonzero" d="M330.425 169.492h1v4.515h-1z"/><path d="M353.076 152.414v15.82c0 .084 0 .218-.01.379-.004.15-.018.298-.041.446a4.962 4.962 0 0 1-2.406 3.606l-1.626-2.765a1.749 1.749 0 0 0 .869-1.438c.006-.076.009-.152.007-.228v-15.82h3.207z" fill="#EE4036" fill-rule="nonzero"/><path d="M349.868 152.414v15.82c.002.076 0 .152-.007.228a.758.758 0 0 1-.014.159 1.749 1.749 0 0 1-.855 1.279l-.216-.366a1.327 1.327 0 0 0 .663-1.092l.006-.062v-15.966h.423zM353.5 152.414v15.972l-.009.242c-.005.162-.02.324-.045.484a5.369 5.369 0 0 1-2.612 3.915l-.216-.367a4.962 4.962 0 0 0 2.447-4.052c.009-.161.011-.295.01-.379v-15.815h.425z" fill="#59595C" fill-rule="nonzero"/><path d="M350.95 173.229a5.5 5.5 0 0 0 1.259-1.009l-3.3-3.084c-.072.08-.157.147-.251.2l2.292 3.893z" fill="#59595C" fill-rule="nonzero"/><path d="M353.467 134.132a1.734 1.734 0 0 0-.369.866.758.758 0 0 0-.014.159l-.006.08v17.177h-3.208v-17.179l.009-.223a4.972 4.972 0 0 1 1.092-2.892l2.496 2.012z" fill="#EE4036" fill-rule="nonzero"/><path d="M350.968 132.12a4.972 4.972 0 0 0-1.092 2.892l-.009.223v17.179h-.426v-17.179l.01-.243a5.55 5.55 0 0 1 .259-1.434 5.315 5.315 0 0 1 .925-1.7l.333.262zM353.8 134.399a1.3 1.3 0 0 0-.291.777l-.006.062v17.176h-.425v-17.177l.006-.08a1.734 1.734 0 0 1 .383-1.025l.333.267z" fill="#59595C" fill-rule="nonzero"/><path fill="#59595C" fill-rule="nonzero" d="M349.214 151.448h4.515v1h-4.515z"/><path d="M371.3 133.47h-16.427a1.786 1.786 0 0 0-1.406.662l-2.5-2.012a5 5 0 0 1 3.905-1.858H371.3v3.208z" fill="#EE4036" fill-rule="nonzero"/><path d="M371.3 130.262h-16.427a5 5 0 0 0-3.905 1.858l-.332-.266a5.422 5.422 0 0 1 4.237-2.017H371.3v.425zM371.3 133.895h-16.427c-.087.002-.174.01-.26.024-.32.056-.61.227-.815.48l-.331-.267a1.786 1.786 0 0 1 1.406-.662H371.3v.425z" fill="#59595C" fill-rule="nonzero"/><path d="M353.976 134.542a1.3 1.3 0 0 1 .236-.22l-2.573-3.711c-.443.31-.84.68-1.181 1.1l3.518 2.831z" fill="#59595C" fill-rule="nonzero"/><path fill="#EE4036" fill-rule="nonzero" d="M371.295 130.262h19.464v3.208h-19.464z"/><path fill="#59595C" fill-rule="nonzero" d="M371.295 129.837h19.464v1h-19.464zM371.295 133.47h19.464v1h-19.464z"/><path fill="#59595C" fill-rule="nonzero" d="M371.295 129.608h1v4.515h-1z"/><path fill="#EE4036" fill-rule="nonzero" d="M390.759 130.262h19.464v3.208h-19.464z"/><path fill="#59595C" fill-rule="nonzero" d="M390.759 129.837h19.464v1h-19.464zM390.759 133.47h19.464v1h-19.464z"/><path fill="#59595C" fill-rule="nonzero" d="M390.759 129.608h1v4.515h-1z"/><path fill="#EE4036" fill-rule="nonzero" d="M410.223 130.262h19.464v3.208h-19.464z"/><path fill="#59595C" fill-rule="nonzero" d="M410.223 129.837h19.464v1h-19.464zM410.223 133.47h19.464v1h-19.464z"/><path fill="#59595C" fill-rule="nonzero" d="M410.223 129.608h1v4.515h-1z"/><path fill="#EE4036" fill-rule="nonzero" d="M429.687 130.262h19.464v3.208h-19.464z"/><path fill="#59595C" fill-rule="nonzero" d="M429.687 129.837h19.464v1h-19.464zM429.687 133.47h19.464v1h-19.464z"/><path fill="#59595C" fill-rule="nonzero" d="M429.687 129.608h1v4.515h-1z"/><path fill="#EE4036" fill-rule="nonzero" d="M449.151 130.262h19.464v3.208h-19.464z"/><path fill="#59595C" fill-rule="nonzero" d="M449.151 129.837h19.464v1h-19.464zM449.151 133.47h19.464v1h-19.464z"/><path fill="#59595C" fill-rule="nonzero" d="M449.151 129.608h1v4.515h-1z"/><path d="M481.766 122.5v4.866l-.005 1.258a4.881 4.881 0 0 1-.364 1.749 5 5 0 0 1-4.106 3.072l-.447.023H468.615v-3.208h8.194l.161-.007a1.79 1.79 0 0 0 1.457-1.093c.082-.197.125-.407.127-.62V122.5h3.212z" fill="#EE4036" fill-rule="nonzero"/><path d="M478.558 122.5V128.54a1.651 1.651 0 0 1-.127.62 1.79 1.79 0 0 1-1.457 1.093l-.161.007h-8.194v-.425h8.19a.84.84 0 0 1 .123 0c.49-.057.91-.375 1.1-.831.064-.149.098-.308.1-.47v-6.029l.426-.005z" fill="#59595C" fill-rule="nonzero"/><path d="M482.192 122.5v4.866l-.006 1.269a5.418 5.418 0 0 1-4.857 5.235l-.484.025h-8.234v-.425H476.84l.447-.023a5 5 0 0 0 4.106-3.072 4.881 4.881 0 0 0 .364-1.749l.005-1.258v-4.866l.43-.002z" fill="#59595C" fill-rule="nonzero"/><path fill="#59595C" fill-rule="nonzero" d="M468.615 129.608h1v4.515h-1z"/><path fill="#FFD200" fill-rule="nonzero" d="M492.137 98.495h7.852v12.081h-7.852zM517.374 98.495h7.852v12.081h-7.852zM517.374 20.441h7.852v12.081h-7.852zM517.374 59.468h7.852v12.081h-7.852z"/><path fill="#EE4036" fill-rule="nonzero" d="M504.848 20.521h7.483v12.081h-7.483z"/><path fill="#6DC1D2" fill-rule="nonzero" d="M504.848 40.003h7.483v12.081h-7.483zM504.848 78.991h7.483v12.081h-7.483z"/><path stroke="#58595B" stroke-width=".838" stroke-linejoin="round" d="M489.491 20.659h8.312v11.805h-8.312zM502.202 20.659h8.312v11.805h-8.312zM514.914 20.659h8.312v11.805h-8.312zM489.491 40.141h8.312v11.805h-8.312zM502.202 40.141h8.312v11.805h-8.312zM514.914 40.141h8.312v11.805h-8.312zM489.491 59.641h8.312v11.805h-8.312zM502.202 59.641h8.312v11.805h-8.312zM514.914 59.641h8.312v11.805h-8.312zM489.491 79.129h8.312v11.805h-8.312zM502.202 79.129h8.312v11.805h-8.312zM514.914 79.129h8.312v11.805h-8.312zM489.491 98.617h8.312v11.805h-8.312zM502.202 98.617h8.312v11.805h-8.312zM514.914 98.617h8.312v11.805h-8.312z"/><path d="M942.158 102.166l.284.126-.335.574a18.91 18.91 0 0 1-4.216 4.891c-2.219 1.894-2.3 4.364-2.185 7.4.041 1.028 1.708 1.922 2.4 2.206l8.344-.183h21.524l8.281.129a11.229 11.229 0 0 0 3.826-1.452 1.2 1.2 0 0 0 .04-.241 4.079 4.079 0 0 0-.05-.57 3.477 3.477 0 0 1-.016-1.168 2.75 2.75 0 0 0-.531-2.286 10.079 10.079 0 0 0-8.138-4.507 11.478 11.478 0 0 1-5.13-1.817 46.668 46.668 0 0 0-6.446-3.211 14.42 14.42 0 0 0-4.345-.725 53.861 53.861 0 0 0-13.307.834z" fill="#82C0D0" fill-rule="nonzero"/><path d="M979.69 115.369a12.225 12.225 0 0 1-3.933 1.361l-8.511-.121h-22.124l-8.576.172c-.715-.267-2.429-1.105-2.471-2.068-.123-2.842-.035-5.157 2.246-6.933a18.263 18.263 0 0 0 4.333-4.584l.345-.538-.292-.118a60.591 60.591 0 0 1 13.681-.784 16.09 16.09 0 0 1 4.466.679 49.99 49.99 0 0 1 6.626 3.009 12.536 12.536 0 0 0 5.273 1.7 10.63 10.63 0 0 1 8.364 4.225 2.4 2.4 0 0 1 .546 2.142c-.063.365-.057.738.017 1.1.03.177.047.356.051.535-.005.076-.02.15-.041.223z" stroke="#58595B" stroke-width=".838" stroke-linejoin="round"/><path fill="#FFF" fill-rule="nonzero" d="M953.512 103.414l-4.553 6.374h2.751l-1.251 4.446 4.382-6.161h-3.134z"/><circle stroke="#FFF" stroke-width=".838" fill="#FFF" fill-rule="nonzero" stroke-linejoin="round" cx="941.649" cy="117.495" r="3.593"/><circle stroke="#FFF" stroke-width=".838" fill="#FFF" fill-rule="nonzero" stroke-linejoin="round" cx="970.907" cy="117.495" r="3.593"/><circle stroke="#58595B" stroke-width=".838" stroke-linejoin="round" cx="971.506" cy="117.495" r="3.593"/><circle stroke="#58595B" stroke-width=".838" stroke-linejoin="round" cx="942.366" cy="117.495" r="3.593"/><path d="M1302.878 102.166l-.284.126.335.574a18.894 18.894 0 0 0 4.216 4.891c2.219 1.894 2.3 4.364 2.185 7.4-.041 1.028-1.709 1.922-2.4 2.206l-8.343-.183h-21.524l-8.281.129a11.221 11.221 0 0 1-3.826-1.452 1.172 1.172 0 0 1-.041-.241c.004-.19.021-.381.051-.57a3.5 3.5 0 0 0 .016-1.168 2.746 2.746 0 0 1 .531-2.286 10.079 10.079 0 0 1 8.138-4.507c1.83-.186 3.59-.809 5.13-1.817a46.669 46.669 0 0 1 6.446-3.211 14.42 14.42 0 0 1 4.345-.725 53.862 53.862 0 0 1 13.306.834z" fill="#FFD200" fill-rule="nonzero"/><path d="M1265.3 115.144c.004-.18.021-.358.052-.535.074-.362.08-.736.016-1.1a2.407 2.407 0 0 1 .546-2.142 10.632 10.632 0 0 1 8.365-4.225 12.541 12.541 0 0 0 5.273-1.7 49.989 49.989 0 0 1 6.626-3.009 16.084 16.084 0 0 1 4.466-.679 60.594 60.594 0 0 1 13.681.784l-.292.118.344.538a18.3 18.3 0 0 0 4.333 4.584c2.282 1.776 2.369 4.091 2.247 6.933-.042.963-1.757 1.8-2.471 2.068l-8.576-.172h-22.12l-8.512.121a12.228 12.228 0 0 1-3.932-1.361 1.027 1.027 0 0 1-.046-.223z" stroke="#58595B" stroke-width=".838" stroke-linejoin="round"/><path fill="#FFF" fill-rule="nonzero" d="M1291.524 103.414l4.553 6.374h-2.751l1.251 4.446-4.382-6.161h3.134z"/><circle stroke="#FFF" stroke-width=".838" fill="#FFF" fill-rule="nonzero" stroke-linejoin="round" cx="1303.387" cy="117.495" r="3.593"/><circle stroke="#FFF" stroke-width=".838" fill="#FFF" fill-rule="nonzero" stroke-linejoin="round" cx="1274.129" cy="117.495" r="3.593"/><circle stroke="#58595B" stroke-width=".838" stroke-linejoin="round" cx="1273.529" cy="117.495" r="3.593"/><circle stroke="#58595B" stroke-width=".838" stroke-linejoin="round" cx="1302.67" cy="117.495" r="3.593"/><path d="M43.141 106.646h37.476v5.827a2.5 2.5 0 0 1-2.5 2.5H45.641a2.5 2.5 0 0 1-2.5-2.5v-5.827zM61.878 103.06c3.7 0 6.7-3 6.7-6.7h-13.4a6.7 6.7 0 0 0 6.7 6.7zM56.345 118.077h11.068v3.57H56.345z" fill="#429CA5" fill-rule="nonzero"/><path fill="#58595B" fill-rule="nonzero" d="M59.738 102.653h1.04v3.415h-1.04zM59.738 114.522h1.04v3.124h-1.04zM50.387 120.681h19.742v1.04H50.387z"/><path d="M41.514 106.24H78.99v4.738a3.584 3.584 0 0 1-3.584 3.584H45.098a3.584 3.584 0 0 1-3.584-3.584v-4.738zM60.252 102.653c3.7 0 6.7-3 6.7-6.7h-13.4c0 3.7 3 6.7 6.7 6.7zM54.718 117.67h11.068v3.57H54.718z" stroke="#58595B" stroke-width=".838"/><path d="M60.258 94.714v-4.238a3.047 3.047 0 0 1 3.047-3.047h.2a3.047 3.047 0 0 1 3.046 3.047" stroke="#FFF" stroke-width=".838" stroke-linecap="round"/><circle fill="#FFF" fill-rule="nonzero" cx="66.556" cy="91.637" r="1"/><circle fill="#FFF" fill-rule="nonzero" cx="66.556" cy="92.854" r="1"/><path d="M60.258 93.673v-4.238a3.046 3.046 0 0 0-3.046-3.046h-.205a3.047 3.047 0 0 0-3.047 3.046" stroke="#FFF" stroke-width=".838" stroke-linecap="round"/><circle fill="#FFF" fill-rule="nonzero" cx="53.96" cy="90.593" r="1"/><circle fill="#FFF" fill-rule="nonzero" cx="53.96" cy="91.81" r="1"/><path d="M851.608 106.646h37.476v5.827a2.5 2.5 0 0 1-2.5 2.5h-32.476a2.5 2.5 0 0 1-2.5-2.5v-5.827zM870.346 103.06c3.7 0 6.7-3 6.7-6.7h-13.4a6.7 6.7 0 0 0 6.7 6.7zM864.812 118.077h11.068v3.57h-11.068z" fill="#429CA5" fill-rule="nonzero"/><path fill="#58595B" fill-rule="nonzero" d="M868.206 102.653h1.04v3.415h-1.04zM868.206 114.522h1.04v3.124h-1.04zM858.855 120.681h19.742v1.04h-19.742z"/><path d="M849.982 106.24h37.476v4.738a3.584 3.584 0 0 1-3.584 3.584h-30.308a3.584 3.584 0 0 1-3.584-3.584v-4.738zM868.72 102.653c3.7 0 6.7-3 6.7-6.7h-13.4c0 3.7 3 6.7 6.7 6.7zM863.186 117.67h11.068v3.57h-11.068z" stroke="#58595B" stroke-width=".838"/><path d="M868.726 94.714v-4.238a3.047 3.047 0 0 1 3.046-3.047h.205a3.047 3.047 0 0 1 3.047 3.047" stroke="#FFF" stroke-width=".838" stroke-linecap="round"/><circle fill="#FFF" fill-rule="nonzero" cx="875.024" cy="91.637" r="1"/><circle fill="#FFF" fill-rule="nonzero" cx="875.024" cy="92.854" r="1"/><path d="M868.726 93.673v-4.238a3.047 3.047 0 0 0-3.047-3.046h-.205a3.046 3.046 0 0 0-3.046 3.046" stroke="#FFF" stroke-width=".838" stroke-linecap="round"/><circle fill="#FFF" fill-rule="nonzero" cx="862.428" cy="90.593" r="1"/><circle fill="#FFF" fill-rule="nonzero" cx="862.428" cy="91.81" r="1"/><path d="M210.478 92.4h-32.295c-4.193 0-4.974.674-6.3 2.758l-4.458 7.572-7.733 2.671c-1.918.632-2.629 1.3-2.629 2.462v7.667a2.43 2.43 0 0 0 2.427 2.428h1.437a7 7 0 0 1 13.857 0h20.786a7 7 0 0 1 13.85 0h1.058a2.43 2.43 0 0 0 2.428-2.428v-20.7a2.429 2.429 0 0 0-2.428-2.43zm-24.613 10.277a.374.374 0 0 1-.376.375H171.6a.374.374 0 0 1-.373-.375l3.651-7.375a.728.728 0 0 1 .665-.374h9.946a.374.374 0 0 1 .376.374v7.375z" fill="#FFF" fill-rule="nonzero"/><path d="M157.566 109.156h3.141c.563 0 1.019.456 1.019 1.019v2.292c0 .562-.457 1.018-1.019 1.018h-3.14a1.019 1.019 0 0 1-1.019-1.018v-2.293c0-.562.456-1.018 1.018-1.018z" fill="#FFF" fill-rule="nonzero"/><path d="M155.364 107.863v7.667a3.048 3.048 0 0 0 3.047 3.048h2a6.381 6.381 0 0 1 12.74 0h21.9a6.377 6.377 0 0 1 12.731 0h1.618a3.049 3.049 0 0 0 3.048-3.048v-20.7a3.048 3.048 0 0 0-3.048-3.047h-32.3c-4.37 0-5.362.75-6.82 3.046l-4.354 7.393-7.516 2.6c-1.797.586-3.046 1.357-3.046 3.041z" stroke="#58595B" stroke-width=".838" stroke-linejoin="round"/><path d="M196.084 116.698a5.376 5.376 0 1 0 10.752-.002 5.376 5.376 0 0 0-10.752.002zM161.414 116.698a5.376 5.376 0 1 0 10.752-.002 5.376 5.376 0 0 0-10.752.002z" fill="#58595B" fill-rule="nonzero"/><path stroke="#58595B" stroke-width=".838" stroke-linejoin="round" d="M473.8.419v121.366h65.125V.419z"/><path fill="#FFF" fill-rule="nonzero" d="M1152.072.419v121.366h65.128V.419z"/><path fill="#FFD200" fill-rule="nonzero" d="M1165.535 98.495h7.852v12.081h-7.852zM1190.772 98.495h7.852v12.081h-7.852zM1190.772 20.441h7.852v12.081h-7.852zM1190.772 59.468h7.852v12.081h-7.852z"/><path fill="#EE4036" fill-rule="nonzero" d="M1178.245 20.521h7.483v12.081h-7.483z"/><path fill="#6DC1D2" fill-rule="nonzero" d="M1178.245 40.003h7.483v12.081h-7.483zM1178.245 78.991h7.483v12.081h-7.483z"/><path stroke="#58595B" stroke-width=".838" stroke-linejoin="round" d="M1162.889 20.659h8.312v11.805h-8.312zM1175.6 20.659h8.312v11.805h-8.312zM1188.311 20.659h8.312v11.805h-8.312zM1162.889 40.141h8.312v11.805h-8.312zM1175.6 40.141h8.312v11.805h-8.312zM1188.311 40.141h8.312v11.805h-8.312zM1162.889 59.641h8.312v11.805h-8.312zM1175.6 59.641h8.312v11.805h-8.312zM1188.311 59.641h8.312v11.805h-8.312zM1162.889 79.129h8.312v11.805h-8.312zM1175.6 79.129h8.312v11.805h-8.312zM1188.311 79.129h8.312v11.805h-8.312zM1162.889 98.617h8.312v11.805h-8.312zM1175.6 98.617h8.312v11.805h-8.312zM1188.311 98.617h8.312v11.805h-8.312z"/><path stroke="#58595B" stroke-width=".838" stroke-linejoin="round" d="M1147.193.419v121.366h65.126V.419z"/><path fill="#FFF" fill-rule="nonzero" d="M0 151.3h18.713v3.085H0z"/><path fill="#59595C" fill-rule="nonzero" d="M0 150.891h18.713v1H0zM0 154.384h18.713v1H0z"/><path fill="#FFF" fill-rule="nonzero" d="M18.713 151.3h19.355v3.085H18.713z"/><path fill="#59595C" fill-rule="nonzero" d="M18.713 150.891h19.355v1H18.713zM18.713 154.384h19.355v1H18.713z"/><path fill="#59595C" fill-rule="nonzero" d="M18.713 150.671h1v4.342h-1z"/><path fill="#FFF" fill-rule="nonzero" d="M38.067 151.3h19.355v3.085H38.067z"/><path fill="#59595C" fill-rule="nonzero" d="M38.067 150.891h19.355v1H38.067zM38.067 154.384h19.355v1H38.067z"/><path fill="#59595C" fill-rule="nonzero" d="M38.067 150.671h1v4.342h-1z"/><path fill="#FFF" fill-rule="nonzero" d="M57.422 151.3h19.355v3.085H57.422z"/><path fill="#59595C" fill-rule="nonzero" d="M57.422 150.891h19.355v1H57.422zM57.422 154.384h19.355v1H57.422z"/><path fill="#59595C" fill-rule="nonzero" d="M57.422 150.671h1v4.342h-1z"/><path fill="#FFF" fill-rule="nonzero" d="M76.777 151.3h19.355v3.085H76.777z"/><path fill="#59595C" fill-rule="nonzero" d="M76.777 150.891h19.355v1H76.777zM76.777 154.384h19.355v1H76.777z"/><path fill="#59595C" fill-rule="nonzero" d="M76.777 150.671h1v4.342h-1z"/><path fill="#FFF" fill-rule="nonzero" d="M96.131 151.3h19.355v3.085H96.131z"/><path fill="#59595C" fill-rule="nonzero" d="M96.131 150.891h19.355v1H96.131zM96.131 154.384h19.355v1H96.131z"/><path fill="#59595C" fill-rule="nonzero" d="M96.131 150.671h1v4.342h-1z"/><path fill="#FFF" fill-rule="nonzero" d="M115.486 151.3h19.355v3.085h-19.355z"/><path fill="#59595C" fill-rule="nonzero" d="M115.486 150.891h19.355v1h-19.355zM115.486 154.384h19.355v1h-19.355z"/><path fill="#59595C" fill-rule="nonzero" d="M115.486 150.671h1v4.342h-1z"/><path fill="#FFF" fill-rule="nonzero" d="M134.841 151.3h19.355v3.085h-19.355z"/><path fill="#59595C" fill-rule="nonzero" d="M134.841 150.891h19.355v1h-19.355zM134.841 154.384h19.355v1h-19.355z"/><path fill="#59595C" fill-rule="nonzero" d="M134.841 150.671h1v4.342h-1z"/><path fill="#FFF" fill-rule="nonzero" d="M154.195 151.3h19.355v3.085h-19.355z"/><path fill="#59595C" fill-rule="nonzero" d="M154.195 150.891h19.355v1h-19.355zM154.195 154.384h19.355v1h-19.355z"/><path fill="#59595C" fill-rule="nonzero" d="M154.195 150.671h1v4.342h-1z"/><path fill="#FFF" fill-rule="nonzero" d="M173.55 151.3h19.355v3.085H173.55z"/><path fill="#59595C" fill-rule="nonzero" d="M173.55 150.891h19.355v1H173.55zM173.55 154.384h19.355v1H173.55z"/><path fill="#59595C" fill-rule="nonzero" d="M173.55 150.671h1v4.342h-1z"/><path fill="#FFF" fill-rule="nonzero" d="M192.905 151.3h19.355v3.085h-19.355z"/><path fill="#59595C" fill-rule="nonzero" d="M192.905 150.891h19.355v1h-19.355zM192.905 154.384h19.355v1h-19.355z"/><path fill="#59595C" fill-rule="nonzero" d="M192.905 150.671h1v4.342h-1z"/><path fill="#FFF" fill-rule="nonzero" d="M212.26 151.3h19.355v3.085H212.26z"/><path fill="#59595C" fill-rule="nonzero" d="M212.26 150.891h19.355v1H212.26zM212.26 154.384h19.355v1H212.26z"/><path fill="#59595C" fill-rule="nonzero" d="M212.26 150.671h1v4.342h-1z"/><path fill="#FFF" fill-rule="nonzero" d="M231.614 151.3h19.355v3.085h-19.355z"/><path fill="#59595C" fill-rule="nonzero" d="M231.614 150.891h19.355v1h-19.355zM231.614 154.384h19.355v1h-19.355z"/><path fill="#59595C" fill-rule="nonzero" d="M231.614 150.671h1v4.342h-1z"/><path fill="#FFF" fill-rule="nonzero" d="M250.969 151.3h19.355v3.085h-19.355z"/><path fill="#59595C" fill-rule="nonzero" d="M250.969 150.891h19.355v1h-19.355zM250.969 154.384h19.355v1h-19.355z"/><path fill="#59595C" fill-rule="nonzero" d="M250.969 150.671h1v4.342h-1z"/><path fill="#FFF" fill-rule="nonzero" d="M270.324 151.3h19.355v3.085h-19.355z"/><path fill="#59595C" fill-rule="nonzero" d="M270.324 150.891h19.355v1h-19.355zM270.324 154.384h19.355v1h-19.355z"/><path fill="#59595C" fill-rule="nonzero" d="M270.324 150.671h1v4.342h-1z"/><path fill="#FFF" fill-rule="nonzero" d="M289.678 151.3h19.355v3.085h-19.355z"/><path fill="#59595C" fill-rule="nonzero" d="M289.678 150.891h19.355v1h-19.355zM289.678 154.384h19.355v1h-19.355z"/><path fill="#59595C" fill-rule="nonzero" d="M289.678 150.671h1v4.342h-1z"/><path fill="#FFF" fill-rule="nonzero" d="M309.033 151.3h19.355v3.085h-19.355z"/><path fill="#59595C" fill-rule="nonzero" d="M309.033 150.891h19.355v1h-19.355zM309.033 154.384h19.355v1h-19.355z"/><path fill="#59595C" fill-rule="nonzero" d="M309.033 150.671h1v4.342h-1z"/><path fill="#FFF" fill-rule="nonzero" d="M328.388 151.3h19.355v3.085h-19.355z"/><path fill="#59595C" fill-rule="nonzero" d="M328.388 150.891h19.355v1h-19.355zM328.388 154.384h19.355v1h-19.355z"/><path fill="#59595C" fill-rule="nonzero" d="M328.388 150.671h1v4.342h-1z"/><path fill="#FFF" fill-rule="nonzero" d="M347.742 151.3h19.355v3.085h-19.355z"/><path fill="#59595C" fill-rule="nonzero" d="M347.742 150.891h19.355v1h-19.355zM347.742 154.384h19.355v1h-19.355z"/><path fill="#59595C" fill-rule="nonzero" d="M347.742 150.671h1v4.342h-1z"/><path fill="#FFF" fill-rule="nonzero" d="M367.097 151.3h19.355v3.085h-19.355z"/><path fill="#59595C" fill-rule="nonzero" d="M367.097 150.891h19.355v1h-19.355zM367.097 154.384h19.355v1h-19.355z"/><path fill="#59595C" fill-rule="nonzero" d="M367.097 150.671h1v4.342h-1z"/><path fill="#FFF" fill-rule="nonzero" d="M386.452 151.3h19.355v3.085h-19.355z"/><path fill="#59595C" fill-rule="nonzero" d="M386.452 150.891h19.355v1h-19.355zM386.452 154.384h19.355v1h-19.355z"/><path fill="#59595C" fill-rule="nonzero" d="M386.452 150.671h1v4.342h-1z"/><path fill="#FFF" fill-rule="nonzero" d="M405.806 151.3h19.355v3.085h-19.355z"/><path fill="#59595C" fill-rule="nonzero" d="M405.806 150.891h19.355v1h-19.355zM405.806 154.384h19.355v1h-19.355z"/><path fill="#59595C" fill-rule="nonzero" d="M405.806 150.671h1v4.342h-1z"/><path d="M433.359 164.146v-7.259c0-.117-.005-.167-.008-.229a2.066 2.066 0 0 0-.087-.542 2.505 2.505 0 0 0-.3-.663 2.409 2.409 0 0 0-1.844-1.054c-.072 0-.1-.011-.209-.01h-5.746v-3.084h5.746c.091 0 .266.008.395.015.562.03 1.116.15 1.64.356a5.5 5.5 0 0 1 2.585 2.072 5.6 5.6 0 0 1 .7 1.526 5.159 5.159 0 0 1 .202 1.243 6.3 6.3 0 0 1 .011.375v7.259l-3.085-.005z" fill="#FFF" fill-rule="nonzero"/><path d="M436.443 164.146v-7.259c0-.084 0-.235-.011-.375a5.159 5.159 0 0 0-.202-1.243 5.6 5.6 0 0 0-.7-1.526 5.5 5.5 0 0 0-2.585-2.072 5.271 5.271 0 0 0-1.64-.356c-.129-.007-.3-.017-.395-.015h-5.746v-.409h5.746c.088 0 .283.009.419.015.604.033 1.2.162 1.763.383a5.912 5.912 0 0 1 2.779 2.228c.333.505.588 1.058.755 1.639a5.589 5.589 0 0 1 .218 1.337c.007.151.013.314.011.394v7.259h-.412z" fill="#59595C" fill-rule="nonzero"/><path d="M432.95 164.146v-7.259c.001-.07-.001-.14-.008-.209a1.756 1.756 0 0 0-.071-.453 2.1 2.1 0 0 0-.252-.549 2.009 2.009 0 0 0-.937-.75 1.8 1.8 0 0 0-.59-.127c-.066 0-.072-.01-.185-.009h-5.746v-.409h5.746c.11 0 .137.008.209.01a2.409 2.409 0 0 1 1.844 1.054 2.505 2.505 0 0 1 .373 1.021c.01.06.014.122.014.184s.01.112.008.229v7.259l-.405.008z" fill="#59595C" fill-rule="nonzero"/><path fill="#59595C" fill-rule="nonzero" d="M425.161 150.671h1v4.342h-1z"/><path d="M435.784 184.193a5.5 5.5 0 0 1-2.062-2.594 5.265 5.265 0 0 1-.35-1.641c-.018-.313-.012-.489-.013-.692v-15.12h3.084v15.12c0 .2 0 .428.009.518a2.2 2.2 0 0 0 .151.714c.178.461.492.857.9 1.135l-1.719 2.56z" fill="#FFF" fill-rule="nonzero"/><path d="M437.5 181.633a2.43 2.43 0 0 1-.9-1.135 2.2 2.2 0 0 1-.151-.714c-.01-.09-.009-.317-.009-.518v-15.12h.409V179.763c.008.203.05.403.125.591.147.382.408.71.746.941l-.22.338zM435.556 184.533a5.913 5.913 0 0 1-2.216-2.788 5.675 5.675 0 0 1-.376-1.764c-.02-.342-.013-.512-.014-.715v-15.12h.409v15.12c0 .2-.005.379.013.692.028.562.146 1.116.35 1.641a5.5 5.5 0 0 0 2.062 2.594l-.228.34z" fill="#59595C" fill-rule="nonzero"/><path fill="#59595C" fill-rule="nonzero" d="M432.73 164.146h4.342v1h-4.342z"/><path d="M455.866 185.121h-16.935c-.084 0-.247-.006-.381-.012a3.468 3.468 0 0 1-.419-.037 5.187 5.187 0 0 1-.825-.17 5.663 5.663 0 0 1-1.522-.709l1.719-2.56c.206.133.429.236.663.306.117.035.237.06.358.074.06.01.122.016.184.015.066 0 .1.011.223.008h16.935v3.085z" fill="#FFF" fill-rule="nonzero"/><path d="M455.866 182.036h-16.935c-.119 0-.157-.006-.223-.008-.062 0-.123-.004-.184-.015a2.165 2.165 0 0 1-.358-.074 2.608 2.608 0 0 1-.663-.306l.228-.34c.17.11.355.195.549.254.098.029.198.049.3.06.05.01.102.014.153.013.057 0 .079.01.2.007h16.935l-.002.409zM455.866 185.53h-16.935c-.079 0-.259-.006-.4-.013-.15-.004-.3-.017-.45-.039a5.632 5.632 0 0 1-.887-.183 6.088 6.088 0 0 1-1.636-.762l.228-.34c.47.31.982.55 1.522.709.27.079.546.136.825.17.139.02.279.033.419.037.134.006.3.014.381.012h16.935l-.002.409z" fill="#59595C" fill-rule="nonzero"/><path d="M435.433 184.714c.417.277.867.503 1.338.672l1.468-4.086a1.889 1.889 0 0 1-.385-.19l-2.421 3.604z" fill="#59595C" fill-rule="nonzero"/><path fill="#FFF" fill-rule="nonzero" d="M455.866 182.036h19.355v3.085h-19.355z"/><path fill="#59595C" fill-rule="nonzero" d="M455.866 181.627h19.355v1h-19.355zM455.866 185.121h19.355v1h-19.355z"/><path fill="#59595C" fill-rule="nonzero" d="M455.866 181.408h1v4.342h-1z"/><path fill="#FFF" fill-rule="nonzero" d="M475.221 182.036h19.355v3.085h-19.355z"/><path fill="#59595C" fill-rule="nonzero" d="M475.221 181.627h19.355v1h-19.355zM475.221 185.121h19.355v1h-19.355z"/><path fill="#59595C" fill-rule="nonzero" d="M475.221 181.408h1v4.342h-1z"/><path d="M513.07 179.487v.151l-.009.206c-.008.14-.01.28-.028.419-.032.28-.086.556-.16.827a5.352 5.352 0 0 1-.686 1.533 5.452 5.452 0 0 1-4.2 2.48l-.413.018h-13v-3.085h13l.192-.01a2.3 2.3 0 0 0 .711-.162 2.4 2.4 0 0 0 1.489-1.945c.009-.061.005-.124.011-.185l.006-.1v-.151l3.087.004z" fill="#FFF" fill-rule="nonzero"/><path d="M509.985 179.487v.151l-.006.1c-.006.061 0 .124-.011.185a2.425 2.425 0 0 1-.371 1.025 2.4 2.4 0 0 1-1.118.92 2.3 2.3 0 0 1-.711.162l-.192.01h-13v-.409h13l.162-.009a1.981 1.981 0 0 0 1.821-1.748c.008-.05 0-.1.008-.153l.006-.082v-.151l.412-.001z" fill="#59595C" fill-rule="nonzero"/><path d="M513.479 179.487v.151l-.009.221c-.009.15-.011.3-.03.45a5.982 5.982 0 0 1-.909 2.536 5.888 5.888 0 0 1-2.75 2.262 5.785 5.785 0 0 1-1.759.4l-.443.02h-13v-.409h13l.413-.018a5.452 5.452 0 0 0 4.2-2.48c.308-.472.54-.99.686-1.533.074-.271.128-.548.16-.827.018-.139.02-.279.028-.419l.009-.206v-.151l.404.003z" fill="#59595C" fill-rule="nonzero"/><path fill="#59595C" fill-rule="nonzero" d="M494.575 181.408h1v4.342h-1z"/><path fill="#FFF" fill-rule="nonzero" d="M509.985 160.132h3.085v19.355h-3.085z"/><path fill="#59595C" fill-rule="nonzero" d="M509.576 160.132h1v19.355h-1zM513.07 160.132h1v19.355h-1z"/><path fill="#59595C" fill-rule="nonzero" d="M509.356 178.521h4.342v1h-4.342z"/><path fill="#FFF" fill-rule="nonzero" d="M509.985 140.778h3.085v19.355h-3.085z"/><path fill="#59595C" fill-rule="nonzero" d="M509.576 140.778h1v19.355h-1zM513.07 140.778h1v19.355h-1z"/><path fill="#59595C" fill-rule="nonzero" d="M509.356 159.166h4.342v1h-4.342z"/><path fill="#FFF" fill-rule="nonzero" d="M509.985 121.423h3.085v19.355h-3.085z"/><path fill="#59595C" fill-rule="nonzero" d="M509.576 121.423h1v19.355h-1zM513.07 121.423h1v19.355h-1z"/><path fill="#59595C" fill-rule="nonzero" d="M509.356 139.811h4.342v1h-4.342z"/><path fill="#FFF" fill-rule="nonzero" d="M1350.976 151.3H1366v3.085h-15.024z"/><path fill="#59595C" fill-rule="nonzero" d="M1350.976 150.891H1366v1h-15.024zM1350.976 154.384H1366v1h-15.024z"/><path fill="#FFF" fill-rule="nonzero" d="M1331.622 151.3h19.355v3.085h-19.355z"/><path fill="#59595C" fill-rule="nonzero" d="M1331.622 150.891h19.355v1h-19.355zM1331.622 154.384h19.355v1h-19.355z"/><path fill="#59595C" fill-rule="nonzero" d="M1350.01 150.671h1v4.342h-1z"/><path fill="#FFF" fill-rule="nonzero" d="M1312.267 151.3h19.355v3.085h-19.355z"/><path fill="#59595C" fill-rule="nonzero" d="M1312.267 150.891h19.355v1h-19.355zM1312.267 154.384h19.355v1h-19.355z"/><path fill="#59595C" fill-rule="nonzero" d="M1330.655 150.671h1v4.342h-1z"/><path fill="#FFF" fill-rule="nonzero" d="M1292.912 151.3h19.355v3.085h-19.355z"/><path fill="#59595C" fill-rule="nonzero" d="M1292.912 150.891h19.355v1h-19.355zM1292.912 154.384h19.355v1h-19.355z"/><path fill="#59595C" fill-rule="nonzero" d="M1311.301 150.671h1v4.342h-1z"/><path fill="#FFF" fill-rule="nonzero" d="M1273.557 151.3h19.355v3.085h-19.355z"/><path fill="#59595C" fill-rule="nonzero" d="M1273.557 150.891h19.355v1h-19.355zM1273.557 154.384h19.355v1h-19.355z"/><path fill="#59595C" fill-rule="nonzero" d="M1291.946 150.671h1v4.342h-1z"/><path fill="#FFF" fill-rule="nonzero" d="M1254.203 151.3h19.355v3.085h-19.355z"/><path fill="#59595C" fill-rule="nonzero" d="M1254.203 150.891h19.355v1h-19.355zM1254.203 154.384h19.355v1h-19.355z"/><path fill="#59595C" fill-rule="nonzero" d="M1272.591 150.671h1v4.342h-1z"/><path d="M1246.005 164.146v-7.259c0-.117.005-.167.008-.229a2.066 2.066 0 0 1 .087-.542c.067-.235.168-.458.3-.663.276-.408.67-.723 1.13-.9.228-.091.469-.143.714-.154.072 0 .1-.011.209-.01h5.746v-3.084h-5.746c-.091 0-.266.008-.4.015-.562.03-1.116.15-1.64.356a5.5 5.5 0 0 0-2.585 2.072 5.565 5.565 0 0 0-.868 2.351c-.02.139-.03.278-.034.418-.008.14-.014.291-.012.375v7.259l3.091-.005z" fill="#FFF" fill-rule="nonzero"/><path d="M1242.92 164.146v-7.259c0-.084 0-.235.012-.375a5.166 5.166 0 0 1 .202-1.243c.155-.541.39-1.056.7-1.526a5.5 5.5 0 0 1 2.585-2.072 5.259 5.259 0 0 1 1.64-.356c.129-.007.3-.017.4-.015h5.746v-.409h-5.746c-.089 0-.283.009-.42.015a5.7 5.7 0 0 0-1.763.383 5.914 5.914 0 0 0-2.778 2.228 5.984 5.984 0 0 0-.755 1.639c-.085.29-.145.588-.181.888-.02.149-.033.299-.037.449a6.491 6.491 0 0 0-.012.394v7.259h.407z" fill="#59595C" fill-rule="nonzero"/><path d="M1246.414 164.146v-7.259c0-.121.005-.159.007-.209 0-.051.003-.102.012-.153.01-.102.03-.202.06-.3a2.1 2.1 0 0 1 .252-.549 2 2 0 0 1 .937-.75 1.79 1.79 0 0 1 .59-.127c.065 0 .072-.01.185-.009h5.746v-.409h-5.746c-.111 0-.137.008-.209.01-.245.01-.486.063-.714.154-.46.177-.854.492-1.13.9a2.473 2.473 0 0 0-.373 1.021c-.01.06-.014.122-.014.184s-.01.112-.008.229v7.259l.405.008z" fill="#59595C" fill-rule="nonzero"/><path fill="#59595C" fill-rule="nonzero" d="M1253.237 150.671h1v4.342h-1z"/><path d="M1243.58 184.193a5.5 5.5 0 0 0 2.062-2.594 5.258 5.258 0 0 0 .349-1.641c.019-.313.013-.489.014-.692v-15.12h-3.085v15.12c0 .2 0 .428-.008.518-.01.245-.061.486-.152.714a2.424 2.424 0 0 1-.9 1.135l1.72 2.56z" fill="#FFF" fill-rule="nonzero"/><path d="M1241.86 181.633c.409-.278.723-.674.9-1.135.09-.228.142-.47.152-.714.01-.09.009-.317.008-.518v-15.12h-.409v15.54l-.005.077a1.74 1.74 0 0 1-.125.591 2 2 0 0 1-.746.941l.225.338zM1243.808 184.533a5.913 5.913 0 0 0 2.216-2.788c.219-.564.345-1.16.376-1.764.02-.342.013-.512.014-.715v-15.12h-.409v15.12c0 .2.005.379-.014.692a5.258 5.258 0 0 1-.349 1.641 5.5 5.5 0 0 1-2.062 2.594l.228.34z" fill="#59595C" fill-rule="nonzero"/><path fill="#59595C" fill-rule="nonzero" d="M1242.292 164.146h4.342v1h-4.342z"/><path d="M1223.5 185.121h16.935c.083 0 .247-.006.381-.012.14-.004.28-.016.418-.037.28-.034.555-.091.825-.17a5.668 5.668 0 0 0 1.523-.709l-1.72-2.56a2.584 2.584 0 0 1-.662.306c-.117.035-.237.06-.358.074-.06.01-.122.016-.184.015-.067 0-.1.011-.223.008H1223.5v3.085z" fill="#FFF" fill-rule="nonzero"/><path d="M1223.5 182.036h16.935c.118 0 .156-.006.223-.008.062 0 .123-.004.184-.015.121-.015.241-.04.358-.074.234-.07.457-.173.662-.306l-.228-.34a2.2 2.2 0 0 1-.548.254 1.746 1.746 0 0 1-.3.06.784.784 0 0 1-.153.013c-.058 0-.079.01-.2.007H1223.5v.409zM1223.5 185.53h16.935c.079 0 .258-.006.4-.013a3.8 3.8 0 0 0 .45-.039 5.6 5.6 0 0 0 .886-.183 6.093 6.093 0 0 0 1.637-.762l-.228-.34c-.47.31-.983.55-1.523.709-.27.079-.546.136-.825.17-.138.02-.278.033-.418.037-.134.006-.3.014-.381.012H1223.5v.409z" fill="#59595C" fill-rule="nonzero"/><path d="M1243.931 184.714a6.2 6.2 0 0 1-1.339.672l-1.467-4.086a1.89 1.89 0 0 0 .385-.19l2.421 3.604z" fill="#59595C" fill-rule="nonzero"/><path fill="#FFF" fill-rule="nonzero" d="M1204.143 182.036h19.355v3.085h-19.355z"/><path fill="#59595C" fill-rule="nonzero" d="M1204.143 181.627h19.355v1h-19.355zM1204.143 185.121h19.355v1h-19.355z"/><path fill="#59595C" fill-rule="nonzero" d="M1222.531 181.408h1v4.342h-1z"/><path fill="#FFF" fill-rule="nonzero" d="M1184.788 182.036h19.355v3.085h-19.355z"/><path fill="#59595C" fill-rule="nonzero" d="M1184.788 181.627h19.355v1h-19.355zM1184.788 185.121h19.355v1h-19.355z"/><path fill="#59595C" fill-rule="nonzero" d="M1203.177 181.408h1v4.342h-1z"/><path d="M1166.294 179.487v.151l.008.206c.009.14.011.28.028.419.033.28.087.556.161.827a5.454 5.454 0 0 0 4.885 4.013l.412.018h13v-3.085h-13l-.191-.01a2.3 2.3 0 0 1-.711-.162 2.4 2.4 0 0 1-1.489-1.945c-.009-.061-.005-.124-.011-.185l-.006-.1v-.151l-3.086.004z" fill="#FFF" fill-rule="nonzero"/><path d="M1169.379 179.487v.151l.006.1c.006.061 0 .124.011.185a2.432 2.432 0 0 0 .371 1.025 2.4 2.4 0 0 0 1.118.92 2.3 2.3 0 0 0 .711.162l.191.01h13v-.409h-13l-.162-.009a1.975 1.975 0 0 1-1.82-1.748c-.008-.05 0-.1-.008-.153l-.006-.082v-.151l-.412-.001z" fill="#59595C" fill-rule="nonzero"/><path d="M1165.885 179.487v.151l.009.221c.008.15.011.3.03.45.035.3.093.597.173.888a5.888 5.888 0 0 0 3.486 3.91c.562.225 1.155.36 1.759.4l.442.02h13v-.409h-13l-.412-.018a5.454 5.454 0 0 1-4.885-4.013 5.713 5.713 0 0 1-.161-.827c-.017-.139-.019-.279-.028-.419l-.008-.206v-.151l-.405.003z" fill="#59595C" fill-rule="nonzero"/><path fill="#59595C" fill-rule="nonzero" d="M1183.822 181.408h1v4.342h-1z"/><path fill="#FFF" fill-rule="nonzero" d="M1166.294 160.132h3.085v19.355h-3.085z"/><path fill="#59595C" fill-rule="nonzero" d="M1169.379 160.132h1v19.355h-1zM1165.885 160.132h1v19.355h-1z"/><path fill="#59595C" fill-rule="nonzero" d="M1165.666 178.521h4.342v1h-4.342z"/><path fill="#FFF" fill-rule="nonzero" d="M1166.294 140.778h3.085v19.355h-3.085z"/><path fill="#59595C" fill-rule="nonzero" d="M1169.379 140.778h1v19.355h-1zM1165.885 140.778h1v19.355h-1z"/><path fill="#59595C" fill-rule="nonzero" d="M1165.666 159.166h4.342v1h-4.342z"/><path fill="#FFF" fill-rule="nonzero" d="M1166.294 121.423h3.085v19.355h-3.085z"/><path fill="#59595C" fill-rule="nonzero" d="M1169.379 121.423h1v19.355h-1zM1165.885 121.423h1v19.355h-1z"/><path fill="#59595C" fill-rule="nonzero" d="M1165.666 139.811h4.342v1h-4.342z"/><path d="M60.878 142.514a4.7 4.7 0 0 1-1.9-2.927 5.2 5.2 0 0 1-.088-.887v-16.2h3.084v16.186a1.612 1.612 0 0 0 .68 1.3l-1.776 2.528z" fill="#6DC1D2" fill-rule="nonzero"/><path d="M62.658 139.99a1.612 1.612 0 0 1-.68-1.3V122.5h.409v16.185a1.2 1.2 0 0 0 .507.971l-.236.334zM60.642 142.843a5.1 5.1 0 0 1-2.158-4.147v-16.2h.409v16.195a5.2 5.2 0 0 0 .088.887 4.7 4.7 0 0 0 1.9 2.927l-.239.338z" fill="#59595C" fill-rule="nonzero"/><path fill="#59595C" fill-rule="nonzero" d="M58.264 122.5h4.342v1h-4.342z"/><path d="M80.837 143.369H63.6l-.214-.008a4.649 4.649 0 0 1-2.505-.852l1.78-2.519a1.584 1.584 0 0 0 .851.289l.085.005h17.24v3.085z" fill="#6DC1D2" fill-rule="nonzero"/><path d="M80.837 140.284H63.6l-.085-.005a1.584 1.584 0 0 1-.851-.289l.236-.334a1.178 1.178 0 0 0 .635.214l.068.005h17.24l-.006.409zM80.837 143.778H63.6l-.231-.008a5.055 5.055 0 0 1-2.724-.927l.236-.334a4.649 4.649 0 0 0 2.505.852l.214.008h17.24l-.003.409z" fill="#59595C" fill-rule="nonzero"/><path d="M60.516 143.023c.443.311.93.554 1.444.721l1.323-4.135a1.111 1.111 0 0 1-.262-.132l-2.505 3.546z" fill="#59595C" fill-rule="nonzero"/><path fill="#6DC1D2" fill-rule="nonzero" d="M80.837 140.284h19.189v3.085H80.837z"/><path fill="#59595C" fill-rule="nonzero" d="M80.837 139.875h19.189v1H80.837zM80.837 143.369h19.189v1H80.837z"/><path fill="#59595C" fill-rule="nonzero" d="M80.837 139.656h1v4.342h-1z"/><path fill="#6DC1D2" fill-rule="nonzero" d="M100.026 140.284h19.189v3.085h-19.189z"/><path fill="#59595C" fill-rule="nonzero" d="M100.026 139.875h19.189v1h-19.189zM100.026 143.369h19.189v1h-19.189z"/><path fill="#59595C" fill-rule="nonzero" d="M100.026 139.656h1v4.342h-1z"/><path fill="#6DC1D2" fill-rule="nonzero" d="M119.215 140.284h19.189v3.085h-19.189z"/><path fill="#59595C" fill-rule="nonzero" d="M119.215 139.875h19.189v1h-19.189zM119.215 143.369h19.189v1h-19.189z"/><path fill="#59595C" fill-rule="nonzero" d="M119.215 139.656h1v4.342h-1z"/><path fill="#6DC1D2" fill-rule="nonzero" d="M138.404 140.284h19.189v3.085h-19.189z"/><path fill="#59595C" fill-rule="nonzero" d="M138.404 139.875h19.189v1h-19.189zM138.404 143.369h19.189v1h-19.189z"/><path fill="#59595C" fill-rule="nonzero" d="M138.404 139.656h1v4.342h-1z"/><path fill="#6DC1D2" fill-rule="nonzero" d="M157.594 140.284h19.189v3.085h-19.189z"/><path fill="#59595C" fill-rule="nonzero" d="M157.594 139.875h19.189v1h-19.189zM157.594 143.369h19.189v1h-19.189z"/><path fill="#59595C" fill-rule="nonzero" d="M157.594 139.656h1v4.342h-1z"/><path fill="#6DC1D2" fill-rule="nonzero" d="M176.783 140.284h19.189v3.085h-19.189z"/><path fill="#59595C" fill-rule="nonzero" d="M176.783 139.875h19.189v1h-19.189zM176.783 143.369h19.189v1h-19.189z"/><path fill="#59595C" fill-rule="nonzero" d="M176.783 139.656h1v4.342h-1z"/><path fill="#6DC1D2" fill-rule="nonzero" d="M195.972 140.284h19.189v3.085h-19.189z"/><path fill="#59595C" fill-rule="nonzero" d="M195.972 139.875h19.189v1h-19.189zM195.972 143.369h19.189v1h-19.189z"/><path fill="#59595C" fill-rule="nonzero" d="M195.972 139.656h1v4.342h-1z"/><path fill="#6DC1D2" fill-rule="nonzero" d="M215.161 140.284h19.189v3.085h-19.189z"/><path fill="#59595C" fill-rule="nonzero" d="M215.161 139.875h19.189v1h-19.189zM215.161 143.369h19.189v1h-19.189z"/><path fill="#59595C" fill-rule="nonzero" d="M215.161 139.656h1v4.342h-1z"/><path fill="#6DC1D2" fill-rule="nonzero" d="M234.35 140.284h19.189v3.085H234.35z"/><path fill="#59595C" fill-rule="nonzero" d="M234.35 139.875h19.189v1H234.35zM234.35 143.369h19.189v1H234.35z"/><path fill="#59595C" fill-rule="nonzero" d="M234.35 139.656h1v4.342h-1z"/><path fill="#6DC1D2" fill-rule="nonzero" d="M253.539 140.284h19.189v3.085h-19.189z"/><path fill="#59595C" fill-rule="nonzero" d="M253.539 139.875h19.189v1h-19.189zM253.539 143.369h19.189v1h-19.189z"/><path fill="#59595C" fill-rule="nonzero" d="M253.539 139.656h1v4.342h-1z"/><path fill="#6DC1D2" fill-rule="nonzero" d="M272.728 140.284h19.189v3.085h-19.189z"/><path fill="#59595C" fill-rule="nonzero" d="M272.728 139.875h19.189v1h-19.189zM272.728 143.369h19.189v1h-19.189z"/><path fill="#59595C" fill-rule="nonzero" d="M272.728 139.656h1v4.342h-1z"/><path fill="#6DC1D2" fill-rule="nonzero" d="M291.917 140.284h19.189v3.085h-19.189z"/><path fill="#59595C" fill-rule="nonzero" d="M291.917 139.875h19.189v1h-19.189zM291.917 143.369h19.189v1h-19.189z"/><path fill="#59595C" fill-rule="nonzero" d="M291.917 139.656h1v4.342h-1z"/><path fill="#6DC1D2" fill-rule="nonzero" d="M311.106 140.284h19.189v3.085h-19.189z"/><path fill="#59595C" fill-rule="nonzero" d="M311.106 139.875h19.189v1h-19.189zM311.106 143.369h19.189v1h-19.189z"/><path fill="#59595C" fill-rule="nonzero" d="M311.106 139.656h1v4.342h-1z"/><path fill="#6DC1D2" fill-rule="nonzero" d="M330.295 140.284h19.189v3.085h-19.189z"/><path fill="#59595C" fill-rule="nonzero" d="M330.295 139.875h19.189v1h-19.189zM330.295 143.369h19.189v1h-19.189z"/><path fill="#59595C" fill-rule="nonzero" d="M330.295 139.656h1v4.342h-1z"/><path fill="#6DC1D2" fill-rule="nonzero" d="M349.484 140.284h19.189v3.085h-19.189z"/><path fill="#59595C" fill-rule="nonzero" d="M349.484 139.875h19.189v1h-19.189zM349.484 143.369h19.189v1h-19.189z"/><path fill="#59595C" fill-rule="nonzero" d="M349.484 139.656h1v4.342h-1z"/><path fill="#6DC1D2" fill-rule="nonzero" d="M368.673 140.284h19.189v3.085h-19.189z"/><path fill="#59595C" fill-rule="nonzero" d="M368.673 139.875h19.189v1h-19.189zM368.673 143.369h19.189v1h-19.189z"/><path fill="#59595C" fill-rule="nonzero" d="M368.673 139.656h1v4.342h-1z"/><path fill="#6DC1D2" fill-rule="nonzero" d="M387.862 140.284h19.189v3.085h-19.189z"/><path fill="#59595C" fill-rule="nonzero" d="M387.862 139.875h19.189v1h-19.189zM387.862 143.369h19.189v1h-19.189z"/><path fill="#59595C" fill-rule="nonzero" d="M387.862 139.656h1v4.342h-1z"/><path fill="#6DC1D2" fill-rule="nonzero" d="M407.051 140.284h19.189v3.085h-19.189z"/><path fill="#59595C" fill-rule="nonzero" d="M407.051 139.875h19.189v1h-19.189zM407.051 143.369h19.189v1h-19.189z"/><path fill="#59595C" fill-rule="nonzero" d="M407.051 139.656h1v4.342h-1z"/><path fill="#6DC1D2" fill-rule="nonzero" d="M426.24 140.284h19.189v3.085H426.24z"/><path fill="#59595C" fill-rule="nonzero" d="M426.24 139.875h19.189v1H426.24zM426.24 143.369h19.189v1H426.24z"/><path fill="#59595C" fill-rule="nonzero" d="M426.24 139.656h1v4.342h-1z"/><path fill="#6DC1D2" fill-rule="nonzero" d="M445.429 140.284h19.189v3.085h-19.189z"/><path fill="#59595C" fill-rule="nonzero" d="M445.429 139.875h19.189v1h-19.189zM445.429 143.369h19.189v1h-19.189z"/><path fill="#59595C" fill-rule="nonzero" d="M445.429 139.656h1v4.342h-1z"/><path fill="#6DC1D2" fill-rule="nonzero" d="M464.619 140.284h19.189v3.085h-19.189z"/><path fill="#59595C" fill-rule="nonzero" d="M464.619 139.875h19.189v1h-19.189zM464.619 143.369h19.189v1h-19.189z"/><path fill="#59595C" fill-rule="nonzero" d="M464.619 139.656h1v4.342h-1z"/><path fill="#6DC1D2" fill-rule="nonzero" d="M483.808 140.284h19.189v3.085h-19.189z"/><path fill="#59595C" fill-rule="nonzero" d="M483.808 139.875h19.189v1h-19.189zM483.808 143.369h19.189v1h-19.189z"/><path fill="#59595C" fill-rule="nonzero" d="M483.808 139.656h1v4.342h-1z"/><path fill="#6DC1D2" fill-rule="nonzero" d="M502.997 140.284h19.189v3.085h-19.189z"/><path fill="#59595C" fill-rule="nonzero" d="M502.997 139.875h19.189v1h-19.189zM502.997 143.369h19.189v1h-19.189z"/><path fill="#59595C" fill-rule="nonzero" d="M502.997 139.656h1v4.342h-1z"/><path fill="#6DC1D2" fill-rule="nonzero" d="M522.186 140.284h19.189v3.085h-19.189z"/><path fill="#59595C" fill-rule="nonzero" d="M522.186 139.875h19.189v1h-19.189zM522.186 143.369h19.189v1h-19.189z"/><path fill="#59595C" fill-rule="nonzero" d="M522.186 139.656h1v4.342h-1z"/><path fill="#6DC1D2" fill-rule="nonzero" d="M541.375 140.284h19.189v3.085h-19.189z"/><path fill="#59595C" fill-rule="nonzero" d="M541.375 139.875h19.189v1h-19.189zM541.375 143.369h19.189v1h-19.189z"/><path fill="#59595C" fill-rule="nonzero" d="M541.375 139.656h1v4.342h-1z"/><path fill="#6DC1D2" fill-rule="nonzero" d="M560.564 140.284h19.189v3.085h-19.189z"/><path fill="#59595C" fill-rule="nonzero" d="M560.564 139.875h19.189v1h-19.189zM560.564 143.369h19.189v1h-19.189z"/><path fill="#59595C" fill-rule="nonzero" d="M560.564 139.656h1v4.342h-1z"/><path fill="#6DC1D2" fill-rule="nonzero" d="M579.753 140.284h19.189v3.085h-19.189z"/><path fill="#59595C" fill-rule="nonzero" d="M579.753 139.875h19.189v1h-19.189zM579.753 143.369h19.189v1h-19.189z"/><path fill="#59595C" fill-rule="nonzero" d="M579.753 139.656h1v4.342h-1z"/><path fill="#6DC1D2" fill-rule="nonzero" d="M598.942 140.284h19.189v3.085h-19.189z"/><path fill="#59595C" fill-rule="nonzero" d="M598.942 139.875h19.189v1h-19.189zM598.942 143.369h19.189v1h-19.189z"/><path fill="#59595C" fill-rule="nonzero" d="M598.942 139.656h1v4.342h-1z"/><path fill="#6DC1D2" fill-rule="nonzero" d="M618.131 140.284h19.189v3.085h-19.189z"/><path fill="#59595C" fill-rule="nonzero" d="M618.131 139.875h19.189v1h-19.189zM618.131 143.369h19.189v1h-19.189z"/><path fill="#59595C" fill-rule="nonzero" d="M618.131 139.656h1v4.342h-1z"/><path fill="#6DC1D2" fill-rule="nonzero" d="M637.32 140.284h19.189v3.085H637.32z"/><path fill="#59595C" fill-rule="nonzero" d="M637.32 139.875h19.189v1H637.32zM637.32 143.369h19.189v1H637.32z"/><path fill="#59595C" fill-rule="nonzero" d="M637.32 139.656h1v4.342h-1z"/><path fill="#6DC1D2" fill-rule="nonzero" d="M656.509 140.284h19.189v3.085h-19.189z"/><path fill="#59595C" fill-rule="nonzero" d="M656.509 139.875h19.189v1h-19.189zM656.509 143.369h19.189v1h-19.189z"/><path fill="#59595C" fill-rule="nonzero" d="M656.509 139.656h1v4.342h-1z"/><path fill="#6DC1D2" fill-rule="nonzero" d="M675.698 140.284h19.189v3.085h-19.189z"/><path fill="#59595C" fill-rule="nonzero" d="M675.698 139.875h19.189v1h-19.189zM675.698 143.369h19.189v1h-19.189z"/><path fill="#59595C" fill-rule="nonzero" d="M675.698 139.656h1v4.342h-1z"/><path fill="#6DC1D2" fill-rule="nonzero" d="M694.887 140.284h19.189v3.085h-19.189z"/><path fill="#59595C" fill-rule="nonzero" d="M694.887 139.875h19.189v1h-19.189zM694.887 143.369h19.189v1h-19.189z"/><path fill="#59595C" fill-rule="nonzero" d="M694.887 139.656h1v4.342h-1z"/><path fill="#6DC1D2" fill-rule="nonzero" d="M714.076 140.284h19.189v3.085h-19.189z"/><path fill="#59595C" fill-rule="nonzero" d="M714.076 139.875h19.189v1h-19.189zM714.076 143.369h19.189v1h-19.189z"/><path fill="#59595C" fill-rule="nonzero" d="M714.076 139.656h1v4.342h-1z"/><path d="M868.507 142.514a4.692 4.692 0 0 0 1.9-2.927 5.1 5.1 0 0 0 .087-.887v-16.2h-3.085v16.186a1.6 1.6 0 0 1-.681 1.3l1.779 2.528z" fill="#6DC1D2" fill-rule="nonzero"/><path d="M866.727 139.99a1.6 1.6 0 0 0 .681-1.3V122.5H867v16.185a1.2 1.2 0 0 1-.508.971l.235.334zM868.743 142.843a5.1 5.1 0 0 0 2.158-4.147v-16.2h-.409v16.195a5.1 5.1 0 0 1-.087.887 4.692 4.692 0 0 1-1.9 2.927l.238.338z" fill="#59595C" fill-rule="nonzero"/><path fill="#59595C" fill-rule="nonzero" d="M866.78 122.5h4.342v1h-4.342z"/><path d="M848.548 143.369h17.241l.214-.008a4.645 4.645 0 0 0 2.504-.852l-1.78-2.519a1.575 1.575 0 0 1-.851.289l-.085.005h-17.243v3.085z" fill="#6DC1D2" fill-rule="nonzero"/><path d="M848.548 140.284h17.241l.085-.005a1.575 1.575 0 0 0 .851-.289l-.236-.334a1.161 1.161 0 0 1-.634.214l-.068.005h-17.239v.409zM848.548 143.778h17.241l.231-.008a5.058 5.058 0 0 0 2.723-.927l-.236-.334a4.645 4.645 0 0 1-2.504.852l-.214.008h-17.241v.409z" fill="#59595C" fill-rule="nonzero"/><path d="M868.87 143.023c-.443.311-.93.554-1.445.721l-1.322-4.135c.092-.032.18-.077.261-.132l2.506 3.546z" fill="#59595C" fill-rule="nonzero"/><path fill="#6DC1D2" fill-rule="nonzero" d="M829.359 140.284h19.189v3.085h-19.189z"/><path fill="#59595C" fill-rule="nonzero" d="M829.359 139.875h19.189v1h-19.189zM829.359 143.369h19.189v1h-19.189z"/><path fill="#59595C" fill-rule="nonzero" d="M847.59 139.656h1v4.342h-1z"/><path fill="#6DC1D2" fill-rule="nonzero" d="M810.17 140.284h19.189v3.085H810.17z"/><path fill="#59595C" fill-rule="nonzero" d="M810.17 139.875h19.189v1H810.17zM810.17 143.369h19.189v1H810.17z"/><path fill="#59595C" fill-rule="nonzero" d="M828.401 139.656h1v4.342h-1z"/><path fill="#6DC1D2" fill-rule="nonzero" d="M790.981 140.284h19.189v3.085h-19.189z"/><path fill="#59595C" fill-rule="nonzero" d="M790.981 139.875h19.189v1h-19.189zM790.981 143.369h19.189v1h-19.189z"/><path fill="#59595C" fill-rule="nonzero" d="M809.212 139.656h1v4.342h-1z"/><path fill="#6DC1D2" fill-rule="nonzero" d="M771.792 140.284h19.189v3.085h-19.189z"/><path fill="#59595C" fill-rule="nonzero" d="M771.792 139.875h19.189v1h-19.189zM771.792 143.369h19.189v1h-19.189z"/><path fill="#59595C" fill-rule="nonzero" d="M790.023 139.656h1v4.342h-1z"/><path fill="#6DC1D2" fill-rule="nonzero" d="M752.603 140.284h19.189v3.085h-19.189z"/><path fill="#59595C" fill-rule="nonzero" d="M752.603 139.875h19.189v1h-19.189zM752.603 143.369h19.189v1h-19.189z"/><path fill="#59595C" fill-rule="nonzero" d="M770.834 139.656h1v4.342h-1z"/><path fill="#6DC1D2" fill-rule="nonzero" d="M733.414 140.284h19.189v3.085h-19.189z"/><path fill="#59595C" fill-rule="nonzero" d="M733.414 139.875h19.189v1h-19.189zM733.414 143.369h19.189v1h-19.189z"/><path fill="#59595C" fill-rule="nonzero" d="M751.645 139.656h1v4.342h-1z"/><path fill="#6DC1D2" fill-rule="nonzero" d="M714.225 140.284h19.189v3.085h-19.189z"/><path fill="#59595C" fill-rule="nonzero" d="M714.225 139.875h19.189v1h-19.189zM714.225 143.369h19.189v1h-19.189z"/><path fill="#59595C" fill-rule="nonzero" d="M732.456 139.656h1v4.342h-1z"/><path fill="#6DC1D2" fill-rule="nonzero" d="M695.036 140.284h19.189v3.085h-19.189z"/><path fill="#59595C" fill-rule="nonzero" d="M695.036 139.875h19.189v1h-19.189zM695.036 143.369h19.189v1h-19.189z"/><path fill="#59595C" fill-rule="nonzero" d="M713.267 139.656h1v4.342h-1z"/><path fill="#6DC1D2" fill-rule="nonzero" d="M675.847 140.284h19.189v3.085h-19.189z"/><path fill="#59595C" fill-rule="nonzero" d="M675.847 139.875h19.189v1h-19.189zM675.847 143.369h19.189v1h-19.189z"/><path fill="#59595C" fill-rule="nonzero" d="M694.078 139.656h1v4.342h-1z"/><path fill="#6DC1D2" fill-rule="nonzero" d="M656.658 140.284h19.189v3.085h-19.189z"/><path fill="#59595C" fill-rule="nonzero" d="M656.658 139.875h19.189v1h-19.189zM656.658 143.369h19.189v1h-19.189z"/><path fill="#59595C" fill-rule="nonzero" d="M674.889 139.656h1v4.342h-1z"/><path fill="#6DC1D2" fill-rule="nonzero" d="M637.469 140.284h19.189v3.085h-19.189z"/><path fill="#59595C" fill-rule="nonzero" d="M637.469 139.875h19.189v1h-19.189zM637.469 143.369h19.189v1h-19.189z"/><path fill="#59595C" fill-rule="nonzero" d="M655.7 139.656h1v4.342h-1z"/><path fill="#6DC1D2" fill-rule="nonzero" d="M618.28 140.284h19.189v3.085H618.28z"/><path fill="#59595C" fill-rule="nonzero" d="M618.28 139.875h19.189v1H618.28zM618.28 143.369h19.189v1H618.28z"/><path fill="#59595C" fill-rule="nonzero" d="M636.511 139.656h1v4.342h-1z"/><path fill="#6DC1D2" fill-rule="nonzero" d="M599.091 140.284h19.189v3.085h-19.189z"/><path fill="#59595C" fill-rule="nonzero" d="M599.091 139.875h19.189v1h-19.189zM599.091 143.369h19.189v1h-19.189z"/><path fill="#59595C" fill-rule="nonzero" d="M617.322 139.656h1v4.342h-1z"/><path fill="#6DC1D2" fill-rule="nonzero" d="M579.901 140.284h19.189v3.085h-19.189z"/><path fill="#59595C" fill-rule="nonzero" d="M579.901 139.875h19.189v1h-19.189zM579.901 143.369h19.189v1h-19.189z"/><path fill="#59595C" fill-rule="nonzero" d="M598.133 139.656h1v4.342h-1z"/><path fill="#6DC1D2" fill-rule="nonzero" d="M560.712 140.284h19.189v3.085h-19.189z"/><path fill="#59595C" fill-rule="nonzero" d="M560.712 139.875h19.189v1h-19.189zM560.712 143.369h19.189v1h-19.189z"/><path fill="#59595C" fill-rule="nonzero" d="M578.944 139.656h1v4.342h-1z"/><path fill="#6DC1D2" fill-rule="nonzero" d="M541.523 140.284h19.189v3.085h-19.189z"/><path fill="#59595C" fill-rule="nonzero" d="M541.523 139.875h19.189v1h-19.189zM541.523 143.369h19.189v1h-19.189z"/><path fill="#59595C" fill-rule="nonzero" d="M559.755 139.656h1v4.342h-1z"/><path fill="#6DC1D2" fill-rule="nonzero" d="M522.334 140.284h19.189v3.085h-19.189z"/><path fill="#59595C" fill-rule="nonzero" d="M522.334 139.875h19.189v1h-19.189zM522.334 143.369h19.189v1h-19.189z"/><path fill="#59595C" fill-rule="nonzero" d="M540.565 139.656h1v4.342h-1z"/><path fill="#6DC1D2" fill-rule="nonzero" d="M503.145 140.284h19.189v3.085h-19.189z"/><path fill="#59595C" fill-rule="nonzero" d="M503.145 139.875h19.189v1h-19.189zM503.145 143.369h19.189v1h-19.189z"/><path fill="#59595C" fill-rule="nonzero" d="M521.376 139.656h1v4.342h-1z"/><path fill="#6DC1D2" fill-rule="nonzero" d="M483.956 140.284h19.189v3.085h-19.189z"/><path fill="#59595C" fill-rule="nonzero" d="M483.956 139.875h19.189v1h-19.189zM483.956 143.369h19.189v1h-19.189z"/><path fill="#59595C" fill-rule="nonzero" d="M502.187 139.656h1v4.342h-1z"/><path fill="#6DC1D2" fill-rule="nonzero" d="M464.767 140.284h19.189v3.085h-19.189z"/><path fill="#59595C" fill-rule="nonzero" d="M464.767 139.875h19.189v1h-19.189zM464.767 143.369h19.189v1h-19.189z"/><path fill="#59595C" fill-rule="nonzero" d="M482.998 139.656h1v4.342h-1z"/><path fill="#6DC1D2" fill-rule="nonzero" d="M445.578 140.284h19.189v3.085h-19.189z"/><path fill="#59595C" fill-rule="nonzero" d="M445.578 139.875h19.189v1h-19.189zM445.578 143.369h19.189v1h-19.189z"/><path fill="#59595C" fill-rule="nonzero" d="M463.809 139.656h1v4.342h-1z"/><path fill="#6DC1D2" fill-rule="nonzero" d="M426.389 140.284h19.189v3.085h-19.189z"/><path fill="#59595C" fill-rule="nonzero" d="M426.389 139.875h19.189v1h-19.189zM426.389 143.369h19.189v1h-19.189z"/><path fill="#59595C" fill-rule="nonzero" d="M444.62 139.656h1v4.342h-1z"/><path fill="#6DC1D2" fill-rule="nonzero" d="M407.2 140.284h19.189v3.085H407.2z"/><path fill="#59595C" fill-rule="nonzero" d="M407.2 139.875h19.189v1H407.2zM407.2 143.369h19.189v1H407.2z"/><path fill="#59595C" fill-rule="nonzero" d="M425.431 139.656h1v4.342h-1z"/><path fill="#6DC1D2" fill-rule="nonzero" d="M388.011 140.284H407.2v3.085h-19.189z"/><path fill="#59595C" fill-rule="nonzero" d="M388.011 139.875H407.2v1h-19.189zM388.011 143.369H407.2v1h-19.189z"/><path fill="#59595C" fill-rule="nonzero" d="M406.242 139.656h1v4.342h-1z"/><path fill="#6DC1D2" fill-rule="nonzero" d="M368.822 140.284h19.189v3.085h-19.189z"/><path fill="#59595C" fill-rule="nonzero" d="M368.822 139.875h19.189v1h-19.189zM368.822 143.369h19.189v1h-19.189z"/><path fill="#59595C" fill-rule="nonzero" d="M387.053 139.656h1v4.342h-1z"/><path fill="#6DC1D2" fill-rule="nonzero" d="M349.633 140.284h19.189v3.085h-19.189z"/><path fill="#59595C" fill-rule="nonzero" d="M349.633 139.875h19.189v1h-19.189zM349.633 143.369h19.189v1h-19.189z"/><path fill="#59595C" fill-rule="nonzero" d="M367.864 139.656h1v4.342h-1z"/><path fill="#6DC1D2" fill-rule="nonzero" d="M330.444 140.284h19.189v3.085h-19.189z"/><path fill="#59595C" fill-rule="nonzero" d="M330.444 139.875h19.189v1h-19.189zM330.444 143.369h19.189v1h-19.189z"/><path fill="#59595C" fill-rule="nonzero" d="M348.675 139.656h1v4.342h-1z"/><path fill="#6DC1D2" fill-rule="nonzero" d="M311.255 140.284h19.189v3.085h-19.189z"/><path fill="#59595C" fill-rule="nonzero" d="M311.255 139.875h19.189v1h-19.189zM311.255 143.369h19.189v1h-19.189z"/><path fill="#59595C" fill-rule="nonzero" d="M329.486 139.656h1v4.342h-1z"/><path fill="#6DC1D2" fill-rule="nonzero" d="M292.065 140.284h19.189v3.085h-19.189z"/><path fill="#59595C" fill-rule="nonzero" d="M292.065 139.875h19.189v1h-19.189zM292.065 143.369h19.189v1h-19.189z"/><path fill="#59595C" fill-rule="nonzero" d="M310.297 139.656h1v4.342h-1z"/><path fill="#6DC1D2" fill-rule="nonzero" d="M272.876 140.284h19.189v3.085h-19.189z"/><path fill="#59595C" fill-rule="nonzero" d="M272.876 139.875h19.189v1h-19.189zM272.876 143.369h19.189v1h-19.189z"/><path fill="#59595C" fill-rule="nonzero" d="M291.108 139.656h1v4.342h-1z"/><path fill="#6DC1D2" fill-rule="nonzero" d="M253.687 140.284h19.189v3.085h-19.189z"/><path fill="#59595C" fill-rule="nonzero" d="M253.687 139.875h19.189v1h-19.189zM253.687 143.369h19.189v1h-19.189z"/><path fill="#59595C" fill-rule="nonzero" d="M271.919 139.656h1v4.342h-1z"/><path fill="#6DC1D2" fill-rule="nonzero" d="M234.498 140.284h19.189v3.085h-19.189z"/><path fill="#59595C" fill-rule="nonzero" d="M234.498 139.875h19.189v1h-19.189zM234.498 143.369h19.189v1h-19.189z"/><path fill="#59595C" fill-rule="nonzero" d="M252.729 139.656h1v4.342h-1z"/><path fill="#6DC1D2" fill-rule="nonzero" d="M215.309 140.284h19.189v3.085h-19.189z"/><path fill="#59595C" fill-rule="nonzero" d="M215.309 139.875h19.189v1h-19.189zM215.309 143.369h19.189v1h-19.189z"/><path fill="#59595C" fill-rule="nonzero" d="M233.54 139.656h1v4.342h-1z"/><path fill="#6DC1D2" fill-rule="nonzero" d="M196.12 140.284h19.189v3.085H196.12z"/><path fill="#59595C" fill-rule="nonzero" d="M196.12 139.875h19.189v1H196.12zM196.12 143.369h19.189v1H196.12z"/><path fill="#59595C" fill-rule="nonzero" d="M214.351 139.656h1v4.342h-1z"/><path d="M1201.951 142.514a4.7 4.7 0 0 0 1.9-2.927c.054-.293.083-.59.087-.887v-16.2h-3.084v16.186a1.608 1.608 0 0 1-.68 1.3l1.777 2.528z" fill="#6DC1D2" fill-rule="nonzero"/><path d="M1200.171 139.99a1.608 1.608 0 0 0 .68-1.3V122.5h-.409v16.185a1.2 1.2 0 0 1-.507.971l.236.334zM1202.187 142.843a5.1 5.1 0 0 0 2.158-4.147v-16.2h-.409v16.195a5.194 5.194 0 0 1-.087.887 4.7 4.7 0 0 1-1.9 2.927l.238.338z" fill="#59595C" fill-rule="nonzero"/><path fill="#59595C" fill-rule="nonzero" d="M1200.223 122.5h4.342v1h-4.342z"/><path d="M1181.992 143.369h17.24l.214-.008a4.65 4.65 0 0 0 2.505-.852l-1.78-2.519a1.583 1.583 0 0 1-.851.289l-.085.005h-17.24l-.003 3.085z" fill="#6DC1D2" fill-rule="nonzero"/><path d="M1181.992 140.284h17.24l.085-.005a1.583 1.583 0 0 0 .851-.289l-.236-.334a1.178 1.178 0 0 1-.635.214l-.068.005h-17.24l.003.409zM1181.992 143.778h17.24l.231-.008a5.054 5.054 0 0 0 2.724-.927l-.236-.334a4.65 4.65 0 0 1-2.505.852l-.214.008h-17.24v.409z" fill="#59595C" fill-rule="nonzero"/><path d="M1202.314 143.023a5.43 5.43 0 0 1-1.445.721l-1.322-4.135c.092-.032.18-.077.261-.132l2.506 3.546z" fill="#59595C" fill-rule="nonzero"/><path fill="#6DC1D2" fill-rule="nonzero" d="M1162.803 140.284h19.189v3.085h-19.189z"/><path fill="#59595C" fill-rule="nonzero" d="M1162.803 139.875h19.189v1h-19.189zM1162.803 143.369h19.189v1h-19.189z"/><path fill="#59595C" fill-rule="nonzero" d="M1181.034 139.656h1v4.342h-1z"/><path fill="#6DC1D2" fill-rule="nonzero" d="M1143.614 140.284h19.189v3.085h-19.189z"/><path fill="#59595C" fill-rule="nonzero" d="M1143.614 139.875h19.189v1h-19.189zM1143.614 143.369h19.189v1h-19.189z"/><path fill="#59595C" fill-rule="nonzero" d="M1161.845 139.656h1v4.342h-1z"/><path fill="#6DC1D2" fill-rule="nonzero" d="M1124.425 140.284h19.189v3.085h-19.189z"/><path fill="#59595C" fill-rule="nonzero" d="M1124.425 139.875h19.189v1h-19.189zM1124.425 143.369h19.189v1h-19.189z"/><path fill="#59595C" fill-rule="nonzero" d="M1142.656 139.656h1v4.342h-1z"/><path fill="#6DC1D2" fill-rule="nonzero" d="M1105.236 140.284h19.189v3.085h-19.189z"/><path fill="#59595C" fill-rule="nonzero" d="M1105.236 139.875h19.189v1h-19.189zM1105.236 143.369h19.189v1h-19.189z"/><path fill="#59595C" fill-rule="nonzero" d="M1123.467 139.656h1v4.342h-1z"/><path fill="#6DC1D2" fill-rule="nonzero" d="M1086.047 140.284h19.189v3.085h-19.189z"/><path fill="#59595C" fill-rule="nonzero" d="M1086.047 139.875h19.189v1h-19.189zM1086.047 143.369h19.189v1h-19.189z"/><path fill="#59595C" fill-rule="nonzero" d="M1104.278 139.656h1v4.342h-1z"/><path fill="#6DC1D2" fill-rule="nonzero" d="M1066.857 140.284h19.189v3.085h-19.189z"/><path fill="#59595C" fill-rule="nonzero" d="M1066.857 139.875h19.189v1h-19.189zM1066.857 143.369h19.189v1h-19.189z"/><path fill="#59595C" fill-rule="nonzero" d="M1085.089 139.656h1v4.342h-1z"/><path fill="#6DC1D2" fill-rule="nonzero" d="M1047.668 140.284h19.189v3.085h-19.189z"/><path fill="#59595C" fill-rule="nonzero" d="M1047.668 139.875h19.189v1h-19.189zM1047.668 143.369h19.189v1h-19.189z"/><path fill="#59595C" fill-rule="nonzero" d="M1065.9 139.656h1v4.342h-1z"/><path fill="#6DC1D2" fill-rule="nonzero" d="M1028.479 140.284h19.189v3.085h-19.189z"/><path fill="#59595C" fill-rule="nonzero" d="M1028.479 139.875h19.189v1h-19.189zM1028.479 143.369h19.189v1h-19.189z"/><path fill="#59595C" fill-rule="nonzero" d="M1046.711 139.656h1v4.342h-1z"/><path fill="#6DC1D2" fill-rule="nonzero" d="M1009.29 140.284h19.189v3.085h-19.189z"/><path fill="#59595C" fill-rule="nonzero" d="M1009.29 139.875h19.189v1h-19.189zM1009.29 143.369h19.189v1h-19.189z"/><path fill="#59595C" fill-rule="nonzero" d="M1027.521 139.656h1v4.342h-1z"/><path fill="#6DC1D2" fill-rule="nonzero" d="M990.101 140.284h19.189v3.085h-19.189z"/><path fill="#59595C" fill-rule="nonzero" d="M990.101 139.875h19.189v1h-19.189zM990.101 143.369h19.189v1h-19.189z"/><path fill="#59595C" fill-rule="nonzero" d="M1008.332 139.656h1v4.342h-1z"/><path fill="#6DC1D2" fill-rule="nonzero" d="M970.912 140.284h19.189v3.085h-19.189z"/><path fill="#59595C" fill-rule="nonzero" d="M970.912 139.875h19.189v1h-19.189zM970.912 143.369h19.189v1h-19.189z"/><path fill="#59595C" fill-rule="nonzero" d="M989.143 139.656h1v4.342h-1z"/><path fill="#6DC1D2" fill-rule="nonzero" d="M951.723 140.284h19.189v3.085h-19.189z"/><path fill="#59595C" fill-rule="nonzero" d="M951.723 139.875h19.189v1h-19.189zM951.723 143.369h19.189v1h-19.189z"/><path fill="#59595C" fill-rule="nonzero" d="M969.954 139.656h1v4.342h-1z"/><path fill="#6DC1D2" fill-rule="nonzero" d="M932.534 140.284h19.189v3.085h-19.189z"/><path fill="#59595C" fill-rule="nonzero" d="M932.534 139.875h19.189v1h-19.189zM932.534 143.369h19.189v1h-19.189z"/><path fill="#59595C" fill-rule="nonzero" d="M950.765 139.656h1v4.342h-1z"/><path fill="#6DC1D2" fill-rule="nonzero" d="M913.345 140.284h19.189v3.085h-19.189z"/><path fill="#59595C" fill-rule="nonzero" d="M913.345 139.875h19.189v1h-19.189zM913.345 143.369h19.189v1h-19.189z"/><path fill="#59595C" fill-rule="nonzero" d="M931.576 139.656h1v4.342h-1z"/><path fill="#6DC1D2" fill-rule="nonzero" d="M894.156 140.284h19.189v3.085h-19.189z"/><path fill="#59595C" fill-rule="nonzero" d="M894.156 139.875h19.189v1h-19.189zM894.156 143.369h19.189v1h-19.189z"/><path fill="#59595C" fill-rule="nonzero" d="M912.387 139.656h1v4.342h-1z"/><path fill="#6DC1D2" fill-rule="nonzero" d="M874.967 140.284h19.189v3.085h-19.189z"/><path fill="#59595C" fill-rule="nonzero" d="M874.967 139.875h19.189v1h-19.189zM874.967 143.369h19.189v1h-19.189z"/><path fill="#59595C" fill-rule="nonzero" d="M893.198 139.656h1v4.342h-1z"/><path fill="#6DC1D2" fill-rule="nonzero" d="M855.778 140.284h19.189v3.085h-19.189z"/><path fill="#59595C" fill-rule="nonzero" d="M855.778 139.875h19.189v1h-19.189zM855.778 143.369h19.189v1h-19.189z"/><path fill="#59595C" fill-rule="nonzero" d="M874.009 139.656h1v4.342h-1z"/><path fill="#6DC1D2" fill-rule="nonzero" d="M836.589 140.284h19.189v3.085h-19.189z"/><path fill="#59595C" fill-rule="nonzero" d="M836.589 139.875h19.189v1h-19.189zM836.589 143.369h19.189v1h-19.189z"/><path fill="#59595C" fill-rule="nonzero" d="M854.82 139.656h1v4.342h-1z"/><path fill="#6DC1D2" fill-rule="nonzero" d="M817.4 140.284h19.189v3.085H817.4z"/><path fill="#59595C" fill-rule="nonzero" d="M817.4 139.875h19.189v1H817.4zM817.4 143.369h19.189v1H817.4z"/><path fill="#59595C" fill-rule="nonzero" d="M835.631 139.656h1v4.342h-1z"/><path fill="#6DC1D2" fill-rule="nonzero" d="M798.211 140.284H817.4v3.085h-19.189z"/><path fill="#59595C" fill-rule="nonzero" d="M798.211 139.875H817.4v1h-19.189zM798.211 143.369H817.4v1h-19.189z"/><path fill="#59595C" fill-rule="nonzero" d="M816.442 139.656h1v4.342h-1z"/><path fill="#6DC1D2" fill-rule="nonzero" d="M779.021 140.284h19.189v3.085h-19.189z"/><path fill="#59595C" fill-rule="nonzero" d="M779.021 139.875h19.189v1h-19.189zM779.021 143.369h19.189v1h-19.189z"/><path fill="#59595C" fill-rule="nonzero" d="M797.253 139.656h1v4.342h-1z"/><path fill="#6DC1D2" fill-rule="nonzero" d="M759.832 140.284h19.189v3.085h-19.189z"/><path fill="#59595C" fill-rule="nonzero" d="M759.832 139.875h19.189v1h-19.189zM759.832 143.369h19.189v1h-19.189z"/><path fill="#59595C" fill-rule="nonzero" d="M778.064 139.656h1v4.342h-1z"/><path fill="#6DC1D2" fill-rule="nonzero" d="M740.643 140.284h19.189v3.085h-19.189z"/><path fill="#59595C" fill-rule="nonzero" d="M740.643 139.875h19.189v1h-19.189zM740.643 143.369h19.189v1h-19.189z"/><path fill="#59595C" fill-rule="nonzero" d="M758.875 139.656h1v4.342h-1z"/><path fill="#6DC1D2" fill-rule="nonzero" d="M721.454 140.284h19.189v3.085h-19.189z"/><path fill="#59595C" fill-rule="nonzero" d="M721.454 139.875h19.189v1h-19.189zM721.454 143.369h19.189v1h-19.189z"/><path fill="#59595C" fill-rule="nonzero" d="M739.685 139.656h1v4.342h-1z"/><path fill="#6DC1D2" fill-rule="nonzero" d="M702.265 140.284h19.189v3.085h-19.189z"/><path fill="#59595C" fill-rule="nonzero" d="M702.265 139.875h19.189v1h-19.189zM702.265 143.369h19.189v1h-19.189z"/><path fill="#59595C" fill-rule="nonzero" d="M720.496 139.656h1v4.342h-1z"/><path fill="#6DC1D2" fill-rule="nonzero" d="M683.076 140.284h19.189v3.085h-19.189z"/><path fill="#59595C" fill-rule="nonzero" d="M683.076 139.875h19.189v1h-19.189zM683.076 143.369h19.189v1h-19.189z"/><path fill="#59595C" fill-rule="nonzero" d="M701.307 139.656h1v4.342h-1z"/><path fill="#6DC1D2" fill-rule="nonzero" d="M663.887 140.284h19.189v3.085h-19.189z"/><path fill="#59595C" fill-rule="nonzero" d="M663.887 139.875h19.189v1h-19.189zM663.887 143.369h19.189v1h-19.189z"/><path fill="#59595C" fill-rule="nonzero" d="M682.118 139.656h1v4.342h-1z"/><path fill="#6DC1D2" fill-rule="nonzero" d="M644.698 140.284h19.189v3.085h-19.189z"/><path fill="#59595C" fill-rule="nonzero" d="M644.698 139.875h19.189v1h-19.189zM644.698 143.369h19.189v1h-19.189z"/><path fill="#59595C" fill-rule="nonzero" d="M662.929 139.656h1v4.342h-1z"/><path fill="#6DC1D2" fill-rule="nonzero" d="M625.509 140.284h19.189v3.085h-19.189z"/><path fill="#59595C" fill-rule="nonzero" d="M625.509 139.875h19.189v1h-19.189zM625.509 143.369h19.189v1h-19.189z"/><path fill="#59595C" fill-rule="nonzero" d="M643.74 139.656h1v4.342h-1z"/><path fill="#6DC1D2" fill-rule="nonzero" d="M606.32 140.284h19.189v3.085H606.32z"/><path fill="#59595C" fill-rule="nonzero" d="M606.32 139.875h19.189v1H606.32zM606.32 143.369h19.189v1H606.32z"/><path fill="#59595C" fill-rule="nonzero" d="M624.551 139.656h1v4.342h-1z"/><path fill="#6DC1D2" fill-rule="nonzero" d="M587.131 140.284h19.189v3.085h-19.189z"/><path fill="#59595C" fill-rule="nonzero" d="M587.131 139.875h19.189v1h-19.189zM587.131 143.369h19.189v1h-19.189z"/><path fill="#59595C" fill-rule="nonzero" d="M605.362 139.656h1v4.342h-1z"/><path fill="#6DC1D2" fill-rule="nonzero" d="M567.942 140.284h19.189v3.085h-19.189z"/><path fill="#59595C" fill-rule="nonzero" d="M567.942 139.875h19.189v1h-19.189zM567.942 143.369h19.189v1h-19.189z"/><path fill="#59595C" fill-rule="nonzero" d="M586.173 139.656h1v4.342h-1z"/><path fill="#6DC1D2" fill-rule="nonzero" d="M548.753 140.284h19.189v3.085h-19.189z"/><path fill="#59595C" fill-rule="nonzero" d="M548.753 139.875h19.189v1h-19.189zM548.753 143.369h19.189v1h-19.189z"/><path fill="#59595C" fill-rule="nonzero" d="M566.984 139.656h1v4.342h-1z"/><path fill="#6DC1D2" fill-rule="nonzero" d="M529.564 140.284h19.189v3.085h-19.189z"/><path fill="#59595C" fill-rule="nonzero" d="M529.564 139.875h19.189v1h-19.189zM529.564 143.369h19.189v1h-19.189z"/><path fill="#59595C" fill-rule="nonzero" d="M547.795 139.656h1v4.342h-1z"/><path fill="#EE4036" fill-rule="nonzero" d="M767.908 121.907h3.085v18.974h-3.085z"/><path fill="#59595C" fill-rule="nonzero" d="M770.992 121.907h1v18.974h-1zM767.499 121.907h1v18.974h-1z"/><path fill="#59595C" fill-rule="nonzero" d="M767.279 121.907h4.342v1h-4.342z"/><path fill="#EE4036" fill-rule="nonzero" d="M767.908 140.881h3.085v18.974h-3.085z"/><path fill="#59595C" fill-rule="nonzero" d="M770.992 140.881h1v18.974h-1zM767.499 140.881h1v18.974h-1z"/><path fill="#59595C" fill-rule="nonzero" d="M767.279 140.881h4.342v1h-4.342z"/><path d="M781.478 169.695h-8.9a4.687 4.687 0 0 1-4.525-3.543 5.927 5.927 0 0 1-.145-1.553v-4.744h3.084v4.744a2.96 2.96 0 0 0 .052.8 1.6 1.6 0 0 0 1.543 1.21h8.889l.002 3.086z" fill="#EE4036" fill-rule="nonzero"/><path d="M781.478 166.614h-8.889a1.6 1.6 0 0 1-1.543-1.21 2.96 2.96 0 0 1-.052-.8v-4.744h.409v4.744c-.02.234-.006.47.04.7a1.2 1.2 0 0 0 1.15.898h8.887l-.002.412z" fill="#59595C" fill-rule="nonzero"/><path d="M781.478 170.104h-8.9a5.1 5.1 0 0 1-5.066-4.8c-.02-.374-.009-.487-.012-.705v-4.744h.409v4.744c-.02.522.028 1.044.145 1.553a4.687 4.687 0 0 0 4.525 3.543h8.9l-.001.409z" fill="#59595C" fill-rule="nonzero"/><path fill="#59595C" fill-rule="nonzero" d="M767.279 159.855h4.342v1h-4.342z"/><path fill="#EE4036" fill-rule="nonzero" d="M781.478 166.611h18.974v3.085h-18.974z"/><path fill="#59595C" fill-rule="nonzero" d="M781.478 166.202h18.974v1h-18.974zM781.478 169.695h18.974v1h-18.974z"/><path fill="#59595C" fill-rule="nonzero" d="M781.478 165.982h1v4.342h-1z"/><path fill="#EE4036" fill-rule="nonzero" d="M800.452 166.611h18.974v3.085h-18.974z"/><path fill="#59595C" fill-rule="nonzero" d="M800.452 166.202h18.974v1h-18.974zM800.452 169.695h18.974v1h-18.974z"/><path fill="#59595C" fill-rule="nonzero" d="M800.452 165.982h1v4.342h-1z"/><path fill="#EE4036" fill-rule="nonzero" d="M819.426 166.611H838.4v3.085h-18.974z"/><path fill="#59595C" fill-rule="nonzero" d="M819.426 166.202H838.4v1h-18.974zM819.426 169.695H838.4v1h-18.974z"/><path fill="#59595C" fill-rule="nonzero" d="M819.426 165.982h1v4.342h-1z"/><path fill="#EE4036" fill-rule="nonzero" d="M838.4 166.611h18.974v3.085H838.4z"/><path fill="#59595C" fill-rule="nonzero" d="M838.4 166.202h18.974v1H838.4zM838.4 169.695h18.974v1H838.4z"/><path fill="#59595C" fill-rule="nonzero" d="M838.4 165.982h1v4.342h-1z"/><path fill="#EE4036" fill-rule="nonzero" d="M857.374 166.611h18.974v3.085h-18.974z"/><path fill="#59595C" fill-rule="nonzero" d="M857.374 166.202h18.974v1h-18.974zM857.374 169.695h18.974v1h-18.974z"/><path fill="#59595C" fill-rule="nonzero" d="M857.374 165.982h1v4.342h-1z"/><path fill="#EE4036" fill-rule="nonzero" d="M876.347 166.611h18.974v3.085h-18.974z"/><path fill="#59595C" fill-rule="nonzero" d="M876.347 166.202h18.974v1h-18.974zM876.347 169.695h18.974v1h-18.974z"/><path fill="#59595C" fill-rule="nonzero" d="M876.347 165.982h1v4.342h-1z"/><path fill="#EE4036" fill-rule="nonzero" d="M895.321 166.611h18.974v3.085h-18.974z"/><path fill="#59595C" fill-rule="nonzero" d="M895.321 166.202h18.974v1h-18.974zM895.321 169.695h18.974v1h-18.974z"/><path fill="#59595C" fill-rule="nonzero" d="M895.321 165.982h1v4.342h-1z"/><path fill="#EE4036" fill-rule="nonzero" d="M914.295 166.611h18.974v3.085h-18.974z"/><path fill="#59595C" fill-rule="nonzero" d="M914.295 166.202h18.974v1h-18.974zM914.295 169.695h18.974v1h-18.974z"/><path fill="#59595C" fill-rule="nonzero" d="M914.295 165.982h1v4.342h-1z"/><path fill="#EE4036" fill-rule="nonzero" d="M933.269 166.611h18.974v3.085h-18.974z"/><path fill="#59595C" fill-rule="nonzero" d="M933.269 166.202h18.974v1h-18.974zM933.269 169.695h18.974v1h-18.974z"/><path fill="#59595C" fill-rule="nonzero" d="M933.269 165.982h1v4.342h-1z"/><path fill="#EE4036" fill-rule="nonzero" d="M952.243 166.611h18.974v3.085h-18.974z"/><path fill="#59595C" fill-rule="nonzero" d="M952.243 166.202h18.974v1h-18.974zM952.243 169.695h18.974v1h-18.974z"/><path fill="#59595C" fill-rule="nonzero" d="M952.243 165.982h1v4.342h-1z"/><path d="M981.66 156.728v8.311a4.68 4.68 0 0 1-4.428 4.645l-.22.01h-5.794v-3.08h5.769l.076-.005c.2-.01.398-.059.58-.143.37-.172.661-.477.816-.854a1.56 1.56 0 0 0 .116-.588v-8.291l3.085-.005z" fill="#EE4036" fill-rule="nonzero"/><path d="M978.575 156.728v8.286c0 .202-.04.401-.116.588a1.617 1.617 0 0 1-.816.854c-.182.084-.38.133-.58.143l-.076.005h-5.769v-.409h5.823a1.193 1.193 0 0 0 1.039-.742c.057-.139.086-.288.086-.438v-8.288l.409.001z" fill="#59595C" fill-rule="nonzero"/><path d="M982.069 156.728v8.314a5.09 5.09 0 0 1-4.815 5.05l-.239.011h-5.8v-.409h5.794l.22-.01a4.684 4.684 0 0 0 4.428-4.645v-8.311h.412z" fill="#59595C" fill-rule="nonzero"/><path fill="#59595C" fill-rule="nonzero" d="M971.217 165.982h1v4.342h-1z"/><path fill="#EE4036" fill-rule="nonzero" d="M978.575 137.754h3.085v18.974h-3.085z"/><path fill="#59595C" fill-rule="nonzero" d="M978.166 137.754h1v18.974h-1zM981.66 137.754h1v18.974h-1z"/><path fill="#59595C" fill-rule="nonzero" d="M977.947 155.781h4.342v1h-4.342z"/><path d="M993.652 132.506h-10.376l-.159.008a1.6 1.6 0 0 0-1.45 1.487c0 .061-.009.074-.007.2v3.558h-3.085v-3.558c0-.076.007-.26.014-.4a3.43 3.43 0 0 1 .05-.438c.043-.292.118-.579.222-.855a4.683 4.683 0 0 1 3.982-3.064l.433-.021h10.376v3.083z" fill="#EE4036" fill-rule="nonzero"/><path d="M993.652 129.421h-10.376l-.433.021a4.683 4.683 0 0 0-3.982 3.064 4.134 4.134 0 0 0-.222.855 3.43 3.43 0 0 0-.05.438 7.576 7.576 0 0 0-.014.4v3.558h-.409v-3.558c0-.07.007-.277.015-.424.008-.16.026-.319.054-.476a5.1 5.1 0 0 1 4.571-4.262l.47-.022h10.376v.406z" fill="#59595C" fill-rule="nonzero"/><path d="M993.652 132.914h-10.376c-.04.004-.082.006-.123.006a1.193 1.193 0 0 0-1.009.78.794.794 0 0 0-.056.215.52.52 0 0 0-.013.112c0 .051-.008.041-.006.168v3.558h-.409v-3.558c0-.121.007-.134.007-.2.001-.05.007-.1.017-.15a1.6 1.6 0 0 1 1.433-1.337l.159-.008h10.376v.414z" fill="#59595C" fill-rule="nonzero"/><path fill="#59595C" fill-rule="nonzero" d="M977.947 136.807h4.342v1h-4.342z"/><path fill="#EE4036" fill-rule="nonzero" d="M993.652 129.421h18.974v3.085h-18.974z"/><path fill="#59595C" fill-rule="nonzero" d="M993.652 129.012h18.974v1h-18.974zM993.652 132.506h18.974v1h-18.974z"/><path fill="#59595C" fill-rule="nonzero" d="M993.652 128.793h1v4.342h-1z"/><path fill="#EE4036" fill-rule="nonzero" d="M1012.626 129.421h18.974v3.085h-18.974z"/><path fill="#59595C" fill-rule="nonzero" d="M1012.626 129.012h18.974v1h-18.974zM1012.626 132.506h18.974v1h-18.974z"/><path fill="#59595C" fill-rule="nonzero" d="M1012.626 128.793h1v4.342h-1z"/><path fill="#EE4036" fill-rule="nonzero" d="M1031.6 129.421h18.974v3.085H1031.6z"/><path fill="#59595C" fill-rule="nonzero" d="M1031.6 129.012h18.974v1H1031.6zM1031.6 132.506h18.974v1H1031.6z"/><path fill="#59595C" fill-rule="nonzero" d="M1031.6 128.793h1v4.342h-1z"/><path fill="#EE4036" fill-rule="nonzero" d="M1050.574 129.421h18.974v3.085h-18.974z"/><path fill="#59595C" fill-rule="nonzero" d="M1050.574 129.012h18.974v1h-18.974zM1050.574 132.506h18.974v1h-18.974z"/><path fill="#59595C" fill-rule="nonzero" d="M1050.574 128.793h1v4.342h-1z"/><path fill="#EE4036" fill-rule="nonzero" d="M1069.548 129.421h18.974v3.085h-18.974z"/><path fill="#59595C" fill-rule="nonzero" d="M1069.548 129.012h18.974v1h-18.974zM1069.548 132.506h18.974v1h-18.974z"/><path fill="#59595C" fill-rule="nonzero" d="M1069.548 128.793h1v4.342h-1z"/><path d="M1101.656 122.23V127.885c-.007.146-.012.293-.026.439a4.621 4.621 0 0 1-.515 1.683 4.7 4.7 0 0 1-2.622 2.243c-.28.097-.567.165-.86.205a3.229 3.229 0 0 1-.438.042l-.22.009h-8.451v-3.085h8.448l.076-.006a1.445 1.445 0 0 0 .443-.083c.386-.132.708-.406.9-.767.095-.177.155-.371.175-.571l.009-.152v-5.612h3.081z" fill="#EE4036" fill-rule="nonzero"/><path d="M1098.572 122.23v5.612l-.009.152c-.02.2-.08.394-.175.571a1.609 1.609 0 0 1-1.343.85l-.076.006h-8.448v-.407h8.505a.471.471 0 0 0 .113-.01 1.2 1.2 0 0 0 1.015-1.047c0-.038 0-.076.006-.114.006-.038 0-.183 0-.269v-5.337l.412-.007z" fill="#59595C" fill-rule="nonzero"/><path d="M1102.065 122.23v5.66c-.007.16-.013.319-.028.478a5.1 5.1 0 0 1-4.823 4.537l-.239.01h-8.451v-.409h8.451l.22-.009c.147-.004.293-.018.438-.042.293-.04.58-.108.86-.205a4.7 4.7 0 0 0 2.622-2.243 4.621 4.621 0 0 0 .515-1.683c.014-.146.019-.293.026-.439V122.23h.409z" fill="#59595C" fill-rule="nonzero"/><path fill="#59595C" fill-rule="nonzero" d="M1088.522 128.793h1v4.342h-1z"/><path d="M0 121.907h1366" stroke="#58595B" stroke-width=".838" fill="#FFF" fill-rule="nonzero" stroke-linejoin="round"/><path d="M693.941 36.638a14.274 14.274 0 0 1 10.244-4.036M693.941 36.638a14.274 14.274 0 0 0-10.244-4.036M1276.71 36.638a14.274 14.274 0 0 1 10.244-4.036M1276.71 36.638a14.274 14.274 0 0 0-10.244-4.036M730.73 45.142a14.274 14.274 0 0 1 10.244-4.036M730.73 45.142a14.274 14.274 0 0 0-10.244-4.036" stroke="#58595B" stroke-width=".838" stroke-linecap="round" stroke-linejoin="round"/></g></svg>