<svg xmlns="http://www.w3.org/2000/svg" xmlns:xlink="http://www.w3.org/1999/xlink" width="109" height="110" viewBox="0 0 109 110"><defs><style>.a{fill:#fff;}.b,.h,.i{fill:none;}.c{clip-path:url(#a);}.d{clip-path:url(#b);}.e{fill:#ffc600;}.f{clip-path:url(#c);}.g{fill:#ffac00;}.h,.i{stroke:#85878a;stroke-miterlimit:10;}.h{stroke-width:4.83px;}.i{stroke-width:4.542px;}</style><clipPath id="a"><ellipse class="a" cx="54.5" cy="55" rx="54.5" ry="55" transform="translate(187 2121)"/></clipPath><clipPath id="b"><rect class="b" width="108.778" height="108.845"/></clipPath><clipPath id="c"><path class="b" d="M0,54.5A54.5,54.5,0,1,0,54.5,0,54.5,54.5,0,0,0,0,54.5"/></clipPath></defs><g class="c" transform="translate(-187 -2121)"><g transform="translate(241.5 2176)"><g transform="translate(-54.5 -54.5)"><g class="d"><path class="e" d="M54.5,108.9A54.5,54.5,0,1,0,0,54.622,54.5,54.5,0,0,0,54.5,108.9" transform="translate(0 -0.122)"/></g><g class="f"><rect class="g" width="58.266" height="73.664" transform="translate(30.839 71.897) rotate(-46)"/></g><g class="d"><path class="a" d="M40.8,69.2A28.8,28.8,0,1,0,12,40.4,28.8,28.8,0,0,0,40.8,69.2" transform="translate(14.585 14.099)"/></g><line class="h" y2="10.191" transform="translate(55.386 37.663)"/><g class="d"><path class="i" d="M25.086,19.2a14.4,14.4,0,1,0,15.73,0" transform="translate(22.546 23.337)"/></g></g></g></g></svg>