<svg width="109" height="64" xmlns="http://www.w3.org/2000/svg"><g transform="translate(1)" fill="none" fill-rule="evenodd"><path d="M102.581 8.049H42.472c-7.806 0-9.258 1.254-11.72 5.135l-8.3 14.093L8.06 32.248c-3.571 1.177-4.894 2.417-4.894 4.582v14.271a4.523 4.523 0 0 0 4.517 4.519h2.676a13.029 13.029 0 0 1 25.792 0H74.83a13.022 13.022 0 0 1 25.778 0h1.969a4.525 4.525 0 0 0 4.52-4.519V12.566a4.524 4.524 0 0 0-4.516-4.517zM56.77 27.178a.7.7 0 0 1-.7.7H30.22a.7.7 0 0 1-.7-.7l6.8-13.725c.246-.449.725-.72 1.236-.7H56.07a.7.7 0 0 1 .7.7v13.725z" fill="#EE4036" fill-rule="nonzero"/><rect fill="#FFF" fill-rule="nonzero" x="2.204" y="39.238" width="9.638" height="8.058" rx="1.896"/><path d="M103.653 2.341H22.53a1.154 1.154 0 0 1 0-2.307h81.118a1.154 1.154 0 0 1 0 2.307h.005z" fill="#58595B" fill-rule="nonzero"/><path d="M89.462 7.711a1.154 1.154 0 0 1-1.153-1.154V1.188a1.154 1.154 0 1 1 2.307 0v5.369a1.154 1.154 0 0 1-1.154 1.154zM44.589 7.711a1.154 1.154 0 0 1-1.154-1.154V1.188a1.154 1.154 0 1 1 2.307 0v5.369c0 .637-.516 1.153-1.153 1.154z" fill="#58595B" fill-rule="nonzero"/><text transform="translate(66.41 15.422)" fill="#FFF" font-family="ProgramOT-Bold, Program OT" font-size="7.05" font-weight="bold"><tspan x=".281" y="6">GAS MAN</tspan></text><path d="M0 36.83v14.271a5.672 5.672 0 0 0 5.67 5.673h3.716a11.877 11.877 0 0 1 23.712 0h40.763a11.869 11.869 0 0 1 23.7 0h3.011a5.673 5.673 0 0 0 5.672-5.672V12.566a5.673 5.673 0 0 0-5.672-5.671h-60.11c-8.134 0-9.981 1.4-12.694 5.671l-8.1 13.76-13.989 4.831C2.323 32.261 0 33.697 0 36.83z" stroke="#58595B" stroke-width="1.5" stroke-linejoin="round"/><path d="M75.789 53.274a10.007 10.007 0 1 0 10.005-10.007c-5.524.006-10 4.483-10.005 10.007zM11.261 53.274a10.006 10.006 0 1 0 10-10.007c-5.522.009-9.995 4.485-10 10.007z" fill="#58595B" fill-rule="nonzero"/><path d="M77.137 40.011a.166.166 0 0 0 .217-.237 3.815 3.815 0 0 1-.219-3.781c1.26-2.818 2.027-4.278 2.027-4.278a10.152 10.152 0 0 0 1.514 3.218c1.065 1.457 1.647 3.29.708 4.817a.166.166 0 0 0 .217.236 4.71 4.71 0 0 0 2.614-4.161 8.122 8.122 0 0 0-.434-3.023 5.923 5.923 0 0 0-1.538-2.708.166.166 0 0 0-.275.137c.108 1.752-.551 2.2-.927 1.195a6.135 6.135 0 0 1-.237-1.936 6.623 6.623 0 0 0-1.305-4.024 4.56 4.56 0 0 0-.821-.834.166.166 0 0 0-.267.144c.05 2.522-.796 4.98-2.387 6.938-2.169 3.022-1.328 5.344-1.03 5.972a4.916 4.916 0 0 0 2.143 2.325z" fill="#FFF" fill-rule="nonzero"/></g></svg>