<?xml version="1.0" encoding="UTF-8"?>
<svg width="46px" height="46px" viewBox="0 0 46 46" version="1.1" xmlns="http://www.w3.org/2000/svg" xmlns:xlink="http://www.w3.org/1999/xlink">
    <!-- Generator: Sketch 53.2 (72643) - https://sketchapp.com -->
    <title>icon-phone</title>
    <desc>Created with Sketch.</desc>
    <g id="Page-1" stroke="none" stroke-width="1" fill="none" fill-rule="evenodd">
        <g id="icon-phone">
            <circle id="Oval" fill="#67314D" cx="23" cy="23" r="23"></circle>
            <g transform="translate(7.000000, 12.000000)" fill="#FFFFFF" fill-rule="nonzero" id="Shape">
                <path d="M31.965,4.361 L26.771,0.006 L6.193,0 L0.999,4.356 L2.621,10.97 L5.974,10.97 L3.667,14.37 L3.667,22.54 L29.295,22.54 L29.295,14.37 L26.995,10.98 L30.347,10.98 L31.965,4.361 Z M26.797,20.036 L6.168,20.036 L6.168,15.136 L10.997,8.036 L21.969,8.036 L26.796,15.136 L26.797,20.036 Z M28.334,8.412 L25.251,8.412 L23.292,5.53 L9.673,5.53 L7.717,8.407 L4.632,8.407 L3.868,5.295 L7.125,2.563 L25.838,2.568 L29.095,5.3 L28.334,8.412 Z M16.483,9.495 C13.976862,9.49500006 11.9451842,11.5265287 11.9450001,14.0326667 C11.9448161,16.5388047 13.9761955,18.5706318 16.4823335,18.571 C18.9884715,18.5713681 21.0204477,16.5401379 21.021,14.034 C21.0187955,11.5284836 18.9885159,9.49775659 16.483,9.495 Z M16.483,15.967 C15.7002746,15.9669999 14.9946402,15.495444 14.6951976,14.7722613 C14.3957551,14.0490786 14.5614888,13.2167222 15.1151023,12.6633948 C15.6687158,12.1100674 16.5011578,11.9447639 17.2241856,12.2445803 C17.9472134,12.5443966 18.4184045,13.2502747 18.418,14.033 C18.4168968,15.1010518 17.5510523,15.9664489 16.483,15.967 Z"></path>
            </g>
        </g>
    </g>
</svg>