<?xml version="1.0" encoding="UTF-8"?>
<svg width="164px" height="69px" viewBox="0 0 164 69" version="1.1" xmlns="http://www.w3.org/2000/svg" xmlns:xlink="http://www.w3.org/1999/xlink">
    <title>massey-logo</title>
    <g id="Page-1" stroke="none" stroke-width="1" fill="none" fill-rule="evenodd">
        <g id="massey-logo" transform="translate(0.916667, 0.666667)">
            <path d="M1.16666667,59.6458333 L1.16666667,64.5 C1.12679077,64.9954691 1.24337734,65.490962 1.5,65.9166667 C1.93263432,66.4545725 2.60362108,66.7432528 3.29166667,66.6875 C3.87813843,66.7259897 4.4503783,66.4961891 4.8473408,66.0627709 C5.24430329,65.6293526 5.423071,65.0391756 5.33333333,64.4583333 L5.33333333,59.6458333 L6.39583333,59.6458333 L6.39583333,64.4791667 C6.43224359,65.2279507 6.20356935,65.9656096 5.75,66.5625 C5.12076558,67.2795225 4.20345926,67.6770219 3.25,67.6458333 C2.19056052,67.6939026 1.17079826,67.2380998 0.5,66.4166667 C0.104217057,65.7988723 -0.0582928391,65.060191 0.0416666667,64.3333333 L0.0416666667,59.5416667 L1.16666667,59.6458333 Z" id="Path" fill="#005594" fill-rule="nonzero"></path>
            <polygon id="Path" fill="#005594" fill-rule="nonzero" points="7.85416667 59.6458333 9.375 59.6458333 13.2291667 66.1458333 13.2291667 59.6458333 14.2291667 59.6458333 14.2291667 67.5 12.8333333 67.5 8.85416667 60.8333333 8.85416667 67.5 7.85416667 67.5"></polygon>
            <rect id="Rectangle" fill="#005594" fill-rule="nonzero" x="16.1666667" y="59.6458333" width="1.08333333" height="7.83333333"></rect>
            <polygon id="Path" fill="#005594" fill-rule="nonzero" points="22.375 67.5 21.1666667 67.5 18.375 59.6458333 19.5833333 59.6458333 21.8125 66.3541667 24.1666667 59.6458333 25.25 59.6458333"></polygon>
            <polygon id="Path" fill="#005594" fill-rule="nonzero" points="26.2916667 59.6458333 31.2083333 59.6458333 31.2083333 60.5833333 27.375 60.5833333 27.375 63.0208333 31.0416667 63.0208333 31.0416667 63.9375 27.375 63.9375 27.375 66.5416667 31.2916667 66.5416667 31.2916667 67.5 26.2916667 67.5"></polygon>
            <path d="M32.9166667,59.6458333 L35.7083333,59.6458333 C36.3352043,59.6059252 36.961263,59.7354546 37.5208333,60.0208333 C38.0692083,60.3668748 38.3940002,60.9768497 38.375,61.625 C38.3736521,62.1413247 38.18062,62.6387612 37.8333333,63.0208333 C37.5755802,63.2744075 37.2500065,63.4480467 36.8958333,63.5208333 C37.6458333,63.7083333 37.9791667,64.0416667 38.1041667,65.0208333 C38.1940999,65.8663711 38.3828895,66.6984437 38.6666667,67.5 L37.4166667,67.5 C37.2513542,66.8144212 37.1330237,66.1183595 37.0625,65.4166667 C36.9375,64.2708333 36.6666667,63.9583333 35.3541667,63.9583333 L33.9791667,63.9583333 L33.9791667,67.5 L32.9166667,67.5 L32.9166667,59.6458333 Z M33.9583333,63.0208333 L35.6666667,63.0208333 C36.021523,63.0351967 36.3756737,62.9785326 36.7083333,62.8541667 C37.0552407,62.6344451 37.2548738,62.2431643 37.2291667,61.8333333 C37.2291667,60.5625 36.1041667,60.5625 35.6666667,60.5625 L33.9583333,60.5625 L33.9583333,63.0208333 Z" id="Shape" fill="#005594" fill-rule="nonzero"></path>
            <path d="M40.75,65.2083333 C40.75,65.75 40.75,66.75 42.625,66.75 C44.5,66.75 44.4583333,65.75 44.4583333,65.3541667 C44.4583333,64.4791667 43.75,64.2916667 42.6666667,64.0416667 C41.94102,63.9098599 41.2389362,63.6711514 40.5833333,63.3333333 C40.0576962,63.000422 39.7483479,62.4134535 39.7708333,61.7916667 C39.7708333,60.2083333 41.2708333,59.5 42.75,59.5 C43.5587816,59.4569301 44.3520336,59.73382 44.9583333,60.2708333 C45.261429,60.6485027 45.423493,61.1199616 45.4166667,61.6041667 L44.2916667,61.6041667 C44.2916667,60.625 43.4166667,60.4166667 42.6458333,60.4166667 C41.875,60.4166667 40.9166667,60.8958333 40.9166667,61.6875 C40.9166667,62.4791667 41.375,62.625 42.3333333,62.8541667 C43.2130067,62.9826776 44.0650192,63.2572933 44.8541667,63.6666667 C45.3641022,64.0190889 45.6556466,64.6100572 45.625,65.2291667 C45.625,66.625 44.5416667,67.6875 42.5416667,67.6875 C41.6384589,67.7510981 40.751229,67.4250222 40.1041667,66.7916667 C39.778277,66.3301618 39.616866,65.77256 39.6458333,65.2083333 L40.75,65.2083333 Z" id="Path" fill="#005594" fill-rule="nonzero"></path>
            <rect id="Rectangle" fill="#005594" fill-rule="nonzero" x="47.1458333" y="59.6458333" width="1.08333333" height="7.83333333"></rect>
            <polygon id="Path" fill="#005594" fill-rule="nonzero" points="52.0625 67.5 52.0625 60.5833333 49.4375 60.5833333 49.4375 59.6458333 55.7708333 59.6458333 55.7708333 60.5833333 53.1458333 60.5833333 53.1458333 67.5"></polygon>
            <polygon id="Path" fill="#005594" fill-rule="nonzero" points="59.375 64.4166667 56.3125 59.6458333 57.6666667 59.6458333 59.9791667 63.5 62.3125 59.6458333 63.5416667 59.6458333 60.4791667 64.4583333 60.4791667 67.5 59.375 67.5"></polygon>
            <path d="M67.9583333,60.5 C68.6432262,59.8049377 69.5871898,59.4273523 70.5625,59.4583333 C72.6458333,59.4583333 74.1041667,60.8333333 74.1041667,63.5 C74.1041667,65.5833333 73.2708333,67.6666667 70.4791667,67.6666667 C67.6875,67.6666667 66.9375,65.75 66.9375,63.5 C66.8816215,62.3682029 67.2450881,61.25555 67.9583333,60.375 M68.7708333,65.9166667 C69.2187539,66.4027926 69.8608866,66.6627035 70.5208333,66.625 C71.1767258,66.6751186 71.8177611,66.4125258 72.25,65.9166667 C72.7513977,65.1590094 72.9994132,64.2617771 72.9583333,63.3541667 C72.9583333,61.5833333 72.375,60.2291667 70.5833333,60.2291667 C68.7916667,60.2291667 68.0833333,61.8333333 68.0833333,63.4375 C68.0332367,64.3170494 68.2749091,65.1885349 68.7708333,65.9166667" id="Shape" fill="#005594" fill-rule="nonzero"></path>
            <polygon id="Path" fill="#005594" fill-rule="nonzero" points="75.5208333 59.6458333 80.1875 59.6458333 80.1875 60.5833333 76.625 60.5833333 76.625 63.0208333 79.9791667 63.0208333 79.9791667 63.9375 76.625 63.9375 76.625 67.5 75.5208333 67.5"></polygon>
            <polygon id="Path" fill="#005594" fill-rule="nonzero" points="84.5833333 59.6458333 86.0833333 59.6458333 89.9375 66.1458333 89.9375 59.6458333 90.9375 59.6458333 90.9375 67.5 89.5416667 67.5 85.5625 60.8333333 85.5625 67.5 84.5833333 67.5"></polygon>
            <polygon id="Path" fill="#005594" fill-rule="nonzero" points="92.5 59.6458333 97.4166667 59.6458333 97.4166667 60.5833333 93.5833333 60.5833333 93.5833333 63.0208333 97.2291667 63.0208333 97.2291667 63.9375 93.5833333 63.9375 93.5833333 66.5416667 97.5 66.5416667 97.5 67.5 92.5 67.5"></polygon>
            <polygon id="Path" fill="#005594" fill-rule="nonzero" points="99.5833333 59.6458333 101.270833 66.1041667 103.145833 59.6458333 104.479167 59.6458333 106.25 66.1666667 108.041667 59.6458333 109.104167 59.6458333 106.770833 67.5 105.583333 67.5 103.75 60.7916667 101.8125 67.5 100.645833 67.5 98.4166667 59.6458333"></polygon>
            <polygon id="Path" fill="#005594" fill-rule="nonzero" points="112.583333 66.3958333 117.104167 60.6041667 112.708333 60.6041667 112.708333 59.6458333 118.395833 59.6458333 118.395833 60.7291667 113.833333 66.5416667 118.479167 66.5416667 118.479167 67.5 112.583333 67.5"></polygon>
            <polygon id="Path" fill="#005594" fill-rule="nonzero" points="119.666667 59.6458333 124.583333 59.6458333 124.583333 60.5833333 120.75 60.5833333 120.75 63.0208333 124.395833 63.0208333 124.395833 63.9375 120.75 63.9375 120.75 66.5416667 124.666667 66.5416667 124.666667 67.5 119.666667 67.5"></polygon>
            <path d="M128.875,59.6458333 L130.020833,59.6458333 L133.208333,67.5 L132.020833,67.5 L131.166667,65.4166667 L127.541667,65.4166667 L126.6875,67.5 L125.5625,67.5 L128.875,59.6458333 Z M127.875,64.5833333 L130.854167,64.5833333 L129.395833,60.7291667 L127.875,64.5833333 Z" id="Shape" fill="#005594" fill-rule="nonzero"></path>
            <polygon id="Path" fill="#005594" fill-rule="nonzero" points="134.229167 59.6458333 135.291667 59.6458333 135.291667 66.5208333 138.958333 66.5208333 138.958333 67.5 134.229167 67.5"></polygon>
            <path d="M142.833333,59.6458333 L144,59.6458333 L147.166667,67.5 L145.979167,67.5 L145.145833,65.4166667 L141.541667,65.4166667 L140.6875,67.5 L139.583333,67.5 L142.833333,59.6458333 Z M141.854167,64.5833333 L144.916667,64.5833333 L143.479167,60.7291667 L141.854167,64.5833333 Z" id="Shape" fill="#005594" fill-rule="nonzero"></path>
            <polygon id="Path" fill="#005594" fill-rule="nonzero" points="148.083333 59.6458333 149.604167 59.6458333 153.458333 66.1458333 153.458333 59.6458333 154.458333 59.6458333 154.458333 67.5 153.0625 67.5 149.083333 60.8333333 149.083333 67.5 148.083333 67.5"></polygon>
            <path d="M156.104167,59.6458333 L158.375,59.6458333 C159.525414,59.4770806 160.688707,59.8545732 161.520833,60.6666667 C162.193877,61.5101934 162.541382,62.5674955 162.5,63.6458333 C162.572685,64.8591466 162.089738,66.0396855 161.1875,66.8541667 C160.339818,67.412434 159.317507,67.6420835 158.3125,67.5 L156.104167,67.5 L156.104167,59.6458333 Z M157.1875,66.6041667 L158.25,66.6041667 C158.973315,66.6839136 159.703199,66.530638 160.333333,66.1666667 C161.046839,65.5469739 161.43177,64.6308383 161.375,63.6875 C161.402631,62.8045762 161.130983,61.9382385 160.604167,61.2291667 C160.047332,60.7015307 159.280541,60.4561573 158.520833,60.5625 L157.208333,60.5625 L157.1875,66.6041667 Z" id="Shape" fill="#005594" fill-rule="nonzero"></path>
            <rect id="Rectangle" fill="#005594" fill-rule="nonzero" x="0" y="53.6458333" width="162.479167" height="1"></rect>
            <path d="M18.1666667,40.6666667 C17.3800567,39.3906099 16.6839045,38.0609593 16.0833333,36.6875 C15.4154074,35.3348932 14.2950627,34.2587726 12.9166667,33.6458333 C13.2042611,34.3682631 13.2042611,35.1734035 12.9166667,35.8958333 C12.1875,37.2708333 11.6041667,36.7083333 11.6041667,36.7083333 C11.6274478,37.3393052 11.9737762,37.9138954 12.5208333,38.2291667 C13.2146241,38.7150663 14.1582599,38.6268761 14.75,38.0208333 C14.7525126,38.9694522 15.2194807,39.8566917 16,40.3958333 C16.8066317,40.95811 17.7345466,41.3221381 18.7083333,41.4583333 L19.4166667,41.7083333 C18.9284048,41.4573536 18.5015792,41.1016656 18.1666667,40.6666667" id="Path" fill="#E09E36" fill-rule="nonzero"></path>
            <path d="M7.41666667,30.5625 C7.25084808,30.0193176 7.25084808,29.4390158 7.41666667,28.8958333 C8.22068055,28.3987487 9.21767154,28.3286477 10.0833333,28.7083333 C10.8051374,29.0256671 11.3528134,29.6418026 11.5833333,30.3958333 C12.1010865,29.9394435 12.4344479,29.309761 12.5208333,28.625 C12.6025691,27.7296281 12.2166604,26.8554267 11.5,26.3125 C10.8847887,25.868973 10.2119099,25.5115061 9.5,25.25 C9.95605299,25.013212 10.3543723,24.6789083 10.6666667,24.2708333 C10.6666667,24.0833333 10.8125,23.875 10.875,23.6875 C10.9643445,23.3818095 11.0902548,23.0880187 11.25,22.8125 C11.5575994,22.4350787 11.9318544,22.117315 12.3541667,21.875 C11.5412823,21.5715659 10.6462177,21.5715659 9.83333333,21.875 C8.5625,22.4166667 8.22916667,22.9583333 6.8125,23.5416667 L6.54166667,23.6458333 L6.54166667,23.6458333 C5.71050744,23.9670305 4.78949256,23.9670305 3.95833333,23.6458333 C4.36431974,24.2612637 4.55481261,24.9939286 4.5,25.7291667 C4.35430249,27.1430123 4.54711244,28.5712342 5.0625,29.8958333 C5.64873615,30.969457 6.67713884,31.7312368 7.875,31.9791667 C7.61602237,31.5481506 7.45923377,31.0635313 7.41666667,30.5625" id="Path" fill="#E09E36" fill-rule="nonzero"></path>
            <path d="M11.1666667,30.7708333 C10.4825537,29.9352851 9.39035615,29.5498036 8.33333333,29.7708333 C8.73333743,30.1707546 9.03934302,30.6546705 9.22916667,31.1875 C9.41533397,31.6678147 9.52771828,32.1735441 9.5625,32.6875 C8.85450277,32.5753859 8.12915541,32.6769345 7.47916667,32.9791667 C6.63786618,33.3304484 6.0882176,34.1508194 6.08333333,35.0625 C6.90633778,34.4173759 8.01322266,34.266075 8.97916667,34.6666667 C9.92848079,35.2129581 10.6245187,36.1110715 10.9166667,37.1666667 C10.9650466,36.7558478 11.0775228,36.3551512 11.25,35.9791667 C11.6334005,35.4366825 11.9482871,34.8488942 12.1875,34.2291667 C12.510087,32.9597182 12.110062,31.6156343 11.1458333,30.7291667" id="Path" fill="#E09E36" fill-rule="nonzero"></path>
            <path d="M4.875,5.85416667 C5.12009874,6.5222606 5.2538224,7.22606938 5.27083333,7.9375 C5.28877458,8.20175167 5.36717971,8.45835026 5.5,8.6875 C5.5,8.6875 4.16666667,8.83333333 3.75,9.5 C3.37784834,10.1445856 3.37784834,10.9387478 3.75,11.5833333 C3.89598499,11.0816398 4.31757789,10.7086922 4.83333333,10.625 C5.65681953,10.493805 6.49333115,10.7648967 7.08333333,11.3541667 C7.82454792,11.9792014 8.74203981,12.3578488 9.70833333,12.4375 C9.52713671,11.8043759 9.52713671,11.1331241 9.70833333,10.5 C9.96399171,9.66081014 10.3737609,8.87659664 10.9166667,8.1875 C11.3821806,7.60066053 11.5651324,6.83836128 11.4166667,6.10416667 C11.348703,5.6246037 11.2008199,5.15982842 10.9791667,4.72916667 C10.8445319,5.15247842 10.5639805,5.51424208 10.1875,5.75 C9.6492819,6.03867107 9.14598635,6.38818187 8.6875,6.79166667 C8.38798474,7.04275193 8.18236485,7.3878996 8.10416667,7.77083333 C8.03245616,7.02456616 7.77457702,6.30823523 7.35416667,5.6875 C6.83116266,4.93121559 6.11051518,4.33307818 5.27083333,3.95833333 C4.74818483,3.79763376 4.18931517,3.79763376 3.66666667,3.95833333 C4.2916623,4.39720436 4.759084,5.02530227 5,5.75" id="Path" fill="#E09E36" fill-rule="nonzero"></path>
            <path d="M11.2916667,9.125 C11.2916667,9.8125 11.2916667,10.625 11.1458333,11.6041667 C11.0139635,12.2457475 10.6315121,12.808176 10.0833333,13.1666667 C11.0064637,13.4027808 11.9776002,13.0260468 12.5,12.2291667 C12.957694,11.250899 12.8458935,10.1009513 12.2083333,9.22916667 C11.9560075,8.70400535 11.8413054,8.12332586 11.875,7.54166667 C11.5940598,8.03342637 11.3969221,8.56851431 11.2916667,9.125" id="Path" fill="#E09E36" fill-rule="nonzero"></path>
            <path d="M3.41666667,8.3125 C3.71441116,8.017842 4.10408387,7.83403412 4.52083333,7.79166667 C4.13885439,7.47593005 3.8566251,7.05620443 3.70833333,6.58333333 C3.47997424,6.05775421 3.4359248,5.47042836 3.58333333,4.91666667 C3.05038835,5.45843433 2.67576274,6.13564216 2.5,6.875 C2.3226386,7.74348119 2.41720721,8.64552019 2.77083333,9.45833333 C2.85672962,9.01666936 3.08330385,8.61468284 3.41666667,8.3125" id="Path" fill="#E09E36" fill-rule="nonzero"></path>
            <path d="M1.47916667,13.2083333 C1.88101227,12.6506471 2.58712332,12.4014315 3.25,12.5833333 C3.25,12.5833333 1.83333333,10.2916667 0.4375,12.1458333 C-0.958333333,14 2.04166667,15.875 2.04166667,15.875 C2.04166667,15.875 0.8125,14.3333333 1.54166667,13.2083333" id="Path" fill="#E09E36" fill-rule="nonzero"></path>
            <path d="M9.08333333,17.75 C7.5,17.75 6.77083333,20.9583333 7.22916667,22.75 C8.13338982,20.7077885 10.2913737,19.5221768 12.5,19.8541667 C12.5,19.8541667 10.625,17.7708333 9.08333333,17.7708333" id="Path" fill="#E09E36" fill-rule="nonzero"></path>
            <path d="M5,22.2291667 C5.39156732,22.668756 5.89585409,22.9929403 6.45833333,23.1666667 C6.09711199,21.8012643 6.09711199,20.3654023 6.45833333,19 C6.93516346,17.5385352 8.11893373,16.4174812 9.60416667,16.0208333 C10.2828099,15.9183371 10.9470769,15.7365377 11.5833333,15.4791667 C11.9797712,15.274055 12.290033,14.9342445 12.4583333,14.5208333 C11.8895539,14.6233394 11.3032387,14.5581933 10.7708333,14.3333333 C9.88966009,13.985075 9.05094025,13.5377577 8.27083333,13 C7.46772434,12.375821 6.4753279,12.0450222 5.45833333,12.0625 C4.9607577,11.9805503 4.45201585,12.1172272 4.0625,12.4375 C4.48802423,12.6293537 4.86000083,12.922643 5.14583333,13.2916667 C5.44239812,13.7800438 5.51088352,14.3735839 5.33333333,14.9166667 C4.96268776,14.7452435 4.5700587,14.6260525 4.16666667,14.5625 C3.47916667,14.4583333 3.08333333,14.5625 2.6875,14.5625 C2.47672188,14.5219279 2.29837228,14.3823499 2.20833333,14.1875 C2.08421427,14.8161923 2.17213859,15.4682976 2.45833333,16.0416667 C2.91666667,17.125 3.54166667,17.2083333 3.54166667,17.2083333 C2.54201755,17.4045584 1.73703791,18.1451396 1.45833333,19.125 C1.14350472,20.4541687 1.60256693,21.8474628 2.64583333,22.7291667 C2.64583333,22.7291667 2.64583333,21.6041667 3.29166667,21.375 C3.71371903,21.1840531 4.12415263,20.9684016 4.52083333,20.7291667 C4.47677411,21.3273167 4.65479304,21.9207131 5.02083333,22.3958333" id="Path" fill="#E09E36" fill-rule="nonzero"></path>
            <path d="M10.2708333,40.0833333 C10.3686689,39.8251138 10.6198478,39.6576612 10.8958333,39.6666667 C10.9991561,39.6479148 11.1050106,39.6479148 11.2083333,39.6666667 C11.6193446,39.9399323 12.0687019,40.1505685 12.5416667,40.2916667 C13.1458333,40.4375 13.4791667,40.2916667 13.5208333,40.1666667 C13.5625,40.0416667 12.9166667,39.3333333 12.2291667,39.2291667 C11.1684509,39.0828129 10.0905638,39.118038 9.04166667,39.3333333 C7.625,39.5833333 7.10416667,39.3333333 6.95833333,39.0833333 C6.8125,38.8333333 6.95833333,38.7916667 6.95833333,38.625 C6.77367425,38.627554 6.60545918,38.7316872 6.52083333,38.8958333 C6.17851681,39.5860745 6.03428541,40.3577125 6.10416667,41.125 C6.10416667,42.2708333 6.10416667,43.2083333 6.83333333,43.3333333 C7.5625,43.4583333 7.97916667,43.0208333 8.45833333,42.9583333 C8.9375,42.8958333 9.10416667,43.1041667 9.10416667,43.1041667 L10.2708333,40.0833333 Z" id="Path" fill="#005594" fill-rule="nonzero"></path>
            <path d="M36.4583333,40.0833333 C36.3555181,39.8291243 36.1075321,39.6638003 35.8333333,39.6666667 C35.7300106,39.6479148 35.6241561,39.6479148 35.5208333,39.6666667 C35.1044999,39.943808 34.6476735,40.154651 34.1666667,40.2916667 C33.5833333,40.4375 33.2291667,40.2916667 33.2083333,40.1666667 C33.1875,40.0416667 33.7916667,39.3333333 34.5,39.2291667 C35.5607158,39.0828129 36.6386028,39.118038 37.6875,39.3333333 C39.1041667,39.5833333 39.625,39.3333333 39.7708333,39.0833333 C39.9166667,38.8333333 39.7708333,38.7916667 39.6666667,38.625 C39.8513258,38.627554 40.0195408,38.7316872 40.1041667,38.8958333 C40.4242337,39.5933258 40.567348,40.3589876 40.5208333,41.125 C40.5208333,42.2708333 40.5208333,43.2083333 39.7916667,43.3333333 C39.0625,43.4583333 38.6458333,43.0208333 38.1666667,42.9583333 C37.6875,42.8958333 37.5208333,43.1041667 37.5208333,43.1041667 L36.4583333,40.0833333 Z" id="Path" fill="#005594" fill-rule="nonzero"></path>
            <path d="M37.2916667,44.5 C33.1162992,47.0749803 28.2784684,48.3713452 23.375,48.2291667 C18.4847438,48.3705007 13.6604884,47.0738915 9.5,44.5 C9.38994406,44.4697926 9.31888792,44.3632083 9.33333333,44.25 C9.32349467,44.2159747 9.32349467,44.1798586 9.33333333,44.1458333 L10.6041667,40.25 C10.6564239,40.1384131 10.7731664,40.0717031 10.8958333,40.0833333 C10.957325,40.0674563 11.0218417,40.0674563 11.0833333,40.0833333 C13.0416667,42.1666667 17.8125,43.625 23.375,43.625 C28.9375,43.625 33.7916667,42.1458333 35.6875,40.0625 C35.7541667,40.0347222 35.8291667,40.0347222 35.8958333,40.0625 C36.0049996,40.0681763 36.097819,40.1441195 36.125,40.25 L37.4166667,44.25 C37.4294903,44.2835382 37.4294903,44.3206285 37.4166667,44.3541667 C37.408764,44.4499113 37.3542197,44.5356238 37.2708333,44.5833333" id="Path" fill="#005594" fill-rule="nonzero"></path>
            <path d="M22,1.27083333 C22.0293531,1.32388597 22.0852017,1.35681285 22.1458333,1.35681285 C22.2064649,1.35681285 22.2623135,1.32388597 22.2916667,1.27083333 L23.1041667,0.291666667 C23.1041667,0.1875 23.1041667,0.0833333333 23,0.0833333333 L21.2708333,0.0833333333 C21.125,0.0833333333 21.0833333,0.0833333333 21.2708333,0.291666667 L22,1.27083333 Z M25.4375,1.27083333 C25.5751842,1.25590734 25.7019216,1.18881102 25.7916667,1.08333333 L26.5416667,0.208333333 C26.5416667,0.0833333333 26.5416667,-3.33066907e-16 26.5416667,-3.33066907e-16 L25.0208333,-3.33066907e-16 C24.8708794,0.00956954396 24.7331794,0.0860695405 24.6458333,0.208333333 L23.8958333,1.08333333 C23.8958333,1.1875 23.8958333,1.27083333 23.8958333,1.27083333 L25.4375,1.27083333 Z M32.4166667,1.33333333 C32.5543508,1.31840734 32.6810883,1.25131102 32.7708333,1.14583333 L33.5208333,0.270833333 C33.5208333,0.145833333 33.5208333,0.0625 33.5208333,0.0625 L32.8333333,0.0625 C32.6864091,0.0817925933 32.5523342,0.156278632 32.4583333,0.270833333 L31.7291667,1.14583333 C31.625,1.25 31.7291667,1.33333333 31.7291667,1.33333333 L32.4166667,1.33333333 Z M34.0208333,1.33333333 C33.8125,1.33333333 33.9166667,1.16666667 34.0208333,0.958333333 L34.5208333,0.354166667 C34.7167981,0.195512649 34.9568129,0.100961345 35.2083333,0.0833333333 L35.9166667,0.0833333333 C36.1458333,0.0833333333 36.1458333,0.25 35.9166667,0.458333333 C35.3817182,0.963211601 34.6913215,1.27168672 33.9583333,1.33333333 M30.0833333,1.33333333 C30.2210175,1.31840734 30.347755,1.25131102 30.4375,1.14583333 L31.1875,0.270833333 C31.2916667,0.145833333 31.1875,0.0625 31.1875,0.0625 L30.4791667,0.0625 C30.3367124,0.0779863419 30.2077486,0.153847365 30.125,0.270833333 L29.375,1.14583333 C29.375,1.25 29.375,1.33333333 29.375,1.33333333 L30.0833333,1.33333333 Z M27.7916667,1.33333333 C27.9647084,1.34200063 28.1326486,1.27329782 28.25,1.14583333 L29,0.270833333 C29,0.145833333 29,0.0625 29,0.0625 L28.0416667,0.0625 C27.8947424,0.0817925933 27.7606675,0.156278632 27.6666667,0.270833333 L26.9375,1.14583333 C26.8333333,1.25 26.9375,1.33333333 26.9375,1.33333333 L27.7916667,1.33333333 Z M19,1.33333333 C18.8623158,1.31840734 18.7355784,1.25131102 18.6458333,1.14583333 L17.8958333,0.270833333 C17.7916667,0.166666667 17.8958333,0.0833333333 17.8958333,0.0833333333 L19.4375,0.0833333333 C19.6194372,0.0821834591 19.79342,0.157828159 19.9166667,0.291666667 L20.6458333,1.16666667 C20.75,1.16666667 20.6458333,1.35416667 20.6458333,1.35416667 L19,1.33333333 Z M14.1458333,1.33333333 C14.0034602,1.31427528 13.8715037,1.24829703 13.7708333,1.14583333 L13.1666667,0.291666667 C13.1666667,0.1875 13.1666667,0.104166667 13.1666667,0.104166667 L13.8541667,0.104166667 C13.9992678,0.113795015 14.1344033,0.181362796 14.2291667,0.291666667 L14.9791667,1.16666667 C14.9791667,1.16666667 14.9791667,1.35416667 14.9791667,1.35416667 L14.1458333,1.33333333 Z M16.4375,1.33333333 C16.2923989,1.32370498 16.1572633,1.2561372 16.0625,1.14583333 L15.3125,0.270833333 C15.3125,0.166666667 15.3125,0.0833333333 15.3125,0.0833333333 L16.2708333,0.0833333333 C16.4085175,0.0982593231 16.535255,0.165355644 16.625,0.270833333 L17.375,1.14583333 C17.4791667,1.14583333 17.375,1.33333333 17.375,1.33333333 L16.4375,1.33333333 Z M12.5208333,1.33333333 C12.75,1.33333333 12.625,1.16666667 12.5208333,0.958333333 L12.0833333,0.5 C11.894063,0.327330996 11.6515256,0.224436367 11.3958333,0.208333333 L10.6875,0.208333333 C10.4791667,0.208333333 10.4791667,0.375 10.6875,0.604166667 C11.2216184,1.10715135 11.9138163,1.40906747 12.6458333,1.45833333" id="Shape" fill="#005594"></path>
            <path d="M29.0416667,9.3125 C29.0416667,9.16666667 29.0416667,9.02083333 29.0416667,8.89583333 C28.8723232,6.54236412 28.1591758,4.26029245 26.9583333,2.22916667 C26.9315837,2.14119586 26.8620281,2.07280524 26.773618,2.04754523 C26.685208,2.02228521 26.5900204,2.04360635 26.5208333,2.10416667 C26.3958333,2.10416667 26.3958333,2.20833333 26.5208333,2.3125 C26.6458333,2.41666667 26.9375,2.875 27.125,3.16666667 C27.3937042,3.6049156 27.5310798,4.11103589 27.5208333,4.625 C27.5413075,4.81194108 27.5413075,5.00055892 27.5208333,5.1875 C27.1831697,6.37510854 26.3361911,7.35180464 25.2083333,7.85416667 C24.9044243,7.96218658 24.5903033,8.0389717 24.2708333,8.08333333 C23.5818774,8.22421672 22.8653418,8.07336713 22.2916667,7.66666667 C22.12156,7.54548799 21.9794664,7.38918496 21.875,7.20833333 C21.6400323,6.85181006 21.5368772,6.42445317 21.5833333,6 C21.5764466,5.84118908 21.6283707,5.68541669 21.7291667,5.5625 L21.7291667,5.5625 C22.1458333,4.97916667 22.2708333,6.10416667 23.3333333,6.27083333 C23.5055379,6.30208648 23.6819621,6.30208648 23.8541667,6.27083333 C24.0358916,6.20624444 24.1950624,6.09048387 24.3125,5.9375 C24.4610107,5.78965739 24.5624874,5.60120056 24.6041667,5.39583333 C24.6361508,5.25878582 24.6361508,5.11621418 24.6041667,4.97916667 C24.5106541,4.71003123 24.3265488,4.48174064 24.0833333,4.33333333 C23.5416667,3.875 22.6458333,3.54166667 22.3541667,2.85416667 C22.3025845,2.68438699 22.3025845,2.50311301 22.3541667,2.33333333 C22.4107273,2.14417019 22.5026267,1.96744054 22.625,1.8125 L23.1041667,1.22916667 L24.0833333,0.270833333 C24.0833333,-2.22044605e-15 23.8333333,0.0625 23.7708333,0.125 C23.125,0.75 22.8125,1.5625 22.0625,2 C21.0860528,2.21179372 20.2028257,2.73005095 19.5416667,3.47916667 C18.5018334,4.26039057 17.4010908,4.9570631 16.25,5.5625 C16.1562142,5.82521416 16.1562142,6.11228584 16.25,6.375 C16.9052548,6.68907207 17.6102592,6.88647331 18.3333333,6.95833333 C18.6346772,7.45141808 18.7176782,8.04751556 18.5625,8.60416667 C19,8.72916667 20.0625,7.85416667 20.3958333,7.10416667 C20.922758,7.22089929 21.3215603,7.65293508 21.3958333,8.1875 C21.4293607,8.57006394 21.349667,8.95404244 21.1666667,9.29166667 C20.7736555,9.97297872 20.1958288,10.529137 19.5,10.8958333 C19.9791667,11.1041667 20.3333333,11.4583333 20.4791667,11.5 C20.625,11.5416667 21.1875,10.4166667 21.3958333,10.3541667 C21.6041667,10.2916667 22.6875,11.0833333 22.8958333,11.0833333 C23.1041667,11.0833333 23.7291667,10.1458333 24,10.1666667 C24.2708333,10.1875 25,11.2708333 25.2083333,11.2916667 C25.4166667,11.3125 26.3541667,10.3541667 26.6666667,10.375 C26.9791667,10.3958333 27.3125,11.25 27.5,11.3333333 C27.6875,11.4166667 28,10.8958333 29.2083333,10.6666667 C29.2083333,10.6666667 29.2083333,9.875 29.2083333,9.29166667" id="Path" fill="#005594" fill-rule="nonzero"></path>
            <path d="M23.0208333,1.75 C22.9482363,1.80151403 22.8848474,1.86490301 22.8333333,1.9375 C22.7186683,2.07097801 22.6334771,2.22716188 22.5833333,2.39583333 C22.5623095,2.5269403 22.5623095,2.6605597 22.5833333,2.79166667 C22.8541667,3.375 23.75,3.75 24.25,4.1875 C24.4843302,4.3595498 24.6474086,4.61158003 24.7083333,4.89583333 C24.7393693,5.06105515 24.7393693,5.23061151 24.7083333,5.39583333 C24.6492865,5.63857275 24.527101,5.86138171 24.3541667,6.04166667 C24.2179039,6.22090039 24.0282273,6.352215 23.8125,6.41666667 C23.6053519,6.44809445 23.3946481,6.44809445 23.1875,6.41666667 C22.6576147,6.28120918 22.1838272,5.98235858 21.8333333,5.5625 L21.8333333,5.5625 L21.8333333,5.5625 C21.8333333,5.5625 21.8333333,5.79166667 21.8333333,5.85416667 C21.8140844,6.23415489 21.9083643,6.61127461 22.1041667,6.9375 C22.2065304,7.09520439 22.3330789,7.2358139 22.4791667,7.35416667 C23.0079296,7.71881394 23.6645324,7.84711563 24.2916667,7.70833333 C24.5954467,7.66336768 24.8950517,7.5936921 25.1875,7.5 C26.2227921,7.00147358 26.9852009,6.07133486 27.2708333,4.95833333 C27.2909059,4.79227103 27.2909059,4.62439564 27.2708333,4.45833333 C27.2827151,3.97976585 27.152197,3.50845079 26.8958333,3.10416667 C26.7208726,2.79736163 26.5034465,2.51681184 26.25,2.27083333 C26.1041667,2.125 25.9583333,2.04166667 25.8541667,1.9375 C25.75,1.83333333 26.3125,1.75 26.4375,1.5625 C25.4245897,1.49950227 24.4087436,1.49950227 23.3958333,1.5625 C23.2937575,1.53298402 23.1854091,1.53298402 23.0833333,1.5625 M23.6041667,7.29166667 C23.5502465,7.31073032 23.4914202,7.31073032 23.4375,7.29166667 C23.4375,7.29166667 23.4375,7.14583333 23.4375,7.04166667 L23.5625,7.04166667 L23.5625,7.04166667 C23.5937945,7.08524114 23.5937945,7.14392553 23.5625,7.1875 M24.2083333,7.1875 C24.2083333,7.1875 24.2083333,6.89583333 24.0625,6.79166667 C23.9166667,6.6875 24.0625,6.79166667 24.25,6.79166667 C24.2946582,6.86901694 24.2946582,6.9643164 24.25,7.04166667 C24.2149869,7.15516118 24.1308607,7.24693522 24.0208333,7.29166667 M24.9166667,7.02083333 C24.9022956,6.92029957 24.8588467,6.82616039 24.7916667,6.75 C24.7916667,6.75 24.7916667,6.58333333 24.9375,6.52083333 C25.0367648,6.59503038 25.0978495,6.70956418 25.1041667,6.83333333 C25.1167162,6.97664172 25.0717433,7.11905601 24.9791667,7.22916667 M25.2708333,6.22916667 C25.2708333,6.22916667 25.2708333,6.04166667 25.2708333,5.9375 C25.2708333,5.83333333 25.2708333,5.9375 25.2708333,5.9375 C25.4159252,5.96052197 25.5445472,6.04374793 25.625,6.16666667 C25.7352658,6.30331981 25.8007372,6.47063555 25.8125,6.64583333 C25.6775249,6.44992308 25.4652517,6.32104294 25.2291667,6.29166667 M25.6041667,5.60416667 C25.4791667,5.60416667 25.3958333,5.45833333 25.3958333,5.3125 C25.3958333,5.16666667 25.3958333,5.3125 25.3958333,5.1875 C25.5641861,5.12707112 25.7483139,5.12707112 25.9166667,5.1875 C26.1141288,5.26747148 26.276627,5.41519716 26.375,5.60416667 C26.1189575,5.47758325 25.8185425,5.47758325 25.5625,5.60416667 M26.875,4.66666667 C26.5333624,4.49895141 26.1333043,4.49895141 25.7916667,4.66666667 C25.6041667,4.66666667 25.5,4.5 25.4583333,4.3125 C25.4166667,4.125 25.4583333,4.1875 25.4583333,4.14583333 C25.6726794,4.0621612 25.9106539,4.0621612 26.125,4.14583333 C26.4031399,4.23232883 26.6495513,4.39901894 26.8333333,4.625 M26.6041667,3.70833333 C26.1824087,3.51499594 25.6893586,3.56271047 25.3125,3.83333333 C25.088704,3.83345894 24.8788522,3.72464688 24.75,3.54166667 C24.7090633,3.47076225 24.7090633,3.38340441 24.75,3.3125 C25.0081453,3.1434075 25.3227696,3.08347908 25.625,3.14583333 C26.0012579,3.21317085 26.3411062,3.41264703 26.5833333,3.70833333 M23.4791667,2.58333333 C23.8293701,2.35031089 24.2471262,2.24037507 24.6666667,2.27083333 C25.167122,2.30140966 25.6465451,2.48300931 26.0416667,2.79166667 C25.4440161,2.62324048 24.8023871,2.73017865 24.2916667,3.08333333 C23.9973668,3.12209427 23.7007707,3.0308339 23.4791667,2.83333333 C23.4155057,2.76215817 23.4155057,2.6545085 23.4791667,2.58333333" id="Shape" fill="#005594" fill-rule="nonzero"></path>
            <path d="M32.5625,26.0416667 L32.5625,17.1666667 L14.1875,17.1666667 L14.1875,26.0625 C14.1875,26.0625 13.5625,36.9791667 23.375,41.8541667 C33.1666667,36.9791667 32.5625,26.0625 32.5625,26.0625 M29.7916667,30.2291667 L25.8333333,29.9375 L27.3333333,33.6041667 L24.3125,31.0416667 L23.375,34.8958333 L22.4375,31.0416667 L19.3958333,33.6041667 L20.9166667,29.9375 L16.9375,30.2291667 L20.3333333,28.1458333 L16.9375,26.0625 L20.9166667,26.375 L19.3958333,22.6875 L22.4375,25.2708333 L23.375,21.3333333 L24.3125,25.2083333 L27.3333333,22.625 L25.8333333,26.3125 L29.7916667,26 L26.4166667,28.0833333 L29.7916667,30.2291667 Z M30.2916667,31.9375 C30.9416292,30.0769212 31.2589723,28.1164465 31.2291667,26.1458333 L31.2291667,18.4583333 L15.5208333,18.4583333 L15.5208333,26.0625 C15.4910277,28.0331132 15.8083708,29.9935879 16.4583333,31.8541667 C15.5437301,30.0695354 15.0788706,28.0885186 15.1041667,26.0833333 L15.1041667,18.0833333 L31.6458333,18.0833333 L31.6458333,26.0833333 C31.6717457,28.0837655 31.2218866,30.0617176 30.3333333,31.8541667" id="Shape" fill="#005594" fill-rule="nonzero"></path>
            <path d="M40.25,23.6875 L40.25,23.6875 L39.9791667,23.5833333 C38.5625,23 38.2291667,22.4583333 36.9583333,21.9166667 C36.145449,21.6132325 35.2503844,21.6132325 34.4375,21.9166667 C34.8648777,22.1517017 35.2404293,22.4705663 35.5416667,22.8541667 C35.7100438,23.1252708 35.8364721,23.4202701 35.9166667,23.7291667 C35.9747971,23.9302982 36.0515167,24.1255845 36.1458333,24.3125 C36.4469066,24.7231169 36.8391322,25.0582915 37.2916667,25.2916667 C36.6348874,25.5735098 36.0127365,25.9300233 35.4375,26.3541667 C34.7651542,26.9068829 34.4133831,27.7589506 34.5,28.625 C34.5970026,29.306358 34.9285297,29.9325759 35.4375,30.3958333 C35.6680199,29.6418026 36.215696,29.0256671 36.9375,28.7083333 C37.805924,28.3311861 38.804851,28.4092273 39.6041667,28.9166667 C39.7721839,29.4524136 39.7721839,30.0267531 39.6041667,30.5625 C39.5464178,31.1084184 39.3530509,31.6312253 39.0416667,32.0833333 C40.2395278,31.8354034 41.2679305,31.0736237 41.8541667,30 C42.3695542,28.6754009 42.5623642,27.247179 42.4166667,25.8333333 C42.3618541,25.0980952 42.5523469,24.3654304 42.9583333,23.75 C42.1247255,24.0577882 41.2086078,24.0577882 40.375,23.75" id="Path" fill="#E09E36" fill-rule="nonzero"></path>
            <path d="M33.9166667,35.9166667 C33.6290722,35.1942369 33.6290722,34.3890965 33.9166667,33.6666667 C32.5279832,34.2642021 31.4029487,35.3448274 30.75,36.7083333 C30.1494288,38.0817926 29.4532767,39.4114432 28.6666667,40.6875 C28.327017,41.1233962 27.9015876,41.4850112 27.4166667,41.75 C27.6465135,41.6441212 27.8831466,41.5536438 28.125,41.4791667 C29.102492,41.3438594 30.0321789,40.9719846 30.8333333,40.3958333 C31.613332,39.865805 32.0811721,38.9847061 32.0833333,38.0416667 C32.6736366,38.6461702 33.611553,38.7425915 34.3125,38.2708333 C34.8598176,37.9426932 35.2104559,37.366088 35.25,36.7291667 C35.25,36.7291667 34.6458333,37.2916667 33.9166667,35.9166667" id="Path" fill="#E09E36" fill-rule="nonzero"></path>
            <path d="M39.3333333,32.9791667 C38.6833446,32.6769345 37.9579972,32.5753859 37.25,32.6875 C37.2847817,32.1735441 37.397166,31.6678147 37.5833333,31.1875 C37.7752871,30.6507754 38.0890566,30.1658588 38.5,29.7708333 C37.4369217,29.5511936 36.3393692,29.9357375 35.6458333,30.7708333 C34.6816046,31.6573009 34.2815797,33.0013849 34.6041667,34.2708333 C34.8488184,34.8946079 35.1633222,35.4886707 35.5416667,36.0416667 C35.715723,36.4097506 35.8283242,36.8038549 35.875,37.2083333 C36.167148,36.1527382 36.8631859,35.2546247 37.8125,34.7083333 C38.7870239,34.289988 39.9118291,34.4335802 40.7500007,35.0833333 C40.7507191,34.1699422 40.1991804,33.3467502 39.3541667,33" id="Path" fill="#E09E36" fill-rule="nonzero"></path>
            <path d="M43.25,4.91666667 C43.3974085,5.47042836 43.3533591,6.05775421 43.125,6.58333333 C42.9860866,7.06065117 42.7021353,7.48293768 42.3125,7.79166667 C42.7292495,7.83403412 43.1189222,8.017842 43.4166667,8.3125 C43.7500295,8.61468284 43.9766037,9.01666936 44.0625,9.45833333 C44.7735825,7.92420183 44.4488643,6.10911043 43.25,4.91666667" id="Path" fill="#E09E36" fill-rule="nonzero"></path>
            <path d="M36.75,13.1666667 C36.2018212,12.808176 35.8193698,12.2457475 35.6875,11.6041667 C35.5416667,10.625 35.6875,9.79166667 35.5416667,9.125 C35.4364112,8.56851431 35.2392736,8.03342637 34.9583333,7.54166667 C34.992028,8.12332586 34.8773258,8.70400535 34.625,9.22916667 C33.9808103,10.0998349 33.8763256,11.257204 34.3541667,12.2291667 C34.8651829,13.0278981 35.8326064,13.4064552 36.75,13.1666667" id="Path" fill="#E09E36" fill-rule="nonzero"></path>
            <path d="M37.1666667,10.6041667 C37.3478633,11.2372908 37.3478633,11.9085426 37.1666667,12.5416667 C38.1339551,12.4661574 39.0526679,12.0870061 39.7916667,11.4583333 C40.3816688,10.8690634 41.2181805,10.5979717 42.0416667,10.7291667 C42.5574221,10.8128589 42.979015,11.1858064 43.125,11.6875 C43.4971517,11.0429144 43.4971517,10.2487522 43.125,9.60416667 C42.7083333,8.9375 41.375,8.79166667 41.375,8.79166667 C41.5078203,8.56251693 41.5862254,8.30591833 41.6041667,8.04166667 C41.6211776,7.33023604 41.7549013,6.62642727 42,5.95833333 C42.240916,5.2336356 42.7083377,4.6055377 43.3333333,4.16666667 C42.8131287,3.99045222 42.2493713,3.99045222 41.7291667,4.16666667 C40.8894848,4.54141151 40.1688373,5.13954892 39.6458333,5.89583333 C39.225423,6.51656856 38.9675438,7.23289949 38.8958333,7.97916667 C38.806425,7.60067125 38.602775,7.25883015 38.3125,7 C37.8577096,6.60139444 37.3618736,6.25221416 36.8333333,5.95833333 C36.4477702,5.72772711 36.1590489,5.36497474 36.0208333,4.9375 C35.7991801,5.36816175 35.651297,5.83293703 35.5833333,6.3125 C35.4348676,7.04669461 35.6178194,7.80899386 36.0833333,8.39583333 C36.6340352,9.07985516 37.0446263,9.86564152 37.2916667,10.7083333" id="Path" fill="#E09E36" fill-rule="nonzero"></path>
            <path d="M46.4583333,12.1458333 C45.0625,10.3125 43.6458333,12.5833333 43.6458333,12.5833333 C44.2891331,12.429456 44.9620495,12.6756449 45.3541667,13.2083333 C46.0833333,14.3333333 44.8541667,15.875 44.8541667,15.875 C44.8541667,15.875 48.0833333,14.2916667 46.4583333,12.1458333" id="Path" fill="#E09E36" fill-rule="nonzero"></path>
            <path d="M43.2916667,17.0416667 C43.2916667,17.0416667 43.9166667,17.0416667 44.375,15.875 C44.6611947,15.301631 44.7491191,14.6495256 44.625,14.0208333 C44.5444728,14.2230093 44.3614368,14.3662549 44.1458333,14.3958333 C43.75,14.3958333 43.3541667,14.3958333 42.6875,14.3958333 C42.276929,14.4572239 41.8771241,14.5764639 41.5,14.75 C41.3224498,14.2069173 41.3909352,13.6133771 41.6875,13.125 C41.9667225,12.7494872 42.3405411,12.4547455 42.7708333,12.2708333 C42.3813175,11.9505605 41.8725756,11.8138836 41.375,11.8958333 C40.3722856,11.9422934 39.4160436,12.3321459 38.6666667,13 C37.899934,13.5697112 37.0675924,14.045335 36.1875,14.4166667 C35.6550946,14.6415266 35.0687794,14.7066727 34.5,14.6041667 C34.6683003,15.0175778 34.9785621,15.3573884 35.375,15.5625 C35.9728914,15.7965308 36.5946731,15.9642022 37.2291667,16.0625 C38.7105827,16.4659586 39.8915768,17.5843835 40.375,19.0416667 C40.7362213,20.407069 40.7362213,21.842931 40.375,23.2083333 C40.9374792,23.034607 41.441766,22.7104227 41.8333333,22.2708333 C42.1993736,21.7957131 42.3773926,21.2023167 42.3333333,20.6041667 C42.730014,20.8434016 43.1404476,21.0590531 43.5625,21.25 C44.1041667,21.4791667 44.2083333,22.6041667 44.2083333,22.6041667 C45.2515997,21.7224628 45.710662,20.3291687 45.3958333,19 C45.1171288,18.0201396 44.3121491,17.2795584 43.3125,17.0833333" id="Path" fill="#E09E36" fill-rule="nonzero"></path>
            <path d="M39.6041667,22.75 C40.0625,20.9583333 39.3333333,17.6875 37.7708333,17.75 C36.2083333,17.8125 34.3333333,19.8333333 34.3333333,19.8333333 C36.5419596,19.5013435 38.6999435,20.6869552 39.6041667,22.7291667" id="Path" fill="#E09E36" fill-rule="nonzero"></path>
            <path d="M31.1875,11.8125 C31,11.5833333 29.1041667,12.6041667 29.1041667,12.6041667 C29.1041667,12.6041667 29.1041667,11.5833333 28.8125,11.3958333 C28.1088406,11.4787081 27.4582941,11.8113739 26.9791667,12.3333333 L26.9791667,12.3333333 C26.7916667,11.7708333 26.4791667,11.2708333 26.3333333,11.25 C26.1875,11.2291667 24.9166667,12.2708333 24.9166667,12.2708333 C24.9166667,12.2708333 24.2291667,11.0625 23.8541667,11.0208333 C23.4791667,10.9791667 23.1041667,11.6666667 22.7916667,12.0833333 C22.4166667,11.6875 21.625,11.1041667 21.3333333,11.1666667 C21.0416667,11.2291667 20.7916667,11.9791667 20.5416667,12.5416667 C20.0111516,12.0749821 19.4053424,11.7016346 18.75,11.4375 C18.5710357,11.8811017 18.4790869,12.3549917 18.4791667,12.8333333 C17.9739958,12.3382196 17.3606246,11.967344 16.6875,11.75 C16.6036147,12.6294353 16.9441135,13.4961596 17.6041667,14.0833333 C17.4347072,13.6567661 17.3293967,13.2074413 17.2916667,12.75 C17.6666667,12.5625 18.5833333,13.1041667 18.5833333,13.1041667 C18.5833333,13.1041667 18.75,12.3958333 19.125,12.2083333 C19.662677,12.3546337 20.170418,12.5944003 20.625,12.9166667 C20.8321989,12.5180814 21.107127,12.15856 21.4375,11.8541667 C22.0208333,11.7291667 22.8333333,12.4166667 22.8333333,12.4166667 C22.8333333,12.4166667 23.4166667,11.7291667 23.8541667,11.7291667 C24.2342171,11.9541559 24.5725283,12.24313 24.8541667,12.5833333 C25.2816764,12.2983261 25.7350651,12.0541937 26.2083333,11.8541667 C26.4917569,12.1019487 26.7190405,12.4073609 26.875,12.75 C27.3574404,12.4082649 27.9145957,12.1868314 28.5,12.1041667 C28.6664969,12.3463237 28.7931028,12.6136028 28.875,12.8958333 C29.412007,12.6953366 29.9718552,12.5623726 30.5416667,12.5 C30.4354309,13.0594961 30.2156288,13.5912753 29.8958333,14.0625 C30.4791667,13.75 31.5,12.2083333 31.1875,11.8125" id="Path" fill="#E09E36" fill-rule="nonzero"></path>
            <path d="M23.6875,14.3125 C24.125,14.3125 24.3541667,12.5625 23.8541667,12.4791667 C23.3541667,12.3958333 23.2708333,14.25 23.6875,14.3125" id="Path" fill="#E09E36" fill-rule="nonzero"></path>
            <path d="M25.375,14.3541667 C25.8333333,14.5416667 26.5,12.8333333 26.0208333,12.6458333 C25.5416667,12.4583333 24.9791667,14.1875 25.375,14.3541667" id="Path" fill="#E09E36" fill-rule="nonzero"></path>
            <path d="M21.5,12.8541667 C21.5,13.4791667 21.8541667,14.4375 22.1875,14.375 C22.5208333,14.3125 22.3125,12.9166667 21.8125,12.6041667 C21.7362643,12.58444 21.6551899,12.6017854 21.5936991,12.6509781 C21.5322083,12.7001707 21.4974891,12.7754601 21.5,12.8541667" id="Path" fill="#E09E36" fill-rule="nonzero"></path>
            <path d="M27.1041667,14.3958333 C27.4791667,14.6458333 28.5416667,13.125 28.0833333,12.8541667 C27.625,12.5833333 26.6666667,14.125 27.1041667,14.3958333" id="Path" fill="#E09E36" fill-rule="nonzero"></path>
            <path d="M19.3125,13 C19.3125,13.625 19.8541667,14.5833333 20.1666667,14.4583333 C20.4791667,14.3333333 20.1666667,13.0833333 19.5,12.875 C19.375,12.875 19.3125,12.875 19.3125,13" id="Path" fill="#E09E36" fill-rule="nonzero"></path>
            <path d="M28.7083333,14.2916667 C29.0208333,14.5208333 29.7916667,13.5 29.6041667,13.2916667 C29.4166667,13.0833333 28.4791667,14.1041667 28.7083333,14.2916667" id="Path" fill="#E09E36" fill-rule="nonzero"></path>
            <path d="M18.5416667,14.4583333 C18.8125,14.3125 18.3125,13.3125 18.0416667,13.4583333 C17.7708333,13.6041667 18.2708333,14.6041667 18.5416667,14.4583333" id="Path" fill="#E09E36" fill-rule="nonzero"></path>
            <path d="M22.5,14.8125 C22.3541667,14.8125 22.2916667,14.8125 22.3333333,14.9791667 L22.7916667,16.1041667 C22.8571772,16.2025968 22.9652728,16.2643657 23.0833333,16.2708333 L24.9375,16.2708333 C25.0625,16.2708333 25.125,16.2708333 25.0833333,16.1041667 L24.625,15.0833333 C24.5619852,14.9822711 24.4523945,14.9196478 24.3333333,14.9166667 L22.5,14.8125 Z" id="Path" fill="#005594" fill-rule="nonzero"></path>
            <path d="M25.4375,15.0833333 C25.3263889,15.0833333 25.2847222,15.125 25.3125,15.2083333 L25.6458333,16 C25.6982728,16.075433 25.7831878,16.1217503 25.875,16.125 L27.1875,16.125 C27.1875,16.125 27.3333333,16.125 27.2916667,16 L26.9791667,15.0833333 C26.9362923,14.99798 26.8449742,14.9481702 26.75,14.9583333 L25.4375,15.0833333 Z" id="Path" fill="#005594" fill-rule="nonzero"></path>
            <path d="M27.6458333,15.0833333 C27.6458333,15.0833333 27.5416667,15.0833333 27.6458333,15.0833333 L27.875,15.6458333 C27.9281355,15.6690236 27.9885312,15.6690236 28.0416667,15.6458333 L28.9583333,15.6458333 C28.9583333,15.6458333 29.0625,15.6458333 28.9583333,15.6458333 L28.7291667,15.0833333 C28.6821431,15.0657638 28.6303569,15.0657638 28.5833333,15.0833333 L27.6458333,15.0833333 Z" id="Path" fill="#005594" fill-rule="nonzero"></path>
            <path d="M29.3125,15.0833333 C29.3125,15.0833333 29.3125,15.0833333 29.3125,15.0833333 L29.4791667,15.4791667 C29.5113959,15.4977742 29.5511041,15.4977742 29.5833333,15.4791667 L30.2291667,15.4791667 L30.0625,15.0833333 C30.0284747,15.0734947 29.9923586,15.0734947 29.9583333,15.0833333 L29.3125,15.0833333 Z" id="Path" fill="#005594" fill-rule="nonzero"></path>
            <path d="M22,16.0625 C22.1041667,16.0625 22.1458333,16.0625 22.125,15.9375 L21.8333333,15.0833333 C21.8333333,15.0833333 21.7083333,14.9583333 21.6041667,14.9583333 L20.2916667,14.9583333 C20.2916667,14.9583333 20.1458333,14.9583333 20.1666667,15.0833333 L20.5,15.875 C20.5524395,15.950433 20.6373545,15.9967503 20.7291667,16 L22,16.0625 Z" id="Path" fill="#005594" fill-rule="nonzero"></path>
            <path d="M19.9166667,15.9791667 L19.6875,15.4166667 C19.6349978,15.3906183 19.5733356,15.3906183 19.5208333,15.4166667 L18.6041667,15.4166667 C18.6041667,15.4166667 18.6041667,15.4166667 18.6041667,15.4166667 L18.8333333,15.9791667 C18.8793649,16.0015626 18.9331351,16.0015626 18.9791667,15.9791667 L19.9166667,15.9791667 Z" id="Path" fill="#005594" fill-rule="nonzero"></path>
            <path d="M18.1666667,15.9375 C18.1666667,15.9375 18.1666667,15.9375 18.1666667,15.9375 L18,15.5416667 L17.3541667,15.5416667 C17.3541667,15.5416667 17.3541667,15.5416667 17.3541667,15.5416667 L17.5208333,15.9375 L18.1666667,15.9375 Z" id="Path" fill="#005594" fill-rule="nonzero"></path>
            <polygon id="Path" fill="#A17528" fill-rule="nonzero" points="23.375 22.6041667 23.9583333 26.1666667 23.3541667 28.0625"></polygon>
            <polygon id="Path" fill="#E09E36" fill-rule="nonzero" points="22.75 26.1875 23.375 22.6041667 23.3541667 28.0625"></polygon>
            <polygon id="Path" fill="#A17528" fill-rule="nonzero" points="23.375 33.5 22.7708333 29.9583333 23.3541667 28.0625"></polygon>
            <polygon id="Path" fill="#E09E36" fill-rule="nonzero" points="24 29.9375 23.375 33.5 23.3541667 28.0625"></polygon>
            <polygon id="Path" fill="#A17528" fill-rule="nonzero" points="20.1666667 23.6458333 22.75 26.1875 23.3541667 28.0625"></polygon>
            <polygon id="Path" fill="#E09E36" fill-rule="nonzero" points="21.7708333 26.9166667 20.1666667 23.6458333 23.3541667 28.0625"></polygon>
            <polygon id="Path" fill="#A17528" fill-rule="nonzero" points="26.5625 32.4791667 24 29.9375 23.3541667 28.0625"></polygon>
            <polygon id="Path" fill="#E09E36" fill-rule="nonzero" points="24.9791667 29.2083333 26.5625 32.4583333 23.3541667 28.0625"></polygon>
            <polygon id="Path" fill="#A17528" fill-rule="nonzero" points="18.1875 26.3541667 21.7708333 26.9166667 23.3541667 28.0625"></polygon>
            <polygon id="Path" fill="#E09E36" fill-rule="nonzero" points="21.3958333 28.0625 18.1875 26.3541667 23.3541667 28.0625"></polygon>
            <polygon id="Path" fill="#A17528" fill-rule="nonzero" points="28.5625 29.75 24.9791667 29.2083333 23.3541667 28.0625"></polygon>
            <polygon id="Path" fill="#E09E36" fill-rule="nonzero" points="25.3541667 28.0625 28.5625 29.75 23.3541667 28.0625"></polygon>
            <polygon id="Path" fill="#A17528" fill-rule="nonzero" points="18.1875 29.75 21.3958333 28.0625 23.3541667 28.0625"></polygon>
            <polygon id="Path" fill="#E09E36" fill-rule="nonzero" points="21.7708333 29.2291667 18.1875 29.75 23.3541667 28.0625"></polygon>
            <polygon id="Path" fill="#A17528" fill-rule="nonzero" points="28.5625 26.375 25.3541667 28.0625 23.3541667 28.0625"></polygon>
            <polygon id="Path" fill="#E09E36" fill-rule="nonzero" points="24.9583333 26.875 28.5625 26.375 23.3541667 28.0625"></polygon>
            <polygon id="Path" fill="#A17528" fill-rule="nonzero" points="20.1666667 32.4583333 21.7708333 29.2291667 23.3541667 28.0625"></polygon>
            <polygon id="Path" fill="#E09E36" fill-rule="nonzero" points="22.7708333 29.9583333 20.1666667 32.4583333 23.3541667 28.0625"></polygon>
            <polygon id="Path" fill="#A17528" fill-rule="nonzero" points="26.5833333 23.6458333 24.9583333 26.875 23.3541667 28.0625"></polygon>
            <polygon id="Path" fill="#E09E36" fill-rule="nonzero" points="23.9583333 26.1666667 26.5833333 23.6458333 23.3541667 28.0625"></polygon>
            <path d="M58.6041667,7.64583333 L58.6041667,7.64583333 L58.0625,16.2291667 C58.0625,17.8125 58.0625,18.5833333 60.1458333,18.625 L60.1458333,19.5625 L54.6458333,19.5625 L54.6458333,18.625 C56.5208333,18.625 56.5833333,18.0625 56.7291667,16.0625 L57.25,7.33333333 C57.25,6.10416667 57.25,5.58333333 55.625,5.5 L55.625,4.66666667 L60.7291667,4.66666667 L65.4166667,14.7916667 L69.9166667,4.66666667 L75.0833333,4.66666667 L75.0833333,5.5 C73.3541667,5.5 73.2291667,5.5 73.3541667,7.33333333 L73.9375,16.2291667 C74.0625,18.3125 74.125,18.4791667 76.0208333,18.625 L76.0208333,19.5625 L68.4583333,19.5625 L68.4583333,18.625 L68.875,18.625 C69.875,18.625 70.7291667,18.625 70.7291667,17.0416667 C70.7291667,16.6666667 70.7291667,16.2708333 70.7291667,15.9166667 L70.125,7.35416667 L70.125,7.35416667 L64.7291667,19.5625 L64.1458333,19.5625 L58.6041667,7.64583333 Z" id="Path" fill="#005594" fill-rule="nonzero"></path>
            <path d="M83.7291667,13.9791667 L82.7083333,16.8125 C82.2708333,18.0416667 82.3125,18.625 84.6041667,18.625 L84.9375,18.625 L84.9375,19.5625 L78.5416667,19.5625 L78.5416667,18.625 L78.8958333,18.625 C80.0625,18.625 80.6666667,18.0833333 81.2708333,16.3958333 L85.4375,4.89583333 L85.1666667,4.20833333 L88.6666667,4.20833333 L93.5,16.4375 C94.125,18.0416667 94.6458333,18.5208333 95.8958333,18.5208333 L95.8958333,19.4583333 L88.0833333,19.4583333 L88.0833333,18.625 L88.9375,18.625 C90.3958333,18.625 90.625,17.9583333 90.1458333,16.7916667 L89,13.9791667 L83.7291667,13.9791667 Z M86.2291667,7.02083333 L84.1458333,12.6666667 L88.3125,12.6666667 L86.2291667,7.02083333 Z" id="Shape" fill="#005594" fill-rule="nonzero"></path>
            <path d="M98.8958333,15.0833333 L99.8333333,15.0833333 C100.625,17.4583333 102.041667,18.6875 104,18.6875 C104.684763,18.7568234 105.368365,18.5454771 105.89452,18.1017796 C106.420675,17.6580821 106.744393,17.019971 106.791667,16.3333333 C106.791667,12.75 99.0416667,12.8541667 99.0416667,8 C99.0416667,5.6875 101.125,4.08333333 103.9375,4.08333333 C105.179214,4.15420328 106.409093,4.36384179 107.604167,4.70833333 C107.770816,4.75059227 107.94681,4.73592611 108.104167,4.66666667 L108.604167,4.66666667 L109.0625,8.5625 L108.104167,8.5625 C107.678635,6.71599291 106.060749,5.38915512 104.166667,5.33333333 C102.8125,5.33333333 101.8125,6.0625 101.8125,7 C101.8125,9.22916667 105.8125,9.64583333 108.5,12.3333333 C109.400191,13.1452265 109.902169,14.3089025 109.875,15.5208333 C109.794912,16.7965366 109.208445,17.9873644 108.246005,18.8285206 C107.283566,19.6696768 106.024941,20.0914307 104.75,20 C103.337611,19.8922689 101.940785,19.6338562 100.583333,19.2291667 C100.354086,19.2357122 100.153806,19.3859216 100.083333,19.6041667 L99.4583333,19.6041667 L98.8958333,15.0833333 Z" id="Path" fill="#005594" fill-rule="nonzero"></path>
            <path d="M114.270833,15.0833333 L115.208333,15.0833333 C116,17.4583333 117.416667,18.6875 119.375,18.6875 C120.059763,18.7568234 120.743365,18.5454771 121.26952,18.1017796 C121.795675,17.6580821 122.119393,17.019971 122.166667,16.3333333 C122.166667,12.75 114.4375,12.8541667 114.4375,8 C114.4375,5.6875 116.520833,4.08333333 119.3125,4.08333333 C120.554413,4.15244367 121.784488,4.36211565 122.979167,4.70833333 C123.145816,4.75059227 123.32181,4.73592611 123.479167,4.66666667 L124.083333,4.66666667 L124.541667,8.5625 L123.583333,8.5625 C123.157802,6.71599291 121.539916,5.38915512 119.645833,5.33333333 C118.3125,5.33333333 117.291667,6.0625 117.291667,7 C117.291667,9.22916667 121.291667,9.64583333 124,12.3333333 C124.881256,13.1569333 125.373151,14.3147783 125.354167,15.5208333 C125.274079,16.7965366 124.687611,17.9873644 123.725172,18.8285206 C122.762733,19.6696768 121.504107,20.0914307 120.229167,20 C118.817102,19.8897819 117.420538,19.6314175 116.0625,19.2291667 C115.835335,19.2415526 115.637997,19.389556 115.5625,19.6041667 L114.9375,19.6041667 L114.270833,15.0833333 Z" id="Path" fill="#005594" fill-rule="nonzero"></path>
            <path d="M139.1875,5.89583333 L133.916667,5.89583333 L133.916667,11.3125 L137.8125,11.3125 C139.145833,11.3125 139.625,10.8541667 139.625,9.58333333 L140.604167,9.58333333 L140.604167,14.375 L139.625,14.375 C139.625,13.0833333 139.3125,12.6458333 137.541667,12.6458333 L134,12.6458333 L134,16.9791667 C134,18.0208333 134.1875,18.2291667 134.895833,18.2291667 L138.916667,18.2291667 C140.479167,18.2291667 141.229167,17.7916667 141.6875,15.7708333 L142.604167,15.7708333 L142.3125,19.5625 L127.729167,19.5625 L127.729167,18.625 L128.708333,18.625 C130.104167,18.625 130.583333,18.0625 130.583333,16.875 L130.583333,7.27083333 C130.583333,5.95833333 130.166667,5.5 128.5,5.5 L128.25,5.5 L128.25,4.66666667 L141.541667,4.66666667 L141.770833,8.16666667 L140.854167,8.16666667 C140.625,6.52083333 140.3125,6.08333333 139.1875,6.08333333" id="Path" fill="#005594" fill-rule="nonzero"></path>
            <path d="M155.729167,16.8333333 C155.729167,18 156.104167,18.625 157.8125,18.625 L158.166667,18.625 L158.166667,19.5625 L149.979167,19.5625 L149.979167,18.625 L150.583333,18.625 C152.020833,18.625 152.395833,17.9583333 152.395833,16.875 L152.395833,13.5208333 L147.229167,6.75 C146.842248,5.97037395 146.011449,5.51343473 145.145833,5.60416667 L144.916667,5.60416667 L144.916667,4.66666667 L152.770833,4.66666667 L152.770833,5.5 L152.5,5.5 C151.104167,5.5 150.895833,6.08333333 151.416667,6.72916667 L155.270833,11.8125 L158.0625,7.4375 C158.6875,6.4375 158.875,5.5 157.1875,5.5 L156.895833,5.5 L156.895833,4.66666667 L162.583333,4.66666667 L162.583333,5.5 C161.1875,5.5 160.791667,5.875 159.916667,7.1875 L155.75,13.4375 L155.729167,16.8333333 Z" id="Path" fill="#005594" fill-rule="nonzero"></path>
            <path d="M62.125,23.9583333 L65.75,23.9583333 L65.75,24.5 L65.75,24.5 C64.6458333,24.5 64.4791667,25 64.4791667,25.6458333 L64.4791667,29.1041667 C64.5581245,30.1402356 64.1641998,31.1564212 63.4075467,31.8685653 C62.6508936,32.5807094 61.6127203,32.9123807 60.5833333,32.7708333 C58.1041667,32.7708333 56.5208333,31.6875 56.5208333,29.5625 L56.5208333,25.5 C56.5208333,24.8125 56.3333333,24.5625 55.5416667,24.5625 L55.3125,24.5625 L55.3125,24.0208333 L59.5,24.0208333 L59.5,24.5625 L59.2916667,24.5625 C59.0291294,24.5220368 58.7627103,24.6060204 58.5708384,24.7897275 C58.3789665,24.9734346 58.2834843,25.2359523 58.3125,25.5 L58.3125,29.6666667 C58.342003,30.2845882 58.6293388,30.861803 59.10458,31.2578373 C59.5798212,31.6538717 60.1993882,31.8324092 60.8125,31.75 C61.5262648,31.8456858 62.2452113,31.6152292 62.7703355,31.1224203 C63.2954597,30.6296114 63.5710537,29.9267301 63.5208333,29.2083333 L63.5208333,25.9375 C63.5208333,24.9583333 63.25,24.5 62.375,24.5 L62.125,24.5 L62.125,23.9583333 Z" id="Path" fill="#005594" fill-rule="nonzero"></path>
            <path d="M70.1666667,30.9166667 C70.1666667,31.75 70.4375,32.0208333 71.5416667,32.0208333 L71.5416667,32.5625 L68.1875,32.5625 L68.1875,32.0208333 L68.1875,32.0208333 C69.0416667,32.0208333 69.25,31.7291667 69.25,31.1666667 L69.25,24.9166667 C68.9214058,24.7045818 68.5368361,24.5957413 68.1458333,24.6041667 L68.1458333,24.0625 L70.9791667,24.0625 L76.625,29.9583333 L76.625,25.7916667 C76.625,24.7916667 76.4166667,24.6041667 75.3125,24.6041667 L75.1666667,24.6041667 L75.1666667,24.0625 L78.75,24.0625 L78.75,24.6041667 L78.6041667,24.6041667 C77.75,24.6041667 77.4791667,24.7916667 77.4791667,25.3125 L77.4791667,32.7083333 L76.7916667,32.7083333 L70.1666667,25.7916667 L70.1666667,30.9166667 Z" id="Path" fill="#005594" fill-rule="nonzero"></path>
            <path d="M81.5,23.9583333 L85.8958333,23.9583333 L85.8958333,24.5 L85.6666667,24.5 C84.9166667,24.5 84.6041667,24.8333333 84.6041667,25.5416667 L84.6041667,31.0208333 C84.6041667,31.6875 84.8333333,32.0208333 85.6875,32.0208333 L85.8958333,32.0208333 L85.8958333,32.5625 L81.5,32.5625 L81.5,32.0208333 L81.6875,32.0208333 C82.4166667,32.0208333 82.7083333,31.6875 82.7083333,31.0833333 L82.7083333,25.5 C82.7083333,24.7916667 82.4583333,24.4583333 81.6875,24.4583333 L81.5,24.4583333 L81.5,23.9583333 Z" id="Path" fill="#005594" fill-rule="nonzero"></path>
            <path d="M89.8958333,25.6666667 C89.4583333,24.6666667 89.25,24.5 88.4583333,24.5 L88.4583333,24.5 L88.4583333,23.9583333 L93.25,23.9583333 L93.25,24.5 L93.0208333,24.5 C91.8541667,24.5 91.6666667,24.8958333 92.0625,25.7083333 L94.1458333,30.3333333 L96.2291667,25.2916667 C96.4166667,24.8333333 96.1041667,24.5 95.3125,24.5 L95.0416667,24.5 L95.0416667,23.9583333 L98.5416667,23.9583333 L98.5416667,24.5 L98.5416667,24.5 C97.7291667,24.5 97.4375,24.875 96.9791667,25.9791667 L94.1041667,32.7708333 L93.2291667,32.7708333 L89.8958333,25.6666667 Z" id="Path" fill="#005594" fill-rule="nonzero"></path>
            <path d="M107.020833,24.7291667 L104,24.7291667 L104,27.8333333 L106.229167,27.8333333 C107,27.8333333 107.270833,27.5833333 107.270833,26.8333333 L107.833333,26.8333333 L107.833333,29.6666667 L107.270833,29.6666667 C107.270833,28.9166667 107.083333,28.6666667 106.041667,28.6666667 L103.958333,28.6666667 L103.958333,31.1458333 C103.958333,31.75 103.958333,31.875 104.458333,31.875 L106.770833,31.875 C107.666667,31.875 108.104167,31.625 108.375,30.4583333 L108.895833,30.4583333 L108.729167,32.5416667 L100.395833,32.5416667 L100.395833,32 L100.958333,32 C101.770833,32 102.041667,31.6875 102.041667,31.0208333 L102.041667,25.5 C102.041667,24.75 101.791667,24.4791667 100.854167,24.4791667 L100.75,24.4791667 L100.75,23.9375 L108.375,23.9375 L108.5,26.0208333 L107.979167,26.0208333 C107.833333,25.0833333 107.666667,24.7708333 107.020833,24.7708333" id="Path" fill="#005594" fill-rule="nonzero"></path>
            <path d="M114.666667,31.0208333 C114.666667,31.7291667 114.979167,32.0208333 115.770833,32.0208333 L116.1875,32.0208333 L116.1875,32.5625 L111.354167,32.5625 L111.354167,32.0208333 L111.583333,32.0208333 C112.416667,32.0208333 112.791667,31.8125 112.791667,31.0208333 L112.791667,25.5 C112.791667,24.8333333 112.604167,24.4375 111.6875,24.4375 L111.375,24.4375 L111.375,23.8958333 L113.145833,23.7916667 C113.9375,23.7916667 114.916667,23.6875 115.416667,23.6875 C116.770835,23.4887401 118.14868,23.8332015 119.25,24.6458333 C119.689616,25.0531541 119.932526,25.6300667 119.916667,26.2291667 C119.838363,27.3720928 118.968359,28.302998 117.833333,28.4583333 C118.729167,29.2083333 119.229167,30.3125 120.208333,31.2916667 C120.671321,31.8053858 121.329277,32.1003316 122.020833,32.1041667 L122.020833,32.6458333 L121.166667,32.6458333 C119.458333,32.6458333 118.75,32.3958333 118.104167,31.7291667 C117.458333,31.0625 116.604167,29.6458333 115.729167,28.8333333 L114.625,28.8333333 L114.666667,31.0208333 Z M114.666667,28.3333333 L115.208333,28.3333333 C116.895833,28.3333333 117.854167,27.8333333 117.854167,26.3541667 C117.854167,24.875 116.729167,24.2708333 115.395833,24.2708333 L114.666667,24.2708333 L114.666667,28.3333333 Z" id="Shape" fill="#005594" fill-rule="nonzero"></path>
            <path d="M124.1875,30.0208333 L124.729167,30.0208333 C125.1875,31.3958333 126,32.1041667 127.083333,32.1041667 C127.479341,32.1446675 127.874958,32.0238434 128.180766,31.769003 C128.486575,31.5141626 128.676759,31.1468192 128.708333,30.75 C128.708333,28.6666667 124.270833,28.6666667 124.270833,26.0208333 C124.270833,24.6875 125.416667,23.75 127.0625,23.75 C127.76894,23.7954105 128.467899,23.921223 129.145833,24.125 C129.269602,24.1186829 129.384136,24.0575982 129.458333,23.9583333 L129.75,23.9583333 L130,26.2083333 L129.458333,26.2083333 C129.227339,25.1443384 128.296863,24.377557 127.208333,24.3541667 C126.416667,24.3541667 125.854167,24.7708333 125.854167,25.3125 C125.854167,26.5833333 128.145833,26.8125 129.6875,28.3541667 C130.192514,28.8302404 130.478906,29.4934647 130.479167,30.1875 C130.431087,30.9229995 130.091944,31.6090327 129.536759,32.0938424 C128.981574,32.578652 128.256105,32.82228 127.520833,32.7708333 C126.721729,32.7044813 125.932297,32.5507867 125.166667,32.3125 C125.031996,32.3227458 124.916817,32.4132432 124.875,32.5416667 L124.520833,32.5416667 L124.1875,30.0208333 Z" id="Path" fill="#005594" fill-rule="nonzero"></path>
            <path d="M133.291667,23.9583333 L137.6875,23.9583333 L137.6875,24.5 L137.458333,24.5 C136.708333,24.5 136.395833,24.8333333 136.395833,25.5416667 L136.395833,31.0208333 C136.395833,31.6875 136.645833,32.0208333 137.479167,32.0208333 L137.6875,32.0208333 L137.6875,32.5625 L133.291667,32.5625 L133.291667,32.0208333 L133.479167,32.0208333 C134.208333,32.0208333 134.5,31.6875 134.5,31.0833333 L134.5,25.5 C134.5,24.7916667 134.25,24.4583333 133.479167,24.4583333 L133.291667,24.4583333 L133.291667,23.9583333 Z" id="Path" fill="#005594" fill-rule="nonzero"></path>
            <path d="M145.8125,31 C145.8125,31.7083333 146.020833,32.0208333 147,32.0208333 L147.333333,32.0208333 L147.333333,32.5625 L142.354167,32.5625 L142.354167,32.0208333 L142.833333,32.0208333 C143.604167,32.0208333 143.895833,31.7291667 143.895833,31 L143.895833,24.75 L142.270833,24.75 C141.208333,24.75 141.041667,24.9166667 140.770833,26.375 L140.208333,26.375 L140.458333,23.7916667 L140.895833,23.7916667 C140.971966,23.8724649 141.064241,23.9363476 141.166667,23.9791667 C141.297235,24.0061144 141.431931,24.0061144 141.5625,23.9791667 L148.145833,23.9791667 C148.392671,24.0224117 148.644421,23.9358724 148.8125,23.75 L149.25,23.75 L149.5,26.3333333 L148.9375,26.3333333 C148.666667,24.8958333 148.5,24.7083333 147.4375,24.7083333 L145.8125,24.7083333 L145.8125,31 Z" id="Path" fill="#005594" fill-rule="nonzero"></path>
            <path d="M157.770833,31 C157.770833,31.6666667 157.979167,32.0208333 158.979167,32.0208333 L159.1875,32.0208333 L159.1875,32.5625 L154.458333,32.5625 L154.458333,32.0208333 L154.8125,32.0208333 C155.645833,32.0208333 155.854167,31.6458333 155.854167,31.0416667 L155.854167,29.1041667 L152.895833,25.1666667 C152.654686,24.6991915 152.146686,24.4326996 151.625,24.5 L151.625,24.5 L151.625,23.9583333 L156.125,23.9583333 L156.125,24.5 L155.958333,24.5 C155.145833,24.5 155.041667,24.8333333 155.333333,25.2083333 L157.416667,28.125 L159.020833,25.6041667 C159.395833,25.0416667 159.5,24.5 158.541667,24.5 L158.354167,24.5 L158.354167,23.9583333 L161.583333,23.9583333 L161.583333,24.5 C160.770833,24.5 160.541667,24.7083333 160.041667,25.4791667 L157.6875,29.1041667 L157.770833,31 Z" id="Path" fill="#005594" fill-rule="nonzero"></path>
            <path d="M59.1458333,43.2708333 C59.1458333,43.6041667 59.1458333,43.75 59.6666667,43.75 L59.8125,43.75 L59.8125,44 L57.7291667,44 L57.7291667,43.75 L57.9375,43.75 C58.25,43.75 58.3958333,43.625 58.3958333,43.2708333 L58.3958333,40.3958333 L57.6875,40.3958333 C57.2083333,40.3958333 57.1458333,40.3958333 57.0208333,41.1458333 L56.7708333,41.1458333 L56.8958333,39.9583333 L57.0833333,39.9583333 L57.1875,39.9583333 L60.25,39.9583333 C60.3348049,40.002789 60.4360284,40.002789 60.5208333,39.9583333 L60.7291667,39.9583333 L60.8333333,41.1458333 L60.5833333,41.1458333 C60.5833333,40.4791667 60.3958333,40.3958333 59.9375,40.3958333 L59.2291667,40.3958333 L59.1458333,43.2708333 Z" id="Path" fill="#005594" fill-rule="nonzero"></path>
            <path d="M64.2916667,40.4166667 L62.9791667,40.4166667 L62.9791667,41.8333333 L63.9583333,41.8333333 C64.2708333,41.8333333 64.3958333,41.7083333 64.3958333,41.375 L64.6458333,41.375 L64.6458333,42.6458333 L64.3958333,42.6458333 C64.3958333,42.2916667 64.3958333,42.1875 63.8541667,42.1875 L62.9791667,42.1875 L62.9791667,43.3333333 C62.9791667,43.6041667 62.9791667,43.6458333 63.1875,43.6458333 L64.2083333,43.6458333 C64.6041667,43.6458333 64.7916667,43.5416667 64.8958333,43 L65.125,43 L65.125,44 L61.4166667,44 L61.4166667,43.75 L61.5833333,43.75 C61.9375,43.75 62.0625,43.6041667 62.0625,43.2916667 L62.0625,40.7708333 C62.0625,40.4375 61.9583333,40.3125 61.5416667,40.3125 L61.5416667,40.3125 L61.5416667,40.0833333 L64.8541667,40.0833333 L64.8541667,41 L64.7083333,41 C64.7083333,40.5833333 64.5625,40.4375 64.2916667,40.4375" id="Path" fill="#005594" fill-rule="nonzero"></path>
            <path d="M69.9166667,43.2916667 C69.9166667,43.6458333 70.0625,43.75 70.375,43.75 L70.375,43.75 L70.375,44 L68.4166667,44 L68.4166667,43.75 L68.4166667,43.75 C68.7291667,43.75 68.8958333,43.6458333 68.8958333,43.2708333 L68.8958333,40.7916667 C68.8958333,40.4583333 68.7708333,40.3125 68.4166667,40.3125 L68.4166667,40.3125 L68.4166667,40.0833333 L70.375,40.0833333 L70.375,40.3333333 L70.375,40.3333333 C69.9791667,40.3333333 69.9166667,40.5 69.9166667,40.8333333 L69.9166667,41.9791667 C70.2244602,41.9068699 70.5015387,41.7391644 70.7083333,41.5 C70.9734527,41.2293268 71.1730063,40.9014888 71.2916667,40.5416667 C71.2916667,40.4166667 71.2916667,40.3333333 70.9166667,40.3333333 L70.9166667,40.3333333 L70.9166667,40.0833333 L72.5416667,40.0833333 L72.5416667,40.3333333 C72.1666667,40.3333333 72.0416667,40.3333333 71.875,40.5625 C71.5846409,41.0118002 71.2496043,41.430596 70.875,41.8125 C71.1303287,41.9920813 71.3494461,42.218267 71.5208333,42.4791667 L72.0416667,43.1875 C72.3541667,43.6041667 72.5833333,43.7708333 72.9583333,43.7708333 L72.9583333,44.0208333 L70.875,44.0208333 L70.875,43.7708333 C71.1458333,43.7708333 71.3125,43.7708333 71.3125,43.6041667 C71.0534677,43.1689063 70.7382594,42.7696425 70.375,42.4166667 C70.125,42.1666667 70.0416667,42.1666667 69.9166667,42.1666667 L69.9166667,43.2916667 Z" id="Path" fill="#005594" fill-rule="nonzero"></path>
            <path d="M76.3958333,40.0833333 L77.9583333,40.0833333 L77.9583333,40.3333333 L77.9583333,40.3333333 C77.4791667,40.3333333 77.3958333,40.5625 77.3958333,40.8541667 L77.3958333,42.4375 C77.4514571,42.8981113 77.2908034,43.3585385 76.9607044,43.6845622 C76.6306054,44.0105859 76.1682182,44.1655078 75.7083333,44.1041667 C74.625,44.1041667 73.9375,43.625 73.9375,42.6458333 L73.9375,40.7708333 C73.9375,40.4583333 73.9375,40.3333333 73.5,40.3333333 L73.3958333,40.3333333 L73.3958333,40.0833333 L75.2916667,40.0833333 L75.2916667,40.3333333 L75.1875,40.3333333 C75.0691937,40.3182477 74.950766,40.3603369 74.8685148,40.4467006 C74.7862636,40.5330644 74.749998,40.6534032 74.7708333,40.7708333 L74.7708333,42.6458333 C74.7505883,42.935302 74.8597768,43.2188405 75.068945,43.4199638 C75.2781133,43.6210872 75.5657141,43.7190769 75.8541667,43.6875 C76.1741456,43.7195007 76.4918039,43.607692 76.7211951,43.3823251 C76.9505864,43.1569582 77.0679994,42.8413285 77.0416667,42.5208333 L77.0416667,40.9791667 C77.0416667,40.5416667 76.9166667,40.3333333 76.5416667,40.3333333 L76.5416667,40.3333333 L76.3958333,40.0833333 Z" id="Path" fill="#005594" fill-rule="nonzero"></path>
            <path d="M79.5,43.25 C79.5,43.625 79.625,43.75 80.1041667,43.75 L80.1041667,44 L78.6458333,44 L78.6458333,43.75 L78.6458333,43.75 C79.0208333,43.75 79.1041667,43.625 79.1041667,43.3541667 L79.1041667,40.4583333 C78.9666741,40.3546694 78.7969312,40.3030085 78.625,40.3125 L78.625,40.0833333 L79.875,40.0833333 L82.4166667,42.7708333 L82.4166667,40.8541667 C82.4166667,40.3958333 82.4166667,40.3125 81.8541667,40.3125 L81.8541667,40.3125 L81.8541667,40.0833333 L83.3958333,40.0833333 L83.3958333,40.3333333 L83.3958333,40.3333333 C83.0208333,40.3333333 82.9166667,40.3333333 82.9166667,40.6666667 L82.9166667,44.0416667 L82.4166667,44.0416667 L79.5,40.8541667 L79.5,43.25 Z" id="Path" fill="#005594" fill-rule="nonzero"></path>
            <path d="M86.7708333,40.4166667 L85.4375,40.4166667 L85.4375,41.8333333 L86.4166667,41.8333333 C86.75,41.8333333 86.875,41.7083333 86.875,41.375 L87.125,41.375 L87.125,42.6458333 L86.875,42.6458333 C86.875,42.2916667 86.875,42.1875 86.3333333,42.1875 L85.4375,42.1875 L85.4375,43.3333333 C85.4375,43.6041667 85.4375,43.6458333 85.6666667,43.6458333 L86.5833333,43.6458333 C86.9791667,43.6458333 87.1666667,43.5416667 87.2916667,43 L87.5208333,43 L87.5208333,44 L83.8958333,44 L83.8958333,43.75 L84.1458333,43.75 C84.5,43.75 84.6041667,43.6041667 84.6041667,43.2916667 L84.6041667,40.7708333 C84.6041667,40.4375 84.6041667,40.3125 84.0833333,40.3125 L84.0833333,40.3125 L84.0833333,40.0833333 L87.4166667,40.0833333 L87.4166667,41 L87.1875,41 C87.1875,40.5833333 87.0416667,40.4375 86.7708333,40.4375" id="Path" fill="#005594" fill-rule="nonzero"></path>
            <path d="M89.3125,43.25 C89.3125,43.625 89.4375,43.75 89.9166667,43.75 L89.9166667,44 L88.4583333,44 L88.4583333,43.75 L88.4583333,43.75 C88.8125,43.75 88.9166667,43.625 88.9166667,43.3541667 L88.9166667,40.4583333 C88.7776309,40.3577391 88.6090026,40.3064175 88.4375,40.3125 L88.4375,40.0833333 L89.6666667,40.0833333 L92.125,42.7916667 L92.125,40.875 C92.125,40.4166667 92.125,40.3333333 91.5625,40.3333333 L91.5625,40.3333333 L91.5625,40.0833333 L93.125,40.0833333 L93.125,40.3333333 L93.125,40.3333333 C92.75,40.3333333 92.625,40.3333333 92.625,40.6666667 L92.625,44.0416667 L92.2083333,44.0416667 L89.3125,40.875 L89.3125,43.25 Z" id="Path" fill="#005594" fill-rule="nonzero"></path>
            <path d="M98.2916667,42.3541667 C97.9791667,42.3541667 97.875,42.4583333 97.875,42.75 L97.875,43.6875 C97.3796309,43.9257411 96.8408705,44.0604312 96.2916667,44.0833333 C95.7108699,44.1299495 95.1370922,43.9312132 94.7095559,43.5353463 C94.2820196,43.1394793 94.0397989,42.5826615 94.0416559,42 C94.0409524,41.4289349 94.2746865,40.8826118 94.6882168,40.4887734 C95.101747,40.0949351 95.6588154,39.8881129 96.2291667,39.9166667 C96.6714131,39.9519205 97.1102409,40.0215757 97.5416667,40.125 C97.5932335,40.1547721 97.6567665,40.1547721 97.7083333,40.125 L97.875,40.125 L97.875,41.2916667 L97.625,41.2916667 C97.5132487,40.691961 96.9849415,40.2605101 96.375,40.2708333 C95.5208333,40.2708333 94.9375,40.9791667 94.9375,42 C94.8849725,42.434785 95.0101634,42.8723658 95.2847019,43.2135779 C95.5592405,43.5547901 95.959882,43.7707439 96.3958333,43.8125 C96.6096504,43.8010435 96.8172654,43.7366112 97,43.625 L97,42.75 C97,42.4375 96.875,42.3541667 96.25,42.3541667 L96.25,42.1666667 L98.3333333,42.1666667 L98.2916667,42.3541667 Z" id="Path" fill="#005594" fill-rule="nonzero"></path>
            <path d="M100.291667,42.5416667 L100.041667,43.2708333 C99.9375,43.6041667 99.9375,43.75 100.520833,43.75 L100.520833,43.75 L100.520833,44 L99.0833333,44 L99.0833333,43.75 L99.0833333,43.75 C99.375,43.75 99.5416667,43.625 99.6875,43.1666667 L100.708333,40.0833333 L100.708333,39.9166667 L101.604167,39.9166667 L102.8125,43.125 C102.958333,43.5416667 103.104167,43.6666667 103.416667,43.6875 L103.416667,43.9375 L101.458333,43.9375 L101.458333,43.6875 L101.666667,43.6875 C102.020833,43.6875 102.083333,43.5208333 101.958333,43.2083333 L101.6875,42.4791667 L100.291667,42.5416667 Z M100.916667,40.7083333 L100.416667,42.1875 L101.479167,42.1875 L100.916667,40.7083333 Z" id="Shape" fill="#005594" fill-rule="nonzero"></path>
            <path d="M107.958333,43.2916667 C107.958333,43.6458333 108.125,43.75 108.4375,43.75 L108.4375,43.75 L108.4375,44 L106.479167,44 L106.479167,43.75 L106.479167,43.75 C106.791667,43.75 106.9375,43.6458333 106.9375,43.2708333 L106.9375,40.7916667 C106.9375,40.4583333 106.9375,40.3125 106.479167,40.3125 L106.479167,40.3125 L106.479167,40.0833333 L108.4375,40.0833333 L108.4375,40.3333333 L108.333333,40.3333333 C107.958333,40.3333333 107.875,40.5 107.875,40.8333333 L107.875,41.9791667 C108.191437,41.9138625 108.477226,41.7453198 108.6875,41.5 C108.952619,41.2293268 109.152173,40.9014888 109.270833,40.5416667 C109.270833,40.4166667 109.145833,40.3333333 108.895833,40.3333333 L108.895833,40.3333333 L108.895833,40.0833333 L110.5,40.0833333 L110.5,40.3333333 C110.261463,40.3107587 110.025124,40.394621 109.854167,40.5625 C109.563808,41.0118002 109.228771,41.430596 108.854167,41.8125 C109.104628,41.9977093 109.322833,42.2229533 109.5,42.4791667 L110.020833,43.1875 C110.333333,43.6041667 110.5625,43.7708333 110.9375,43.7708333 L110.9375,44.0208333 L108.854167,44.0208333 L108.854167,43.7708333 C109.104167,43.7708333 109.291667,43.7708333 109.291667,43.6041667 C109.032634,43.1689063 108.717426,42.7696425 108.354167,42.4166667 C108.145833,42.2083333 108.0625,42.1875 107.916667,42.1875 L107.958333,43.2916667 Z" id="Path" fill="#005594" fill-rule="nonzero"></path>
            <path d="M111.583333,40.0833333 L113.520833,40.0833333 L113.520833,40.3333333 L113.520833,40.3333333 C113.1875,40.3333333 113.0625,40.4791667 113.0625,40.8125 L113.0625,43.3125 C113.0625,43.625 113.0625,43.7708333 113.520833,43.7708333 L113.520833,43.7708333 L113.520833,44.0208333 L111.583333,44.0208333 L111.583333,43.7708333 L111.583333,43.7708333 C111.895833,43.7708333 112.020833,43.625 112.020833,43.3333333 L112.020833,40.7916667 C112.020833,40.4583333 111.895833,40.3125 111.5625,40.3125 L111.5625,40.3125 L111.583333,40.0833333 Z" id="Path" fill="#005594" fill-rule="nonzero"></path>
            <path d="M118.166667,43.2708333 C118.166667,43.6458333 118.291667,43.75 118.6875,43.75 L118.875,43.75 L118.875,44 L116.791667,44 L116.791667,43.75 L116.895833,43.75 C117.229167,43.75 117.3125,43.75 117.3125,43.3958333 L117.3125,40.6875 C117.3125,40.3958333 117.3125,40.3125 116.895833,40.3125 L116.75,40.3125 L116.75,40.0833333 L117.833333,40.0833333 L118.791667,40.0833333 C119.958333,40.0833333 120.458333,40.6875 120.458333,41.3333333 C120.458333,41.9791667 119.875,42.5416667 118.9375,42.5416667 C118.709278,42.5710996 118.478222,42.5710996 118.25,42.5416667 L118.166667,43.2708333 Z M118.166667,42.0833333 C118.311536,42.1070467 118.459297,42.1070467 118.604167,42.0833333 C119.166667,42.0833333 119.479167,41.75 119.479167,41.125 C119.511656,40.8807955 119.431593,40.6350387 119.26149,40.4568356 C119.091387,40.2786324 118.849617,40.1872311 118.604167,40.2083333 C118.45914,40.1866472 118.311694,40.1866472 118.166667,40.2083333 L118.166667,42.0833333 Z" id="Shape" fill="#005594" fill-rule="nonzero"></path>
            <path d="M124.083333,40.0833333 L125.645833,40.0833333 L125.645833,40.3333333 L125.645833,40.3333333 C125.166667,40.3333333 125.104167,40.5625 125.104167,40.8541667 L125.104167,42.4375 C125.152651,42.9002191 124.986667,43.3596759 124.653648,43.6845727 C124.320629,44.0094694 123.857214,44.1640597 123.395833,44.1041667 C122.3125,44.1041667 121.625,43.625 121.625,42.6458333 L121.625,40.7708333 C121.625,40.4583333 121.625,40.3333333 121.208333,40.3333333 L121.208333,40.3333333 L121.208333,40.0833333 L123.104167,40.0833333 L123.104167,40.3333333 L123.104167,40.3333333 C122.984521,40.3199093 122.865269,40.3616687 122.780135,40.4468021 C122.695002,40.5319354 122.653243,40.6511873 122.666667,40.7708333 L122.666667,42.6458333 C122.646422,42.935302 122.75561,43.2188405 122.964778,43.4199638 C123.173947,43.6210872 123.461547,43.7190769 123.75,43.6875 C124.071808,43.727466 124.39425,43.6182829 124.625571,43.3910202 C124.856892,43.1637574 124.971764,42.8432984 124.9375,42.5208333 L124.9375,40.9791667 C124.9375,40.5416667 124.8125,40.3333333 124.4375,40.3333333 L124.083333,40.3333333 L124.083333,40.0833333 Z" id="Path" fill="#005594" fill-rule="nonzero"></path>
            <path d="M127.729167,43.2916667 C127.729167,43.625 127.854167,43.75 128.208333,43.75 L128.375,43.75 L128.375,44 L126.291667,44 L126.291667,43.75 L126.291667,43.75 C126.645833,43.75 126.8125,43.75 126.8125,43.2916667 L126.8125,40.7916667 C126.8125,40.5 126.8125,40.3125 126.333333,40.3125 L126.208333,40.3125 L126.208333,40.0833333 L126.979167,40.0833333 L127.958333,40.0833333 C128.854167,40.0833333 129.333333,40.1875 129.645833,40.5208333 C129.825609,40.7122284 129.922889,40.9666547 129.916667,41.2291667 C129.904759,41.734184 129.538922,42.1609949 129.041667,42.25 C129.4375,42.6041667 129.645833,43.1041667 130.083333,43.5416667 C130.273477,43.7843201 130.566793,43.9232592 130.875,43.9166667 L130.875,44.1666667 L130.5,44.1666667 C129.75,44.1666667 129.4375,44.0625 129.166667,43.7708333 C128.895833,43.4791667 128.5,42.7916667 128.125,42.4375 L127.645833,42.4375 L127.729167,43.2916667 Z M127.729167,42.0625 L127.958333,42.0625 C128.6875,42.0625 129.104167,41.8333333 129.104167,41.1458333 C129.104167,40.4583333 128.625,40.25 128.041667,40.25 L127.729167,40.25 L127.729167,42.0625 Z" id="Shape" fill="#005594" fill-rule="nonzero"></path>
            <path d="M134.229167,40.4166667 L132.916667,40.4166667 L132.916667,41.8333333 L133.895833,41.8333333 C134.229167,41.8333333 134.333333,41.7083333 134.333333,41.375 L134.5,41.375 L134.5,42.6458333 L134.25,42.6458333 C134.25,42.2916667 134.25,42.1875 133.708333,42.1875 L132.833333,42.1875 L132.833333,43.3333333 C132.833333,43.6041667 132.833333,43.6458333 133.041667,43.6458333 L134.0625,43.6458333 C134.458333,43.6458333 134.645833,43.5416667 134.75,43 L134.979167,43 L134.979167,44 L131.354167,44 L131.354167,43.75 L131.604167,43.75 C131.958333,43.75 132.083333,43.6041667 132.083333,43.2916667 L132.083333,40.7708333 C132.083333,40.4375 131.958333,40.3125 131.5625,40.3125 L131.5625,40.3125 L131.5625,40.0833333 L134.875,40.0833333 L134.875,41 L134.645833,41 C134.645833,40.5833333 134.5,40.4375 134.229167,40.4375" id="Path" fill="#005594" fill-rule="nonzero"></path>
            <path d="M138.833333,43.75 C139.145833,43.75 139.291667,43.6041667 139.291667,43.2708333 L139.291667,42.1666667 L137.208333,42.1666667 L137.208333,43.2916667 C137.208333,43.6458333 137.333333,43.7708333 137.666667,43.7708333 L137.666667,43.7708333 L137.666667,44.0208333 L135.729167,44.0208333 L135.729167,43.7708333 L135.729167,43.7708333 C136.020833,43.7708333 136.166667,43.625 136.166667,43.3125 L136.166667,40.7708333 C136.166667,40.4583333 136.041667,40.3125 135.708333,40.3125 L135.708333,40.3125 L135.708333,40.0833333 L137.645833,40.0833333 L137.645833,40.3333333 L137.645833,40.3333333 C137.333333,40.3333333 137.166667,40.4375 137.166667,40.7916667 L137.166667,41.7916667 L139.25,41.7916667 L139.25,40.8125 C139.25,40.4583333 139.104167,40.3333333 138.75,40.3333333 L138.75,40.3333333 L138.75,40.0833333 L140.75,40.0833333 L140.75,40.3333333 L140.75,40.3333333 C140.458333,40.3333333 140.3125,40.4583333 140.3125,40.7916667 L140.3125,43.2916667 C140.3125,43.625 140.3125,43.7708333 140.770833,43.7708333 L140.770833,43.7708333 L140.770833,44.0208333 L138.666667,44.0208333 L138.666667,43.7708333 L138.833333,43.75 Z" id="Path" fill="#005594" fill-rule="nonzero"></path>
            <path d="M144.375,40.0833333 L145.9375,40.0833333 L145.9375,40.3333333 L145.9375,40.3333333 C145.458333,40.3333333 145.375,40.5625 145.375,40.8541667 L145.375,42.4375 C145.430624,42.8981113 145.26997,43.3585385 144.939871,43.6845622 C144.609772,44.0105859 144.147385,44.1655078 143.6875,44.1041667 C142.583333,44.1041667 141.916667,43.625 141.916667,42.6458333 L141.916667,40.7708333 C141.916667,40.4583333 141.916667,40.3333333 141.479167,40.3333333 L141.479167,40.3333333 L141.479167,40.0833333 L143.354167,40.0833333 L143.354167,40.3333333 L143.354167,40.3333333 C143.23586,40.3182477 143.117433,40.3603369 143.035182,40.4467006 C142.95293,40.5330644 142.916665,40.6534032 142.9375,40.7708333 L142.9375,42.6458333 C142.917255,42.935302 143.026443,43.2188405 143.235612,43.4199638 C143.44478,43.6210872 143.732381,43.7190769 144.020833,43.6875 C144.340812,43.7195007 144.658471,43.607692 144.887862,43.3823251 C145.117253,43.1569582 145.234666,42.8413285 145.208333,42.5208333 L145.208333,40.9791667 C145.208333,40.5416667 145.083333,40.3333333 144.708333,40.3333333 L144.604167,40.3333333 L144.375,40.0833333 Z" id="Path" fill="#005594" fill-rule="nonzero"></path>
            <path d="M147.979167,43.2916667 C147.979167,43.625 148.125,43.75 148.458333,43.75 L148.645833,43.75 L148.645833,44 L146.5625,44 L146.5625,43.75 L146.5625,43.75 C146.9375,43.75 147.083333,43.75 147.083333,43.2916667 L147.083333,40.7916667 C147.083333,40.5 147.083333,40.3125 146.604167,40.3125 L146.479167,40.3125 L146.479167,40.0833333 L147.270833,40.0833333 L148.25,40.0833333 C149.145833,40.0833333 149.625,40.1875 149.916667,40.5208333 C150.110318,40.7046401 150.216411,40.9622953 150.208333,41.2291667 C150.186571,41.7376231 149.813823,42.1623829 149.3125,42.25 C149.708333,42.6041667 149.916667,43.1041667 150.354167,43.5416667 C150.548287,43.7792916 150.838997,43.9169963 151.145833,43.9166667 L151.145833,44.1666667 L150.770833,44.1666667 C150.020833,44.1666667 149.729167,44.0625 149.4375,43.7708333 C149.112764,43.309271 148.765106,42.8642687 148.395833,42.4375 L147.916667,42.4375 L147.979167,43.2916667 Z M147.979167,42.0625 L148.229167,42.0625 C148.958333,42.0625 149.375,41.8333333 149.375,41.1458333 C149.375,40.4583333 148.875,40.25 148.291667,40.25 L147.979167,40.25 L147.979167,42.0625 Z" id="Shape" fill="#005594" fill-rule="nonzero"></path>
            <path d="M154.25,39.9375 C155.400593,39.9375 156.333351,40.8702401 156.333351,42.0208333 C156.335714,42.6074428 156.090675,43.1678733 155.658414,43.5644426 C155.226154,43.9610119 154.646733,44.1569668 154.0625,44.1041667 C153.488645,44.138661 152.926043,43.9344921 152.507871,43.5399904 C152.089699,43.1454886 151.853131,42.5957232 151.854128,42.0208333 C151.850557,41.4262011 152.101218,40.8583658 152.543015,40.4603506 C152.984812,40.0623355 153.575633,39.8720783 154.166667,39.9375 M154.166667,43.8125 C155.020833,43.8125 155.395833,43.0625 155.395833,42.1875 C155.395833,41.3125 154.916667,40.1041667 154,40.1041667 C153.083333,40.1041667 152.75,40.7291667 152.75,41.6875 C152.75,42.6458333 153.333333,43.7708333 154.166667,43.7708333" id="Shape" fill="#005594" fill-rule="nonzero"></path>
            <path d="M158.583333,42.5416667 L158.333333,43.2708333 C158.333333,43.6041667 158.333333,43.75 158.8125,43.75 L158.8125,43.75 L158.8125,44 L157.229167,44 L157.229167,43.75 L157.229167,43.75 C157.520833,43.75 157.666667,43.625 157.8125,43.1666667 L158.854167,40.1458333 L158.854167,39.9791667 L159.75,39.9791667 L160.958333,43.1875 C161.104167,43.6041667 161.229167,43.7291667 161.541667,43.75 L161.541667,44 L159.583333,44 L159.583333,43.75 L159.791667,43.75 C160.166667,43.75 160.229167,43.5833333 160.104167,43.2708333 L159.8125,42.5416667 L158.583333,42.5416667 Z M159.208333,40.7083333 L158.708333,42.1875 L159.770833,42.1875 L159.208333,40.7083333 Z" id="Shape" fill="#005594" fill-rule="nonzero"></path>
            <rect id="Rectangle" fill="#005594" fill-rule="nonzero" x="122.041667" y="38.9166667" width="2.9375" height="1"></rect>
        </g>
    </g>
</svg>