<?xml version="1.0" encoding="UTF-8"?>
<svg width="168px" height="71px" viewBox="0 0 168 71" version="1.1" xmlns="http://www.w3.org/2000/svg" xmlns:xlink="http://www.w3.org/1999/xlink">
    <title>massey-logo-white</title>
    <g id="Page-1" stroke="none" stroke-width="1" fill="none" fill-rule="evenodd">
        <g id="massey-logo-white" transform="translate(0.400555, 0.779043)" fill="#FFFFFF">
            <path d="M1.27154989,60.7323331 L1.27154989,65.6747574 C1.22960674,66.1726131 1.34857332,66.6707857 1.61094383,67.0959695 C2.05144422,67.6436554 2.73463074,67.9375845 3.43518625,67.880818 C4.03736057,67.9409584 4.63336295,67.7183297 5.04864299,67.2781328 C5.46392304,66.837936 5.65148518,66.2299863 5.55639837,65.6323331 L5.55639837,60.7323331 L6.61700443,60.7323331 L6.61700443,65.6535453 C6.65834157,66.4131434 6.43327903,67.1633519 5.9806408,67.7747574 C5.32326559,68.5066055 4.37596182,68.9103743 3.39276201,68.8777877 C2.30972916,68.9250685 1.26927071,68.4521328 0.592762007,67.6050604 C0.214028816,67.0053479 0.0495402987,66.2950566 0.126095341,65.5899089 L0.126095341,60.7323331 L1.27154989,60.7323331 Z" id="Path" fill-rule="nonzero"></path>
            <polygon id="Path" fill-rule="nonzero" points="8.0806408 60.7323331 9.62912564 60.7323331 13.5533681 67.3293028 13.5533681 60.7323331 14.5715499 60.7323331 14.5715499 68.7080907 13.1503378 68.7080907 9.09882261 61.9414241 9.09882261 68.7080907 8.0806408 68.7080907"></polygon>
            <rect id="Rectangle" fill-rule="nonzero" x="16.5442772" y="60.7323331" width="1.1030303" height="7.97575758"></rect>
            <polygon id="Path" fill-rule="nonzero" points="22.8654893 68.7080907 21.6351862 68.7080907 18.792762 60.7323331 20.023065 60.7323331 22.292762 67.5414241 24.6897317 60.7323331 25.792762 60.7323331"></polygon>
            <polygon id="Path" fill-rule="nonzero" points="26.8533681 60.7323331 31.8594287 60.7323331 31.8594287 61.6656665 27.9563984 61.6656665 27.9563984 64.1474847 31.6685196 64.1474847 31.6685196 65.080818 27.9563984 65.080818 27.9563984 67.7323331 31.9442772 67.7323331 31.9442772 68.7080907 26.8533681 68.7080907"></polygon>
            <path d="M33.5988226,60.7323331 L36.4412469,60.7323331 C37.0770897,60.6931134 37.7123919,60.8172529 38.2867014,61.0929392 C38.841843,61.448239 39.1714941,62.0673399 39.1563984,62.7262725 C39.1550259,63.2519849 38.9584842,63.758458 38.6048832,64.1474847 C38.3424436,64.4056692 38.0109505,64.5824656 37.6503378,64.6565756 C38.4139741,64.8686968 38.7533681,65.2080907 38.8806408,66.2050604 C38.9637906,67.0604522 39.1562689,67.9016535 39.4533681,68.7080907 L38.1806408,68.7080907 C38.0123227,68.0100469 37.8918407,67.3013295 37.8200347,66.5868786 C37.692762,65.4414241 37.4170044,65.1020301 36.0806408,65.1020301 L34.6806408,65.1020301 L34.6806408,68.7080907 L33.5988226,68.7080907 L33.5988226,60.7323331 Z M34.6594287,64.1686968 L36.3988226,64.1686968 C36.7621693,64.1849233 37.1245462,64.1196954 37.4594287,63.9777877 C37.8128006,63.7643695 38.017423,63.3714945 37.9897317,62.9596059 C37.9897317,61.6444544 36.8442772,61.6444544 36.3988226,61.6444544 L34.6594287,61.6444544 L34.6594287,64.1686968 Z" id="Shape" fill-rule="nonzero"></path>
            <path d="M41.5745802,66.3747574 C41.5745802,66.9262725 41.5745802,67.9444544 43.5048832,67.9444544 C45.4351862,67.9444544 45.3715499,66.9262725 45.3715499,66.5232422 C45.3715499,65.6323331 44.6503378,65.4626362 43.5473075,65.1868786 C42.8049768,65.0664013 42.0880188,64.8226355 41.4260953,64.4656665 C40.889211,64.125896 40.5677854,63.5312587 40.5776105,62.8959695 C40.5776105,61.2838483 42.1260953,60.5626362 43.6321559,60.5626362 C44.4326276,60.5438902 45.2114379,60.823657 45.8170044,61.3474847 C46.1303192,61.7376506 46.2956134,62.2260197 46.2836711,62.7262725 L45.1382166,62.7262725 C45.1382166,61.7293028 44.2473075,61.4959695 43.462459,61.4959695 C42.6776105,61.4959695 41.7018529,62.0050604 41.7018529,62.7899089 C41.7018529,63.5747574 42.1685196,63.7444544 43.1442772,63.9777877 C45.0321559,64.4656665 45.2654893,64.5080907 45.7109438,64.8262725 C46.2367123,65.1793997 46.5355142,65.7850793 46.4957923,66.4171816 C46.4957923,67.8171816 45.392762,68.8989998 43.3563984,68.8989998 C42.4367687,68.9637543 41.5334073,68.6317497 40.8745802,67.9868786 C40.5427653,67.5169827 40.3784195,66.9492427 40.4079135,66.3747574 L41.5745802,66.3747574 Z" id="Path" fill-rule="nonzero"></path>
            <rect id="Rectangle" fill-rule="nonzero" x="48.0867014" y="60.7323331" width="1.1030303" height="7.97575758"></rect>
            <polygon id="Path" fill-rule="nonzero" points="53.092762 68.7080907 53.092762 61.6656665 50.4200347 61.6656665 50.4200347 60.7323331 56.8685196 60.7323331 56.8685196 61.6656665 54.1957923 61.6656665 54.1957923 68.7080907"></polygon>
            <polygon id="Path" fill-rule="nonzero" points="60.5382166 65.5686968 57.4200347 60.7323331 58.7988226 60.7323331 61.1533681 64.6353635 63.5291256 60.7323331 64.7806408 60.7323331 61.662459 65.6323331 61.662459 68.7080907 60.5382166 68.7080907"></polygon>
            <path d="M69.2776105,61.580818 C69.974956,60.8731182 70.9360825,60.4886676 71.9291256,60.5202119 C74.0503378,60.5202119 75.5351862,61.9414241 75.5351862,64.6353635 C75.5351862,66.7565756 74.6867014,68.8777877 71.8442772,68.8777877 C69.0018529,68.8777877 68.2382166,66.9474847 68.2382166,64.7414241 C68.1872636,63.5898527 68.5566674,62.4590246 69.2776105,61.5596059 M70.1048832,67.2020301 C70.5495618,67.7131959 71.211667,67.9811909 71.8867014,67.9232422 C72.5545192,67.9742721 73.2072097,67.7069049 73.6473075,67.2020301 C74.1617027,66.4403073 74.4148017,65.5321285 74.3685196,64.6141513 C74.3685196,62.7899089 73.7745802,61.4323331 71.9503378,61.4323331 C70.1260953,61.4323331 69.4048832,63.0444544 69.4048832,64.6777877 C69.3473282,65.5740189 69.5939744,66.4634402 70.1048832,67.2020301" id="Shape" fill-rule="nonzero"></path>
            <polygon id="Path" fill-rule="nonzero" points="76.9776105 60.7323331 81.7291256 60.7323331 81.7291256 61.6656665 78.1018529 61.6656665 78.1018529 64.1474847 81.5170044 64.1474847 81.5170044 65.080818 78.1018529 65.080818 78.1018529 68.7080907 76.9776105 68.7080907"></polygon>
            <polygon id="Path" fill-rule="nonzero" points="86.2048832 60.7323331 87.7321559 60.7323331 91.6563984 67.3293028 91.6563984 60.7323331 92.6745802 60.7323331 92.6745802 68.7080907 91.2533681 68.7080907 87.2018529 61.9414241 87.2018529 68.7080907 86.2048832 68.7080907"></polygon>
            <polygon id="Path" fill-rule="nonzero" points="94.2654893 60.7323331 99.2715499 60.7323331 99.2715499 61.6656665 95.3685196 61.6656665 95.3685196 64.1474847 99.0806408 64.1474847 99.0806408 65.080818 95.3685196 65.080818 95.3685196 67.7323331 99.3563984 67.7323331 99.3563984 68.7080907 94.2654893 68.7080907"></polygon>
            <polygon id="Path" fill-rule="nonzero" points="101.47761 60.7323331 103.195792 67.2868786 105.104883 60.7323331 106.462459 60.7323331 108.265489 67.350515 110.089732 60.7323331 111.17155 60.7323331 108.795792 68.7080907 107.565489 68.7080907 105.720035 61.8777877 103.747307 68.7080907 102.559429 68.7080907 100.289732 60.7323331"></polygon>
            <polygon id="Path" fill-rule="nonzero" points="114.713974 67.6050604 119.317004 61.7080907 114.841247 61.7080907 114.841247 60.7323331 120.632156 60.7323331 120.632156 61.8141513 115.986701 67.7323331 120.717004 67.7323331 120.717004 68.7080907 114.713974 68.7080907"></polygon>
            <polygon id="Path" fill-rule="nonzero" points="121.926095 60.7323331 126.932156 60.7323331 126.932156 61.6656665 123.029126 61.6656665 123.029126 64.1474847 126.741247 64.1474847 126.741247 65.080818 123.029126 65.080818 123.029126 67.7323331 127.017004 67.7323331 127.017004 68.7080907 121.926095 68.7080907"></polygon>
            <path d="M131.301853,60.7323331 L132.46852,60.7323331 L135.713974,68.7080907 L134.504883,68.7080907 L133.635186,66.5868786 L129.944277,66.5868786 L129.07458,68.7080907 L127.929126,68.7080907 L131.301853,60.7323331 Z M130.283671,65.7383938 L133.317004,65.7383938 L131.832156,61.8141513 L130.283671,65.7383938 Z" id="Shape" fill-rule="nonzero"></path>
            <polygon id="Path" fill-rule="nonzero" points="136.753368 60.7323331 137.835186 60.7323331 137.835186 67.711121 141.547307 67.711121 141.547307 68.7080907 136.753368 68.7080907"></polygon>
            <path d="M145.513974,60.7323331 L146.701853,60.7323331 L149.926095,68.7080907 L148.717004,68.7080907 L147.86852,66.5868786 L144.198823,66.5868786 L143.329126,68.7080907 L142.204883,68.7080907 L145.513974,60.7323331 Z M144.517004,65.7383938 L147.635186,65.7383938 L146.150338,61.8141513 L144.517004,65.7383938 Z" id="Shape" fill-rule="nonzero"></path>
            <polygon id="Path" fill-rule="nonzero" points="150.859429 60.7323331 152.407914 60.7323331 156.332156 67.3293028 156.332156 60.7323331 157.350338 60.7323331 157.350338 68.7080907 155.929126 68.7080907 151.87761 61.9414241 151.87761 68.7080907 150.859429 68.7080907"></polygon>
            <path d="M159.026095,60.7323331 L161.338217,60.7323331 C162.53018,60.5430405 163.741465,60.9284492 164.604883,61.7717271 C165.292132,62.6212913 165.64653,63.6920268 165.601853,64.7838483 C165.67586,66.0192218 165.184131,67.2212251 164.265489,68.050515 C163.402395,68.6189327 162.361497,68.8527575 161.338217,68.7080907 L159.026095,68.7080907 L159.026095,60.7323331 Z M160.129126,67.7959695 L161.210944,67.7959695 C161.94741,67.8771664 162.690565,67.721104 163.332156,67.350515 C164.058635,66.7195551 164.450565,65.7867624 164.392762,64.8262725 C164.422837,63.9335642 164.145807,63.0575488 163.607914,62.3444544 C163.048173,61.7939474 162.264156,61.5352215 161.486701,61.6444544 L160.17155,61.6444544 L160.129126,67.7959695 Z" id="Shape" fill-rule="nonzero"></path>
            <rect id="Rectangle" fill-rule="nonzero" x="0.0836710983" y="54.6020301" width="165.433333" height="1"></rect>
            <path d="M18.5806408,41.3868786 C17.7753552,40.0901145 17.0663782,38.7359684 16.4594287,37.3353635 C15.7793586,35.9581638 14.6386441,34.8624774 13.2351862,34.2383938 C13.5280097,34.9739587 13.5280097,35.7937379 13.2351862,36.5293028 C12.492762,37.9293028 11.8988226,37.3777877 11.8988226,37.3777877 C11.9264713,38.0190496 12.2780398,38.6023336 12.8321559,38.9262725 C13.5557321,39.3958657 14.5117745,39.279711 15.1018529,38.650515 C15.1044112,39.6163815 15.5798697,40.5197525 16.3745802,41.0686968 C17.195878,41.6411967 18.140664,42.0118435 19.1321559,42.150515 L19.8533681,42.4262725 C19.3596304,42.1564658 18.9264659,41.7882759 18.5806408,41.3444544" id="Path" fill-rule="nonzero"></path>
            <path d="M7.63518625,31.0989998 C7.44932704,30.5558743 7.44932704,29.9663678 7.63518625,29.4232422 C8.45021695,28.9060627 9.47095561,28.834292 10.3503378,29.2323331 C11.0806762,29.5507894 11.637579,30.1695703 11.8776105,30.9293028 C12.3958347,30.4576225 12.7333896,29.8200188 12.8321559,29.1262725 C12.9153779,28.2146212 12.5224526,27.3245252 11.792762,26.7717271 C11.162073,26.3326459 10.47771,25.9762068 9.75639837,25.711121 C10.2253792,25.4675783 10.6318732,25.1191549 10.9442772,24.6929392 C11.0276651,24.4997199 11.0985189,24.3013293 11.1563984,24.0989998 C11.2473673,23.7877513 11.3755669,23.4886189 11.5382166,23.2080907 C11.8514087,22.8238072 12.2324683,22.500266 12.662459,22.2535453 C11.8347949,21.9445941 10.9234564,21.9445941 10.0957923,22.2535453 C8.80185292,22.8262725 8.46245898,23.3777877 7.02003473,23.950515 L6.74427716,24.0565756 L6.74427716,24.0565756 C5.89654155,24.3756641 4.96170974,24.3756641 4.11397413,24.0565756 C4.53500866,24.6797579 4.72966852,25.4284497 4.66548928,26.1777877 C4.51714272,27.6173396 4.71345831,29.0715292 5.23821655,30.4202119 C5.81879913,31.5274425 6.87349095,32.3086957 8.10185292,32.5414241 C7.83311279,32.1048871 7.67307476,31.6102241 7.63518625,31.0989998" id="Path" fill-rule="nonzero"></path>
            <path d="M11.4533681,31.3323331 C10.7465103,30.4821232 9.63303092,30.0838715 8.54730746,30.2929392 C8.96909779,30.7007074 9.28885186,31.2021399 9.4806408,31.7565756 C9.67211755,32.2450381 9.78661192,32.7602627 9.82003473,33.2838483 C9.10151234,33.1521542 8.35979113,33.2485779 7.69882261,33.5596059 C6.84222576,33.9172745 6.28258357,34.7525614 6.27761049,35.680818 C7.11601061,35.0223721 8.24763007,34.8758314 9.22609534,35.2989998 C10.1883051,35.85025 10.8964258,36.7563399 11.1988226,37.8232422 C11.2492207,37.4119873 11.3637406,37.0111676 11.5382166,36.6353635 C11.9277574,36.0749322 12.2482554,35.4695472 12.492762,34.8323331 C12.8224995,33.5462285 12.4144078,32.1832024 11.4321559,31.2899089" id="Path" fill-rule="nonzero"></path>
            <path d="M5.04730746,5.96263618 C5.29874986,6.64235421 5.43496519,7.359277 5.45033776,8.0838483 C5.47104506,8.34576958 5.5508193,8.59959668 5.6836711,8.82627254 C5.6836711,8.82627254 4.32609534,8.97475739 3.90185292,9.67475739 C3.4807279,10.357463 3.4807279,11.2193245 3.90185292,11.9020301 C4.04810629,11.3857944 4.47653893,10.9985572 5.00488322,10.9050604 C5.84250554,10.781824 6.68967296,11.056369 7.29579231,11.6474847 C8.04822739,12.2875878 8.98364409,12.6736328 9.96851958,12.750515 C9.78288581,12.1060403 9.78288581,11.4222623 9.96851958,10.7777877 C10.233291,9.92517483 10.6501018,9.12748512 11.1988226,8.42324224 C11.6755008,7.82705087 11.8620831,7.04962495 11.7079135,6.30203012 C11.6387141,5.81374782 11.4881423,5.34052208 11.262459,4.90203012 C11.1281416,5.34001546 10.8424291,5.71595296 10.4563984,5.96263618 C9.90461442,6.24178834 9.39126307,6.59115245 8.92912564,7.00203012 C8.62516368,7.26737007 8.41653715,7.62501554 8.33518625,8.02021194 C8.2710476,7.29457305 8.03076055,6.59555618 7.63518625,5.9838483 C7.1089439,5.20297027 6.37396524,4.5855882 5.51397413,4.20203012 C4.9820217,4.03709124 4.41259322,4.03709124 3.8806408,4.20203012 C4.52173974,4.65325579 4.99832693,5.30111651 5.23821655,6.04748466" id="Path" fill-rule="nonzero"></path>
            <path d="M11.5806408,9.27172709 C11.5806408,9.97172709 11.5806408,10.7989998 11.4321559,11.8171816 C11.2949006,12.4635695 10.9055348,13.0285317 10.3503378,13.3868786 C11.2927247,13.6798187 12.3126472,13.2841591 12.8109438,12.4323331 C13.2769595,11.4362788 13.1631263,10.2654229 12.5139741,9.37778769 C12.2579287,8.85034685 12.1410925,8.26616547 12.1745802,7.680818 C11.887065,8.17324717 11.6861707,8.71135674 11.5806408,9.27172709" id="Path" fill-rule="nonzero"></path>
            <path d="M3.56245898,8.44445436 C3.86238398,8.1430471 4.26232545,7.96194153 4.6867014,7.93536345 C4.28632532,7.61544945 3.99687512,7.17756325 3.85942867,6.6838483 C3.62854246,6.1483127 3.58373368,5.55086234 3.73215595,4.9868786 C3.18952106,5.53849659 2.80808407,6.22801729 2.62912564,6.980818 C2.43375439,7.87132688 2.53044913,8.80108402 2.90488322,9.63233315 C2.98801012,9.17502307 3.21904194,8.75767526 3.56245898,8.44445436" id="Path" fill-rule="nonzero"></path>
            <path d="M1.5897317,13.4293028 C1.99578893,12.8960878 2.67483714,12.6476555 3.32912564,12.7929392 C3.32912564,12.7929392 1.8867014,10.480818 0.46548928,12.3474847 C-1.18905617,14.4686968 2.09882261,16.1444544 2.09882261,16.1444544 C2.09882261,16.1444544 0.847307462,14.5747574 1.5897317,13.4293028" id="Path" fill-rule="nonzero"></path>
            <path d="M9.33215595,18.0747574 C7.72003473,18.0747574 6.97761049,21.3414241 7.44427716,23.1444544 C8.36055054,21.0629311 10.5648017,19.8606123 12.8109438,20.2171816 C12.8109438,20.2171816 10.9018529,18.0959695 9.33215595,18.0959695" id="Path" fill-rule="nonzero"></path>
            <path d="M5.17458019,22.6141513 C5.57326691,23.0617332 6.08672254,23.3918118 6.65942867,23.5686968 C6.29163967,22.178469 6.29163967,20.7165004 6.65942867,19.3262725 C7.14414284,17.8420664 8.35130138,16.7068577 9.86245898,16.3141513 C10.5483076,16.1865116 11.2223491,16.0020371 11.8776105,15.7626362 C12.2770734,15.5445963 12.5855056,15.1910277 12.7473075,14.7656665 C12.175118,14.868296 11.5854217,14.8019552 11.0503378,14.5747574 C10.1384978,14.2286579 9.27567099,13.7651559 8.4836711,13.1959695 C7.67007123,12.5679966 6.6689638,12.2318039 5.64124686,12.2414241 C5.1346244,12.1579844 4.61663269,12.2971463 4.22003473,12.6232422 C4.65329577,12.8185842 5.03203558,13.117206 5.32306504,13.4929392 C5.62502191,13.9901959 5.6947525,14.5945277 5.51397413,15.1474847 C5.13658954,14.9729447 4.73682177,14.8515866 4.32609534,14.7868786 C3.62609534,14.680818 3.22306504,14.7868786 2.82003473,14.7868786 C2.60975127,14.7500831 2.42902899,14.6165057 2.33215595,14.4262725 C2.2057185,15.0594477 2.29534866,15.7167355 2.5867014,16.2929392 C3.05336807,17.3959695 3.6897317,17.480818 3.6897317,17.480818 C2.67190715,17.6806107 1.85229152,18.4346571 1.56851958,19.4323331 C1.30161338,20.7343345 1.7553343,22.0792929 2.75639837,22.9535453 C2.75639837,22.9535453 2.75639837,21.8080907 3.41397413,21.5747574 C3.84370017,21.3803387 4.2615962,21.1607663 4.66548928,20.9171816 C4.62062898,21.5262071 4.80188462,22.1303926 5.17458019,22.6141513" id="Path" fill-rule="nonzero"></path>
            <path d="M10.5200347,40.7717271 C10.6408569,40.5168952 10.895632,40.3525242 11.1776105,40.3474847 C11.2828118,40.3283918 11.390591,40.3283918 11.4957923,40.3474847 C11.9142765,40.6257187 12.371804,40.8401847 12.8533681,40.9838483 C13.4685196,41.1323331 13.8079135,40.9838483 13.8503378,40.8565756 C13.892762,40.7293028 13.2351862,40.0293028 12.5351862,39.9020301 C11.4546428,39.763905 10.3589515,39.7997119 9.2897317,40.0080907 C7.84730746,40.2626362 7.31700443,40.0080907 7.16851958,39.7535453 C7.02003473,39.4989998 7.16851958,39.4565756 7.16851958,39.2868786 C6.97413159,39.2882839 6.79912681,39.4049537 6.72306504,39.5838483 C6.37452458,40.2866393 6.22767078,41.0723071 6.29882261,41.8535453 C6.29882261,42.9989998 6.29882261,43.9747574 7.04124686,44.1020301 C7.7836711,44.2293028 8.20791352,43.7838483 8.69579231,43.6989998 C9.1836711,43.6141513 9.35336807,43.8686968 9.35336807,43.8686968 L10.5200347,40.7717271 Z" id="Path" fill-rule="nonzero"></path>
            <path d="M37.2048832,40.7717271 C37.0955911,40.5166887 36.8459751,40.350278 36.5685196,40.3474847 C36.4633182,40.3283918 36.3555391,40.3283918 36.2503378,40.3474847 C35.8264346,40.629665 35.3613023,40.8443414 34.8715499,40.9838483 C34.2776105,41.1323331 33.9170044,40.9838483 33.8957923,40.8565756 C33.8745802,40.7293028 34.4897317,40.0293028 35.2109438,39.9020301 C36.2914873,39.763905 37.3871785,39.7997119 38.4563984,40.0080907 C39.8988226,40.2626362 40.4291256,40.0080907 40.5776105,39.7535453 C40.7260953,39.4989998 40.5776105,39.4565756 40.4715499,39.2868786 C40.6659379,39.2882839 40.8409427,39.4049537 40.9170044,39.5838483 C41.2480689,40.2923682 41.3940332,41.0732776 41.3412469,41.8535453 C41.3412469,42.9989998 41.3412469,43.9747574 40.5988226,44.1020301 C39.8563984,44.2293028 39.4321559,43.7838483 38.9442772,43.6989998 C38.4563984,43.6141513 38.2867014,43.8686968 38.2867014,43.8686968 L37.2048832,40.7717271 Z" id="Path" fill-rule="nonzero"></path>
            <path d="M38.0533681,45.2899089 C33.8020848,47.9117071 28.8762935,49.2316422 23.8836711,49.0868786 C18.9045011,49.2307823 13.992532,47.9105984 9.75639837,45.2899089 C9.63488288,45.2585775 9.55991086,45.136748 9.5867014,45.0141513 C9.57668386,44.9795074 9.57668386,44.9427346 9.5867014,44.9080907 L10.8806408,40.9414241 C10.9283565,40.8228847 11.0512593,40.7526545 11.1776105,40.7717271 C11.238837,40.7469598 11.3072931,40.7469598 11.3685196,40.7717271 C13.362459,42.8929392 18.2200347,44.3565756 23.8836711,44.3565756 C29.5473075,44.3565756 34.4897317,42.850515 36.4200347,40.7293028 C36.4891427,40.7080363 36.563048,40.7080363 36.6321559,40.7293028 C36.7375768,40.7320726 36.8303732,40.7995609 36.8654893,40.8989998 L38.1806408,45.0141513 C38.1906583,45.0487952 38.1906583,45.085568 38.1806408,45.1202119 C38.181402,45.2204403 38.1232735,45.3117851 38.0321559,45.3535453" id="Path" fill-rule="nonzero"></path>
            <path d="M22.4836711,1.27475739 C22.5135579,1.32877462 22.570422,1.36230017 22.6321559,1.36230017 C22.6938899,1.36230017 22.750754,1.32877462 22.7806408,1.27475739 L23.6079135,0.298999815 C23.6079135,0.171727088 23.6079135,0.0868786033 23.5018529,0.0868786033 L21.7412469,0.0868786033 C21.592762,0.0868786033 21.5503378,0.0868786033 21.7412469,0.277787694 L22.4836711,1.27475739 Z M25.9836711,1.27475739 C26.1238586,1.25956002 26.2529004,1.19124377 26.3442772,1.0838483 L27.1079135,0.192939209 C27.1079135,0.0868786033 27.1079135,0.00203011843 27.1079135,0.00203011843 L25.5594287,0.00203011843 C25.4116894,0.0118335278 25.2740968,0.0806298133 25.1776105,0.192939209 L24.4139741,1.0838483 C24.4139741,1.0838483 24.4139741,1.27475739 24.4139741,1.27475739 L25.9836711,1.27475739 Z M33.2382166,1.27475739 C33.3784041,1.25956002 33.5074459,1.19124377 33.5988226,1.0838483 L34.362459,0.192939209 C34.362459,0.0868786033 34.362459,0.00203011843 34.362459,0.00203011843 L33.662459,0.00203011843 C33.4407924,-0.0154089076 33.2253267,0.0803536082 33.0897317,0.256575573 L32.3473075,1.14748466 C32.2412469,1.14748466 32.3473075,1.33839375 32.3473075,1.33839375 L33.2382166,1.27475739 Z M34.8715499,1.27475739 C34.6382166,1.27475739 34.7654893,1.10506042 34.8715499,0.892939209 L35.3594287,0.468696785 C35.5521403,0.292888345 35.7990874,0.188122904 36.0594287,0.171727088 L36.7806408,0.171727088 C37.0139741,0.171727088 36.992762,0.341424058 36.7806408,0.55354527 C36.2429678,1.0780051 35.5360937,1.39384249 34.7867014,1.44445436 M30.8412469,1.44445436 C30.9814344,1.42925699 31.1104762,1.36094074 31.2018529,1.25354527 L31.9654893,0.362636179 C32.0715499,0.256575573 31.9654893,0.171727088 31.9654893,0.171727088 L31.2442772,0.171727088 C31.1464575,0.175039925 31.0512815,0.204324853 30.9685196,0.256575573 L30.2048832,1.14748466 C30.2048832,1.14748466 30.2048832,1.33839375 30.2048832,1.33839375 L30.8412469,1.44445436 Z M28.5079135,1.44445436 C28.655688,1.39393464 28.7776187,1.28724524 28.8473075,1.14748466 L29.6109438,0.256575573 C29.6109438,0.150514967 29.6109438,0.0656664821 29.6109438,0.0656664821 L28.6351862,0.0656664821 C28.4902245,0.0850710456 28.3558688,0.152248901 28.2533681,0.256575573 L27.5109438,1.14748466 C27.4048832,1.14748466 27.5109438,1.33839375 27.5109438,1.33839375 L28.5079135,1.44445436 Z M19.5563984,1.44445436 C19.4144476,1.41982361 19.2862888,1.34443607 19.1957923,1.23233315 L18.4321559,0.341424058 C18.3260953,0.341424058 18.4321559,0.150514967 18.4321559,0.150514967 L20.0018529,0.150514967 C20.1468147,0.16991953 20.2811704,0.237097386 20.3836711,0.341424058 L21.1260953,1.23233315 C21.2321559,1.23233315 21.1260953,1.44445436 21.1260953,1.44445436 L19.5563984,1.44445436 Z M14.6139741,1.44445436 C14.4673346,1.41628112 14.3335466,1.34195443 14.2321559,1.23233315 L13.4897317,0.341424058 C13.4897317,0.341424058 13.4897317,0.150514967 13.4897317,0.150514967 L14.1897317,0.150514967 C14.3362655,0.164634012 14.4723344,0.23266845 14.5715499,0.341424058 L15.3351862,1.23233315 C15.3351862,1.23233315 15.3351862,1.44445436 15.3351862,1.44445436 L14.6139741,1.44445436 Z M16.9473075,1.44445436 C16.7970111,1.42696038 16.6597445,1.35070116 16.5654893,1.23233315 L15.8018529,0.341424058 C15.8018529,0.341424058 15.8018529,0.150514967 15.8018529,0.150514967 L16.7776105,0.150514967 C16.917798,0.165712338 17.0468398,0.234028593 17.1382166,0.341424058 L17.9018529,1.23233315 C18.0079135,1.23233315 17.9018529,1.44445436 17.9018529,1.44445436 L16.9473075,1.44445436 Z M12.9594287,1.44445436 C13.192762,1.44445436 13.0654893,1.25354527 12.9594287,1.04142406 L12.3867014,0.468696785 C12.1871737,0.307158149 11.9427949,0.21088773 11.6867014,0.192939209 L10.9654893,0.192939209 C10.7533681,0.192939209 10.7533681,0.341424058 10.9654893,0.574757391 C11.5101641,1.08881526 12.2131135,1.40289902 12.9594287,1.46566648" id="Shape"></path>
            <path d="M29.6533681,9.4838483 C29.6533681,9.31415133 29.6533681,9.16566648 29.6533681,9.05960588 C29.4841835,6.65606984 28.7579582,4.32488664 27.5321559,2.25051497 C27.50492,2.16094469 27.4340997,2.09131061 27.3440822,2.06559132 C27.2540647,2.03987203 27.1571464,2.06158082 27.0867014,2.12324224 C26.9594287,2.12324224 26.9594287,2.12324224 27.0867014,2.35657557 C27.2139741,2.58990891 27.5109438,2.92930285 27.6806408,3.22627254 C27.9577925,3.66413794 28.1049123,4.17170123 28.1048832,4.68990891 C28.1257296,4.88024891 28.1257296,5.07229617 28.1048832,5.26263618 C27.7775907,6.48068798 26.9098002,7.48138325 25.7503378,7.97778769 C25.4409031,8.08777161 25.1210708,8.16595282 24.7957923,8.21112103 C24.0972083,8.35313126 23.3708683,8.20786326 22.7806408,7.80809072 C22.2581429,7.40893309 21.9841823,6.76431999 22.0594287,6.11112103 C22.0503303,5.94913709 22.1034444,5.78979459 22.2079135,5.66566648 L22.2079135,5.66566648 C22.6321559,5.07172709 22.7594287,6.19596951 23.8412469,6.36566648 C24.0154855,6.40795344 24.1973112,6.40795344 24.3715499,6.36566648 C24.5512257,6.30022148 24.7116584,6.19083555 24.8382166,6.04748466 C24.9855567,5.88580859 25.0879486,5.68833845 25.1351862,5.47475739 C25.166744,5.34226722 25.166744,5.20421726 25.1351862,5.07172709 C25.0764484,4.82536179 24.9431079,4.60312753 24.7533681,4.43536345 C24.2018529,3.96869679 23.2897317,3.62930285 22.992762,2.92930285 C22.940242,2.75643626 22.940242,2.5718664 22.992762,2.39899982 C23.0516947,2.2175367 23.1374966,2.04593297 23.2473075,1.88990891 L23.7563984,1.27475739 L24.6048832,0.256575573 C24.6048832,0.00203011843 24.3503378,0.0656664821 24.2867014,0.129302846 C23.6291256,0.744454361 23.3109438,1.59293921 22.5473075,2.01718163 C21.5568282,2.24229193 20.6602692,2.76837199 19.9806408,3.52324224 C18.9164644,4.31076513 17.7963279,5.0197123 16.6291256,5.64445436 C16.5336347,5.91194514 16.5336347,6.2042363 16.6291256,6.47172709 C17.3035714,6.77175066 18.0181582,6.97183495 18.7503378,7.06566648 C19.0512076,7.56202996 19.1355369,8.16000113 18.9836711,8.72021194 C19.4291256,8.84748466 20.5109438,7.95657557 20.8503378,7.21415133 C21.3835544,7.32459124 21.7905688,7.75704406 21.8685196,8.29596951 C21.8995616,8.69210567 21.8187135,9.08899646 21.6351862,9.44142406 C21.2288317,10.1302506 20.6420641,10.6950144 19.9382166,11.0747574 C20.2891664,11.2479613 20.622972,11.4539265 20.9351862,11.6899089 C21.1260953,11.6899089 21.6563984,10.5656665 21.8685196,10.5232422 C22.0806408,10.480818 23.1836711,11.2444544 23.3957923,11.2444544 C23.6079135,11.2444544 24.2442772,10.2899089 24.5200347,10.311121 C24.7957923,10.3323331 25.5170044,11.4353635 25.7503378,11.4777877 C25.9836711,11.5202119 26.9170044,10.5020301 27.2351862,10.5444544 C27.5533681,10.5868786 27.892762,11.4353635 28.0836711,11.4989998 C28.2745802,11.5626362 28.592762,11.0535453 29.823065,10.8202119 C29.823065,10.8202119 29.823065,10.0141513 29.823065,9.44142406" id="Path" fill-rule="nonzero"></path>
            <path d="M23.523065,1.76263618 C23.4491481,1.81508683 23.3846066,1.87962833 23.3321559,1.95354527 C23.219534,2.09225971 23.133263,2.25042327 23.0776105,2.42021194 C23.0354259,2.55124382 23.0354259,2.69221035 23.0776105,2.82324224 C23.3533681,3.43839375 24.2654893,3.82021194 24.7745802,4.24445436 C25.0034143,4.43750193 25.1665089,4.69697063 25.2412469,4.9868786 C25.307121,5.40801102 25.1648074,5.8349517 24.8594287,6.13233315 C24.7150098,6.31365236 24.5245339,6.45284629 24.3079135,6.53536345 C24.0978993,6.57764534 23.8815641,6.57764534 23.6715499,6.53536345 C23.125147,6.4137846 22.6378457,6.10640994 22.292762,5.66566648 L22.292762,5.79293921 L22.292762,5.79293921 C22.292762,5.79293921 22.292762,6.02627254 22.292762,6.08990891 C22.2731631,6.47680601 22.3691572,6.86078245 22.5685196,7.19293921 C22.6727445,7.35351096 22.8015939,7.49667699 22.9503378,7.61718163 C23.4887146,7.98845885 24.1572556,8.11909331 24.7957923,7.97778769 C25.1086307,7.95245457 25.4159993,7.8809735 25.7079135,7.76566648 C26.7590562,7.26499985 27.5353965,6.32562809 27.8291256,5.19899982 C27.849847,5.0228394 27.849847,4.8448572 27.8291256,4.66869679 C27.8334134,4.18908704 27.7009714,3.71818186 27.4473075,3.31112103 C27.2468859,2.99660551 27.004214,2.71110916 26.7260953,2.46263618 C26.5776105,2.31415133 26.4291256,2.22930285 26.323065,2.12324224 C26.2170044,2.01718163 26.7897317,1.93233315 26.9170044,1.74142406 C25.8853537,1.68872756 24.8516855,1.68872756 23.8200347,1.74142406 C23.7069465,1.75047126 23.5977518,1.7868695 23.5018529,1.84748466 M23.9260953,7.680818 C23.8711948,7.70022826 23.8112989,7.70022826 23.7563984,7.680818 C23.7980794,7.60862441 23.7980794,7.51967825 23.7563984,7.44748466 C23.7563984,7.44748466 23.7563984,7.44748466 23.8836711,7.44748466 L23.8836711,7.44748466 C23.9155346,7.4918514 23.9155346,7.55160278 23.8836711,7.59596951 M24.5412469,7.59596951 C24.6187671,7.5010083 24.6427369,7.37316938 24.6048832,7.25657557 C24.6048832,7.25657557 24.6048832,7.25657557 24.7957923,7.12930285 L24.7957923,7.12930285 C24.8424124,7.20009459 24.8424124,7.29184444 24.7957923,7.36263618 C24.7561616,7.4810239 24.6726542,7.57971446 24.562459,7.63839375 M25.4745802,7.34142406 C25.511362,7.15765393 25.4559046,6.96751421 25.3260953,6.83233315 C25.3260953,6.83233315 25.3260953,6.66263618 25.4745802,6.62021194 C25.623065,6.57778769 25.4745802,6.62021194 25.5806408,6.62021194 C25.6817104,6.69575802 25.7439058,6.81237425 25.7503378,6.93839375 C25.7631155,7.08430775 25.7173248,7.22931139 25.623065,7.34142406 M25.9200347,6.34445436 C25.8489114,6.25823984 25.8489114,6.13369919 25.9200347,6.04748466 C25.9200347,6.04748466 25.9200347,6.04748466 25.9200347,6.04748466 C26.0659924,6.06045065 26.1983929,6.13833333 26.2806408,6.25960588 C26.4159179,6.42170547 26.497458,6.62184944 26.5139741,6.83233315 C26.3907633,6.61839785 26.166685,6.48235031 25.9200347,6.47172709 M26.3018529,5.77172709 C26.1533681,5.77172709 26.0897317,5.60203012 26.0897317,5.45354527 C26.0897317,5.30506042 26.0897317,5.45354527 26.0897317,5.45354527 C26.258663,5.37910814 26.4511035,5.37910814 26.6200347,5.45354527 C26.8269472,5.53670946 26.9940085,5.69617701 27.0867014,5.89899982 C26.8276609,5.76320803 26.5184692,5.76320803 26.2594287,5.89899982 M27.4473075,4.71112103 C27.1019201,4.53006531 26.6896645,4.53006531 26.3442772,4.71112103 C26.1533681,4.71112103 26.0473075,4.54142406 26.0048832,4.35051497 C25.962459,4.15960588 26.0048832,4.22324224 26.0048832,4.180818 C26.2207284,4.08371848 26.4678259,4.08371848 26.6836711,4.180818 C26.9739584,4.25359299 27.2293163,4.42633507 27.4048832,4.66869679 M27.1715499,3.71415133 C26.7421236,3.51729871 26.2401089,3.56588078 25.8563984,3.84142406 C25.6285334,3.84155195 25.4148661,3.73076149 25.2836711,3.54445436 C25.240775,3.48025329 25.240775,3.39653422 25.2836711,3.33233315 C25.5434601,3.15280727 25.8640401,3.08411155 26.1745802,3.14142406 C26.550736,3.22808819 26.8912861,3.42797629 27.1503378,3.71415133 M23.9897317,2.58990891 C24.3463025,2.35264969 24.7716541,2.24071504 25.1988226,2.27172709 C25.7083771,2.30285935 26.196517,2.48776081 26.5988226,2.80203012 C25.9903057,2.63054164 25.3370107,2.73942414 24.8170044,3.09899982 C24.5173537,3.13846549 24.2153649,3.04554585 23.9897317,2.84445436 C23.9249132,2.7719851 23.9249132,2.66237816 23.9897317,2.58990891" id="Shape" fill-rule="nonzero"></path>
            <path d="M33.2382166,26.4959695 L33.2382166,17.4383938 L14.5291256,17.4383938 L14.5291256,26.4747574 C14.5291256,26.4747574 13.892762,37.5899089 23.8836711,42.5747574 C33.8533681,37.5899089 33.2382166,26.4747574 33.2382166,26.4747574 M30.4170044,30.7171816 L26.3867014,30.4202119 L27.9139741,34.1535453 L24.8382166,31.5444544 L23.8836711,35.4899089 L22.9291256,31.5444544 L19.8321559,34.1535453 L21.3806408,30.4202119 L17.3291256,30.7171816 L20.7867014,28.5959695 L17.3291256,26.4747574 L21.3806408,26.7717271 L19.8321559,23.0383938 L22.9291256,25.6474847 L23.8836711,21.680818 L24.8382166,25.6050604 L27.9139741,22.9959695 L26.3867014,26.7293028 L30.4170044,26.4323331 L26.9806408,28.5535453 L30.4170044,30.7171816 Z M30.9260953,32.4777877 C31.5873349,30.5759132 31.9103965,28.5729312 31.8806408,26.5596059 L31.8806408,18.7747574 L15.8867014,18.7747574 L15.8867014,26.5171816 C15.8569457,28.530507 16.1800073,30.533489 16.8412469,32.4353635 C15.9138746,30.6092763 15.4408896,28.5863558 15.462459,26.5383938 L15.462459,18.3929392 L32.3048832,18.3929392 L32.3048832,26.5383938 C32.3305896,28.5819202 31.8726746,30.602561 30.9685196,32.4353635" id="Shape" fill-rule="nonzero"></path>
            <path d="M41.0654893,24.0989998 L41.0654893,24.0989998 L40.7897317,23.9929392 C39.3473075,23.4202119 39.0079135,22.8686968 37.7139741,22.2959695 C36.88631,21.9870184 35.9749716,21.9870184 35.1473075,22.2959695 C35.5772982,22.5426903 35.9583577,22.8662314 36.2715499,23.250515 C36.4429884,23.5265482 36.5717154,23.8269112 36.6533681,24.1414241 C36.7112475,24.3437535 36.7821013,24.5421442 36.8654893,24.7353635 C37.184619,25.1552924 37.5895714,25.5023944 38.0533681,25.7535453 C37.3836573,26.0297589 36.7497713,26.3858746 36.1654893,26.8141513 C35.480919,27.3769169 35.1227521,28.2444768 35.2109438,29.1262725 C35.3097101,29.8200188 35.647265,30.4576225 36.1654893,30.9293028 C36.4055208,30.1695703 36.9624236,29.5507894 37.692762,29.2323331 C38.5721442,28.834292 39.5928828,28.9060627 40.4079135,29.4232422 C40.5789856,29.96873 40.5789856,30.5535121 40.4079135,31.0989998 C40.3555981,31.6563407 40.158129,32.1902388 39.8351862,32.6474847 C41.0635482,32.4147563 42.11824,31.6335031 42.6988226,30.5262725 C43.225173,29.1780013 43.4215407,27.7234256 43.2715499,26.2838483 C43.2073706,25.5345103 43.4020305,24.7858186 43.823065,24.1626362 C42.9753294,24.4817247 42.0404976,24.4817247 41.192762,24.1626362" id="Path" fill-rule="nonzero"></path>
            <path d="M34.6170044,36.5293028 C34.3106041,35.7964014 34.3106041,34.9712952 34.6170044,34.2383938 C33.2135466,34.8624774 32.072832,35.9581638 31.392762,37.3353635 C30.7858125,38.7359684 30.0768355,40.0901145 29.2715499,41.3868786 C28.9257248,41.8307002 28.4925603,42.19889 27.9988226,42.4686968 L28.7200347,42.1929392 C29.7115267,42.0542677 30.6563127,41.6836209 31.4776105,41.111121 C32.272321,40.5621768 32.7477795,39.6588057 32.7503378,38.6929392 C33.3513739,39.3084337 34.3063432,39.4066081 35.0200347,38.9262725 C35.5740339,38.5990333 35.9311278,38.0197475 35.9745802,37.3777877 C35.9745802,37.3777877 35.3594287,37.9293028 34.6170044,36.5293028" id="Path" fill-rule="nonzero"></path>
            <path d="M40.1321559,33.5596059 C39.4711874,33.2485779 38.7294662,33.1521542 38.0109438,33.2838483 C38.0443666,32.7602627 38.158861,32.2450381 38.3503378,31.7565756 C38.5421267,31.2021399 38.8618808,30.7007074 39.2836711,30.2929392 C38.1979476,30.0838715 37.0844682,30.4821232 36.3776105,31.3323331 C35.3953586,32.2256266 34.987267,33.5886527 35.3170044,34.8747574 C35.5615111,35.5119714 35.882009,36.1173565 36.2715499,36.6777877 C36.4487708,37.0525641 36.5634194,37.4538339 36.6109438,37.8656665 C36.9133406,36.7987642 37.6214613,35.8926742 38.5836711,35.3414241 C39.5621364,34.9182557 40.6937558,35.0647963 41.5321559,35.7232422 C41.5271829,34.7949856 40.9675407,33.9596988 40.1109438,33.6020301" id="Path" fill-rule="nonzero"></path>
            <path d="M44.1200347,4.9868786 C44.268457,5.55086234 44.2236482,6.1483127 43.992762,6.6838483 C43.8553156,7.17756325 43.5658654,7.61544945 43.1654893,7.93536345 C43.5898652,7.96194153 43.9898067,8.1430471 44.2897317,8.44445436 C44.6331487,8.75767526 44.8641806,9.17502307 44.9473075,9.63233315 C45.3217415,8.80108402 45.4184363,7.87132688 45.223065,6.980818 C45.0372616,6.23068556 44.656772,5.54287743 44.1200347,4.9868786" id="Path" fill-rule="nonzero"></path>
            <path d="M37.5018529,13.3868786 C36.9466559,13.0285317 36.5572901,12.4635695 36.4200347,11.8171816 C36.2715499,10.7989998 36.4200347,9.97172709 36.2715499,9.27172709 C36.16602,8.71135674 35.9651257,8.17324717 35.6776105,7.680818 C35.7110982,8.26616547 35.594262,8.85034685 35.3382166,9.37778769 C34.6869619,10.2660485 34.580818,11.441797 35.062459,12.4323331 C35.5827664,13.245587 36.5677794,13.6310269 37.5018529,13.3868786" id="Path" fill-rule="nonzero"></path>
            <path d="M37.9260953,10.7777877 C38.1117291,11.4222623 38.1117291,12.1060403 37.9260953,12.750515 C38.9075527,12.6754548 39.8414746,12.2974388 40.5988226,11.6686968 C41.1992178,11.0669797 42.0483853,10.7839239 42.8897317,10.9050604 C43.418076,10.9985572 43.8465086,11.3857944 43.992762,11.9020301 C44.3944151,11.2063465 44.3944151,10.3492289 43.992762,9.65354527 C43.5685196,8.97475739 42.2109438,8.82627254 42.2109438,8.82627254 C42.3437956,8.59959668 42.4235699,8.34576958 42.4442772,8.0838483 C42.4596497,7.359277 42.5958651,6.64235421 42.8473075,5.96263618 C43.0871971,5.21626802 43.5637843,4.5684073 44.2048832,4.11718163 C43.6729308,3.95224276 43.1035023,3.95224276 42.5715499,4.11718163 C41.7115588,4.50073971 40.9765801,5.11812178 40.4503378,5.89899982 C40.0189659,6.52932902 39.7560808,7.25956546 39.6867014,8.02021194 C39.598405,7.62771027 39.3909595,7.27208943 39.092762,7.00203012 C38.6344733,6.59612519 38.1287826,6.24712739 37.5867014,5.96263618 C37.1900802,5.72265999 36.8956174,5.34514363 36.7594287,4.90203012 C36.5337454,5.34052208 36.3831735,5.81374782 36.3139741,6.30203012 C36.1598046,7.04962495 36.3463868,7.82705087 36.823065,8.42324224 C37.3797024,9.12236236 37.7973228,9.92160145 38.0533681,10.7777877" id="Path" fill-rule="nonzero"></path>
            <path d="M47.3867014,12.3474847 C45.9654893,10.480818 44.523065,12.7929392 44.523065,12.7929392 C45.1773535,12.6476555 45.8564017,12.8960878 46.262459,13.4293028 C47.0048832,14.5747574 45.7533681,16.1444544 45.7533681,16.1444544 C45.7533681,16.1444544 49.0412469,14.5323331 47.3867014,12.3474847" id="Path" fill-rule="nonzero"></path>
            <path d="M44.162459,17.4383938 C44.162459,17.4383938 44.7988226,17.4383938 45.2654893,16.250515 C45.556842,15.6743112 45.6464722,15.0170234 45.5200347,14.3838483 C45.4231617,14.5740815 45.2424394,14.7076588 45.0321559,14.7444544 C44.6291256,14.7444544 44.2260953,14.7444544 43.5473075,14.7444544 C43.1292715,14.8069611 42.7221974,14.9283691 42.3382166,15.1050604 C42.1574382,14.5521035 42.2271688,13.9477717 42.5291256,13.450515 C42.835367,13.0586007 43.2370714,12.7518446 43.6957923,12.5596059 C43.2991944,12.2335099 42.7812026,12.094348 42.2745802,12.1777877 C41.2465772,12.1910517 40.2529069,12.5496695 39.4533681,13.1959695 C38.6780637,13.7842053 37.8295294,14.269082 36.9291256,14.6383938 C36.3870402,14.8673421 35.7900647,14.9336727 35.2109438,14.8293028 C35.3926757,15.2489766 35.705175,15.5986782 36.1018529,15.8262725 C36.7106151,16.0645584 37.3437019,16.2352784 37.9897317,16.3353635 C39.5008893,16.7280699 40.7080478,17.8632786 41.192762,19.3474847 C41.560551,20.7377125 41.560551,22.1996811 41.192762,23.5899089 C41.7654681,23.4130239 42.2789238,23.0829453 42.6776105,22.6353635 C43.0503061,22.1516047 43.2315617,21.5474193 43.1867014,20.9383938 C43.5905945,21.1819784 44.0084905,21.4015509 44.4382166,21.5959695 C44.9897317,21.8293028 45.0957923,22.9747574 45.0957923,22.9747574 C46.1580272,22.0770225 46.625436,20.6583958 46.3048832,19.3050604 C46.0211113,18.3073844 45.2014957,17.553338 44.1836711,17.3535453" id="Path" fill-rule="nonzero"></path>
            <path d="M40.4079135,23.1444544 C40.8745802,21.3414241 40.1321559,17.9899089 38.5412469,18.0747574 C36.9503378,18.1596059 35.0412469,20.1959695 35.0412469,20.1959695 C37.29003,19.8579435 39.4872499,21.0651117 40.4079135,23.1444544" id="Path" fill-rule="nonzero"></path>
            <path d="M31.8382166,12.0080907 C31.6473075,11.7747574 29.7170044,12.8141513 29.7170044,12.8141513 C29.7170044,12.8141513 29.7170044,11.7747574 29.4200347,11.5838483 C28.7035816,11.6682299 28.0412069,12.0069442 27.5533681,12.5383938 L27.5533681,12.5383938 C27.362459,11.9656665 27.0442772,11.4565756 26.8957923,11.4353635 C26.7473075,11.4141513 25.4533681,12.4747574 25.4533681,12.4747574 C25.4533681,12.4747574 24.7533681,11.2444544 24.3715499,11.2020301 C23.9897317,11.1596059 23.6079135,11.8596059 23.2897317,12.2838483 C22.9079135,11.9020301 22.1018529,11.2868786 21.8048832,11.350515 C21.5079135,11.4141513 21.2321559,12.1989998 20.9988226,12.7717271 C20.4691023,12.2826196 19.8495955,11.9008305 19.1745802,11.6474847 C18.9929911,12.0919277 18.8993422,12.5673764 18.8988226,13.0474847 C18.3786382,12.5509367 17.7559495,12.1744273 17.0745802,11.9444544 C16.9891697,12.8398794 17.3358594,13.7223623 18.0079135,14.3202119 C17.8328932,13.8866712 17.7255786,13.4287957 17.6897317,12.9626362 C18.0715499,12.7717271 19.0048832,13.3232422 19.0048832,13.3232422 C19.0048832,13.3232422 19.1745802,12.6020301 19.5563984,12.411121 C20.1038513,12.5600814 20.620824,12.8042074 21.0836711,13.1323331 C21.2946372,12.7265009 21.5745641,12.3604427 21.9109438,12.050515 C22.5048832,11.9232422 23.3321559,12.6444544 23.3321559,12.6444544 C23.3321559,12.6444544 23.9260953,11.9232422 24.3715499,11.9232422 C24.7610038,12.1576014 25.1057491,12.4592535 25.3897317,12.8141513 C25.8199245,12.5155789 26.2824493,12.2665271 26.7685196,12.0717271 C27.0867014,12.2202119 27.4473075,12.9626362 27.4473075,12.9626362 C27.4473075,12.9626362 28.5291256,12.2414241 29.1018529,12.3262725 C29.2713771,12.5728324 29.4002849,12.8449711 29.4836711,13.1323331 C30.0287356,12.9185488 30.5990972,12.7759584 31.1806408,12.7080907 C31.0724735,13.2777595 30.848675,13.8192074 30.523065,14.2989998 C31.1170044,13.980818 32.1563984,12.411121 31.8382166,12.0080907" id="Path" fill-rule="nonzero"></path>
            <path d="M24.2018529,14.5535453 C24.6473075,14.5535453 24.8806408,12.7717271 24.3715499,12.7080907 C23.862459,12.6444544 23.7776105,14.4899089 24.2018529,14.5535453" id="Path" fill-rule="nonzero"></path>
            <path d="M25.9200347,14.5959695 C26.3867014,14.7868786 27.0442772,13.0474847 26.5776105,12.8777877 C26.1109438,12.7080907 25.5170044,14.4262725 25.9200347,14.5959695" id="Path" fill-rule="nonzero"></path>
            <path d="M21.9745802,13.0686968 C21.9745802,13.7050604 22.3351862,14.7020301 22.6745802,14.6171816 C23.0139741,14.5323331 22.8018529,13.1535418 22.292762,12.8141513 C22.2151402,12.794066 22.1325917,12.8117268 22.0699829,12.8618138 C22.0073741,12.9119009 21.9720237,12.9885592 21.9745802,13.0686968" id="Path" fill-rule="nonzero"></path>
            <path d="M27.6806408,14.6383938 C28.062459,14.8929392 29.1442772,13.3656665 28.6776105,13.0686968 C28.2109438,12.7717271 27.2351862,14.3626362 27.6806408,14.6383938" id="Path" fill-rule="nonzero"></path>
            <path d="M19.7473075,13.1959695 C19.7473075,13.8323331 20.2988226,14.8080907 20.6170044,14.680818 C20.9351862,14.5535453 20.6170044,13.280818 19.9382166,13.0686968 C19.8109438,13.0686968 19.7473075,13.0686968 19.7473075,13.1959695" id="Path" fill-rule="nonzero"></path>
            <path d="M29.3139741,14.5323331 C29.6321559,14.7868786 30.4170044,13.7262725 30.2260953,13.5353635 C30.0351862,13.3444544 29.0806408,14.3626362 29.3139741,14.5323331" id="Path" fill-rule="nonzero"></path>
            <path d="M18.962459,14.7020301 C19.2382166,14.5535453 18.7291256,13.5565756 18.4533681,13.6838483 C18.1776105,13.811121 18.6867014,14.850515 18.962459,14.7020301" id="Path" fill-rule="nonzero"></path>
            <path d="M22.9715499,15.0626362 C22.8442772,15.0626362 22.7806408,15.0626362 22.823065,15.2535453 L23.2897317,16.3777877 C23.3515915,16.4861154 23.4624687,16.5573936 23.5867014,16.5686968 L25.4745802,16.5686968 C25.6018529,16.5686968 25.6654893,16.4626362 25.623065,16.3777877 L25.1563984,15.3171816 C25.1008998,15.2030164 24.9863311,15.1293652 24.8594287,15.1262725 L22.9715499,15.0626362 Z" id="Path" fill-rule="nonzero"></path>
            <path d="M25.9836711,15.3171816 C25.8776105,15.3171816 25.8351862,15.3171816 25.8563984,15.4444544 L26.1957923,16.250515 C26.2318829,16.3340444 26.3172273,16.3852511 26.4079135,16.3777877 L27.7654893,16.3777877 C27.7654893,16.3777877 27.9139741,16.3777877 27.8715499,16.250515 L27.5533681,15.3171816 C27.4999752,15.2403771 27.4135162,15.1932177 27.3200347,15.1899089 L25.9836711,15.3171816 Z" id="Path" fill-rule="nonzero"></path>
            <path d="M28.2321559,15.3171816 C28.2321559,15.3171816 28.1260953,15.3171816 28.2321559,15.3171816 L28.4654893,15.8899089 C28.4975094,15.9544518 28.5631388,15.9954703 28.6351862,15.9959695 L29.5685196,15.9959695 C29.5685196,15.9959695 29.6745802,15.9959695 29.5685196,15.8899089 L29.3351862,15.3171816 C29.2810846,15.2935698 29.2195909,15.2935698 29.1654893,15.3171816 L28.2321559,15.3171816 Z" id="Path" fill-rule="nonzero"></path>
            <path d="M29.9291256,15.4232422 C29.9291256,15.4232422 29.9291256,15.4232422 29.9291256,15.4232422 L30.0988226,15.8050604 C30.1329706,15.8181172 30.1707352,15.8181172 30.2048832,15.8050604 L30.862459,15.8050604 C30.862459,15.8050604 30.862459,15.8050604 30.862459,15.8050604 L30.692762,15.4232422 C30.6599467,15.4042963 30.6195167,15.4042963 30.5867014,15.4232422 L29.9291256,15.4232422 Z" id="Path" fill-rule="nonzero"></path>
            <path d="M22.4836711,16.3353635 C22.4836711,16.3353635 22.6321559,16.3353635 22.6109438,16.2080907 L22.3139741,15.3171816 C22.2605812,15.2403771 22.1741223,15.1932177 22.0806408,15.1899089 L20.7442772,15.1899089 C20.7442772,15.1899089 20.5957923,15.1899089 20.6170044,15.3171816 L20.9563984,16.1232422 C21.0000523,16.2101474 21.0930307,16.2608629 21.1897317,16.250515 L22.4836711,16.3353635 Z" id="Path" fill-rule="nonzero"></path>
            <path d="M20.362459,16.250515 L20.1291256,15.6777877 C20.075024,15.6541758 20.0135303,15.6541758 19.9594287,15.6777877 L19.0260953,15.6777877 C19.0260953,15.6777877 19.0260953,15.6777877 19.0260953,15.6777877 L19.2594287,16.250515 C19.3062972,16.2733181 19.361045,16.2733181 19.4079135,16.250515 L20.362459,16.250515 Z" id="Path" fill-rule="nonzero"></path>
            <path d="M18.5806408,16.2080907 C18.5806408,16.2080907 18.5806408,16.2080907 18.5806408,16.2080907 L18.4109438,15.8050604 L17.7533681,15.8050604 C17.7533681,15.8050604 17.7533681,15.8050604 17.7533681,15.8050604 L17.923065,16.2080907 L18.5806408,16.2080907 Z" id="Path" fill-rule="nonzero"></path>
            <polygon id="Path" fill-rule="nonzero" points="23.8836711 22.9959695 24.4776105 26.6444544 23.862459 28.5535453"></polygon>
            <polygon id="Path" fill-rule="nonzero" points="23.2473075 26.6444544 23.8836711 22.9959695 23.862459 28.5535453"></polygon>
            <polygon id="Path" fill-rule="nonzero" points="23.862459 34.111121 23.2685196 30.4838483 23.862459 28.5535453"></polygon>
            <polygon id="Path" fill-rule="nonzero" points="24.5200347 30.4626362 23.8836711 34.111121 23.862459 28.5535453"></polygon>
            <polygon id="Path" fill-rule="nonzero" points="20.6170044 24.0565756 23.2473075 26.6444544 23.862459 28.5535453"></polygon>
            <polygon id="Path" fill-rule="nonzero" points="22.2291256 27.3868786 20.6170044 24.0565756 23.862459 28.5535453"></polygon>
            <polygon id="Path" fill-rule="nonzero" points="27.1291256 33.050515 24.5200347 30.4626362 23.862459 28.5535453"></polygon>
            <polygon id="Path" fill-rule="nonzero" points="25.5170044 29.7202119 27.1291256 33.050515 23.862459 28.5535453"></polygon>
            <polygon id="Path" fill-rule="nonzero" points="18.6018529 26.8353635 22.2291256 27.3868786 23.862459 28.5535453"></polygon>
            <polygon id="Path" fill-rule="nonzero" points="21.8685196 28.5535453 18.6018529 26.8353635 23.862459 28.5535453"></polygon>
            <polygon id="Path" fill-rule="nonzero" points="29.1442772 30.2717271 25.5170044 29.7202119 23.862459 28.5535453"></polygon>
            <polygon id="Path" fill-rule="nonzero" points="25.8988226 28.5535453 29.1442772 30.2717271 23.862459 28.5535453"></polygon>
            <polygon id="Path" fill-rule="nonzero" points="18.6018529 30.2717271 21.8685196 28.5535453 23.862459 28.5535453"></polygon>
            <polygon id="Path" fill-rule="nonzero" points="22.2503378 29.7414241 18.6018529 30.2717271 23.862459 28.5535453"></polygon>
            <polygon id="Path" fill-rule="nonzero" points="29.1442772 26.8353635 25.8988226 28.5535453 23.862459 28.5535453"></polygon>
            <polygon id="Path" fill-rule="nonzero" points="25.4957923 27.3656665 29.1654893 26.8353635 23.862459 28.5535453"></polygon>
            <polygon id="Path" fill-rule="nonzero" points="20.6170044 33.050515 22.2503378 29.7414241 23.862459 28.5535453"></polygon>
            <polygon id="Path" fill-rule="nonzero" points="23.2685196 30.4838483 20.6170044 33.050515 23.862459 28.5535453"></polygon>
            <polygon id="Path" fill-rule="nonzero" points="27.1503378 24.0777877 25.4957923 27.3656665 23.862459 28.5535453"></polygon>
            <polygon id="Path" fill-rule="nonzero" points="24.4776105 26.6444544 27.1503378 24.0565756 23.862459 28.5535453"></polygon>
            <path d="M59.7533681,7.76566648 L59.7533681,7.76566648 L59.2018529,16.5050604 C59.2018529,18.1383938 59.2018529,18.9232422 61.323065,18.9444544 L61.323065,19.8989998 L55.723065,19.8989998 L55.723065,18.9444544 C57.6321559,18.9444544 57.6957923,18.3717271 57.8442772,16.3353635 L58.3957923,7.44748466 C58.3957923,6.19596951 58.3957923,5.66566648 56.7412469,5.580818 L56.7412469,4.71112103 L61.9382166,4.71112103 L66.7109438,15.0202119 L71.2715499,4.71112103 L76.5321559,4.71112103 L76.5321559,5.66566648 C74.7715499,5.66566648 74.6442772,5.66566648 74.7715499,7.53233315 L75.3654893,16.5899089 C75.492762,18.711121 75.5563984,18.880818 77.4867014,19.0293028 L77.4867014,19.9838483 L69.7867014,19.9838483 L69.7867014,19.0293028 L70.2109438,19.0293028 C71.2291256,19.0293028 72.0988226,19.0293028 72.0988226,17.4383938 C72.0988226,17.0353635 72.0988226,16.6535453 72.0988226,16.2717271 L71.5260953,7.57475739 L71.5260953,7.57475739 L66.0321559,19.9838483 L65.4382166,19.9838483 L59.7533681,7.76566648 Z" id="Path" fill-rule="nonzero"></path>
            <path d="M85.3351862,14.2353635 L84.2957923,17.0989998 C83.8503378,18.350515 83.8715499,18.9444544 86.2260953,18.9444544 L86.5654893,18.9444544 L86.5654893,19.8989998 L80.0533681,19.8989998 L80.0533681,18.9444544 L80.4139741,18.9444544 C81.6018529,18.9444544 82.2170044,18.3929392 82.8321559,16.6747574 L87.0745802,4.9868786 L86.8200347,4.26566648 L90.362459,4.26566648 L95.2836711,16.7383938 C95.9200347,18.350515 96.4503378,18.8596059 97.723065,18.8596059 L97.723065,19.8141513 L89.7685196,19.8141513 L89.7685196,18.8596059 L90.6382166,18.8596059 C92.123065,18.8596059 92.3563984,18.2020301 91.8473075,16.9929392 L90.7018529,14.150515 L85.3351862,14.2353635 Z M87.8806408,7.12930285 L85.7594287,12.8777877 L90.0018529,12.8777877 L87.8806408,7.12930285 Z" id="Shape" fill-rule="nonzero"></path>
            <path d="M100.77761,15.3171816 L101.732156,15.3171816 C102.538217,17.7565756 103.980641,19.0080907 105.97458,19.0080907 C106.673963,19.0725738 107.369806,18.8523633 107.904757,18.3972563 C108.439707,17.9421493 108.768579,17.2905867 108.817004,16.5899089 C108.817004,12.9414241 100.926095,13.0686968 100.926095,8.10506042 C100.926095,5.75051497 103.047307,4.09596951 105.910944,4.09596951 C107.175234,4.16812801 108.427475,4.38157812 109.644277,4.73233315 C109.810903,4.78743967 109.991904,4.77989793 110.153368,4.71112103 L110.662459,4.71112103 L111.129126,8.69899982 L110.153368,8.69899982 C109.7201,6.81891987 108.072798,5.46795776 106.144277,5.41112103 C104.765489,5.41112103 103.747307,6.13233315 103.747307,7.10809072 C103.747307,9.35657557 107.820035,9.780818 110.556398,12.5171816 C111.459293,13.3535657 111.967608,14.5319327 111.956398,15.7626362 C111.869311,17.0594272 111.270584,18.2684932 110.291959,19.1237961 C109.313333,19.979099 108.034992,20.41056 106.738217,20.3232422 C105.300147,20.2135524 103.877925,19.9504413 102.495792,19.5383938 C102.256614,19.5480224 102.050954,19.7108367 101.986701,19.9414241 L101.350338,19.9414241 L100.77761,15.3171816 Z" id="Path" fill-rule="nonzero"></path>
            <path d="M116.432156,15.3171816 L117.386701,15.3171816 C118.192762,17.7565756 119.635186,19.0080907 121.629126,19.0080907 C122.328508,19.0725738 123.024352,18.8523633 123.559302,18.3972563 C124.094253,17.9421493 124.423125,17.2905867 124.47155,16.5899089 C124.47155,12.9414241 116.601853,13.0686968 116.601853,8.10506042 C116.601853,5.75051497 118.723065,4.09596951 121.565489,4.09596951 C122.829982,4.16633641 124.082423,4.3798206 125.298823,4.73233315 C125.465448,4.78743967 125.64645,4.77989793 125.807914,4.71112103 L126.423065,4.71112103 L126.889732,8.69899982 L125.913974,8.69899982 C125.480706,6.81891987 123.833404,5.46795776 121.904883,5.41112103 C120.547307,5.41112103 119.507914,6.13233315 119.507914,7.10809072 C119.507914,9.35657557 123.580641,9.780818 126.338217,12.5171816 C127.228924,13.3603383 127.728474,14.5362021 127.717004,15.7626362 C127.635461,17.0615341 127.03833,18.2740132 126.058392,19.1304632 C125.078454,19.9869131 123.796944,20.4163353 122.498823,20.3232422 C121.061085,20.2110202 119.639128,19.9479583 118.256398,19.5383938 C118.044277,19.5383938 117.87458,19.6656665 117.747307,19.9414241 L117.110944,19.9414241 L116.432156,15.3171816 Z" id="Path" fill-rule="nonzero"></path>
            <path d="M141.801853,5.9838483 L136.435186,5.9838483 L136.435186,11.4989998 L140.401853,11.4989998 C141.759429,11.4989998 142.247307,11.0323331 142.247307,9.73839375 L143.223065,9.73839375 L143.223065,14.6171816 L142.247307,14.6171816 C142.247307,13.3020301 141.929126,12.8565756 140.126095,12.8565756 L136.520035,12.8565756 L136.520035,17.2686968 C136.520035,18.3293028 136.710944,18.5414241 137.432156,18.5414241 L141.526095,18.5414241 C143.117004,18.5414241 143.880641,18.1171816 144.347307,16.0383938 L145.280641,16.0383938 L144.983671,19.8989998 L130.135186,19.8989998 L130.135186,18.9444544 L131.132156,18.9444544 C132.553368,18.9444544 133.041247,18.3717271 133.041247,17.1838483 L133.041247,7.3838483 C133.041247,6.04748466 132.617004,5.580818 130.920035,5.580818 L130.665489,5.580818 L130.665489,4.71112103 L144.198823,4.71112103 L144.432156,8.27475739 L143.498823,8.27475739 C143.265489,6.59899982 142.947307,6.15354527 141.801853,6.15354527" id="Path" fill-rule="nonzero"></path>
            <path d="M158.644277,17.1202119 C158.644277,18.3080907 159.004883,18.9444544 160.765489,18.9444544 L161.126095,18.9444544 L161.126095,19.8989998 L152.789732,19.8989998 L152.789732,18.9444544 L153.404883,18.9444544 C154.86852,18.9444544 155.250338,18.2868786 155.250338,17.1838483 L155.250338,13.7686968 L149.989732,6.83233315 C149.589421,6.04678647 148.744929,5.59076082 147.86852,5.6868786 L147.635186,5.6868786 L147.635186,4.71112103 L155.632156,4.71112103 L155.632156,5.6868786 L155.356398,5.6868786 C153.935186,5.6868786 153.723065,6.25960588 154.253368,6.91718163 L158.17761,12.1141513 L161.020035,7.63839375 C161.656398,6.64142406 161.847307,5.6868786 160.129126,5.6868786 L159.832156,5.6868786 L159.832156,4.71112103 L165.623065,4.71112103 L165.623065,5.6868786 C164.201853,5.6868786 163.798823,6.04748466 162.907914,7.3838483 L158.665489,13.7474847 L158.644277,17.1202119 Z" id="Path" fill-rule="nonzero"></path>
            <path d="M63.3382166,24.3959695 L67.0291256,24.3959695 L67.0291256,24.9474847 L67.0291256,24.9474847 C65.9048832,24.9474847 65.7351862,25.4353635 65.7351862,26.1141513 L65.7351862,29.6141513 C65.8155797,30.6690579 65.4144928,31.7037196 64.6440823,32.4288117 C63.8736719,33.1539039 62.8166227,33.4916056 61.7685196,33.3474847 C59.2442772,33.3474847 57.6321559,32.2444544 57.6321559,30.080818 L57.6321559,25.9232422 C57.6321559,25.2232422 57.4412469,24.9686968 56.6351862,24.9686968 L56.4018529,24.9686968 L56.4018529,24.4171816 L60.6654893,24.4171816 L60.6654893,24.9686968 L60.4533681,24.9686968 C59.8594287,24.9686968 59.4351862,25.2232422 59.4351862,25.9232422 L59.4351862,30.1656665 C59.4095159,30.8324361 59.6813176,31.476165 60.1770869,31.9227671 C60.6728562,32.3693692 61.3413749,32.5727057 62.0018529,32.4777877 C62.7285953,32.5752133 63.4606135,32.3405665 63.9952854,31.8387975 C64.5299573,31.3370284 64.8105622,30.6213674 64.7594287,29.8899089 L64.7594287,26.3899089 C64.7594287,25.3929392 64.462459,24.9474847 63.592762,24.9474847 L63.3382166,24.9474847 L63.3382166,24.3959695 Z" id="Path" fill-rule="nonzero"></path>
            <path d="M71.5260953,31.4596059 C71.5260953,32.3080907 71.8018529,32.6050604 72.9260953,32.6050604 L72.9260953,33.1353635 L69.5109438,33.1353635 L69.5109438,32.6050604 L69.5109438,32.6050604 C70.3806408,32.6050604 70.592762,32.2868786 70.592762,31.7141513 L70.592762,25.2444544 C70.2563629,25.0347588 69.8645925,24.9312723 69.4685196,24.9474847 L69.4685196,24.3959695 L72.3533681,24.3959695 L78.1018529,30.3777877 L78.1018529,26.1353635 C78.1018529,25.1171816 77.8897317,24.9474847 76.7654893,24.9474847 L76.6170044,24.9474847 L76.6170044,24.3959695 L80.2654893,24.3959695 L80.2654893,24.9474847 L80.1170044,24.9474847 C79.2473075,24.9474847 78.9503378,25.1171816 78.9503378,25.6474847 L78.9503378,33.1777877 L78.2715499,33.1777877 L71.5260953,26.1353635 L71.5260953,31.4596059 Z" id="Path" fill-rule="nonzero"></path>
            <path d="M83.0654893,24.3959695 L87.5412469,24.3959695 L87.5412469,24.9474847 L87.3079135,24.9474847 C86.5442772,24.9474847 86.2260953,25.2656665 86.2260953,25.9868786 L86.2260953,31.5656665 C86.2260953,32.2656665 86.4594287,32.6050604 87.3291256,32.6050604 L87.5412469,32.6050604 L87.5412469,33.1353635 L83.0654893,33.1353635 L83.0654893,32.6050604 L83.2563984,32.6050604 C83.9988226,32.6050604 84.2957923,32.2444544 84.2957923,31.6293028 L84.2957923,25.9232422 C84.2957923,25.2020301 84.0412469,24.8838483 83.2351862,24.8838483 L83.0654893,24.8838483 L83.0654893,24.3959695 Z" id="Path" fill-rule="nonzero"></path>
            <path d="M91.6139741,26.1141513 C91.1685196,25.1171816 90.9563984,24.9474847 90.1503378,24.9474847 L90.1503378,24.9474847 L90.1503378,24.3959695 L95.0291256,24.3959695 L95.0291256,24.9474847 L94.7957923,24.9474847 C93.6079135,24.9474847 93.4170044,25.3293028 93.8200347,26.1565756 L95.9412469,30.8656665 L98.062459,25.7323331 C98.2533681,25.2656665 97.9351862,24.9474847 97.1291256,24.9474847 L96.8321559,24.9474847 L96.8321559,24.3959695 L100.417004,24.3959695 L100.417004,24.9474847 L100.417004,24.9474847 C99.5897317,24.9474847 99.292762,25.3080907 98.8260953,26.4323331 L95.8351862,33.3474847 L94.9442772,33.3474847 L91.6139741,26.1141513 Z" id="Path" fill-rule="nonzero"></path>
            <path d="M109.050338,25.1596059 L105.97458,25.1596059 L105.97458,28.3414241 L108.244277,28.3414241 C109.029126,28.3414241 109.304883,28.0656665 109.304883,27.3232422 L109.87761,27.3232422 L109.87761,30.1656665 L109.304883,30.1656665 C109.304883,29.4020301 109.113974,29.1474847 108.032156,29.1474847 L105.910944,29.1474847 L105.910944,31.6929392 C105.910944,32.2868786 105.910944,32.4141513 106.420035,32.4141513 L108.77458,32.4141513 C109.686701,32.4141513 110.132156,32.1596059 110.407914,30.9717271 L110.938217,30.9717271 L110.76852,33.1989998 L102.283671,33.1989998 L102.283671,32.6474847 L102.856398,32.6474847 C103.683671,32.6474847 103.959429,32.3080907 103.959429,31.6293028 L103.959429,25.9232422 C103.959429,25.1596059 103.704883,24.9050604 102.750338,24.9050604 L102.665489,24.9050604 L102.665489,24.3535453 L110.429126,24.3535453 L110.556398,26.4747574 L110.026095,26.4747574 C109.87761,25.5202119 109.707914,25.2020301 109.050338,25.2020301" id="Path" fill-rule="nonzero"></path>
            <path d="M116.835186,31.5656665 C116.835186,32.2868786 117.153368,32.6050604 117.959429,32.6050604 L118.383671,32.6050604 L118.383671,33.1565756 L113.462459,33.1565756 L113.462459,32.6050604 L113.695792,32.6050604 C114.544277,32.6050604 114.926095,32.3929392 114.926095,31.5656665 L114.926095,25.9232422 C114.926095,25.2444544 114.735186,24.8626362 113.801853,24.8626362 L113.483671,24.8626362 L113.483671,24.311121 L115.286701,24.1838483 L117.598823,24.1838483 C119.720035,24.1838483 120.801853,24.4383938 121.501853,25.1596059 C121.943867,25.5693858 122.190682,26.147858 122.180641,26.750515 C122.108995,27.9177167 121.219124,28.8698785 120.059429,29.0202119 C120.97155,29.8050604 121.480641,30.9080907 122.47761,31.9050604 C122.949016,32.4281199 123.618935,32.7284284 124.323065,32.7323331 L124.323065,33.2838483 L123.453368,33.2838483 C121.713974,33.2838483 120.992762,33.0293028 120.335186,32.3717271 C119.67761,31.7141513 118.807914,30.250515 117.917004,29.4020301 L116.792762,29.4020301 L116.835186,31.5656665 Z M116.835186,28.8293028 L117.386701,28.8293028 C119.104883,28.8293028 120.080641,28.3202119 120.080641,26.8141513 C120.080641,25.3080907 118.935186,24.6929392 117.57761,24.6929392 L116.835186,24.6929392 L116.835186,28.8293028 Z" id="Shape" fill-rule="nonzero"></path>
            <path d="M126.529126,30.5474847 L127.080641,30.5474847 C127.547307,31.9474847 128.37458,32.6686968 129.47761,32.6686968 C129.880818,32.709934 130.283628,32.5869131 130.594997,32.3274392 C130.906365,32.0679654 131.100008,31.693943 131.132156,31.2899089 C131.132156,29.1686968 126.613974,29.1686968 126.613974,26.4747574 C126.613974,25.1171816 127.780641,24.1838483 129.456398,24.1838483 C130.174408,24.2271755 130.885619,24.3480814 131.57761,24.5444544 C131.70079,24.5461891 131.817999,24.4914917 131.895792,24.3959695 L132.192762,24.3959695 L132.447307,26.6656665 L131.895792,26.6656665 C131.660598,25.5823262 130.713204,24.8016033 129.604883,24.7777877 C128.798823,24.7777877 128.226095,25.2020301 128.226095,25.7535453 C128.226095,27.0474847 130.559429,27.280818 132.129126,28.8717271 C132.646529,29.345331 132.939361,30.0157622 132.93523,30.7171816 C132.886233,31.4660538 132.540924,32.1645604 131.975644,32.6581848 C131.410364,33.1518092 130.671705,33.3998667 129.923065,33.3474847 C129.11069,33.2832746 128.307299,33.1339718 127.526095,32.9020301 C127.392363,32.9032995 127.273699,32.9880598 127.229126,33.1141513 L126.86852,33.1141513 L126.529126,30.5474847 Z" id="Path" fill-rule="nonzero"></path>
            <path d="M135.798823,24.3959695 L140.27458,24.3959695 L140.27458,24.9474847 L140.041247,24.9474847 C139.27761,24.9474847 138.959429,25.2656665 138.959429,25.9868786 L138.959429,31.5656665 C138.959429,32.2656665 139.192762,32.6050604 140.062459,32.6050604 L140.27458,32.6050604 L140.27458,33.1353635 L135.798823,33.1353635 L135.798823,32.6050604 L135.989732,32.6050604 C136.732156,32.6050604 137.029126,32.2444544 137.029126,31.6293028 L137.029126,25.9232422 C137.029126,25.2020301 136.77458,24.8838483 135.989732,24.8838483 L135.798823,24.8838483 L135.798823,24.3959695 Z" id="Path" fill-rule="nonzero"></path>
            <path d="M148.547307,31.5444544 C148.547307,32.2656665 148.759429,32.6050604 149.756398,32.6050604 L150.095792,32.6050604 L150.095792,33.1565756 L145.026095,33.1565756 L145.026095,32.6050604 L145.513974,32.6050604 C146.298823,32.6050604 146.595792,32.2868786 146.595792,31.5444544 L146.595792,25.180818 L144.941247,25.180818 C143.859429,25.180818 143.689732,25.350515 143.413974,26.8565756 L142.841247,26.8565756 L143.095792,24.2050604 L143.541247,24.2050604 C143.620864,24.2904641 143.714036,24.3621352 143.817004,24.4171816 L144.220035,24.4171816 L150.923065,24.4171816 C151.17819,24.4560763 151.43521,24.3596939 151.601853,24.1626362 L152.047307,24.1626362 L152.301853,26.8141513 L151.729126,26.8141513 C151.453368,25.3293028 151.283671,25.1383938 150.201853,25.1383938 L148.547307,25.1383938 L148.547307,31.5444544 Z" id="Path" fill-rule="nonzero"></path>
            <path d="M160.723065,31.5656665 C160.723065,32.2232422 160.935186,32.6050604 161.953368,32.6050604 L162.165489,32.6050604 L162.165489,33.1565756 L157.350338,33.1565756 L157.350338,32.6050604 L157.710944,32.6050604 C158.559429,32.6050604 158.77155,32.2232422 158.77155,31.5868786 L158.77155,29.6353635 L155.759429,25.6050604 C155.503232,25.1418229 154.990706,24.8813588 154.465489,24.9474847 L154.465489,24.9474847 L154.465489,24.3959695 L159.047307,24.3959695 L159.047307,24.9474847 L158.87761,24.9474847 C158.050338,24.9474847 157.944277,25.2868786 158.241247,25.6474847 L160.362459,28.6171816 L161.995792,26.0717271 C162.37761,25.4989998 162.483671,24.9474847 161.507914,24.9474847 L161.317004,24.9474847 L161.317004,24.3959695 L164.604883,24.3959695 L164.604883,24.9474847 C163.77761,24.9474847 163.544277,25.1596059 163.035186,25.9232422 L160.638217,29.6353635 L160.723065,31.5656665 Z" id="Path" fill-rule="nonzero"></path>
            <path d="M60.3048832,44.0596059 C60.3048832,44.3989998 60.3048832,44.5474847 60.8351862,44.5474847 L60.9836711,44.5474847 L60.9836711,44.780818 L58.862459,44.780818 L58.862459,44.5474847 L59.0533681,44.5474847 C59.392762,44.5474847 59.5412469,44.3989998 59.5412469,44.0596059 L59.5412469,41.111121 L58.8200347,41.111121 C58.3321559,41.111121 58.2685196,41.111121 58.1412469,41.8747574 L57.8867014,41.8747574 L58.0139741,40.6656665 L58.2048832,40.6656665 L58.3109438,40.6656665 L58.5018529,40.6656665 L61.4291256,40.6656665 C61.538231,40.6822429 61.646712,40.6321748 61.7048832,40.5383938 L61.9170044,40.5383938 L62.023065,41.7474847 L61.7685196,41.7474847 C61.7685196,41.0686968 61.5776105,40.9838483 61.1109438,40.9838483 L60.3897317,40.9838483 L60.3048832,44.0596059 Z" id="Path" fill-rule="nonzero"></path>
            <path d="M65.5442772,41.1323331 L64.2079135,41.1323331 L64.2079135,42.5959695 L65.2048832,42.5959695 C65.523065,42.5959695 65.6503378,42.4686968 65.6503378,42.1293028 L65.9048832,42.1293028 L65.9048832,43.4020301 L65.6503378,43.4020301 C65.6503378,43.0626362 65.6503378,42.9353635 65.0988226,42.9353635 L64.2079135,42.9353635 L64.2079135,44.1020301 C64.2079135,44.3777877 64.2079135,44.4414241 64.4200347,44.4414241 L65.4594287,44.4414241 C65.862459,44.4414241 66.0533681,44.3141513 66.1594287,43.7838483 L66.392762,43.7838483 L66.392762,44.780818 L62.6170044,44.780818 L62.6170044,44.5474847 L62.7867014,44.5474847 C63.1473075,44.5474847 63.2745802,44.3989998 63.2745802,44.080818 L63.2745802,41.4929392 C63.2745802,41.1535453 63.1473075,41.0262725 62.7442772,41.0262725 L62.7442772,41.0262725 L62.7442772,40.7717271 L66.1170044,40.7717271 L66.1170044,41.7050604 L65.9685196,41.7050604 C65.9685196,41.280818 65.8200347,41.1323331 65.5442772,41.1323331" id="Path" fill-rule="nonzero"></path>
            <path d="M71.2715499,44.0596059 C71.2715499,44.4202119 71.4200347,44.5474847 71.7382166,44.5474847 L71.7382166,44.5474847 L71.7382166,44.780818 L69.7442772,44.780818 L69.7442772,44.5474847 L69.7442772,44.5474847 C70.062459,44.5474847 70.2321559,44.4202119 70.2321559,44.0596059 L70.2321559,41.5141513 C70.2321559,41.1747574 70.1048832,41.0262725 69.7442772,41.0262725 L69.7442772,41.0262725 L69.7442772,40.7717271 L71.7382166,40.7717271 L71.7382166,41.0050604 L71.7382166,41.0050604 C71.3563984,41.0050604 71.292762,41.1747574 71.292762,41.5353635 L71.292762,42.680818 C71.6097469,42.6162058 71.8945736,42.4438107 72.0988226,42.1929392 C72.3687623,41.9173447 72.5719441,41.583546 72.692762,41.2171816 C72.692762,41.0899089 72.692762,41.0050604 72.3109438,41.0050604 L72.3109438,41.0050604 L72.3109438,40.7717271 L73.9654893,40.7717271 L73.9654893,41.0050604 C73.5836711,41.0050604 73.4563984,41.0050604 73.2867014,41.2383938 C72.9910631,41.695863 72.6499348,42.1222733 72.2685196,42.511121 C72.5284948,42.7024807 72.7513417,42.9397048 72.9260953,43.211121 L73.4563984,43.911121 C73.7745802,44.3353635 74.0079135,44.5262725 74.3897317,44.5262725 L74.3897317,44.7596059 L72.2685196,44.7596059 L72.2685196,44.5262725 C72.5442772,44.5262725 72.7139741,44.5262725 72.7139741,44.3353635 C72.4502321,43.8921893 72.1292928,43.4856661 71.7594287,43.1262725 C71.4836711,42.8929392 71.3776105,42.8929392 71.2715499,42.8929392 L71.2715499,44.0596059 Z" id="Path" fill-rule="nonzero"></path>
            <path d="M77.8685196,40.7717271 L79.4594287,40.7717271 L79.4594287,41.0262725 L79.4594287,41.0262725 C78.9715499,41.0262725 78.8867014,41.2596059 78.8867014,41.5777877 L78.8867014,43.1686968 C78.9418281,43.6391369 78.7786114,44.1089336 78.4436839,44.4438611 C78.1087564,44.7787886 77.6389597,44.9420053 77.1685196,44.8868786 C76.0654893,44.8868786 75.3654893,44.3777877 75.3654893,43.4020301 L75.3654893,41.4717271 C75.3654893,41.1535453 75.3654893,41.0262725 74.9200347,41.0262725 L74.8139741,41.0262725 L74.8139741,40.7717271 L76.7442772,40.7717271 L76.7442772,41.0262725 L76.6382166,41.0262725 C76.5177592,41.0109126 76.3971783,41.0537671 76.3134317,41.1417011 C76.229685,41.2296351 76.19276,41.3521618 76.2139741,41.4717271 L76.2139741,43.4020301 C76.1921733,43.6953254 76.3038257,43.9828079 76.5178716,44.184505 C76.7319175,44.3862022 77.0255202,44.4805946 77.3170044,44.4414241 C77.6446636,44.4821167 77.972968,44.3709485 78.2084949,44.1395537 C78.4440217,43.9081589 78.5609828,43.5818733 78.5260953,43.2535453 L78.5260953,41.7050604 C78.5260953,41.2383938 78.3988226,41.0262725 78.0170044,41.0262725 L78.0170044,41.0262725 L77.8685196,40.7717271 Z" id="Path" fill-rule="nonzero"></path>
            <path d="M81.0291256,44.0171816 C81.0291256,44.4202119 81.1563984,44.5262725 81.6442772,44.5262725 L81.6442772,44.780818 L80.1594287,44.780818 L80.1594287,44.5262725 L80.1594287,44.5262725 C80.5412469,44.5262725 80.6260953,44.3989998 80.6260953,44.1232422 L80.6260953,41.1747574 C80.4861029,41.0692087 80.3132738,41.0166085 80.1382166,41.0262725 L80.1382166,40.7717271 L81.4109438,40.7717271 L83.9988226,43.5293028 L83.9988226,41.5777877 C83.9988226,41.111121 83.9988226,41.0262725 83.4048832,41.0262725 L83.4048832,41.0262725 L83.4048832,40.7717271 L84.9745802,40.7717271 L84.9745802,41.0262725 L84.9745802,41.0262725 C84.592762,41.0262725 84.4867014,41.0262725 84.4867014,41.3656665 L84.4867014,44.8020301 L83.9988226,44.8020301 L81.0291256,41.5777877 L81.0291256,44.0171816 Z" id="Path" fill-rule="nonzero"></path>
            <path d="M88.4321559,41.1323331 L87.0745802,41.1323331 L87.0745802,42.5959695 L88.0715499,42.5959695 C88.4109438,42.5959695 88.5382166,42.4686968 88.5382166,42.1293028 L88.792762,42.1293028 L88.792762,43.4020301 L88.5382166,43.4020301 C88.5382166,43.0626362 88.5382166,42.9353635 87.9867014,42.9353635 L87.0745802,42.9353635 L87.0745802,44.1020301 C87.0745802,44.3777877 87.0745802,44.4414241 87.3079135,44.4414241 L88.2412469,44.4414241 C88.6442772,44.4414241 88.8351862,44.3141513 88.962459,43.7838483 L89.1957923,43.7838483 L89.1957923,44.780818 L85.5048832,44.780818 L85.5048832,44.5474847 L85.7594287,44.5474847 C86.1200347,44.5474847 86.2260953,44.3989998 86.2260953,44.080818 L86.2260953,41.4929392 C86.2260953,41.1535453 86.2260953,41.0262725 85.6957923,41.0262725 L85.6957923,41.0262725 L85.6957923,40.7717271 L89.0897317,40.7717271 L89.0897317,41.7050604 L88.8563984,41.7050604 C88.8563984,41.280818 88.7079135,41.1323331 88.4321559,41.1323331" id="Path" fill-rule="nonzero"></path>
            <path d="M91.0200347,44.0171816 C91.0200347,44.4202119 91.1473075,44.5262725 91.6351862,44.5262725 L91.6351862,44.780818 L90.1503378,44.780818 L90.1503378,44.5262725 L90.1503378,44.5262725 C90.5109438,44.5262725 90.6170044,44.3989998 90.6170044,44.1232422 L90.6170044,41.1747574 C90.4754407,41.0723342 90.3037465,41.0200794 90.1291256,41.0262725 L90.1291256,40.7717271 L91.3806408,40.7717271 L93.8836711,43.5293028 L93.8836711,41.5777877 C93.8836711,41.111121 93.8836711,41.0262725 93.3109438,41.0262725 L93.3109438,41.0262725 L93.3109438,40.7717271 L94.9018529,40.7717271 L94.9018529,41.0262725 L94.9018529,41.0262725 C94.5200347,41.0262725 94.392762,41.0262725 94.392762,41.3656665 L94.392762,44.8020301 L93.9685196,44.8020301 L91.0200347,41.5777877 L91.0200347,44.0171816 Z" id="Path" fill-rule="nonzero"></path>
            <path d="M100.162459,43.1050604 C99.8442772,43.1050604 99.7382166,43.1050604 99.7382166,43.5080907 L99.7382166,44.4838483 C99.2338407,44.7264211 98.6852847,44.8635601 98.1260953,44.8868786 C97.5347386,44.9343423 96.9505286,44.7319927 96.5152189,44.3289282 C96.0799092,43.9258636 95.8332845,43.3589218 95.8351753,42.7656665 C95.834459,42.1842184 96.0724428,41.6279621 96.4934918,41.2269631 C96.9145408,40.8259641 97.4817377,40.6153815 98.062459,40.6444544 C98.5137317,40.684139 98.960803,40.7621991 99.3988226,40.8777877 C99.4529242,40.9013996 99.514418,40.9013996 99.5685196,40.8777877 L99.7382166,40.8777877 L99.7382166,42.0444544 L99.4836711,42.0444544 C99.369888,41.433845 98.8319752,40.9945495 98.2109438,41.0050604 C97.3412469,41.0050604 96.7473075,41.7262725 96.7473075,42.7656665 C96.693825,43.2083567 96.821292,43.6538935 97.1008222,44.0013095 C97.3803523,44.3487255 97.7882782,44.5686057 98.2321559,44.611121 C98.4624244,44.6131001 98.6891764,44.5545835 98.8897317,44.4414241 L98.8897317,43.550515 C98.8897317,43.2323331 98.762459,43.1686968 98.1260953,43.1474847 L98.1260953,42.8929392 L100.247307,42.8929392 L100.162459,43.1050604 Z" id="Path" fill-rule="nonzero"></path>
            <path d="M102.198823,43.2959695 L101.944277,44.0596059 C101.838217,44.3777877 101.838217,44.5474847 102.432156,44.5474847 L102.432156,44.5474847 L102.432156,44.780818 L100.96852,44.780818 L100.96852,44.5474847 L100.96852,44.5474847 C101.265489,44.5474847 101.413974,44.3989998 101.583671,43.9535453 L102.623065,40.8777877 L102.623065,40.6868786 L103.535186,40.6868786 L104.765489,43.9535453 C104.913974,44.3777877 105.062459,44.5050604 105.380641,44.5474847 L105.380641,44.780818 L103.386701,44.780818 L103.386701,44.5474847 L103.598823,44.5474847 C103.959429,44.5474847 104.023065,44.3565756 103.895792,44.0383938 L103.620035,43.2959695 L102.198823,43.2959695 Z M102.835186,41.4293028 L102.326095,42.9353635 L103.407914,42.9353635 L102.835186,41.4293028 Z" id="Shape" fill-rule="nonzero"></path>
            <path d="M110.004883,44.0596059 C110.004883,44.4202119 110.17458,44.5474847 110.492762,44.5474847 L110.492762,44.5474847 L110.492762,44.780818 L108.498823,44.780818 L108.498823,44.5474847 L108.498823,44.5474847 C108.817004,44.5474847 108.965489,44.4202119 108.965489,44.0596059 L108.965489,41.5141513 C108.965489,41.1747574 108.965489,41.0262725 108.498823,41.0262725 L108.498823,41.0262725 L108.498823,40.7717271 L110.492762,40.7717271 L110.492762,41.0050604 L110.386701,41.0050604 C110.004883,41.0050604 109.920035,41.1747574 109.920035,41.5353635 L109.920035,42.680818 C110.243427,42.6174666 110.535377,42.445291 110.747307,42.1929392 C111.011418,41.9165895 111.20751,41.582506 111.320035,41.2171816 C111.320035,41.0899089 111.213974,41.0050604 110.959429,41.0050604 L110.959429,41.0050604 L110.959429,40.7717271 L112.592762,40.7717271 L112.592762,41.0050604 C112.349888,40.9820753 112.109251,41.0674624 111.935186,41.2383938 C111.632783,41.6909504 111.292142,42.1167516 110.917004,42.511121 C111.171979,42.7080531 111.393953,42.9443476 111.57458,43.211121 L112.104883,43.911121 C112.423065,44.3353635 112.656398,44.5262725 113.038217,44.5262725 L113.038217,44.7596059 L110.917004,44.7596059 L110.917004,44.5262725 C111.17155,44.5262725 111.341247,44.5262725 111.341247,44.3353635 C111.087266,43.891298 110.773189,43.484426 110.407914,43.1262725 C110.195792,42.9141513 110.110944,42.8929392 109.962459,42.8929392 L110.004883,44.0596059 Z" id="Path" fill-rule="nonzero"></path>
            <path d="M113.695792,40.7717271 L115.66852,40.7717271 L115.66852,41.0262725 L115.66852,41.0262725 C115.329126,41.0262725 115.201853,41.1747574 115.201853,41.5141513 L115.201853,44.0596059 C115.201853,44.3777877 115.201853,44.5474847 115.66852,44.5474847 L115.66852,44.5474847 L115.66852,44.780818 L113.695792,44.780818 L113.695792,44.5474847 L113.695792,44.5474847 C113.817614,44.5611528 113.939034,44.5186341 114.025715,44.4319529 C114.112396,44.3452716 114.154915,44.2238515 114.141247,44.1020301 L114.141247,41.5141513 C114.141247,41.1747574 114.013974,41.0262725 113.67458,41.0262725 L113.67458,41.0262725 L113.695792,40.7717271 Z" id="Path" fill-rule="nonzero"></path>
            <path d="M120.398823,44.0596059 C120.398823,44.4202119 120.526095,44.5474847 120.929126,44.5474847 L121.120035,44.5474847 L121.120035,44.780818 L118.998823,44.780818 L118.998823,44.5474847 L119.104883,44.5474847 C119.444277,44.5474847 119.529126,44.5474847 119.529126,44.1656665 L119.529126,41.4080907 C119.529126,41.111121 119.529126,41.0262725 119.104883,41.0262725 L118.956398,41.0262725 L118.956398,40.7717271 L120.059429,40.7717271 L121.035186,40.7717271 C122.223065,40.7717271 122.732156,41.3656665 122.732156,42.0232422 C122.732156,42.680818 122.138217,43.2535453 121.183671,43.2535453 L120.483671,43.2535453 L120.398823,44.0596059 Z M120.398823,42.8293028 C120.546326,42.8534474 120.696774,42.8534474 120.844277,42.8293028 C121.417004,42.8293028 121.735186,42.4899089 121.735186,41.8535453 C121.768267,41.6049007 121.686747,41.3546756 121.513552,41.1732324 C121.340356,40.9917892 121.094191,40.898726 120.844277,40.9202119 L120.398823,40.9202119 L120.398823,42.8293028 Z" id="Shape" fill-rule="nonzero"></path>
            <path d="M126.423065,40.7717271 L128.013974,40.7717271 L128.013974,41.0262725 L128.013974,41.0262725 C127.526095,41.0262725 127.462459,41.2596059 127.462459,41.5777877 L127.462459,43.1686968 C127.510448,43.6412854 127.341849,44.1101853 127.003906,44.4440075 C126.665963,44.7778296 126.195029,44.9406623 125.723065,44.8868786 C124.620035,44.8868786 123.920035,44.3777877 123.920035,43.4020301 L123.920035,41.4717271 C123.920035,41.1535453 123.920035,41.0262725 123.495792,41.0262725 L123.495792,41.0262725 L123.495792,40.7717271 L125.426095,40.7717271 L125.426095,41.0262725 L125.426095,41.0262725 C125.304274,41.0126044 125.182854,41.0551231 125.096173,41.1418043 C125.009491,41.2284856 124.966973,41.3499057 124.980641,41.4717271 L124.980641,43.4020301 C124.95884,43.6953254 125.070492,43.9828079 125.284538,44.184505 C125.498584,44.3862022 125.792187,44.4805946 126.083671,44.4414241 C126.41133,44.4821167 126.739635,44.3709485 126.975162,44.1395537 C127.210688,43.9081589 127.327649,43.5818733 127.292762,43.2535453 L127.292762,41.7050604 C127.292762,41.2383938 127.165489,41.0262725 126.783671,41.0262725 L126.423065,41.0262725 L126.423065,40.7717271 Z" id="Path" fill-rule="nonzero"></path>
            <path d="M130.135186,44.0596059 C130.135186,44.3989998 130.262459,44.5474847 130.623065,44.5474847 L130.792762,44.5474847 L130.792762,44.780818 L128.67155,44.780818 L128.67155,44.5474847 L128.67155,44.5474847 C129.032156,44.5474847 129.201853,44.4414241 129.201853,44.0596059 L129.201853,41.5141513 C129.201853,41.2171816 129.201853,41.0262725 128.713974,41.0262725 L128.586701,41.0262725 L128.586701,40.7717271 L129.37155,40.7717271 L130.36852,40.7717271 C130.977837,40.6832909 131.597104,40.8438416 132.086701,41.2171816 C132.34855,41.5050781 132.431698,41.9132571 132.303335,42.2806421 C132.174971,42.6480271 131.855714,42.9156066 131.47155,42.9777877 C131.87458,43.3383938 132.086701,43.8474847 132.532156,44.3141513 C132.731668,44.5537056 133.026472,44.6933494 133.338217,44.6959695 L133.338217,44.950515 L132.956398,44.950515 C132.45634,45.0242847 131.949701,44.8683958 131.57761,44.5262725 C131.280641,44.2080907 130.920035,43.5293028 130.538217,43.1686968 L130.050338,43.1686968 L130.135186,44.0596059 Z M130.135186,42.8080907 L130.36852,42.8080907 C131.110944,42.8080907 131.535186,42.5747574 131.535186,41.8959695 C131.535186,41.2171816 131.047307,40.9626362 130.453368,40.9626362 L130.135186,40.9626362 L130.135186,42.8080907 Z" id="Shape" fill-rule="nonzero"></path>
            <path d="M136.753368,41.1323331 L135.417004,41.1323331 L135.417004,42.5959695 L136.392762,42.5959695 C136.732156,42.5959695 136.859429,42.4686968 136.859429,42.1293028 L137.029126,42.1293028 L137.029126,43.4020301 L136.77458,43.4020301 C136.77458,43.0626362 136.77458,42.9353635 136.223065,42.9353635 L135.332156,42.9353635 L135.332156,44.1020301 C135.332156,44.3777877 135.332156,44.4414241 135.544277,44.4414241 L136.583671,44.4414241 C136.986701,44.4414241 137.17761,44.3141513 137.283671,43.7838483 L137.517004,43.7838483 L137.517004,44.780818 L133.826095,44.780818 L133.826095,44.5474847 L134.080641,44.5474847 C134.441247,44.5474847 134.56852,44.3989998 134.56852,44.080818 L134.56852,41.4929392 C134.56852,41.1535453 134.441247,41.0262725 134.017004,41.0262725 L134.017004,41.0262725 L134.017004,40.7717271 L137.389732,40.7717271 L137.389732,41.7050604 L137.156398,41.7050604 C137.156398,41.280818 137.007914,41.1323331 136.732156,41.1323331" id="Path" fill-rule="nonzero"></path>
            <path d="M141.441247,44.5474847 C141.759429,44.5474847 141.886701,44.3989998 141.886701,44.0383938 L141.886701,42.8929392 L139.765489,42.8929392 L139.765489,44.0596059 C139.765489,44.3989998 139.892762,44.5474847 140.232156,44.5474847 L140.232156,44.5474847 L140.232156,44.780818 L138.259429,44.780818 L138.259429,44.5474847 L138.259429,44.5474847 C138.556398,44.5474847 138.704883,44.3989998 138.704883,44.0596059 L138.704883,41.4929392 C138.704883,41.1747574 138.57761,41.0262725 138.238217,41.0262725 L138.238217,41.0262725 L138.238217,40.7717271 L140.210944,40.7717271 L140.210944,41.0262725 L140.210944,41.0262725 C139.87155,41.0262725 139.723065,41.1535453 139.723065,41.4929392 L139.723065,42.511121 L141.844277,42.511121 L141.844277,41.5141513 C141.844277,41.1535453 141.717004,41.0262725 141.356398,41.0262725 L141.356398,41.0262725 L141.356398,40.7717271 L143.392762,40.7717271 L143.392762,41.0262725 L143.392762,41.0262725 C143.07458,41.0262725 142.947307,41.1535453 142.947307,41.4929392 L142.947307,44.0596059 C142.947307,44.3989998 142.947307,44.5474847 143.413974,44.5474847 L143.413974,44.5474847 L143.413974,44.780818 L141.27155,44.780818 L141.27155,44.5474847 L141.441247,44.5474847 Z" id="Path" fill-rule="nonzero"></path>
            <path d="M147.083671,40.7717271 L148.67458,40.7717271 L148.67458,41.0262725 L148.67458,41.0262725 C148.165489,41.0262725 148.101853,41.2596059 148.101853,41.5777877 L148.101853,43.1686968 C148.15698,43.6391369 147.993763,44.1089336 147.658835,44.4438611 C147.323908,44.7787886 146.854111,44.9420053 146.383671,44.8868786 C145.259429,44.8868786 144.580641,44.3777877 144.580641,43.4020301 L144.580641,41.4717271 C144.580641,41.1535453 144.580641,41.0262725 144.135186,41.0262725 L144.135186,41.0262725 L144.135186,40.7717271 L146.044277,40.7717271 L146.044277,41.0262725 L146.044277,41.0262725 C145.92382,41.0109126 145.803239,41.0537671 145.719492,41.1417011 C145.635746,41.2296351 145.598821,41.3521618 145.620035,41.4717271 L145.620035,43.4020301 C145.598234,43.6953254 145.709886,43.9828079 145.923932,44.184505 C146.137978,44.3862022 146.431581,44.4805946 146.723065,44.4414241 C147.050724,44.4821167 147.379029,44.3709485 147.614556,44.1395537 C147.850082,43.9081589 147.967043,43.5818733 147.932156,43.2535453 L147.932156,41.7050604 C147.932156,41.2383938 147.804883,41.0262725 147.423065,41.0262725 L147.317004,41.0262725 L147.083671,40.7717271 Z" id="Path" fill-rule="nonzero"></path>
            <path d="M150.753368,44.0596059 C150.753368,44.3989998 150.901853,44.5474847 151.241247,44.5474847 L151.432156,44.5474847 L151.432156,44.780818 L149.310944,44.780818 L149.310944,44.5474847 L149.310944,44.5474847 C149.692762,44.5474847 149.841247,44.4414241 149.841247,44.0596059 L149.841247,41.5141513 C149.841247,41.2171816 149.841247,41.0262725 149.353368,41.0262725 L149.226095,41.0262725 L149.226095,40.7717271 L150.032156,40.7717271 L151.029126,40.7717271 C151.631904,40.6817864 152.245207,40.8427786 152.726095,41.2171816 C152.926596,41.4108712 153.034676,41.6810713 153.023065,41.9596059 C152.999133,42.4724333 152.618062,42.8978147 152.110944,42.9777877 C152.513974,43.3383938 152.726095,43.8474847 153.17155,44.3141513 C153.376098,44.5471205 153.667771,44.6852814 153.97761,44.6959695 L153.97761,44.950515 L153.595792,44.950515 C153.10222,45.023901 152.602179,44.867638 152.238217,44.5262725 C151.920035,44.2080907 151.580641,43.5293028 151.17761,43.1686968 L150.689732,43.1686968 L150.753368,44.0596059 Z M150.753368,42.8080907 L151.007914,42.8080907 C151.750338,42.8080907 152.17458,42.5747574 152.17458,41.8959695 C152.17458,41.2171816 151.665489,40.9626362 151.07155,40.9626362 L150.753368,40.9626362 L150.753368,42.8080907 Z" id="Shape" fill-rule="nonzero"></path>
            <path d="M157.138217,40.7717271 C158.30973,40.7717271 159.259446,41.7214261 159.259446,42.8929392 C159.261853,43.4902143 159.012358,44.0608344 158.572239,44.4646141 C158.132119,44.8683937 157.542163,45.0679115 156.947307,45.0141513 C156.363019,45.0492729 155.790187,44.8413918 155.364412,44.4397173 C154.938637,44.0380427 154.697768,43.4782816 154.698783,42.8929392 C154.695147,42.2874955 154.950366,41.7093359 155.400195,41.3040841 C155.850025,40.8988323 156.451589,40.7051159 157.053368,40.7717271 M157.053368,44.7171816 C157.923065,44.7171816 158.304883,43.9323331 158.304883,43.0414241 C158.304883,42.150515 157.817004,41.0474847 156.883671,41.0474847 C155.950338,41.0474847 155.610944,41.6838483 155.610944,42.6383938 C155.610944,43.5929392 156.204883,44.7596059 157.053368,44.7596059" id="Shape" fill-rule="nonzero"></path>
            <path d="M161.550338,43.2959695 L161.295792,44.0596059 C161.295792,44.3777877 161.295792,44.5474847 161.783671,44.5474847 L161.783671,44.5474847 L161.783671,44.780818 L160.17155,44.780818 L160.17155,44.5474847 L160.17155,44.5474847 C160.46852,44.5474847 160.617004,44.3989998 160.765489,43.9535453 L161.826095,40.8777877 L161.826095,40.6868786 L162.738217,40.6868786 L163.947307,43.9535453 C164.117004,44.3777877 164.244277,44.5050604 164.562459,44.5474847 L164.562459,44.780818 L162.56852,44.780818 L162.56852,44.5474847 L162.780641,44.5474847 C163.162459,44.5474847 163.226095,44.3565756 163.098823,44.0383938 L162.801853,43.2959695 L161.550338,43.2959695 Z M162.186701,41.4293028 L161.67761,42.9353635 L162.759429,42.9353635 L162.186701,41.4293028 Z" id="Shape" fill-rule="nonzero"></path>
            <rect id="Rectangle" fill-rule="nonzero" x="124.344277" y="39.6262725" width="2.99090909" height="1"></rect>
        </g>
    </g>
</svg>