<?xml version="1.0" encoding="UTF-8"?>
<svg width="319px" height="69px" viewBox="0 0 319 69" version="1.1" xmlns="http://www.w3.org/2000/svg" xmlns:xlink="http://www.w3.org/1999/xlink">
    <title>371934-_l_color</title>
    <g id="Page-1" stroke="none" stroke-width="1" fill="none" fill-rule="evenodd">
        <g id="371934-_l_color" transform="translate(0, 0)">
            <g id="Crest" transform="translate(0, -0)" fill-rule="nonzero">
                <path d="M26.141675,58.1599307 C25.0778122,56.9449868 24.4734878,54.7480157 23.1892984,52.4755041 C21.1685886,48.9062129 18.6568652,48.1130371 18.6568652,48.1130371 C18.6568652,48.1130371 19.3807955,49.87565 18.6190949,51.3361007 C17.5867074,53.29386 16.7305811,52.5069793 16.7305811,52.5069793 C16.7305811,52.5069793 16.7620563,53.9548399 18.0525408,54.6913603 C20.0103001,55.8181735 21.2441291,54.3703129 21.2441291,54.3703129 C21.2441291,54.3703129 21.1056381,56.3217772 23.0319222,57.7696378 C24.7504698,59.0538272 26.0913146,59.0412371 26.9285557,59.299334 C27.4384545,59.4630052 27.923173,59.6833318 27.923173,59.6833318 C27.923173,59.6833318 27.2055378,59.3874646 26.141675,58.1662257 M10.6495666,43.6939148 C10.2781589,41.9564821 10.6243864,41.3206824 10.6243864,41.3206824 C10.6243864,41.3206824 12.2422132,40.1309187 14.4265942,41.0499954 C16.1829121,41.7928109 16.585795,43.4421129 16.585795,43.4421129 C16.585795,43.4421129 17.7944439,42.4349056 17.9266398,40.9115044 C18.0651309,39.3881033 17.3286105,38.3494207 16.4661892,37.5940151 C15.5974728,36.8386096 13.8222698,36.0894991 13.8222698,36.0894991 C13.8222698,36.0894991 15.1001642,35.3970441 15.4652768,34.6794088 C15.6100629,34.3961317 15.6981935,34.1191497 15.7800291,33.8421677 C15.9122251,33.4141046 16.031831,32.9923365 16.3151081,32.5705684 C16.7746464,31.8844084 17.9077547,31.2423137 17.9077547,31.2423137 C17.9077547,31.2423137 16.1136666,30.5120883 14.2818082,31.2989691 C12.4499498,32.0858498 11.9841164,32.8601405 9.93822638,33.6847915 C9.80603041,33.7414469 9.68012949,33.7918073 9.55422857,33.8358726 L9.54793352,33.8358726 C7.36355254,34.566098 5.84015139,33.8484627 5.84015139,33.8484627 C5.84015139,33.8484627 6.6207371,34.6857039 6.6207371,36.9078551 C6.6207371,39.1300064 6.4570659,40.9177995 7.426503,42.9322142 C8.6288568,45.4250525 11.4427424,45.8468205 11.4427424,45.8468205 C11.4427424,45.8468205 11.0083842,45.4250525 10.6369765,43.6813247" id="Shape" fill="#CF8A00"></path>
                <path d="M16.1073715,44.002372 C14.3258735,41.943892 12.0407718,42.5608065 12.0407718,42.5608065 C12.0407718,42.5608065 12.8276525,43.2343764 13.3312562,44.6004014 C13.8348599,45.9664264 13.8348599,46.7470121 13.8348599,46.7470121 C13.8348599,46.7470121 12.8339476,46.4385549 10.8635982,47.1436 C8.81141313,47.8990056 8.87436359,50.1841073 8.87436359,50.1841073 C8.87436359,50.1841073 10.6684517,48.635526 13.0102089,49.6427333 C15.0246236,50.5051546 15.8052093,53.2057294 15.8052093,53.2057294 C15.8052093,53.2057294 15.9248152,52.1733418 16.2710427,51.5312471 C16.6550405,50.8136119 17.1775294,50.3100082 17.6181826,49.0069337 C18.0273606,47.7919898 17.8888696,46.0671472 16.1136666,44.0086671 M7.09286555,8.30316577 C7.56499401,9.65660068 7.63423952,10.5379071 7.67200979,11.2870176 C7.69089493,11.8598668 7.99935219,12.3445853 7.99935219,12.3445853 C7.99935219,12.3445853 6.09195323,12.5586169 5.49392385,13.521759 C4.53707685,15.0892254 5.55687431,16.6566919 5.55687431,16.6566919 C5.55687431,16.6566919 5.82756129,15.5109935 7.0991606,15.2717818 C7.79791071,15.1395858 9.03173975,15.1773561 10.3285192,16.3293495 C11.9589362,17.7772101 14.0992518,17.8653408 14.0992518,17.8653408 C14.0992518,17.8653408 13.5830581,16.5119058 13.9733509,15.0892254 C14.3636438,13.6728401 14.7917069,13.1881215 15.6918985,11.7654411 C16.6046802,10.3553508 16.5102545,9.80768178 16.4158288,8.84453973 C16.3276981,7.89398777 15.7800291,6.8867804 15.7800291,6.8867804 C15.7800291,6.8867804 15.4778669,7.91287291 14.6406258,8.36611623 C13.7907946,8.81935955 13.1864702,9.24112763 12.5003101,9.84545206 C11.80156,10.4497765 11.6819541,11.2618374 11.6819541,11.2618374 C11.6819541,11.2618374 11.4993978,9.42368397 10.5992062,8.334641 C9.69271958,7.25189308 8.56590634,6.10619469 7.4957485,5.82921266 C5.86533157,5.40744458 5.19805669,5.70960679 5.19805669,5.70960679 C5.19805669,5.70960679 6.46336095,6.49648755 7.0991606,8.29687072 M16.2899279,12.980385 C16.1955022,13.9498221 16.2899279,15.1207007 16.0758963,16.537086 C15.8618647,17.9534714 14.5650852,18.7718274 14.5650852,18.7718274 C14.5650852,18.7718274 16.7683514,19.401332 18.0021804,17.4120974 C18.9401423,15.9012864 18.1847367,14.0631329 17.6118875,13.1314661 C17.0453334,12.1935042 17.127169,10.7204635 17.127169,10.7204635 C17.127169,10.7204635 16.3780585,12.0109479 16.2899279,12.980385" id="Shape" fill="#CF8A00"></path>
                <path d="M5.01550035,11.8032114 C5.84644643,11.066691 6.58296682,11.0792811 6.58296682,11.0792811 C6.58296682,11.0792811 5.9786424,10.7204635 5.43726844,9.32925828 C4.89589448,7.94434814 5.2547121,6.94973086 5.2547121,6.94973086 C5.2547121,6.94973086 4.16566913,7.90657787 3.68724563,9.75102637 C3.20882213,11.5954749 4.08383353,13.4651035 4.08383353,13.4651035 C4.08383353,13.4651035 4.20343941,12.5271417 5.0217954,11.7969163 M2.22679494,18.8284828 C3.05144598,17.5568835 4.66927282,17.9345863 4.66927282,17.9345863 C4.66927282,17.9345863 2.64226798,14.6674573 0.653033423,17.2987866 C-1.66983858,20.3707691 2.95072524,22.6369857 2.95072524,22.6369857 C2.95072524,22.6369857 1.17552225,20.4400146 2.22679494,18.8284828 M13.1172246,25.3438555 C10.8573031,25.2431348 9.8312106,29.9392391 10.4796003,32.4950278 C12.9661435,27.3708603 18.0147705,28.3591826 18.0147705,28.3591826 C18.0147705,28.3591826 15.351966,25.4382812 13.1172246,25.3438555" id="Shape" fill="#CF8A00"></path>
                <path d="M7.27542189,31.7396223 C8.15672834,32.7657148 9.35908214,33.0930572 9.35908214,33.0930572 C9.35908214,33.0930572 8.51554597,29.8322233 9.48498306,27.0624031 C10.4481251,24.2862877 12.6450962,23.1405894 14.0048261,22.8069519 C15.3645561,22.4733145 15.8177994,22.4733145 16.6613356,22.0830216 C17.3160204,21.7745644 17.5489371,21.3339111 17.8951646,20.6918164 C17.0264483,20.8177174 16.4158288,20.7862421 15.484162,20.4274245 C14.5462001,20.0623118 13.6774837,19.5775933 11.9589362,18.4067147 C10.2403886,17.2295411 9.57311371,17.1854758 7.94899182,17.0469848 C6.55778664,16.9273789 5.95975726,17.5883587 5.95975726,17.5883587 C5.95975726,17.5883587 7.02991509,18.0604872 7.50204355,18.8221878 C8.22597385,19.9993614 7.77273053,21.1450598 7.77273053,21.1450598 C7.77273053,21.1450598 7.04880023,20.7799471 6.08565818,20.635161 C5.12251613,20.4840799 4.5433719,20.6162759 3.97681775,20.5092601 C3.46691902,20.4211295 3.28436268,19.9993614 3.28436268,19.9993614 C3.28436268,19.9993614 2.98220047,21.0569291 3.64947535,22.6306906 C4.31045519,24.1918621 5.21694183,24.317763 5.21694183,24.317763 C5.21694183,24.317763 2.79964413,24.7017608 2.19531971,27.0624031 C1.38325877,30.2602865 3.8886871,32.2180458 3.8886871,32.2180458 C3.8886871,32.2180458 4.03976821,30.6191041 4.82035392,30.2854667 C5.60093964,29.9581243 6.57037673,29.3475048 6.57037673,29.3475048 C6.57037673,29.3475048 6.41929563,30.7009397 7.29430703,31.7333273" id="Path" fill="#CF8A00"></path>
                <path d="M46.7579509,37.2100173 L46.7579509,24.4814342 L20.4320682,24.4814342 L20.4320682,37.2100173 C20.4320682,37.2100173 19.5570568,52.8469118 33.5950095,59.847003 C47.6329623,52.8469118 46.7579509,37.2100173 46.7579509,37.2100173 M14.8168871,57.3604598 C14.9679682,57.0142323 15.3141957,56.7687255 15.7170787,56.7687255 C15.8807499,56.7687255 16.0255359,56.8190858 16.170322,56.8883314 C16.585795,57.114953 17.3789708,57.6248517 18.1029011,57.7885229 C18.9464373,57.9899644 19.4437459,57.8325883 19.4941063,57.5996716 C19.5507617,57.3541648 18.6379801,56.4224979 17.6370677,56.2525317 C16.6361554,56.0888605 15.1316394,56.0510902 13.0857494,56.4099079 C11.0398594,56.7687255 10.2844539,56.3658425 10.1459629,56.0510902 C10.0011768,55.7363379 10.1774381,55.6230271 10.290749,55.3901104 C10.0011768,55.4089955 9.79344032,55.5286014 9.66124435,55.7804032 C9.28983663,56.4917435 9.05691993,57.3478697 9.07580507,58.9782867 C9.09469021,60.6087036 9.16393571,61.9306633 10.1081926,62.1446948 C11.0587446,62.3524313 11.7511996,61.6977466 12.4373597,61.5907308 C13.1172246,61.483715 13.3690265,61.8173524 13.3690265,61.8173524 L14.8168871,57.3541648 L14.8168871,57.3604598 Z M52.3605419,57.3604598 C52.2094608,57.0142323 51.8632332,56.7687255 51.4603503,56.7687255 C51.2966791,56.7687255 51.1581881,56.8190858 51.013402,56.8883314 C50.597929,57.114953 49.8047532,57.6248517 49.0808229,57.7885229 C48.2372867,57.9899644 47.733683,57.8325883 47.6896177,57.5996716 C47.6329623,57.3541648 48.5457439,56.4224979 49.5466563,56.2525317 C50.5475686,56.0888605 52.0583797,56.0510902 54.1042696,56.4099079 C56.1438646,56.7687255 56.8992701,56.3658425 57.0440561,56.0510902 C57.1825472,55.7363379 57.0062859,55.6230271 56.892975,55.3901104 C57.1825472,55.4089955 57.3902837,55.5286014 57.5224796,55.7804032 C57.8875923,56.4917435 58.1268041,57.3478697 58.1079189,58.9782867 C58.0953288,60.6087036 58.0197883,61.9306633 57.0755314,62.1446948 C56.1312745,62.3524313 55.4325243,61.6977466 54.7526594,61.5907308 C54.0727944,61.483715 53.8146975,61.8173524 53.8146975,61.8173524 L52.3668369,57.3541648 L52.3605419,57.3604598 Z" id="Shape" fill="#004A8D"></path>
                <path d="M53.5503056,63.6555059 C48.829021,66.9226348 41.6400784,69 33.5950095,69 C25.5499406,69 18.3735881,66.9226348 13.6585986,63.668096 C13.5459552,63.5920477 13.4795844,63.4640469 13.4822549,63.3281635 C13.4822549,63.2778031 13.4886324,63.2337378 13.5075175,63.1896725 L15.3267858,57.5933765 C15.3897363,57.4485905 15.5345223,57.3478697 15.7044886,57.3478697 C15.8115044,57.3478697 15.9122251,57.391935 15.9940607,57.4674756 C18.8016512,60.4324423 25.6191861,62.5223976 33.5887145,62.5223976 C41.5582428,62.5223976 48.4513183,60.4072621 51.2526138,57.4234103 C51.3281543,57.3541648 51.42258,57.3226895 51.5358908,57.3226895 C51.7058571,57.3226895 51.8128729,57.4360004 51.8884134,57.5870815 C51.8884134,57.5870815 53.7265669,63.1896725 53.7328619,63.1896725 C53.751747,63.2337378 53.7643371,63.2840982 53.7643371,63.3344585 C53.7643371,63.4792446 53.6699114,63.5925554 53.5503056,63.6618009 M18.2413921,1.85703859 C18.5498494,1.85703859 18.3924733,1.61153179 18.1658516,1.30936958 L17.4167411,0.465833409 C17.1901195,0.239211751 16.7494662,0.0566554147 16.441009,0.0566554147 L15.4212115,0.0566554147 C15.1127543,0.0566554147 15.1190493,0.295867165 15.4338016,0.610619469 C16.6550405,1.80667822 18.2413921,1.85703859 18.2413921,1.85703859 M23.8376881,1.85703859 C23.680312,1.85703859 23.4411002,1.73113767 23.3089042,1.57376152 L22.2387464,0.32104735 C22.1065504,0.169966244 22.1254356,0.0377702764 22.2828117,0.0377702764 L23.6614268,0.0377702764 C23.8125079,0.0377702764 24.0454246,0.163671198 24.1839156,0.32104735 L25.2540735,1.57376152 C25.3925645,1.72484262 25.3736793,1.85703859 25.2100082,1.85703859 L23.8439832,1.85703859 L23.8376881,1.85703859 Z M20.5579691,1.85703859 C20.406888,1.85703859 20.1676762,1.73113767 20.0291852,1.57376152 L18.9590274,0.32104735 C18.8268314,0.169966244 18.8457166,0.0377702764 19.0030927,0.0377702764 L20.004005,0.0377702764 C20.1613812,0.0377702764 20.3942979,0.163671198 20.5264939,0.32104735 L21.5966517,1.57376152 C21.7351427,1.72484262 21.7099625,1.85703859 21.5588814,1.85703859 L20.5642641,1.85703859 L20.5579691,1.85703859 Z M27.5265851,1.85703859 C27.3629139,1.85703859 27.1299972,1.73113767 26.9978012,1.57376152 L25.9276434,0.32104735 C25.7954474,0.169966244 25.8143326,0.0377702764 25.9717087,0.0377702764 L28.1749749,0.0377702764 C28.332351,0.0377702764 28.5652677,0.163671198 28.6974637,0.32104735 L29.7676215,1.57376152 C29.9061125,1.72484262 29.8872274,1.85703859 29.7298512,1.85703859 L27.5265851,1.85703859 Z M40.1229723,1.81297327 C40.2803484,1.81297327 40.5132652,1.68707235 40.6454611,1.53599124 L41.715619,0.283277073 C41.85411,0.125900921 41.8289298,1.78745907e-14 41.6778487,1.78745907e-14 L40.2992336,1.78745907e-14 C40.1481525,1.78745907e-14 39.9089407,0.125900921 39.7704497,0.283277073 L38.7065869,1.53599124 C38.574391,1.68707235 38.5869811,1.81297327 38.7443572,1.81297327 L40.1229723,1.81297327 Z M43.3963963,1.81297327 C43.5537724,1.81297327 43.7866891,1.68707235 43.9188851,1.53599124 L44.9890429,0.283277073 C45.1212389,0.125900921 45.1023537,1.78745907e-14 44.9449776,1.78745907e-14 L43.9440653,1.78745907e-14 C43.7929842,1.78745907e-14 43.5600675,0.125900921 43.4278715,0.283277073 L42.3577137,1.53599124 C42.2255177,1.68707235 42.2444028,1.81297327 42.3954839,1.81297327 L43.3963963,1.81297327 L43.3963963,1.81297327 Z M48.9549219,1.81297327 C48.6401696,1.81297327 48.8101359,1.56746647 49.0304625,1.26530426 L49.7732779,0.428063133 C49.9998996,0.201441474 50.4342578,0.0188851382 50.7490101,0.0188851382 L51.7688075,0.0188851382 C52.0835598,0.0188851382 52.0709697,0.258096889 51.7625125,0.566554147 C50.5349785,1.76890795 48.9549219,1.81297327 48.9549219,1.81297327 M46.64464,1.81297327 C46.7957211,1.81297327 47.0349329,1.68707235 47.1608338,1.53599124 L48.2309916,0.283277073 C48.3568926,0.125900921 48.3443025,0 48.1869263,0 L47.192309,0 C47.0349329,0 46.7957211,0.125900921 46.6635252,0.283277073 L45.5933673,1.53599124 C45.4611714,1.68707235 45.4800565,1.81297327 45.6311376,1.81297327 L46.638345,1.81297327 L46.64464,1.81297327 Z M36.4340753,1.81297327 C36.5914515,1.81297327 36.8243682,1.68707235 36.9628592,1.53599124 L38.026722,0.283277073 C38.1589179,0.125900921 38.1400328,0 37.9889517,0 L35.7856856,0 C35.6283094,0 35.3890977,0.125900921 35.2569017,0.283277073 L34.1867439,1.53599124 C34.0482528,1.68707235 34.073433,1.81297327 34.2245141,1.81297327 L36.4340753,1.81297327 Z M31.5176443,1.71225253 C31.6309551,1.87592373 31.8135115,1.87592373 31.9268223,1.71225253 L33.0977009,0.333637442 C33.2110117,0.17626129 33.1417662,0.0377702764 32.9466198,0.0377702764 L30.4600766,0.0377702764 C30.2649301,0.0377702764 30.1956846,0.17626129 30.3089955,0.327342396 L31.5113493,1.71225253 L31.5176443,1.71225253 Z" id="Shape" fill="#004A8D"></path>
                <path d="M41.7093239,13.251072 C41.7093239,13.0244503 41.6904388,12.8167138 41.6715536,12.6593377 C41.3442112,9.14670194 40.4691998,5.99288386 38.6939968,3.09716267 C38.6058662,2.82647569 38.3414743,2.73834504 38.0707873,2.91460633 C37.900821,2.91460633 37.8882309,3.06568744 37.9574764,3.22935864 C37.9574764,3.22935864 38.5680959,4.03512453 38.8136027,4.45059757 C39.1724203,5.07380713 39.4116321,5.77255725 39.392747,6.52796278 C39.392747,6.79864976 39.3675668,7.06304169 39.3109114,7.32743363 C38.9520937,9.02080102 37.5482985,10.4245963 35.9934221,11.1548216 C35.577949,11.3059027 35.1121156,11.4255086 34.6399872,11.4884591 C33.65796,11.61436 32.5752121,11.5388195 31.8261016,10.9030198 C31.5805948,10.7141684 31.3728583,10.4938418 31.2091871,10.24204 C30.9070248,9.75732141 30.7433536,9.12152176 30.793714,8.51719734 C30.8063041,8.30946082 30.8566645,8.02618374 31.0266307,7.88769273 L31.064401,7.83103731 C31.6687254,7.00009123 31.8575768,8.58644284 33.3683879,8.83194964 C33.6075996,8.88231001 33.8719915,8.88860505 34.1237934,8.83194964 C34.3630051,8.74381899 34.5896268,8.5801478 34.7721831,8.36611623 C34.9862147,8.13319953 35.1310008,7.86251254 35.2002463,7.57923547 C35.2443116,7.38408904 35.2506066,7.18264757 35.2191314,6.98750114 C35.1372958,6.63497856 34.9484444,6.33911139 34.6777574,6.11878478 C33.8908767,5.45780494 32.6192774,4.97938144 32.2100994,3.99735426 C32.1345588,3.71407718 32.1282638,3.48116048 32.1912142,3.24194873 C32.2604598,3.00903202 32.4178359,2.75093513 32.568917,2.51172338 C32.6066873,2.45506797 33.2676671,1.66818721 33.2802572,1.66818721 L34.4952011,0.276982027 C34.5896268,-0.088130645 34.1426785,0 34.0482528,0.088130645 C33.1354712,0.982027187 32.6759328,2.14661071 31.5931849,2.76982027 C30.23975,3.20417845 28.9744457,3.64483168 27.9798284,4.8912508 C26.4375421,5.96140863 24.9015509,7.11340206 23.277429,7.90657787 C23.0948727,8.26539549 23.1767083,8.71234376 23.2648389,9.07745644 C24.0706048,9.62512544 25.1470577,9.63771554 26.1353799,9.91469756 C26.5823282,10.5504972 26.6641638,11.5388195 26.4753124,12.2564547 C27.098522,12.439011 28.6219231,11.1925919 29.1003466,10.1224341 C29.8242769,10.2168598 30.4411914,10.9407901 30.5293221,11.6647204 C30.5859775,12.2501597 30.4474865,12.7852386 30.2145698,13.257367 C29.4906395,14.7052276 27.8161572,15.5550588 27.8161572,15.5550588 C28.4960222,15.8320409 28.9933308,16.3545297 29.2262475,16.4237752 C29.4654593,16.4867257 30.2208648,14.8563087 30.5419122,14.7807682 C30.9447951,14.6863425 32.3611805,15.8005656 32.6696377,15.8005656 C32.9277346,15.8005656 33.8594015,14.4723109 34.2622844,14.4974911 C34.7155277,14.5289663 35.6660797,16.0712526 35.980832,16.1153179 C36.1948635,16.1404981 37.617544,14.755588 38.0770823,14.8059484 C38.4044247,14.8437186 39.0150442,16.0586625 39.2542559,16.1530882 C39.5123528,16.2412189 39.9907763,15.5298787 41.715619,15.2088313 C41.715619,15.2088313 41.7345041,14.0820181 41.6967338,13.251072" id="Path" fill="#004A8D"></path>
                <path d="M33.7523857,3.50634066 C34.1993339,3.15381808 34.8351336,3.06568744 35.4583432,3.07198248 C36.2200437,3.18529331 36.9880394,3.35525956 37.4286926,3.80850287 C36.534796,3.61965149 35.5401788,3.70148709 34.9106741,4.23656601 C34.4637259,4.32469665 34.0545479,4.10437004 33.7460906,3.86515829 C33.6516649,3.77702764 33.6516649,3.59447131 33.7460906,3.50634066 M38.2911139,5.26895356 C37.6553142,5.03603686 36.937679,5.02974181 36.4466654,5.4515099 C36.1130279,5.48298513 35.8360459,5.26265852 35.6283094,5.03603686 C35.5653589,4.95420126 35.5842441,4.79682511 35.6534896,4.72128455 C35.9997171,4.45059757 36.4655505,4.42541739 36.9187938,4.47577776 C37.4538728,4.63315391 38.0015418,4.84089043 38.2911139,5.26895356 M38.6121612,6.60350333 C38.1463278,6.38317672 37.4475777,6.46501232 37.0509898,6.7356993 C36.7928929,6.7356993 36.6355168,6.50278259 36.5851564,6.21950552 C36.5599762,6.08101451 36.5725663,6.04324423 36.6355168,5.98658881 C36.9124988,5.81662257 37.2650214,5.83550771 37.6049539,5.91104826 C38.0015418,6.06842441 38.4107198,6.2572758 38.6121612,6.60350333 M37.0006294,7.88139768 C36.8117781,7.86251254 36.7110573,7.66107107 36.7047623,7.4470395 C36.7047623,7.34002372 36.7173524,7.30854849 36.7677127,7.28336831 C36.9943344,7.17635252 37.2524313,7.22671289 37.5042331,7.32113858 C37.7875102,7.48480978 38.0707873,7.66107107 38.1840981,7.9380531 C37.8567557,7.72402153 37.3279718,7.71772648 37.0006294,7.87510264 M36.4655505,8.86342487 C36.3396496,8.77529422 36.3459447,8.59273789 36.4277803,8.44165678 C36.4655505,8.37241128 36.4907307,8.35352614 36.5410911,8.35352614 C36.7425326,8.36611623 36.9062038,8.50460724 37.0446948,8.66827844 C37.1894808,8.8949001 37.3153817,9.1404069 37.2902016,9.3733236 C37.1391205,9.09634157 36.7614177,8.88231001 36.4655505,8.86971992 M36.0563725,10.2861053 C36.0815527,10.0280084 35.8738162,9.71955114 35.6408995,9.58735517 C35.577949,9.46774929 35.6849648,9.35443846 35.842341,9.27889791 C35.9115865,9.25371773 35.9430617,9.24742268 35.980832,9.26001277 C36.1382081,9.36073351 36.2074536,9.53069975 36.2389289,9.700666 C36.2389289,9.90840252 36.2074536,10.1287291 36.0626676,10.2798102 M34.759593,10.6763981 C34.8603138,10.5064319 34.753298,10.2546301 34.5518565,10.109844 C34.5392664,10.0217133 34.6651674,9.96505793 34.8351336,9.93987775 C34.9106741,9.9335827 34.9421494,9.93987775 34.9736246,9.96505793 C35.0995255,10.0657787 35.1121156,10.1916796 35.0932305,10.3175805 C35.03028,10.4623666 34.9421494,10.6071526 34.753298,10.6763981 M33.8468114,10.6071526 C33.7775659,10.6701031 33.7020253,10.7330536 33.5887145,10.7330536 C33.6768451,10.663808 33.6705501,10.5064319 33.6013046,10.380531 C33.6138947,10.3301706 33.6957303,10.3301706 33.7838609,10.3553508 C33.8279262,10.3679409 33.8468114,10.3742359 33.8531064,10.3994161 C33.8971717,10.4812517 33.8845816,10.5504972 33.8531064,10.6071526 M32.8521941,10.380531 C32.8144238,10.3994161 32.7640634,10.4183012 32.707408,10.3994161 C32.7640634,10.380531 32.7829486,10.3049904 32.7703585,10.2357449 C32.7829486,10.2105647 32.8270139,10.2231548 32.8647842,10.2546301 C32.9025545,10.3301706 32.8773743,10.3616458 32.8521941,10.380531 M33.0914058,2.4047076 C32.9655049,2.48024815 32.9151445,2.55578871 32.8207189,2.65650944 C32.6381625,2.8831311 32.5248517,3.1286379 32.4744913,3.31119423 C32.424131,3.48745552 32.424131,3.66371681 32.4807864,3.87774838 C32.845899,4.74016969 34.1489736,5.28154365 34.8603138,5.87957303 C35.1750661,6.13766992 35.4079828,6.49648755 35.4961134,6.91825563 C35.5338837,7.15117234 35.5275887,7.39667914 35.4772283,7.62959584 C35.3983945,7.97558119 35.2264186,8.29341014 34.9799197,8.54867257 C34.7658881,8.80047441 34.5014962,8.98303075 34.205629,9.09004653 C33.8845816,9.15299699 33.5887145,9.14670194 33.3054374,9.10263662 C32.5248517,8.97044065 31.9079372,8.46054192 31.3665632,7.88769273 C31.3036127,7.95693824 31.2721375,8.00100356 31.2406623,8.05136393 L31.196597,8.0891342 C31.1084663,8.15208466 31.070696,8.41018155 31.070696,8.50460724 C31.0203357,9.05227625 31.1777118,9.63771554 31.4358087,10.0594836 C31.5868898,10.2861053 31.7694462,10.4875468 31.9897728,10.657513 C32.6381625,11.2177721 33.6264848,11.2933127 34.5896268,11.1737068 C35.0365751,11.1170514 35.4709332,11.0037405 35.8675212,10.8652495 C37.3594471,10.1539093 38.6814067,8.82565459 39.0087491,7.24559803 C39.0591095,7.00009123 39.0905847,6.75458444 39.0905847,6.51537268 C39.1031748,5.82291762 38.8891433,5.18082292 38.5492108,4.58908859 C38.2911139,4.15473041 38.026722,3.80220783 37.6112489,3.38043974 C37.4098074,3.17270322 37.214661,3.04050725 37.069875,2.89572119 C37.2587263,2.53690357 37.7056746,2.63132926 37.8882309,2.36064228 C36.4466654,2.17179089 33.525764,2.2410364 33.525764,2.2410364 C33.3432077,2.25992154 33.2361919,2.29769182 33.0788157,2.4047076" id="Shape" fill="#004A8D"></path>
                <polygon id="Path" fill="#FFFFFF" points="42.8046619 43.1021805 37.1202353 42.6678223 39.2857312 47.9430709 34.9421494 44.2541739 33.5950095 49.7875194 32.2478697 44.2541739 27.9042879 47.9430709 30.0697837 42.6678223 24.3853571 43.1021805 29.2388376 40.1057385 24.3853571 37.1155916 30.0697837 37.5436548 27.9042879 32.2747012 32.2478697 35.9698933 33.5950095 30.4239577 34.9421494 35.9698933 39.2857312 32.2747012 37.1202353 37.5436548 42.8046619 37.1155916 37.9574764 40.1057385"></polygon>
                <path d="M45.4422862,37.2729678 C45.4422862,37.2729678 45.7003831,41.0940608 43.5097071,45.5509534 C45.0519934,41.0562905 44.8442569,37.2351975 44.8442569,37.2351975 L44.8442569,26.3447678 L22.3394671,26.3447678 L22.3394671,37.2351975 C22.3394671,37.2351975 22.1317306,41.0562905 23.680312,45.5509534 C21.4833409,41.0940608 21.7477328,37.2729678 21.7477328,37.2729678 L21.7477328,25.8096889 L45.4422862,25.8096889 L45.4422862,37.2729678 L45.4422862,37.2729678 Z" id="Path" fill="#FFFFFF"></path>
                <path d="M57.7742815,33.8421677 L57.7679864,33.8421677 C57.6420855,33.7981024 57.5161846,33.747742 57.3776936,33.6910866 C55.3318036,32.8664355 54.8659702,32.0921449 53.0341118,31.3052641 C51.2085484,30.5120883 49.4144603,31.2486087 49.4144603,31.2486087 C49.4144603,31.2486087 50.5475686,31.8844084 51.007107,32.5768634 C51.290384,32.9986315 51.4036949,33.4203996 51.5358908,33.8484627 C51.6177264,34.1254448 51.7121521,34.4024268 51.8569382,34.6857039 C52.2157558,35.4033391 53.4999452,36.0957942 53.4999452,36.0957942 C53.4999452,36.0957942 51.7247422,36.8449047 50.8623209,37.6003102 C49.9936045,38.3557157 49.2570841,39.3943983 49.3892801,40.9177995 C49.5277711,42.4412006 50.742715,43.448408 50.742715,43.448408 C50.742715,43.448408 51.145598,41.7991059 52.9019158,41.0562905 C55.0862968,40.1309187 56.7041237,41.3269775 56.7041237,41.3269775 C56.7041237,41.3269775 57.0503512,41.9627771 56.6852385,43.7002098 C56.3138308,45.4439376 55.8731776,45.8657057 55.8731776,45.8657057 C55.8731776,45.8657057 58.6933582,45.4439376 59.895712,42.9448043 C60.8714442,40.9303896 60.7014779,39.1488915 60.7014779,36.9204452 C60.7014779,34.6919989 61.4820636,33.8610528 61.4820636,33.8610528 C61.4820636,33.8610528 59.9586625,34.5786881 57.7805765,33.8484627 M48.7157102,51.3361007 C47.9477146,49.87565 48.6779399,48.1130371 48.6779399,48.1130371 C48.6779399,48.1130371 46.1662165,48.8999179 44.1455067,52.4755041 C42.8613173,54.7480157 42.2506979,56.9449868 41.1868351,58.1599307 C40.1229723,59.3811696 39.405337,59.6770368 39.405337,59.6770368 C39.405337,59.6770368 39.8963506,59.4567102 40.4062494,59.299334 C41.2434905,59.0412371 42.5843353,59.0538272 44.3028829,57.7696378 C46.235462,56.3217772 46.090676,54.3703129 46.090676,54.3703129 C46.090676,54.3703129 47.324505,55.8181735 49.2885594,54.6913603 C50.5790438,53.9548399 50.6105191,52.5069793 50.6105191,52.5069793 C50.6105191,52.5069793 49.7543928,53.29386 48.7157102,51.3298057" id="Shape" fill="#CF8A00"></path>
                <path d="M56.477502,47.1498951 C54.5071526,46.4385549 53.4999452,46.7533072 53.4999452,46.7533072 C53.4999452,46.7533072 53.4999452,45.9727215 54.0035489,44.6066965 C54.5071526,43.2406715 55.2940333,42.5671015 55.2940333,42.5671015 C55.2940333,42.5671015 53.0089316,41.950187 51.2274336,44.0086671 C49.4459355,46.0671472 49.3074445,47.7919898 49.7166225,49.0069337 C50.1635708,50.3100082 50.6860596,50.8136119 51.0700574,51.5312471 C51.416285,52.1796369 51.5421859,53.2057294 51.5421859,53.2057294 C51.5421859,53.2057294 52.3290666,50.5051546 54.3308913,49.6427333 C56.6726484,48.635526 58.4667366,50.1841073 58.4667366,50.1841073 C58.4667366,50.1841073 58.5359821,47.8990056 56.477502,47.1436 M62.073798,6.94973086 C62.073798,6.94973086 62.4389106,7.94434814 61.8912416,9.32925828 C61.3498677,10.7141684 60.7455432,11.0792811 60.7455432,11.0792811 C60.7455432,11.0792811 61.4820636,11.066691 62.3130097,11.8032114 C63.1250706,12.5271417 63.2509716,13.4713986 63.2509716,13.4713986 C63.2509716,13.4713986 64.125983,11.6017699 63.6412644,9.75732141 C63.1565459,7.91287291 62.073798,6.95602591 62.073798,6.95602591 M52.7634248,18.7718274 C52.7634248,18.7718274 51.4666453,17.9597664 51.2526138,16.537086 C51.0448772,15.1207007 51.1330079,13.9435271 51.0448772,12.980385 C50.9504515,12.017243 50.2013411,10.7204635 50.2013411,10.7204635 C50.2013411,10.7204635 50.2831767,12.1935042 49.7166225,13.1251711 C49.1437733,14.0631329 48.3820727,15.8949913 49.3263297,17.4120974 C50.5601587,19.401332 52.7634248,18.7655323 52.7634248,18.7655323" id="Shape" fill="#CF8A00"></path>
                <path d="M53.3677492,15.0892254 C53.7580421,16.5056108 53.2418483,17.8653408 53.2418483,17.8653408 C53.2418483,17.8653408 55.388459,17.7772101 57.018876,16.3293495 C58.3156554,15.1773561 59.5431894,15.1395858 60.2419395,15.2717818 C61.5135389,15.5109935 61.7842258,16.6566919 61.7842258,16.6566919 C61.7842258,16.6566919 62.8040233,15.0892254 61.8408812,13.521759 C61.2428519,12.5586169 59.3354529,12.3445853 59.3354529,12.3445853 C59.3354529,12.3445853 59.6502052,11.8598668 59.6690904,11.2870176 C59.7005656,10.5379071 59.7761061,9.65030563 60.2419395,8.30316577 C60.8777392,6.49648755 62.1493385,5.71590183 62.1493385,5.71590183 C62.1493385,5.71590183 61.4820636,5.41373962 59.8579417,5.83550771 C58.7814889,6.11248974 57.6546756,7.25189308 56.748189,8.34093605 C55.8479974,9.42368397 55.665441,11.2681325 55.665441,11.2681325 C55.665441,11.2681325 55.5395401,10.4560715 54.8470851,9.8517471 C54.15463,9.24742268 53.5503056,8.82565459 52.7067694,8.37241128 C51.8632332,7.91916796 51.561071,6.89307545 51.561071,6.89307545 C51.561071,6.89307545 51.019697,7.90028282 50.9252714,8.85083478 C50.8371407,9.82027187 50.7490101,10.3616458 51.6492017,11.7717362 C52.5556883,13.1944166 52.9837514,13.6791351 53.3740443,15.0955205 M66.6754766,17.2987866 C64.6862421,14.6611623 62.6655323,17.9345863 62.6655323,17.9345863 C62.6655323,17.9345863 64.2833591,17.5505884 65.1017151,18.8284828 C66.1529878,20.4463096 64.3840799,22.6369857 64.3840799,22.6369857 C64.3840799,22.6369857 68.9983486,20.3707691 66.6754766,17.2987866" id="Shape" fill="#CF8A00"></path>
                <path d="M62.1430435,24.324058 C62.1430435,24.324058 63.0495301,24.2044521 63.7042149,22.6369857 C64.3714898,21.0632242 64.0630325,20.0056564 64.0630325,20.0056564 C64.0630325,20.0056564 63.8867712,20.4274245 63.3705774,20.5155552 C62.7977282,20.6225709 62.2248791,20.490375 61.261737,20.6414561 C60.298595,20.7925372 59.5683696,21.1576498 59.5683696,21.1576498 C59.5683696,21.1576498 59.1214213,20.0119515 59.8453516,18.8347778 C60.3174801,18.0730773 61.3813429,17.6009488 61.3813429,17.6009488 C61.3813429,17.6009488 60.7770185,16.939969 59.3921083,17.0658699 C57.7679864,17.2043609 57.1007116,17.2484262 55.382164,18.4255999 C53.6636164,19.5964784 52.788605,20.081197 51.8506431,20.4463096 C50.9126813,20.8051273 50.3146519,20.8366025 49.4396405,20.7107016 C49.7921631,21.3527963 50.0250798,21.7934495 50.6797646,22.1019068 C51.5233007,22.4921996 51.9765441,22.4921996 53.329979,22.8258371 C54.6897089,23.1594745 56.892975,24.3051729 57.8561171,27.0812882 C58.8192591,29.8511085 57.975723,33.1119423 57.975723,33.1119423 C57.975723,33.1119423 59.1780768,32.7845999 60.0530882,31.7522124 C60.9280996,30.7198248 60.7770185,29.3663899 60.7770185,29.3663899 C60.7770185,29.3663899 61.7401605,29.9707144 62.5333363,30.3043518 C63.313922,30.6379892 63.4587081,32.2369309 63.4587081,32.2369309 C63.4587081,32.2369309 65.9704315,30.2791716 65.1520755,27.0812882 C64.5540461,24.7206459 62.1430435,24.3366481 62.1430435,24.3366481" id="Path" fill="#CF8A00"></path>
                <path d="M56.8552048,32.4950278 C57.5098895,29.9392391 56.477502,25.2431348 54.2175805,25.3438555 C51.9828391,25.4382812 49.3200346,28.3528875 49.3200346,28.3528875 C49.3200346,28.3528875 54.3749566,27.3645653 56.8552048,32.4950278 M44.7876014,16.8203631 C44.5295045,16.4993158 41.8037496,17.9534714 41.8037496,17.9534714 C41.8037496,17.9534714 41.7596843,16.4993158 41.4008666,16.2223337 C40.3181187,16.3041693 39.4997627,16.8455433 38.7695374,17.5568835 C38.4862603,16.7511176 38.0456071,16.0334823 37.8441656,16.0208923 C37.4475777,15.9957121 35.8108657,17.4750479 35.8108657,17.4750479 C35.8108657,17.4750479 34.8351336,15.7313201 34.3000547,15.6809598 C34.073433,15.6557796 33.2236018,16.6000365 32.7703585,17.1917708 C32.2352796,16.6441018 31.0895812,15.7879755 30.6678131,15.8824012 C30.4223063,15.9390567 29.8872274,17.0658699 29.5409998,17.8779308 C29.2451327,17.5820637 27.7343216,16.4237752 26.9789161,16.2978743 C26.6200985,16.8329532 26.6012133,18.2745187 26.6012133,18.2745187 C26.6012133,18.2745187 25.0652221,16.8581334 24.0076544,16.7196424 C23.7369674,17.07846 24.2216859,19.1117599 25.329614,20.0623118 C25.2981388,19.7727397 24.8008302,18.7907125 24.8952558,18.167503 C25.4366298,17.896816 26.7334093,18.6648116 26.7334093,18.6648116 C26.7334093,18.6648116 26.966326,17.6387191 27.513995,17.3806222 C28.3197609,17.4750479 29.6669008,18.3878296 29.6669008,18.3878296 C29.6669008,18.3878296 30.3027004,17.2232461 30.8440744,16.8707235 C31.6561353,16.7007572 32.8144238,17.6953745 32.8144238,17.6953745 C32.8144238,17.6953745 33.6705501,16.6881671 34.3000547,16.6944622 C34.9232642,16.9714442 35.7290301,17.9282912 35.7290301,17.9282912 C35.7290301,17.9282912 36.937679,17.1099352 37.6679043,16.8896086 C38.1022625,17.1099352 38.6247513,18.1486178 38.6247513,18.1486178 C38.6247513,18.1486178 40.1481525,17.1477055 40.9539184,17.2421312 C41.2246054,17.5128182 41.4952923,18.3752395 41.4952923,18.3752395 C41.4952923,18.3752395 43.1571845,17.758325 43.8748198,17.7898002 C43.767804,18.6711067 43.3208557,19.3194964 42.955743,20.0308366 C43.7992792,19.5964784 45.2534348,17.3806222 44.7813064,16.8140681" id="Shape" fill="#CF8A00"></path>
                <path d="M34.0545479,20.4148344 C34.6840525,20.5092601 35.0176899,17.896816 34.2937596,17.7898002 C33.6831402,17.6953745 33.4502235,20.3267038 34.0545479,20.4148344 M36.4718456,20.4651948 C37.1328254,20.7295867 38.0707873,18.2996989 37.4035124,18.035307 C36.8180731,17.8086853 35.9115865,20.225983 36.4718456,20.4651948 M30.92591,18.3185841 C30.92591,19.2187757 31.4295137,20.6036858 31.8953471,20.4840799 C32.2226895,20.4022443 32.0967886,18.4193048 31.3791533,17.9660615 C31.1084663,17.8716358 30.932205,18.1423228 30.932205,18.3185841 M38.9520937,20.5281452 C39.4934677,20.8743728 41.0105738,18.721467 40.3432989,18.3248791 C39.8711705,18.035307 38.3288842,20.1378524 38.9520937,20.5281452 M27.7720919,18.4759602 C27.6776662,19.3698568 28.5715628,20.7358818 29.018511,20.5533254 C29.3017881,20.4337196 28.8548398,18.576681 28.0427789,18.2996989 C27.8665176,18.2052732 27.7720919,18.3878296 27.7720919,18.4759602 M41.2434905,20.3833592 C41.6778487,20.7232917 42.7857768,19.2439558 42.5150898,18.9606788 C42.1877474,18.6081562 40.903558,20.1252623 41.2434905,20.3833592 M26.6704588,20.6225709 C27.0796368,20.4022443 26.3620016,18.992154 25.9654137,19.1747103 C25.6443663,19.3257914 26.3053462,20.8177174 26.6704588,20.6225709" id="Shape" fill="#CF8A00"></path>
                <path d="M32.3360003,21.1261746 C32.153444,21.1261746 32.0590183,21.2394854 32.1156737,21.3779765 L32.7703585,22.9706231 C32.8270139,23.1091141 33.0221603,23.222425 33.1984216,23.222425 L35.8360459,23.222425 C36.0186023,23.222425 36.119323,23.1028191 36.0626676,22.9706231 L35.4016877,21.3779765 C35.3387373,21.2394854 35.1498859,21.1261746 34.9736246,21.1261746 L32.3297053,21.1261746 L32.3360003,21.1261746 Z M36.5473861,21.4157467 C36.4151902,21.4157467 36.3459447,21.4975823 36.3837149,21.6045981 L36.8558434,22.7440015 C36.8999087,22.8447222 37.0383997,22.9202627 37.1705957,22.9202627 L39.0716996,22.9202627 C39.1976005,22.9202627 39.2731411,22.8447222 39.2290758,22.7440015 L38.7569473,21.6045981 C38.712882,21.5038774 38.580686,21.4157467 38.442195,21.4157467 L36.5410911,21.4157467 L36.5473861,21.4157467 Z M39.7263844,21.5416477 C39.6319587,21.5416477 39.5815983,21.6045981 39.6130736,21.6675486 L39.946711,22.4733145 C39.9718912,22.54256 40.0726119,22.5992154 40.1607426,22.5992154 L41.4889973,22.5992154 C41.5771279,22.5992154 41.6274883,22.5362649 41.6023081,22.4733145 L41.2686707,21.6675486 C41.2434905,21.5983031 41.1364747,21.5416477 41.0546391,21.5416477 L39.7263844,21.5416477 Z M42.1059118,21.6171882 C42.0366663,21.6171882 42.0051911,21.6549585 42.0240762,21.7053189 L42.2569929,22.265578 C42.2821731,22.3096433 42.3514186,22.3537086 42.408074,22.3537086 L43.3397408,22.3537086 C43.4026913,22.3537086 43.4341665,22.3096433 43.4152814,22.265578 L43.1886597,21.7053189 C43.1697746,21.6549585 43.1005291,21.6171882 43.0375786,21.6171882 L42.1122069,21.6171882 L42.1059118,21.6171882 Z M31.7002007,22.9202627 C31.8323966,22.9202627 31.9016421,22.8447222 31.8638718,22.7440015 L31.3917434,21.6045981 C31.3539731,21.5038774 31.2091871,21.4157467 31.0832861,21.4157467 L29.1821822,21.4157467 C29.0499863,21.4157467 28.9807407,21.4975823 29.018511,21.6045981 L29.4969345,22.7440015 C29.5347048,22.8447222 29.6731958,22.9202627 29.8053918,22.9202627 L31.7002007,22.9202627 L31.7002007,22.9202627 Z M28.5274974,22.8006569 C28.6156281,22.8006569 28.6596934,22.7440015 28.6408083,22.674756 L28.3071708,21.8689901 C28.2819906,21.7997445 28.1812699,21.7430891 28.0868442,21.7430891 L26.7648845,21.7430891 C26.6704588,21.7430891 26.6200985,21.7997445 26.6515737,21.8689901 L26.9789161,22.674756 C27.0103913,22.7440015 27.104817,22.8006569 27.1992427,22.8006569 L28.5337925,22.8006569 L28.5274974,22.8006569 Z M26.14797,22.7251163 C26.2109205,22.7251163 26.2486908,22.681051 26.2235106,22.6369857 L25.9968889,22.0704315 C25.9780038,22.0200712 25.9087583,21.9823009 25.8458078,21.9823009 L24.920436,21.9823009 C24.8574856,21.9823009 24.8197153,22.0200712 24.8386004,22.0704315 L25.0715171,22.6369857 C25.0904023,22.681051 25.1596478,22.7251163 25.2225982,22.7251163 L26.1542651,22.7251163 L26.14797,22.7251163 Z M33.5824194,40.1057385 L34.4448407,37.4051638 L33.6013046,32.2935864 L33.5824194,40.1057385 Z" id="Shape" fill="#004A8D"></path>
                <polygon id="Path" fill="#CF8A00" points="32.6948179 37.4177539 33.5824194 40.1057385 33.6013046 32.2872913 32.6948179 37.4177539"></polygon>
                <polygon id="Path" fill="#004A8D" points="32.7514733 42.8126083 33.5950095 47.9178907 33.5824194 40.1057385"></polygon>
                <polygon id="Path" fill="#CF8A00" points="33.5950095 47.9178907 34.4952011 42.7937232 33.5824194 40.1057385 33.5950095 47.9178907"></polygon>
                <polygon id="Path" fill="#004A8D" points="29.012216 33.7792172 32.6948179 37.4177539 33.5824194 40.1057385 29.012216 33.7792172"></polygon>
                <polygon id="Path" fill="#CF8A00" points="31.2910227 38.4627315 29.012216 33.7792172 33.5824194 40.1057385"></polygon>
                <polygon id="Path" fill="#004A8D" points="38.1840981 46.4259648 34.4952011 42.7937232 33.5824194 40.1057385 38.1840981 46.4259648"></polygon>
                <polygon id="Path" fill="#CF8A00" points="35.9052914 41.7487456 38.1840981 46.4259648 33.5824194 40.1057385"></polygon>
                <polygon id="Path" fill="#004A8D" points="26.1668552 37.6821458 31.2910227 38.4627315 33.5824194 40.1057385"></polygon>
                <polygon id="Path" fill="#CF8A00" points="30.7622388 40.1057385 26.1668552 37.6821458 33.5824194 40.1057385"></polygon>
                <polygon id="Path" fill="#004A8D" points="41.0231639 42.5293313 35.9052914 41.7487456 33.5824194 40.1057385"></polygon>
                <polygon id="Path" fill="#CF8A00" points="36.4277803 40.1057385 41.0231639 42.5293313 33.5824194 40.1057385 36.4277803 40.1057385"></polygon>
                <polygon id="Path" fill="#004A8D" points="26.1668552 42.5167412 30.7622388 40.1057385 33.5824194 40.1057385"></polygon>
                <polygon id="Path" fill="#CF8A00" points="31.3162028 41.7928109 26.1605601 42.5167412 33.5824194 40.1057385"></polygon>
                <polygon id="Path" fill="#004A8D" points="41.0231639 37.6947359 36.4277803 40.1057385 33.5824194 40.1057385 41.0231639 37.6947359"></polygon>
                <polygon id="Path" fill="#CF8A00" points="35.8675212 38.4249612 41.0231639 37.6947359 33.5824194 40.1057385 35.8675212 38.4249612"></polygon>
                <polygon id="Path" fill="#004A8D" points="28.9996259 46.4196697 31.3162028 41.7928109 33.5824194 40.1057385 28.9996259 46.4196697"></polygon>
                <polygon id="Path" fill="#CF8A00" points="32.7514733 42.8126083 28.9996259 46.4196697 33.5824194 40.1057385 32.7514733 42.8126083"></polygon>
                <polygon id="Path" fill="#004A8D" points="38.1966882 33.7918073 35.8675212 38.4249612 33.5824194 40.1057385 38.1966882 33.7918073"></polygon>
                <polygon id="Path" fill="#CF8A00" points="34.4448407 37.4051638 38.1903932 33.7918073 33.5824194 40.1057385 34.4448407 37.4051638"></polygon>
            </g>
            <line x1="111.848727" y1="23.5119971" x2="121.203166" y2="23.5119971" id="Path" stroke="#004A8D"></line>
            <path d="M85.7557613,34.7549494 C86.3789708,35.5984855 86.6559529,35.8314022 87.4554237,35.8754676 L87.4554237,36.4231366 L84.4778669,36.4231366 C84.0246236,36.0517289 83.5399051,35.4599945 83.124432,34.8493751 L80.4301523,31.0471672 L84.2323601,27.0875832 C84.4526867,26.8672566 84.622653,26.6532251 84.622653,26.4328985 C84.622653,26.1685065 84.3897363,26.0740808 83.4706596,26.0300155 L83.4706596,25.4823465 L86.9581151,25.4823465 L86.9581151,26.0300155 C86.2908402,26.0614907 86.0201532,26.231457 85.5543198,26.7161755 L82.3879116,30.0525499 L85.7557613,34.7612444 L85.7557613,34.7549494 Z M80.253891,34.7990147 C80.253891,35.655141 80.4112672,35.7495666 81.5003101,35.8754676 L81.5003101,36.4231366 L76.7160751,36.4231366 L76.7160751,35.8754676 C77.8051181,35.7495666 77.9624942,35.655141 77.9624942,34.7990147 L77.9624942,27.1001733 C77.9624942,26.2440471 77.8051181,26.1496214 76.7160751,26.0237205 L76.7160751,25.4760515 L81.5003101,25.4760515 L81.5003101,26.0237205 C80.4112672,26.1496214 80.253891,26.2440471 80.253891,27.1001733 L80.253891,34.7990147 L80.253891,34.7990147 Z M92.6677219,34.8053097 C92.6677219,35.661436 92.825098,35.7558617 93.914141,35.8817626 L93.914141,36.4294316 L89.129906,36.4294316 L89.129906,35.8817626 C90.2189489,35.7558617 90.3763251,35.661436 90.3763251,34.8053097 L90.3763251,27.1064684 C90.3763251,26.2503421 90.2189489,26.1559164 89.129906,26.0300155 L89.129906,25.4823465 L93.914141,25.4823465 L93.914141,26.0300155 C92.825098,26.1559164 92.6677219,26.2503421 92.6677219,27.1064684 L92.6677219,34.8053097 Z M103.765888,31.4059849 L104.439458,31.4059849 C106.170596,31.4059849 106.963771,30.4239577 106.963771,28.7746556 C106.963771,27.2197792 106.120235,26.1118511 104.439458,26.1118511 L103.765888,26.1118511 L103.765888,31.4122799 L103.765888,31.4059849 Z M103.765888,34.6919989 C103.765888,35.5670103 104.187656,35.7684518 105.635517,35.8628775 L105.635517,36.4231366 L100.228072,36.4231366 L100.228072,35.8754676 C101.317115,35.7495666 101.474491,35.655141 101.474491,34.7990147 L101.474491,27.1001733 C101.474491,26.2440471 101.317115,26.1496214 100.228072,26.0237205 L100.228072,25.4760515 L104.993422,25.4760515 C107.920618,25.4760515 109.292939,26.9365021 109.292939,28.7180002 C109.292939,30.7575951 107.876553,32.0669647 104.961947,32.0669647 L103.759593,32.0669647 L103.759593,34.6857039 L103.765888,34.6919989 Z M114.524122,32.4635526 C114.524122,34.3646565 115.348773,35.5166499 117.061025,35.5166499 C118.773278,35.5166499 119.956747,34.6164584 119.956747,32.3691269 L119.956747,27.1190585 C119.956747,26.2755223 119.755305,26.1370313 118.477411,26.0300155 L118.477411,25.4823465 L122.046702,25.4823465 L122.046702,26.0300155 C120.957659,26.1559164 120.800283,26.2755223 120.800283,27.1190585 L120.800283,32.652404 C120.800283,35.3340936 118.962129,36.5805127 116.651847,36.5805127 C113.894617,36.5805127 112.245315,35.3026184 112.245315,32.6209287 L112.245315,27.1064684 C112.245315,26.2503421 112.087939,26.1559164 110.998896,26.0300155 L110.998896,25.4823465 L115.764246,25.4823465 L115.764246,26.0300155 C114.675203,26.1559164 114.517827,26.2503421 114.517827,27.1064684 L114.517827,32.4698476 L114.524122,32.4635526 Z M127.447851,26.1244412 L127.447851,31.0975276 L128.196962,31.0975276 C129.833674,31.0975276 130.63944,30.1595657 130.63944,28.5417389 C130.63944,27.1379436 129.814789,26.1244412 128.159192,26.1244412 L127.441556,26.1244412 L127.447851,26.1244412 Z M127.447851,34.8053097 C127.447851,35.661436 127.605228,35.7558617 128.694271,35.8817626 L128.694271,36.4294316 L123.910036,36.4294316 L123.910036,35.8817626 C124.999078,35.7558617 125.156455,35.661436 125.156455,34.8053097 L125.156455,27.1064684 C125.156455,26.2503421 124.999078,26.1559164 123.910036,26.0300155 L123.910036,25.4823465 L128.876827,25.4823465 C131.464091,25.4823465 132.962312,26.6972904 132.962312,28.5228538 C132.962312,30.2225162 131.589992,31.1101177 130.425408,31.4059849 L132.779755,34.5975732 C133.478506,35.5481252 133.868798,35.8565824 134.680859,35.8754676 L134.680859,36.4231366 L131.722188,36.4231366 C131.268944,36.0957942 130.878652,35.5984855 130.412818,34.8997354 L128.259912,31.7522124 L127.447851,31.7522124 L127.447851,34.8053097 L127.447851,34.8053097 Z M136.355342,35.8754676 C137.444385,35.7495666 137.601761,35.655141 137.601761,34.7990147 L137.601761,27.1001733 C137.601761,26.2440471 137.444385,26.1496214 136.355342,26.0237205 L136.355342,25.4760515 L144.910309,25.4760515 L144.98585,28.277347 L144.532606,28.277347 C143.770906,26.5776845 143.317663,26.099261 142.071243,26.099261 L139.886862,26.099261 L139.886862,30.4302527 L141.863507,30.4302527 C142.549667,30.4302527 142.782584,29.9958945 142.93996,28.9949822 L143.481334,28.9949822 L143.481334,32.5327981 L142.93996,32.5327981 C142.782584,31.5381808 142.549667,31.1164127 141.863507,31.1164127 L139.886862,31.1164127 L139.886862,34.7297692 C139.886862,35.5733054 140.308631,35.7873369 141.271773,35.7873369 L142.234915,35.7873369 C143.493924,35.7873369 143.934577,35.1452422 144.979555,33.2944987 L145.527224,33.2944987 L145.042505,36.4105465 L136.349047,36.4105465 L136.349047,35.8628775 L136.355342,35.8754676 Z M151.035389,30.4554329 L155.725198,30.4554329 L155.725198,27.1064684 C155.725198,26.2503421 155.567822,26.1559164 154.478779,26.0300155 L154.478779,25.4823465 L159.244129,25.4823465 L159.244129,26.0300155 C158.155086,26.1559164 157.99771,26.2503421 157.99771,27.1064684 L157.99771,34.8053097 C157.99771,35.661436 158.155086,35.7558617 159.244129,35.8817626 L159.244129,36.4294316 L154.478779,36.4294316 L154.478779,35.8817626 C155.567822,35.7558617 155.725198,35.661436 155.725198,34.8053097 L155.725198,31.2045434 L151.035389,31.2045434 L151.035389,34.8053097 C151.035389,35.661436 151.192765,35.7558617 152.281808,35.8817626 L152.281808,36.4294316 L147.497573,36.4294316 L147.497573,35.8817626 C148.586616,35.7558617 148.743992,35.661436 148.743992,34.8053097 L148.743992,27.1064684 C148.743992,26.2503421 148.586616,26.1559164 147.497573,26.0300155 L147.497573,25.4823465 L152.281808,25.4823465 L152.281808,26.0300155 C151.192765,26.1559164 151.035389,26.2503421 151.035389,27.1064684 L151.035389,30.4554329 Z M164.632689,32.4635526 C164.632689,34.3646565 165.45734,35.5166499 167.169592,35.5166499 C168.881845,35.5166499 170.065313,34.6164584 170.065313,32.3691269 L170.065313,27.1190585 C170.065313,26.2755223 169.863872,26.1370313 168.585977,26.0300155 L168.585977,25.4823465 L172.155269,25.4823465 L172.155269,26.0300155 C171.066226,26.1559164 170.908849,26.2755223 170.908849,27.1190585 L170.908849,32.652404 C170.908849,35.3340936 169.070696,36.5805127 166.760414,36.5805127 C164.003184,36.5805127 162.353882,35.3026184 162.353882,32.6209287 L162.353882,27.1064684 C162.353882,26.2503421 162.196506,26.1559164 161.107463,26.0300155 L161.107463,25.4823465 L165.872813,25.4823465 L165.872813,26.0300155 C164.78377,26.1559164 164.626394,26.2503421 164.626394,27.1064684 L164.626394,32.4698476 L164.632689,32.4635526 Z M177.556418,26.1244412 L177.556418,31.0975276 L178.305529,31.0975276 C179.942241,31.0975276 180.748007,30.1595657 180.748007,28.5417389 C180.748007,27.1379436 179.923355,26.1244412 178.267758,26.1244412 L177.550123,26.1244412 L177.556418,26.1244412 Z M177.556418,34.8053097 C177.556418,35.661436 177.713794,35.7558617 178.802837,35.8817626 L178.802837,36.4294316 L174.018602,36.4294316 L174.018602,35.8817626 C175.107645,35.7558617 175.265021,35.661436 175.265021,34.8053097 L175.265021,27.1064684 C175.265021,26.2503421 175.107645,26.1559164 174.018602,26.0300155 L174.018602,25.4823465 L178.985394,25.4823465 C181.572658,25.4823465 183.070879,26.6972904 183.070879,28.5228538 C183.070879,30.2225162 181.698558,31.1101177 180.533975,31.4059849 L182.888322,34.5975732 C183.587072,35.5481252 183.977365,35.8565824 184.789426,35.8754676 L184.789426,36.4231366 L181.830754,36.4231366 C181.377511,36.0957942 180.987218,35.5984855 180.521385,34.8997354 L178.368479,31.7522124 L177.556418,31.7522124 L177.556418,34.8053097 L177.556418,34.8053097 Z M193.860587,31.0471672 C193.860587,28.4473132 193.035936,25.967065 191.071882,25.967065 C189.246319,25.967065 188.421668,28.3340024 188.421668,30.8583158 C188.421668,33.3826293 189.265204,35.938418 191.210373,35.938418 C193.048527,35.938418 193.860587,33.5714807 193.860587,31.0471672 M185.99178,31.1730682 C185.99178,27.603777 188.251701,25.3312654 191.241848,25.3312654 C194.527862,25.3312654 196.30936,27.868169 196.30936,30.73871 C196.30936,34.3080011 194.049439,36.5805127 191.059292,36.5805127 C187.754393,36.5805127 185.99178,34.0436092 185.99178,31.1730682 M200.552221,32.1550953 L204.228528,32.1550953 L202.3589,27.465286 L200.552221,32.1550953 L200.552221,32.1550953 Z M204.49292,32.8223702 L200.30042,32.8223702 L199.633145,34.566098 C199.538719,34.7990147 199.494654,35.0004562 199.494654,35.1704224 C199.494654,35.667731 199.884947,35.8376973 200.835499,35.8691725 L200.835499,36.4168415 L197.625025,36.4168415 L197.625025,35.8691725 C198.059383,35.8062221 198.374136,35.7117964 198.544102,35.2900283 L201.943427,26.5650944 L201.458708,25.3942159 L203.888596,25.3942159 L207.892245,35.2900283 C208.062211,35.7117964 208.389554,35.8062221 208.811322,35.8691725 L208.811322,36.4168415 L204.045972,36.4168415 L204.045972,35.8691725 C204.965049,35.8376973 205.355342,35.6803211 205.355342,35.1830125 C205.355342,35.0130463 205.311276,34.8116048 205.216851,34.5786881 L204.499215,32.8160752 L204.49292,32.8223702 Z M88.2485995,6.96232096 L88.5192865,11.1548216 L87.9401423,11.1548216 C86.7755587,8.44795183 86.3412006,7.61700575 84.9437003,7.61700575 L83.9805583,7.61700575 L83.9805583,17.8779308 C83.9805583,18.8788432 84.3771462,18.9292035 85.6172703,19.0739896 L85.6172703,19.7097893 L79.6936319,19.7097893 L79.6936319,19.0739896 C80.9085758,18.9292035 81.3303439,18.8725481 81.3303439,17.8779308 L81.3303439,7.61700575 L80.3672018,7.61700575 C78.9697016,7.61700575 78.5353434,8.45424688 77.3518748,11.1548216 L76.7727305,11.1548216 L77.0434175,6.96232096 L88.2485995,6.96232096 L88.2485995,6.96232096 Z M90.7225526,19.0739896 C91.9941519,18.9292035 92.1767083,18.8221878 92.1767083,17.8212754 L92.1767083,8.85083478 C92.1767083,7.84992245 91.9941519,7.74290667 90.7225526,7.59812061 L90.7225526,6.96232096 L100.693906,6.96232096 L100.782036,10.2294499 L100.253252,10.2294499 C99.3656509,8.2528054 98.836867,7.68625125 97.3827114,7.68625125 L94.8395128,7.68625125 L94.8395128,12.7348782 L97.1434996,12.7348782 C97.9429705,12.7348782 98.2136575,12.2249795 98.3962138,11.0603959 L99.0320134,11.0603959 L99.0320134,15.1836511 L98.3962138,15.1836511 C98.2136575,14.0190676 97.9429705,13.5343491 97.1434996,13.5343491 L94.8395128,13.5343491 L94.8395128,17.7457349 C94.8395128,18.7277621 95.3305264,18.9795639 96.4573396,18.9795639 L97.5841528,18.9795639 C99.0571936,18.9795639 99.5607973,18.2367485 100.782036,16.0712526 L101.417836,16.0712526 L100.857577,19.7034942 L90.7225526,19.7034942 L90.7225526,19.0676946 L90.7225526,19.0739896 Z M119.163571,17.76462 C119.887501,18.7466472 120.214843,19.0173342 121.140215,19.0739896 L121.140215,19.7097893 L117.671645,19.7097893 C117.142861,19.2754311 116.582602,18.582976 116.091588,17.8779308 L112.95036,13.4462184 L117.382073,8.83194964 C117.64017,8.5801478 117.835316,8.32205091 117.835316,8.07024906 C117.835316,7.76179181 117.564629,7.64848098 116.494471,7.59812061 L116.494471,6.96232096 L120.561071,6.96232096 L120.561071,7.59812061 C119.780485,7.63589089 119.472028,7.83103731 118.924359,8.39759146 L115.235462,12.2816349 L119.157276,17.76462 L119.163571,17.76462 Z M112.755214,17.8212754 C112.755214,18.8221878 112.93777,18.9292035 114.20937,19.0739896 L114.20937,19.7097893 L108.631959,19.7097893 L108.631959,19.0739896 C109.903558,18.9292035 110.086114,18.8221878 110.086114,17.8212754 L110.086114,8.85083478 C110.086114,7.84992245 109.903558,7.74290667 108.631959,7.59812061 L108.631959,6.96232096 L114.20937,6.96232096 L114.20937,7.59812061 C112.93777,7.74290667 112.755214,7.84992245 112.755214,8.85083478 L112.755214,17.8212754 Z M126.849822,15.0955205 C126.849822,17.3113767 127.812964,18.6522215 129.808494,18.6522215 C131.804023,18.6522215 133.182638,17.6009488 133.182638,14.9822097 L133.182638,8.86342487 C133.182638,7.88139768 132.949722,7.71772648 131.457796,7.59182556 L131.457796,6.95602591 L135.618821,6.95602591 L135.618821,7.59182556 C134.347222,7.73661162 134.164666,7.88139768 134.164666,8.86342487 L134.164666,15.309552 C134.164666,18.4318949 132.02435,19.8860505 129.336365,19.8860505 C126.119597,19.8860505 124.199608,18.4004197 124.199608,15.2717818 L124.199608,8.84453973 C124.199608,7.84362741 124.017051,7.73661162 122.745452,7.59182556 L122.745452,6.95602591 L128.303978,6.95602591 L128.303978,7.59182556 C127.032378,7.73661162 126.849822,7.84362741 126.849822,8.84453973 L126.849822,15.0892254 L126.849822,15.0955205 Z M148.120783,8.86971992 C148.120783,7.88769273 147.79344,7.72402153 146.301514,7.59812061 L146.301514,6.96232096 L150.531785,6.96232096 L150.531785,7.59812061 C149.260186,7.74290667 149.07763,7.88769273 149.07763,8.86971992 L149.07763,19.7475595 L148.190028,19.7475595 L140.23309,9.70696104 L140.23309,17.8023903 C140.23309,18.7844175 140.541547,18.9480887 142.033473,19.0739896 L142.033473,19.7097893 L137.803202,19.7097893 L137.803202,19.0739896 C139.093687,18.9292035 139.257358,18.7844175 139.257358,17.8023903 L139.257358,8.72493386 C138.709689,7.94434814 138.457887,7.63589089 137.784317,7.59812061 L137.784317,6.96232096 L141.504689,6.96232096 L148.114488,15.3725025 L148.114488,8.86971992 L148.120783,8.86971992 Z M152.810592,19.0739896 C154.082191,18.9292035 154.264748,18.8221878 154.264748,17.8212754 L154.264748,8.85083478 C154.264748,7.84992245 154.082191,7.74290667 152.810592,7.59812061 L152.810592,6.96232096 L162.781945,6.96232096 L162.870076,10.2294499 L162.341292,10.2294499 C161.45369,8.2528054 160.924906,7.68625125 159.470751,7.68625125 L156.927552,7.68625125 L156.927552,12.7348782 L159.231539,12.7348782 C160.03101,12.7348782 160.301697,12.2249795 160.484253,11.0603959 L161.120053,11.0603959 L161.120053,15.1836511 L160.484253,15.1836511 C160.301697,14.0190676 160.03101,13.5343491 159.231539,13.5343491 L156.927552,13.5343491 L156.927552,17.7457349 C156.927552,18.7277621 157.418566,18.9795639 158.545379,18.9795639 L159.672192,18.9795639 C161.145233,18.9795639 161.648837,18.2367485 162.870076,16.0712526 L163.505875,16.0712526 L162.945616,19.7034942 L152.810592,19.7034942 L152.810592,19.0676946 L152.810592,19.0739896 Z M176.127443,8.86971992 C176.127443,7.88769273 175.8001,7.72402153 174.314469,7.59812061 L174.314469,6.96232096 L178.54474,6.96232096 L178.54474,7.59812061 C177.273141,7.74290667 177.090585,7.88769273 177.090585,8.86971992 L177.090585,19.7475595 L176.202983,19.7475595 L168.25234,9.70696104 L168.25234,17.8023903 C168.25234,18.7844175 168.560797,18.9480887 170.052723,19.0739896 L170.052723,19.7097893 L165.822452,19.7097893 L165.822452,19.0739896 C167.112937,18.9292035 167.276608,18.7844175 167.276608,17.8023903 L167.276608,8.72493386 C166.728939,7.94434814 166.477137,7.63589089 165.803567,7.59812061 L165.803567,6.96232096 L169.523939,6.96232096 L176.133738,15.3725025 L176.133738,8.86971992 L176.127443,8.86971992 Z M189.246319,15.6243044 C189.246319,14.623392 189.082648,14.4974911 187.792163,14.352705 L187.792163,13.7357905 L193.205903,13.7357905 L193.205903,14.352705 C191.934303,14.4974911 191.751747,14.623392 191.751747,15.6243044 L191.751747,18.6396314 C190.574573,19.401332 188.994517,19.8923456 187.124888,19.8923456 C183.096059,19.8923456 180.842432,17.1665906 180.842432,13.6476599 C180.842432,9.43627406 183.675203,6.78605967 187.3641,6.78605967 C188.981927,6.78605967 190.360542,7.15117234 191.411815,7.83733236 L191.4307,10.7771189 L190.738245,10.7771189 C190.303886,8.66827844 189.252614,7.5288751 187.433345,7.5288751 C184.802016,7.5288751 183.656318,10.0531886 183.656318,13.1566463 C183.656318,16.260104 184.852377,19.130645 187.452231,19.130645 C188.163571,19.130645 188.7616,19.0236292 189.252614,18.6396314 L189.252614,15.6243044 L189.246319,15.6243044 Z M197.964958,14.7367029 L202.251884,14.7367029 L200.073798,9.27260286 L197.964958,14.7367029 Z M202.560341,15.5172886 L197.675385,15.5172886 L196.8948,17.5505884 C196.787784,17.8212754 196.731128,18.0604872 196.731128,18.2619287 C196.731128,18.8410729 197.184372,19.0425144 198.2923,19.0802846 L198.2923,19.7160843 L194.553043,19.7160843 L194.553043,19.0802846 C195.062941,19.0047441 195.428054,18.8977283 195.6232,18.4067147 L199.582784,8.23392026 L199.01623,6.87419031 L201.849001,6.87419031 L206.51363,18.4067147 C206.715072,18.8977283 207.092774,19.0047441 207.583788,19.0802846 L207.583788,19.7160843 L202.025262,19.7160843 L202.025262,19.0802846 C203.09542,19.0425144 203.548663,18.859958 203.548663,18.2808138 C203.548663,18.0793723 203.492008,17.8464556 203.384992,17.5757686 L202.547751,15.5235836 L202.560341,15.5172886 Z M227.495019,32.9356811 C227.495019,34.6164584 228.225244,35.6425509 229.74235,35.6425509 C231.259456,35.6425509 232.310729,34.84308 232.310729,32.8538455 L232.310729,28.2018064 C232.310729,27.458991 232.128173,27.33309 231.001359,27.2386644 L231.001359,26.7539458 L234.161472,26.7539458 L234.161472,27.2386644 C233.19833,27.3519752 233.059839,27.458991 233.059839,28.2018064 L233.059839,33.0993522 C233.059839,35.4725846 231.429422,36.5742177 229.389828,36.5742177 C226.94735,36.5742177 225.486899,35.4411094 225.486899,33.067877 L225.486899,28.1829213 C225.486899,27.4275157 225.348408,27.3393851 224.385266,27.2323693 L224.385266,26.7476508 L228.609242,26.7476508 L228.609242,27.2323693 C227.6461,27.3456801 227.507609,27.4275157 227.507609,28.1829213 L227.507609,32.929386 L227.495019,32.9356811 Z M243.660697,28.2018064 C243.660697,27.458991 243.41519,27.33309 242.282082,27.2386644 L242.282082,26.7539458 L245.49885,26.7539458 L245.49885,27.2386644 C244.535708,27.3519752 244.397217,27.458991 244.397217,28.2018064 L244.397217,36.4672019 L243.723647,36.4672019 L237.680403,28.8376061 L237.680403,34.9878661 C237.680403,35.7306815 237.91332,35.8565824 239.046428,35.9510081 L239.046428,36.4357267 L235.82966,36.4357267 L235.82966,35.9510081 C236.811687,35.8439923 236.931293,35.7306815 236.931293,34.9878661 L236.931293,28.0884956 C236.51582,27.4967612 236.326968,27.2638445 235.81707,27.2323693 L235.81707,26.7476508 L238.643545,26.7476508 L243.666992,33.1371225 L243.666992,28.1955114 L243.660697,28.2018064 Z M250.352331,35.0067512 C250.352331,35.7621567 250.490822,35.8502874 251.453964,35.9573032 L251.453964,36.4420217 L247.217398,36.4420217 L247.217398,35.9573032 C248.18054,35.8502874 248.319031,35.7621567 248.319031,35.0067512 L248.319031,28.1892163 C248.319031,27.4338108 248.18054,27.3456801 247.217398,27.2386644 L247.217398,26.7539458 L251.453964,26.7539458 L251.453964,27.2386644 C250.490822,27.3519752 250.352331,27.4338108 250.352331,28.1892163 L250.352331,35.0067512 Z M260.846173,28.3969528 C260.928008,28.1892163 260.984664,27.9940699 260.984664,27.8429888 C260.984664,27.4149256 260.739157,27.2638445 259.864146,27.2386644 L259.864146,26.7539458 L262.665441,26.7539458 L262.665441,27.2386644 C262.262558,27.2953198 262.004461,27.3771554 261.85338,27.7485631 L258.309269,36.5238573 L257.78678,36.5238573 L253.827196,27.7485631 C253.64464,27.3645653 253.399133,27.2953198 253.015135,27.2386644 L253.015135,26.7539458 L257.264292,26.7539458 L257.264292,27.2386644 C256.382985,27.2638445 256.131183,27.4149256 256.131183,27.8303987 C256.131183,27.9940699 256.187839,28.1766262 256.282264,28.3969528 L258.737332,33.8484627 L260.846173,28.3969528 L260.846173,28.3969528 Z M264.214022,35.9573032 C265.177164,35.8439923 265.315655,35.7621567 265.315655,35.0067512 L265.315655,28.1892163 C265.315655,27.4338108 265.177164,27.3456801 264.214022,27.2386644 L264.214022,26.7539458 L271.786963,26.7539458 L271.856208,29.234194 L271.453325,29.234194 C270.779755,27.7296779 270.376872,27.3016148 269.275239,27.3016148 L267.34266,27.3016148 L267.34266,31.1352979 L269.092683,31.1352979 C269.703303,31.1352979 269.904744,30.7513001 270.043235,29.8636986 L270.527954,29.8636986 L270.527954,32.9986315 L270.043235,32.9986315 C269.904744,32.1173251 269.697008,31.7459173 269.092683,31.7459173 L267.34266,31.7459173 L267.34266,34.9438007 C267.34266,35.6866162 267.714068,35.8817626 268.570194,35.8817626 L269.426321,35.8817626 C270.546839,35.8817626 270.930837,35.3152085 271.856208,33.6784965 L272.340927,33.6784965 L271.912864,36.4357267 L264.214022,36.4357267 L264.214022,35.9510081 L264.214022,35.9573032 Z M277.213293,27.3205 L277.213293,31.7207372 L277.874272,31.7207372 C279.322133,31.7207372 280.039768,30.8897911 280.039768,29.4608156 C280.039768,28.2206915 279.309543,27.3205 277.849092,27.3205 L277.213293,27.3205 L277.213293,27.3205 Z M277.213293,35.0067512 C277.213293,35.7621567 277.351784,35.8502874 278.314926,35.9573032 L278.314926,36.4420217 L274.07836,36.4420217 L274.07836,35.9573032 C275.041502,35.8502874 275.179993,35.7621567 275.179993,35.0067512 L275.179993,28.1892163 C275.179993,27.4338108 275.041502,27.3456801 274.07836,27.2386644 L274.07836,26.7539458 L278.478597,26.7539458 C280.769994,26.7539458 282.091953,27.8303987 282.091953,29.4419305 C282.091953,30.9464465 280.877009,31.7333273 279.844622,31.9914241 L281.928282,34.8178998 C282.545197,35.661436 282.891424,35.938418 283.609059,35.9510081 L283.609059,36.4357267 L280.99032,36.4357267 C280.587437,36.1461545 280.247505,35.7055013 279.832032,35.0822918 L277.930928,32.2935864 L277.213293,32.2935864 L277.213293,34.9941611 L277.213293,35.0067512 Z M285.170231,35.667731 L285.04433,33.3070888 L285.623474,33.3070888 C285.957112,34.9500958 286.838418,36.0265487 288.229623,36.0265487 C289.350141,36.0265487 290.048891,35.4222242 290.048891,34.4653772 C290.048891,33.4455798 289.457157,33.0175166 287.80156,32.4068972 C286.171143,31.840343 285.126165,31.0975276 285.126165,29.4671107 C285.126165,27.8366937 286.410355,26.6091597 288.342934,26.6091597 C289.501222,26.6091597 290.53361,26.9239121 291.213475,27.4212207 L291.213475,29.4797008 L290.703576,29.4797008 C290.439184,28.0192501 289.652304,27.1631238 288.342934,27.1631238 C287.379792,27.1631238 286.769172,27.7548581 286.769172,28.6235745 C286.769172,29.5867165 287.291661,29.9895995 288.770997,30.5246784 C290.621741,31.1856582 291.735964,31.9032935 291.735964,33.6407262 C291.735964,35.5733054 290.149612,36.5679226 288.229623,36.5679226 C286.920254,36.5679226 285.787145,36.1650397 285.170231,35.655141 M296.828656,35.0067512 C296.828656,35.7621567 296.967147,35.8502874 297.930289,35.9573032 L297.930289,36.4420217 L293.693723,36.4420217 L293.693723,35.9573032 C294.656865,35.8502874 294.795356,35.7621567 294.795356,35.0067512 L294.795356,28.1892163 C294.795356,27.4338108 294.656865,27.3456801 293.693723,27.2386644 L293.693723,26.7539458 L297.930289,26.7539458 L297.930289,27.2386644 C296.967147,27.3519752 296.828656,27.4338108 296.828656,28.1892163 L296.828656,35.0067512 Z M308.32341,26.7539458 L308.531147,29.9392391 L308.090494,29.9392391 C307.209187,27.8807591 306.87555,27.2512544 305.811687,27.2512544 L305.081461,27.2512544 L305.081461,35.0445215 C305.081461,35.799927 305.383624,35.8439923 306.321586,35.9573032 L306.321586,36.4420217 L301.826923,36.4420217 L301.826923,35.9573032 C302.752294,35.8439923 303.067047,35.8062221 303.067047,35.0445215 L303.067047,27.2512544 L302.336821,27.2512544 C301.272959,27.2512544 300.945616,27.8870541 300.045425,29.9392391 L299.604771,29.9392391 L299.812508,26.7539458 L308.32341,26.7539458 L308.32341,26.7539458 Z M315.449402,35.0508165 C315.449402,35.8062221 315.751565,35.8502874 316.676936,35.9635982 L316.676936,36.4483168 L312.251519,36.4483168 L312.251519,35.9635982 C313.189481,35.8502874 313.491643,35.8125171 313.491643,35.0508165 L313.491643,32.7216495 L310.715528,27.7548581 C310.507791,27.3834504 310.287465,27.3016148 309.903467,27.2449594 L309.903467,26.7602409 L314.058197,26.7602409 L314.058197,27.2449594 C313.214661,27.2701396 312.981744,27.3834504 312.981744,27.742268 C312.981744,28.00666 313.107645,28.1955114 313.271316,28.5039686 L315.191305,31.8592282 L316.985394,28.5354438 C317.111295,28.289937 317.274966,27.9688897 317.274966,27.7485631 C317.274966,27.3897455 316.972804,27.2764346 316.185923,27.2512544 L316.185923,26.7665359 L318.962038,26.7665359 L318.962038,27.2512544 C318.57804,27.3079099 318.326238,27.4149256 318.149977,27.7611532 L315.461992,32.7027643 L315.461992,35.0634066 L315.449402,35.0508165 Z M237.667813,10.2294499 L233.651574,21.4661071 L232.606596,21.4661071 L228.376325,10.2294499 L227.306167,18.8914333 C227.287282,19.0362193 227.262102,19.3320865 227.262102,19.3950369 C227.262102,20.4211295 227.72164,20.628866 229.251336,20.7358818 L229.251336,21.4661071 L224.416741,21.4661071 L224.416741,20.7358818 C225.606505,20.6729313 226.047158,20.4400146 226.154174,19.4831676 L227.450953,9.04598121 C227.450953,7.9380531 227.054365,7.57923547 225.67575,7.51628501 L225.67575,6.78605967 L230.40333,6.78605967 C230.447395,7.27077821 230.573296,7.60441566 230.736967,8.06395402 L234.148882,17.1854758 L237.327881,8.04506888 C237.491552,7.58553052 237.623748,7.27077821 237.661518,6.78605967 L242.326147,6.78605967 L242.326147,7.51628501 C240.985302,7.57923547 240.569829,7.9380531 240.569829,9.04598121 L241.866609,19.4831676 C241.99251,20.490375 242.433163,20.6729313 243.578861,20.7358818 L243.578861,21.4661071 L236.780212,21.4661071 L236.780212,20.7358818 C238.246957,20.628866 238.744266,20.4211295 238.744266,19.3950369 C238.744266,19.3320865 238.725381,19.0425144 238.700201,18.8914333 L237.655223,10.2294499 L237.667813,10.2294499 Z M249.521385,15.7376152 L254.456701,15.7376152 L251.944978,9.44256911 L249.51509,15.7376152 L249.521385,15.7376152 Z M254.815519,16.6378068 L249.187747,16.6378068 L248.287556,18.9795639 C248.161655,19.2943162 248.098704,19.5650032 248.098704,19.7979199 C248.098704,20.4651948 248.621193,20.6981115 249.899088,20.7421768 L249.899088,21.4724022 L245.586981,21.4724022 L245.586981,20.7421768 C246.17242,20.6603412 246.594188,20.5344403 246.82081,19.9678861 L251.384718,8.2528054 L250.736329,6.68533893 L253.997163,6.68533893 L259.373132,19.9741812 C259.606049,20.5407353 260.040407,20.6666363 260.606961,20.7484719 L260.606961,21.4786972 L254.204899,21.4786972 L254.204899,20.7484719 C255.438728,20.7044065 255.961217,20.49667 255.961217,19.8293951 C255.961217,19.5964784 255.898267,19.3257914 255.772366,19.0110391 L254.809224,16.6441018 L254.815519,16.6378068 Z M263.156455,20.2952285 L262.967603,16.7196424 L263.84891,16.7196424 C264.352513,19.2061856 265.687063,20.8428975 267.802199,20.8428975 C269.495566,20.8428975 270.565724,19.9238208 270.565724,18.4759602 C270.565724,16.9273789 269.665532,16.2789891 267.153809,15.3599124 C264.686151,14.5037862 263.093504,13.3706779 263.093504,10.9030198 C263.093504,8.43536174 265.038673,6.5720281 267.972165,6.5720281 C269.728483,6.5720281 271.295949,7.0504516 272.322042,7.80585713 L272.322042,10.9219049 L271.547751,10.9219049 C271.151163,8.70604872 269.955104,7.40926923 267.972165,7.40926923 C266.505419,7.40926923 265.586342,8.30946082 265.586342,9.62512544 C265.586342,11.0918712 266.379518,11.6961956 268.620555,12.5082565 C271.42185,13.5154639 273.115218,14.6045069 273.115218,17.2358361 C273.115218,20.1630326 270.71051,21.6675486 267.802199,21.6675486 C265.812964,21.6675486 264.100712,21.0632242 263.156455,20.2889335 M276.394937,20.2952285 L276.206085,16.7196424 L277.087392,16.7196424 C277.590995,19.2061856 278.925545,20.8428975 281.040681,20.8428975 C282.734048,20.8428975 283.804206,19.9238208 283.804206,18.4759602 C283.804206,16.9273789 282.904014,16.2789891 280.392291,15.3599124 C277.924633,14.5037862 276.331986,13.3706779 276.331986,10.9030198 C276.331986,8.43536174 278.277155,6.5720281 281.210647,6.5720281 C282.966965,6.5720281 284.534431,7.0504516 285.560524,7.80585713 L285.560524,10.9219049 L284.786233,10.9219049 C284.389645,8.70604872 283.193586,7.40926923 281.210647,7.40926923 C279.743901,7.40926923 278.824824,8.30946082 278.824824,9.62512544 C278.824824,11.0918712 279.618,11.6961956 281.859037,12.5082565 C284.660332,13.5154639 286.353699,14.6045069 286.353699,17.2358361 C286.353699,20.1630326 283.948992,21.6675486 281.040681,21.6675486 C279.051446,21.6675486 277.339193,21.0632242 276.394937,20.2889335 M289.324961,20.7358818 C290.791707,20.5722106 290.999443,20.4400146 290.999443,19.2943162 L290.999443,8.95785056 C290.999443,7.80585713 290.791707,7.67995621 289.324961,7.51628501 L289.324961,6.78605967 L300.81342,6.78605967 L300.920436,10.5504972 L300.316112,10.5504972 C299.290019,8.27169054 298.685695,7.62330079 297.011212,7.62330079 L294.084016,7.62330079 L294.084016,13.4399234 L296.740525,13.4399234 C297.659602,13.4399234 297.974354,12.8544841 298.182091,11.5136393 L298.912316,11.5136393 L298.912316,16.260104 L298.182091,16.260104 C297.974354,14.9192592 297.659602,14.3590001 296.740525,14.3590001 L294.084016,14.3590001 L294.084016,19.2124806 C294.084016,20.3392939 294.65057,20.635161 295.94735,20.635161 L297.244129,20.635161 C298.937497,20.635161 299.522936,19.7790348 300.926731,17.2861965 L301.656956,17.2861965 L301.008567,21.4724022 L289.331256,21.4724022 L289.331256,20.7421768 L289.324961,20.7358818 Z M311.911586,19.3572667 C311.911586,20.5092601 312.371125,20.5722106 313.77492,20.7358818 L313.77492,21.4661071 L307.058106,21.4661071 L307.058106,20.7358818 C308.480786,20.5722106 308.940325,20.5029651 308.940325,19.3572667 L308.940325,15.8194508 L304.735234,8.28428063 C304.420482,7.71772648 304.086844,7.59182556 303.501405,7.50998996 L303.501405,6.77976462 L309.796451,6.77976462 L309.796451,7.50998996 C308.518557,7.55405529 308.166034,7.71772648 308.166034,8.26539549 C308.166034,8.6619834 308.354885,8.95785056 308.606687,9.41738892 L311.514999,14.5037862 L314.234458,9.46145425 C314.42331,9.08375148 314.675112,8.60532798 314.675112,8.27169054 C314.675112,7.73031658 314.215573,7.56035033 313.019515,7.51628501 L313.019515,6.78605967 L317.224605,6.78605967 L317.224605,7.51628501 C316.639166,7.59812061 316.261463,7.76808685 315.990776,8.29057568 L311.911586,15.7816805 L311.911586,19.3572667 L311.911586,19.3572667 Z M83.3699388,57.8137031 L83.3699388,51.103184 L84.7170787,51.103184 L84.7170787,57.9584892 C84.7170787,60.5079828 83.1747924,62.0187939 80.7197244,62.0187939 C78.2646564,62.0187939 76.7412553,60.5079828 76.7412553,57.9584892 L76.7412553,51.103184 L78.1072803,51.103184 L78.1072803,57.8137031 C78.1072803,59.8029377 79.0074719,60.8605054 80.7260195,60.8605054 C82.444567,60.8605054 83.3762339,59.8029377 83.3762339,57.8137031 M95.2235106,59.5511358 L95.2549858,59.5511358 L95.2549858,51.103184 L96.5706504,51.103184 L96.5706504,61.8236475 L95.3368214,61.8236475 L89.6712799,53.3064501 L89.6335097,53.3064501 L89.6335097,61.8236475 L88.317845,61.8236475 L88.317845,51.103184 L89.7027552,51.103184 L95.2235106,59.5511358 L95.2235106,59.5511358 Z M100.335088,51.103184 L101.682228,51.103184 L101.682228,61.8236475 L100.335088,61.8236475 L100.335088,51.103184 Z M109.003366,60.4324423 L109.034842,60.4324423 L112.194955,51.103184 L113.56098,51.103184 L109.758772,61.8236475 L108.216486,61.8236475 L104.426868,51.103184 L105.843253,51.103184 L109.003366,60.4324423 Z M117.62758,60.6401788 L123.053909,60.6401788 L123.053909,61.8299425 L116.311915,61.8299425 L116.311915,51.103184 L123.053909,51.103184 L123.053909,52.2929477 L117.62758,52.2929477 L117.62758,55.7741082 L122.45588,55.7741082 L122.45588,56.9638719 L117.62758,56.9638719 L117.62758,60.6401788 L117.62758,60.6401788 Z M130.469474,52.2425874 L127.693358,52.2425874 L127.693358,56.1455159 L130.488359,56.1455159 C131.898449,56.1455159 132.609789,55.4845361 132.609789,54.1562814 C132.609789,52.8280266 131.885859,52.2425874 130.475769,52.2425874 M133.044147,61.8236475 C132.836411,61.5655506 132.691625,61.2948636 132.609789,60.8605054 L132.143956,58.9027461 C131.873269,57.7318675 131.294125,57.2849193 129.9281,57.2849193 L127.699653,57.2849193 L127.699653,61.8236475 L126.352513,61.8236475 L126.352513,51.103184 L130.507244,51.103184 C132.836411,51.103184 134.051355,52.1481617 134.051355,54.0870359 C134.051355,54.8550315 133.812143,55.4971262 133.327424,55.9944348 C132.861591,56.4917435 132.250972,56.7624304 131.527041,56.7813156 L131.527041,56.8127908 C132.603494,56.9386917 133.163753,57.4737706 133.42185,58.5628136 L133.950634,60.7283095 C134.03247,61.0997172 134.240206,61.483715 134.498303,61.8173524 L133.037852,61.8173524 L133.044147,61.8236475 Z M143.191762,61.1878478 C142.499307,61.7481069 141.618,62.025089 140.541547,62.025089 C138.344576,62.025089 136.770815,60.8227352 136.500128,58.8775659 L137.733957,58.4935681 C137.929103,59.9729039 139.062211,60.9171608 140.541547,60.9171608 C142.020883,60.9171608 142.91478,60.1932305 142.91478,59.0412371 C142.91478,58.4180276 142.625207,57.9647842 142.001998,57.6311468 C141.680951,57.4548855 141.347313,57.3100994 140.333811,57.0394125 C139.647651,56.844266 139.144047,56.6868899 138.823,56.560989 C138.514542,56.428793 138.243855,56.290302 138.023529,56.1266308 C137.318484,55.610437 136.978551,54.9053918 136.978551,53.9611349 C136.978551,53.0798285 137.318484,52.3433081 137.973168,51.7767539 C138.646738,51.2164948 139.49657,50.9269227 140.522662,50.9269227 C142.637798,50.9269227 143.940872,51.9404251 144.148609,53.7974637 L142.895894,54.0681507 C142.751108,52.8343217 141.838327,52.0285558 140.535252,52.0285558 C139.232178,52.0285558 138.269036,52.7839613 138.269036,53.8918894 C138.269036,54.515099 138.539723,54.9494572 139.169227,55.2893897 C139.490275,55.4656509 139.842797,55.5915519 140.824824,55.8496488 C141.517279,56.0447952 142.027178,56.2021713 142.348225,56.3469574 C142.669273,56.4728583 142.93996,56.6176444 143.166581,56.7813156 C143.871627,57.2975094 144.211559,58.0151446 144.211559,58.9971718 C144.211559,59.9099535 143.871627,60.6338838 143.185467,61.1941429 M147.321312,51.103184 L148.668452,51.103184 L148.668452,61.8236475 L147.321312,61.8236475 L147.321312,51.103184 Z M156.474309,52.2929477 L156.474309,61.8299425 L155.120874,61.8299425 L155.120874,52.2929477 L151.450862,52.2929477 L151.450862,51.103184 L160.150616,51.103184 L160.150616,52.2929477 L156.474309,52.2929477 L156.474309,52.2929477 Z M163.41145,51.103184 L166.363826,56.3406623 L166.414187,56.3406623 L169.366563,51.103184 L170.795539,51.103184 L167.037396,57.6248517 L167.037396,61.8299425 L165.690256,61.8299425 L165.690256,57.6248517 L161.919524,51.103184 L163.41145,51.103184 L163.41145,51.103184 Z M184.751656,53.2434997 C184.172512,52.4566189 183.373041,52.053736 182.359538,52.053736 C181.346036,52.053736 180.546565,52.4566189 179.954831,53.2434997 C179.375686,54.0303804 179.086114,55.1068333 179.086114,56.4665633 C179.086114,57.8262932 179.375686,58.9090411 179.954831,59.6959219 C180.546565,60.4828027 181.352331,60.8856856 182.359538,60.8856856 C183.366746,60.8856856 184.172512,60.4828027 184.751656,59.6959219 C185.34339,58.9090411 185.632962,57.8325883 185.632962,56.4665633 C185.632962,55.1005383 185.34339,54.0303804 184.751656,53.2434997 M178.922443,52.4251437 C179.772274,51.4179363 180.930563,50.9143326 182.359538,50.9143326 C183.788514,50.9143326 184.940507,51.4116413 185.796633,52.4251437 C186.646465,53.419761 187.080823,54.7669008 187.080823,56.4665633 C187.080823,58.1662257 186.646465,59.5196606 185.796633,60.526868 C184.946802,61.5214853 183.788514,62.0187939 182.359538,62.0187939 C180.930563,62.0187939 179.772274,61.5214853 178.922443,60.526868 C178.072612,59.5196606 177.638254,58.1662257 177.638254,56.4665633 C177.638254,54.7669008 178.072612,53.419761 178.922443,52.4251437 M191.499945,57.0582976 L191.499945,61.8299425 L190.14651,61.8299425 L190.14651,51.103184 L196.617818,51.103184 L196.617818,52.2929477 L191.499945,52.2929477 L191.499945,55.8748289 L196.057559,55.8748289 L196.057559,57.0582976 L191.499945,57.0582976 L191.499945,57.0582976 Z M211.373406,59.5511358 L211.411176,59.5511358 L211.411176,51.103184 L212.726841,51.103184 L212.726841,61.8236475 L211.486716,61.8236475 L205.821175,53.3064501 L205.7897,53.3064501 L205.7897,61.8236475 L204.474035,61.8236475 L204.474035,51.103184 L205.85265,51.103184 L211.373406,59.5511358 L211.373406,59.5511358 Z M217.800648,60.6401788 L223.226977,60.6401788 L223.226977,61.8299425 L216.484983,61.8299425 L216.484983,51.103184 L223.226977,51.103184 L223.226977,52.2929477 L217.800648,52.2929477 L217.800648,55.7741082 L222.635243,55.7741082 L222.635243,56.9638719 L217.800648,56.9638719 L217.800648,60.6401788 L217.800648,60.6401788 Z M229.125436,60.1113949 L231.303522,51.103184 L232.732497,51.103184 L234.916878,60.1113949 L234.979828,60.1113949 L237.164209,51.103184 L238.498759,51.103184 L235.703759,61.8299425 L234.274783,61.8299425 L232.027452,52.9539276 L231.983386,52.9539276 L229.72976,61.8299425 L228.30708,61.8299425 L225.512079,51.103184 L226.878104,51.103184 L229.075075,60.1113949 L229.125436,60.1113949 L229.125436,60.1113949 Z M253.065496,52.1166864 L247.097792,60.6401788 L253.115856,60.6401788 L253.115856,61.8299425 L245.492555,61.8299425 L245.492555,60.8164401 L251.447669,52.2929477 L245.605866,52.2929477 L245.605866,51.103184 L253.065496,51.103184 L253.065496,52.1166864 Z M257.71124,60.6401788 L263.131274,60.6401788 L263.131274,61.8299425 L256.395575,61.8299425 L256.395575,51.103184 L263.131274,51.103184 L263.131274,52.2929477 L257.71124,52.2929477 L257.71124,55.7741082 L262.53954,55.7741082 L262.53954,56.9638719 L257.71124,56.9638719 L257.71124,60.6401788 L257.71124,60.6401788 Z M270.118776,52.5636347 L270.0873,52.5636347 L268.242852,57.6878022 L271.982109,57.6878022 L270.118776,52.5636347 L270.118776,52.5636347 Z M274.84006,61.8236475 L273.474035,61.8236475 L272.378697,58.8209105 L267.821084,58.8209105 L266.744631,61.8236475 L265.410081,61.8236475 L269.37596,51.103184 L270.867886,51.103184 L274.833765,61.8236475 L274.84006,61.8236475 Z M277.590995,61.8299425 L277.590995,51.103184 L278.938135,51.103184 L278.938135,60.6401788 L284.282629,60.6401788 L284.282629,61.8299425 L277.590995,61.8299425 L277.590995,61.8299425 Z M290.980558,52.5636347 L290.949083,52.5636347 L289.104635,57.6878022 L292.843892,57.6878022 L290.980558,52.5636347 L290.980558,52.5636347 Z M295.701843,61.8236475 L294.335818,61.8236475 L293.24048,58.8209105 L288.682866,58.8209105 L287.606414,61.8236475 L286.271864,61.8236475 L290.237743,51.103184 L291.729669,51.103184 L295.695548,61.8236475 L295.701843,61.8236475 Z M305.352148,59.5511358 L305.383624,59.5511358 L305.383624,51.103184 L306.699288,51.103184 L306.699288,61.8236475 L305.465459,61.8236475 L299.799918,53.3064501 L299.768443,53.3064501 L299.768443,61.8236475 L298.452778,61.8236475 L298.452778,51.103184 L299.831393,51.103184 L305.352148,59.5511358 L305.352148,59.5511358 Z M311.810866,52.2614725 L311.810866,60.671654 L313.655314,60.671654 C316.097792,60.671654 317.539358,59.1797281 317.539358,56.435088 C317.539358,53.690448 316.141857,52.2614725 313.655314,52.2614725 L311.810866,52.2614725 Z M310.463726,61.8299425 L310.463726,51.1094791 L313.655314,51.1094791 C316.991689,51.1094791 318.949448,53.0357632 318.949448,56.4413831 C318.949448,59.847003 316.941328,61.8362376 313.655314,61.8362376 L310.463726,61.8362376 L310.463726,61.8299425 Z M216.308722,6.86789527 L216.881571,6.86789527 L216.881571,36.5742177 L216.308722,36.5742177 L216.308722,6.86789527 Z" id="Shape" fill="#004A8D" fill-rule="nonzero"></path>
            <polygon id="Path" fill="#CF8A00" fill-rule="nonzero" points="76.6657147 43.6435544 318.955743 43.6435544 318.955743 44.2164036 76.6657147 44.2164036"></polygon>
        </g>
    </g>
</svg>