<svg xmlns="http://www.w3.org/2000/svg" width="508" height="113" viewBox="0 0 508 113">
  <g fill="none" fill-rule="evenodd">
    <g fill="#FFF" fill-rule="nonzero">
      <path d="M27.325 85.796s.05 2.36 2.16 3.57c3.2 1.84 5.22-.53 5.22-.53s-.23 3.18 2.92 5.55c2.81 2.1 5 2.08 6.37 2.5.83.27 1.63.62 1.63.62s-1.17-.48-2.91-2.48c-1.74-1.98-2.73-5.58-4.83-9.29-3.3-5.84-7.41-7.13-7.41-7.13s1.19 2.88-.06 5.27c-1.69 3.2-3.09 1.92-3.09 1.92M17.395 71.396c-.61-2.84-.04-3.88-.04-3.88s2.64-1.95 6.22-.44c2.87 1.22 3.53 3.91 3.53 3.91s1.98-1.64 2.2-4.13c.23-2.49-.98-4.18-2.39-5.42-1.42-1.23-4.32-2.46-4.32-2.46s2.09-1.13 2.69-2.3c.24-.46.38-.91.52-1.37.22-.7.41-1.39.87-2.08.75-1.12 2.6-2.17 2.6-2.17s-2.93-1.2-5.92.09c-2.99 1.29-3.75 2.55-7.09 3.9-.22.09-.43.17-.63.24h-.01c-3.57 1.19-6.06.02-6.06.02s1.28 1.37 1.28 5-.27 6.55 1.32 9.84c1.96 4.07 6.57 4.77 6.57 4.77s-.72-.69-1.32-3.54"/>
      <path d="M21.235 81.116c3.28 1.41 4.57 5.82 4.57 5.82s.19-1.68.76-2.74c.63-1.17 1.48-1.99 2.2-4.13.67-1.99.45-4.8-2.46-8.17-2.92-3.36-6.65-2.36-6.65-2.36s1.29 1.1 2.11 3.33c.82 2.23.82 3.51.82 3.51s-1.64-.5-4.86.65c-3.36 1.23-3.24 4.96-3.24 4.96s2.93-2.53 6.75-.88M11.585 13.566c.77 2.21.89 3.65.94 4.88.04.94.54 1.73.54 1.73s-3.12.35-4.1 1.92c-1.57 2.56.1 5.12.1 5.12s.45-1.88 2.52-2.27c1.14-.22 3.16-.16 5.27 1.72 2.66 2.37 6.16 2.51 6.16 2.51s-.85-2.22-.2-4.53c.63-2.31 1.34-3.1 2.81-5.43 1.49-2.3 1.33-3.2 1.18-4.78-.14-1.55-1.04-3.2-1.04-3.2s-.49 1.67-1.86 2.42c-1.39.74-2.37 1.43-3.5 2.42-1.14.98-1.34 2.31-1.34 2.31s-.3-3.01-1.77-4.78c-1.48-1.77-3.32-3.64-5.07-4.09-2.66-.69-3.75-.19-3.75-.19s2.07 1.28 3.1 4.23M27.985 17.526s-1.23 2.11-1.37 3.69c-.16 1.58 0 3.5-.35 5.81-.35 2.32-2.46 3.65-2.46 3.65s3.6 1.03 5.62-2.21c1.54-2.47.3-5.47-.64-7-.93-1.53-.79-3.93-.79-3.93"/>
      <path d="M8.185 19.286c1.36-1.2 2.56-1.18 2.56-1.18s-.99-.59-1.87-2.86c-.89-2.27-.3-3.89-.3-3.89s-1.78 1.57-2.57 4.58c-.78 3.01.64 6.07.64 6.07s.2-1.53 1.53-2.72M3.635 30.766c1.34-2.08 3.99-1.45 3.99-1.45s-3.31-5.34-6.56-1.04c-3.79 5.02 3.75 8.72 3.75 8.72s-2.9-3.59-1.19-6.23M21.425 41.416c-3.7-.16-5.37 7.51-4.31 11.68 4.06-8.37 12.31-6.76 12.31-6.76s-4.35-4.77-8-4.92"/>
      <path d="M11.885 51.866c1.44 1.68 3.4 2.22 3.4 2.22s-1.38-5.33.2-9.86c1.57-4.53 5.16-6.41 7.39-6.95 2.22-.55 2.96-.55 4.33-1.18 1.07-.51 1.45-1.23 2.02-2.27-1.42.2-2.41.15-3.94-.44-1.53-.59-2.95-1.39-5.76-3.3-2.81-1.92-3.9-1.99-6.55-2.22-2.27-.2-3.25.88-3.25.88s1.75.78 2.52 2.02c1.18 1.92.44 3.8.44 3.8s-1.19-.59-2.76-.84c-1.58-.25-2.52-.03-3.45-.2-.84-.14-1.13-.84-1.13-.84s-.49 1.72.59 4.3c1.08 2.55 2.56 2.75 2.56 2.75s-3.95.63-4.94 4.48c-1.33 5.22 2.77 8.42 2.77 8.42s.25-2.61 1.53-3.15 2.86-1.53 2.86-1.53-.25 2.21 1.18 3.9M35.525 60.906v-18.73h38.71v18.73s.43 6.25-3.15 13.53c2.52-7.35 2.18-13.59 2.18-13.59v-17.79h-36.77v17.79s-.34 6.24 2.19 13.59c-3.59-7.28-3.16-13.53-3.16-13.53m34.4 9.52-9.29-.71 3.54 8.61-7.1-6.03-2.2 9.05-2.2-9.05-7.11 6.03 3.55-8.61-9.29.71 7.92-4.9-7.92-4.89 9.29.71-3.55-8.62 7.11 6.04 2.2-9.06 2.2 9.06 7.1-6.04-3.54 8.62 9.29-.71-7.92 4.89 7.92 4.9Zm-36.55-9.62s-1.43 25.55 21.51 36.99c22.93-11.44 21.51-36.99 21.51-36.99v-20.79h-43.01v20.79h-.01ZM25.665 92.766c.27 0 .5.08.74.2.68.37 1.98 1.2 3.16 1.47 1.37.33 2.19.08 2.28-.31.09-.4-1.4-1.92-3.03-2.2-1.64-.26-4.1-.32-7.44.26-3.34.58-4.57-.07-4.8-.59-.23-.52.05-.7.24-1.07-.47.03-.81.23-1.03.64-.6 1.17-.99 2.56-.96 5.23.03 2.67.14 4.83 1.69 5.17 1.55.34 2.69-.73 3.8-.9 1.11-.18 1.52.37 1.52.37l2.37-7.29c.24-.56.81-.96 1.47-.96M92.945 90.516c.18.38.48.56.25 1.08-.24.51-1.47 1.17-4.8.59-3.34-.59-5.81-.53-7.44-.26-1.64.27-3.13 1.8-3.03 2.2.08.39.9.64 2.28.31 1.19-.26 2.48-1.1 3.16-1.47.24-.12.47-.2.73-.2.66 0 1.23.4 1.47.97l2.37 7.29s.41-.54 1.53-.37c1.11.17 2.25 1.25 3.8.9 1.55-.35 1.67-2.5 1.69-5.17.04-2.67-.35-4.06-.95-5.23-.22-.41-.56-.6-1.03-.64"/>
      <path d="M84.775 94.076c-.11-.25-.29-.43-.57-.43-.18 0-.34.05-.46.16-4.58 4.88-15.77 8.33-28.86 8.33s-24.16-3.41-28.74-8.25a.727.727 0 0 0-.48-.19c-.28 0-.52.17-.62.4l-2.97 9.15c-.03.07-.04.15-.04.23 0 .23.11.43.28.55 7.7 5.32 19.43 8.71 32.57 8.71s24.89-3.4 32.6-8.73c.2-.11.35-.29.35-.53 0-.08-.02-.16-.05-.24-.01 0-3.02-9.15-3.02-9.15M65.545 2.966c.26 0 .64-.2.86-.45l1.74-2.04c.22-.26.18-.46-.06-.46h-2.25c-.25 0-.64.2-.86.46l-1.74 2.04c-.22.25-.19.45.06.45h2.25ZM55.915 2.966h3.61c.26 0 .64-.2.86-.45l1.74-2.04c.22-.26.19-.46-.07-.46h-3.6c-.26 0-.65.2-.86.46l-1.75 2.04c-.22.25-.19.45.07.45M32.725 2.576c.22.25.61.46.86.46h1.63c.25 0 .29-.21.07-.46l-1.75-2.04c-.22-.25-.6-.46-.85-.46h-1.63c-.25 0-.29.21-.07.46l1.74 2.04ZM38.085 2.576c.21.25.6.46.86.46h2.24c.27 0 .29-.21.07-.46l-1.75-2.04c-.22-.25-.6-.46-.85-.46h-2.25c-.26 0-.28.21-.07.46l1.75 2.04ZM29.805 3.036c.51 0 .24-.4-.12-.89l-1.22-1.37c-.37-.37-1.09-.66-1.59-.66h-1.66c-.5 0-.49.39.02.9 1.99 1.95 4.58 2.03 4.58 2.03M70.895 2.966c.26 0 .64-.2.85-.45l1.75-2.04c.22-.26.19-.46-.07-.46h-1.63c-.25 0-.63.2-.85.46l-1.75 2.04c-.22.25-.19.45.07.45h1.63ZM76.195 2.966c.25 0 .63-.2.85-.45l1.75-2.04c.21-.26.19-.46-.07-.46h-1.63c-.26 0-.64.2-.86.46l-1.75 2.04c-.21.25-.19.45.07.45h1.64ZM79.975 2.966s2.58-.08 4.59-2.04c.51-.5.52-.89.01-.89h-1.66c-.51 0-1.22.3-1.6.67l-1.21 1.37c-.37.49-.64.9-.13.9M44.105 2.576c.22.25.6.46.86.46h3.6c.26 0 .28-.21.06-.46l-1.74-2.04c-.21-.25-.59-.46-.86-.46h-3.6c-.26 0-.28.21-.07.46l1.75 2.04ZM51.485 2.796c.18.27.49.27.67 0l1.92-2.25c.18-.26.07-.48-.25-.48h-4.06c-.32 0-.43.22-.24.47l1.97 2.26h-.01Z"/>
      <path d="M51.625 4.536c-2.21.71-4.27 1.43-5.9 3.47-2.52 1.75-5.03 3.63-7.68 4.93-.3.59-.16 1.32-.02 1.91 1.32.89 3.08.91 4.69 1.36.73 1.03.87 2.65.56 3.82 1.02.3 3.5-1.74 4.29-3.49 1.18.16 2.19 1.34 2.33 2.52.09.96-.13 1.83-.51 2.6-1.18 2.36-3.92 3.76-3.92 3.76 1.11.45 1.93 1.31 2.3 1.42.39.1 1.63-2.56 2.15-2.68.66-.15 2.98 1.67 3.48 1.67.42 0 1.95-2.16 2.61-2.12.74.05 2.3 2.57 2.81 2.65.35.04 2.68-2.22 3.42-2.14.54.06 1.53 2.05 1.93 2.2.42.15 1.2-1.02 4.02-1.55 0 0 .03-1.84-.03-3.2-.01-.37-.03-.72-.06-.97-.53-5.74-1.96-10.89-4.86-15.62-.15-.44-.58-.59-1.02-.3-.28 0-.3.25-.19.51 0 0 1 1.31 1.4 1.99.59 1.02.98 2.16.95 3.4 0 .44-.04.87-.13 1.3-.59 2.77-2.89 5.06-5.42 6.25-.68.25-1.44.44-2.22.54-1.6.2-3.37.08-4.6-.96-.4-.3-.74-.67-1.01-1.08-.49-.79-.76-1.83-.68-2.82.02-.34.1-.8.38-1.03l.07-.09c.99-1.36 1.29 1.24 3.76 1.63.39.08.82.09 1.24 0 .39-.15.76-.41 1.06-.76.35-.38.59-.83.7-1.28.07-.32.08-.65.03-.97-.13-.58-.44-1.06-.88-1.42-1.28-1.08-3.36-1.86-4.04-3.47-.13-.46-.14-.84-.03-1.23.11-.38.37-.8.62-1.2.06-.09 1.15-1.37 1.16-1.37l1.98-2.28c.16-.6-.58-.45-.73-.31-1.49 1.46-2.24 3.37-4.01 4.38"/>
      <path d="M61.155 6.226c-1.46-.3-3.08-.17-4.12.7-.74.14-1.4-.21-1.9-.6-.15-.14-.15-.44 0-.58.73-.58 1.77-.72 2.79-.71 1.24.19 2.49.47 3.22 1.2m1.41 2.38c-1.04-.38-2.21-.39-3.01.29-.54.05-.99-.3-1.33-.68-.1-.14-.08-.39.04-.51.57-.45 1.33-.48 2.06-.4.87.26 1.77.6 2.24 1.3m.52 2.18c-.77-.36-1.91-.22-2.55.22-.42 0-.68-.38-.76-.84-.04-.22-.02-.29.08-.38.45-.28 1.03-.25 1.58-.13.65.25 1.32.57 1.64 1.13m-2.63 2.09c-.31-.03-.47-.36-.48-.71 0-.17.02-.23.1-.27.37-.17.8-.09 1.21.06.47.26.92.56 1.11 1.01-.54-.35-1.4-.36-1.93-.1m-.87 1.62c-.21-.15-.19-.44-.06-.69.06-.11.11-.15.18-.15.33.02.6.25.83.51.24.37.44.77.4 1.15-.24-.46-.86-.8-1.34-.82m-.66 2.32c.04-.42-.3-.92-.68-1.14-.1-.19.07-.38.32-.5.11-.05.16-.06.23-.03.26.17.37.44.42.72 0 .34-.05.7-.29.95m-2.13.65c.16-.28-.01-.69-.33-.92-.02-.15.19-.24.47-.28.12-.02.18 0 .23.04.2.17.22.37.19.57-.1.24-.25.48-.55.59m-1.48-.11c-.11.1-.23.2-.43.2.14-.12.14-.37.02-.57.02-.08.16-.08.3-.04.07.02.1.03.11.07.07.13.05.24-.01.34m-1.63-.37c-.07.03-.15.06-.24.03.09-.03.13-.15.1-.26.02-.04.09-.02.15.03.06.12.02.18-.02.21m8.24-13.11c-2.35-.31-7.12-.2-7.12-.2-.3.04-.48.09-.73.27-.2.12-.29.24-.44.41-.3.37-.48.77-.56 1.07-.08.29-.08.58.01.92.6 1.41 2.72 2.29 3.89 3.27.52.43.89 1.01 1.04 1.7.06.38.06.78-.03 1.16-.12.54-.39 1.06-.81 1.5-.35.41-.78.71-1.26.89-.53.1-1.01.09-1.47.02-1.27-.21-2.29-1.05-3.16-1.99-.1.11-.16.19-.21.27l-.07.07c-.14.1-.2.52-.21.68-.08.9.17 1.85.6 2.54.24.37.55.7.91.97 1.07.92 2.68 1.04 4.25.85.73-.09 1.44-.28 2.09-.5 2.44-1.16 4.6-3.34 5.13-5.92.08-.4.13-.8.13-1.2.03-1.13-.32-2.18-.88-3.14-.42-.71-.85-1.29-1.53-1.98-.33-.33-.65-.55-.89-.79.3-.59 1.04-.44 1.33-.87M94.395 55.296h-.01c-.21-.07-.41-.15-.63-.24-3.34-1.35-4.1-2.61-7.1-3.9-2.99-1.29-5.91-.1-5.91-.1s1.85 1.04 2.6 2.17c.47.69.65 1.37.87 2.07.14.45.29.91.52 1.37.59 1.17 2.68 2.31 2.68 2.31s-2.9 1.23-4.31 2.46c-1.42 1.24-2.63 2.93-2.4 5.42.23 2.49 2.21 4.14 2.21 4.14s.66-2.7 3.52-3.91c3.57-1.51 6.21.44 6.21.44s.57 1.04-.03 3.88c-.61 2.85-1.32 3.54-1.32 3.54s4.6-.69 6.57-4.77c1.59-3.29 1.32-6.2 1.32-9.84 0-3.64 1.27-5 1.27-5s-2.48 1.17-6.05-.02M72.125 85.736c-2.1 3.71-3.09 7.3-4.83 9.29-1.74 2-2.91 2.48-2.91 2.48s.8-.35 1.64-.62c1.37-.42 3.55-.4 6.37-2.5 3.15-2.37 2.92-5.55 2.92-5.55s2.01 2.36 5.22.53c2.11-1.2 2.16-3.57 2.16-3.57s-1.4 1.29-3.1-1.92c-1.26-2.39-.06-5.27-.06-5.27s-4.11 1.29-7.41 7.12"/>
      <path d="M92.275 77.036c-3.22-1.16-4.86-.65-4.86-.65s0-1.28.82-3.51c.82-2.23 2.11-3.33 2.11-3.33s-3.73-1.01-6.65 2.36c-2.91 3.36-3.13 6.18-2.46 8.17.73 2.13 1.58 2.96 2.21 4.13.56 1.06.77 2.74.77 2.74s1.28-4.41 4.56-5.82c3.83-1.64 6.76.88 6.76.88s.11-3.73-3.25-4.96M101.415 11.366s.59 1.62-.29 3.89c-.89 2.27-1.87 2.86-1.87 2.86s1.2-.02 2.56 1.18c1.33 1.19 1.53 2.72 1.53 2.72s1.43-3.06.64-6.07c-.79-3.01-2.56-4.58-2.56-4.58M86.205 30.676s-2.12-1.33-2.47-3.65c-.34-2.32-.19-4.23-.34-5.81-.15-1.58-1.38-3.69-1.38-3.69s.14 2.4-.79 3.93c-.94 1.53-2.18 4.53-.64 7 2.02 3.25 5.62 2.22 5.62 2.22"/>
      <path d="M83.185 14.456c-.15 1.58-.29 2.47 1.18 4.78 1.48 2.33 2.18 3.12 2.82 5.43.64 2.31-.21 4.53-.21 4.53s3.51-.14 6.17-2.51c2.11-1.88 4.13-1.94 5.27-1.72 2.07.39 2.52 2.27 2.52 2.27s1.67-2.56.09-5.12c-.98-1.57-4.09-1.92-4.09-1.92s.51-.79.54-1.73c.05-1.23.17-2.67.94-4.88 1.04-2.95 3.11-4.23 3.11-4.23s-1.09-.49-3.75.19c-1.75.45-3.6 2.32-5.08 4.09s-1.77 4.78-1.77 4.78-.2-1.33-1.34-2.31c-1.13-.99-2.11-1.67-3.49-2.42-1.38-.74-1.87-2.42-1.87-2.42s-.88 1.65-1.04 3.2M108.925 28.266c-3.25-4.3-6.55 1.04-6.55 1.04s2.65-.62 3.98 1.45c1.72 2.64-1.18 6.23-1.18 6.23s7.54-3.7 3.75-8.72"/>
      <path d="M101.525 39.746s1.48-.2 2.55-2.75c1.09-2.57.59-4.3.59-4.3s-.29.69-1.13.83c-.94.17-1.88-.04-3.45.2-1.58.25-2.77.84-2.77.84s-.73-1.87.45-3.8c.77-1.24 2.51-2.02 2.51-2.02s-.99-1.07-3.26-.88c-2.65.23-3.75.3-6.55 2.22-2.81 1.91-4.24 2.7-5.77 3.3-1.53.59-2.51.64-3.94.44.57 1.05.95 1.77 2.02 2.27 1.38.63 2.12.63 4.33 1.18 2.22.54 5.82 2.42 7.4 6.95s.2 9.85.2 9.85 1.97-.54 3.4-2.21c1.43-1.68 1.18-3.9 1.18-3.9s1.58.99 2.87 1.53c1.28.54 1.52 3.15 1.52 3.15s4.1-3.2 2.77-8.42c-.98-3.85-4.92-4.48-4.92-4.48"/>
      <path d="M92.885 53.096c1.07-4.17-.62-11.84-4.31-11.68-3.66.15-8 4.92-8 4.92s8.26-1.61 12.31 6.76M63.345 28.696c-.47-1.31-1.18-2.48-1.51-2.51-.65-.04-3.32 2.38-3.32 2.38s-1.59-2.85-2.46-2.93c-.37-.04-1.76 1.5-2.5 2.46-.87-.89-2.75-2.29-3.44-2.14-.41.09-1.28 1.93-1.85 3.26-.48-.48-2.95-2.38-4.18-2.58-.59.87-.61 3.24-.61 3.24s-2.51-2.31-4.24-2.55c-.45.58.35 3.91 2.16 5.47-.06-.47-.87-2.07-.71-3.1.89-.44 3 .82 3 .82s.38-1.67 1.28-2.1c1.32.16 3.51 1.65 3.51 1.65s1.03-1.9 1.92-2.48c1.32-.28 3.22 1.35 3.22 1.35s1.4-1.64 2.43-1.64c1.02.45 2.34 2.02 2.34 2.02s1.97-1.33 3.17-1.69c.71.36 1.56 2.06 1.56 2.06s2.49-1.64 3.8-1.48c.45.44.88 1.85.88 1.85s2.72-1.01 3.89-.96c-.18 1.44-.9 2.49-1.5 3.66 1.37-.72 3.75-4.33 2.99-5.26-.43-.52-4.87 1.86-4.87 1.86s-.07-2.38-.65-2.83c-1.76.14-3.1 1.02-4.3 2.18M63.345 28.706v-.01.01z"/>
      <path d="M56.025 29.076c-1-.15-1.38 4.14-.39 4.29 1.03.15 1.57-4.11.39-4.29M59.585 33.436c1.08.43 2.61-3.54 1.52-3.97-.95-.37-2.44 3.57-1.52 3.97M52.105 33.476c.53-.14.33-3.37-.85-4.11-.44-.16-.73.29-.73.57-.01 1.48.82 3.74 1.58 3.54M63.635 33.546c.88.56 3.36-2.95 2.28-3.6-.77-.47-3.29 2.96-2.28 3.6M45.815 29.896c-.28-.15-.44.14-.44.29-.16 1.46 1.31 3.7 2.03 3.39.46-.19-.27-3.23-1.59-3.68M67.385 33.306c.72.55 2.52-1.86 2.08-2.33-.53-.58-2.63 1.9-2.08 2.33M42.425 31.336c-.52.24.55 2.69 1.15 2.36.67-.36-.5-2.67-1.15-2.36M52.465 34.926l1.07 2.6c.09.22.41.42.7.42h4.31c.3 0 .46-.19.37-.42l-1.08-2.6c-.1-.23-.41-.41-.7-.41h-4.31c-.3 0-.45.19-.36.41M62.815 34.996h-3.1c-.21 0-.33.14-.26.3l.77 1.87c.07.16.3.29.51.29h3.11c.2 0 .33-.12.26-.29l-.77-1.87c-.07-.17-.29-.3-.51-.3M67.075 35.196h-2.17c-.15 0-.23.1-.18.21l.54 1.32c.05.11.2.21.35.21h2.17c.15 0 .23-.1.18-.21l-.54-1.32c-.04-.11-.21-.21-.35-.21M68.665 35.466l.38.92c.04.07.15.15.25.15h1.52c.1 0 .16-.07.12-.15l-.37-.92a.303.303 0 0 0-.25-.15h-1.52c-.11 0-.17.06-.13.15M47.405 35.296l.78 1.87c.06.16.29.29.5.29h3.1c.21 0 .33-.12.26-.29l-.77-1.87c-.06-.17-.29-.3-.5-.3h-3.1c-.22 0-.33.14-.27.3M43.535 35.736l.53 1.31c.06.11.21.21.36.21h2.18c.14 0 .22-.09.18-.21l-.54-1.31c-.05-.11-.21-.21-.36-.21h-2.16c-.15 0-.23.09-.19.21M40.705 35.916c-.11 0-.17.07-.14.15l.38.92c.03.07.15.14.25.14h1.52c.1 0 .17-.07.12-.14l-.37-.92c-.03-.08-.15-.15-.25-.15h-1.52.01ZM54.865 65.526l1.41-4.4-1.38-8.36z"/>
      <path d="m53.415 61.136 1.45 4.39.03-12.76zM53.505 69.956l1.37 8.33-.01-12.76z"/>
      <path d="m54.885 78.286 1.47-8.36-1.49-4.4zM53.415 61.146l-6.02-5.95 7.47 10.33z"/>
      <path d="m47.395 55.196 3.73 7.65 3.74 2.68zM56.355 69.916l6.03 5.94-7.52-10.33zM62.385 75.856l-3.72-7.64-3.8-2.69z"/>
      <path d="m51.125 62.846-8.37-1.28 12.11 3.96zM42.755 61.566l7.5 3.96h4.61zM58.665 68.216l8.36 1.27-12.16-3.96z"/>
      <path d="m67.025 69.496-7.51-3.97h-4.65zM50.255 65.526l-7.51 3.94 12.12-3.94z"/>
      <path d="m42.745 69.466 8.42-1.18 3.7-2.76zM54.865 65.526h4.65l7.51-3.93z"/>
      <path d="m67.025 61.596-8.43 1.18-3.73 2.75zM51.165 68.286l-3.79 7.56 7.49-10.32zM47.375 75.846l6.13-5.89 1.36-4.43z"/>
      <path d="m58.595 62.776 3.8-7.57-7.53 10.32z"/>
      <path d="m62.395 55.206-6.12 5.92-1.41 4.4z"/>
    </g>
    <path fill="#FFF" fill-rule="nonzero" d="M137.015 55.036c.98 1.33 1.43 1.7 2.68 1.77v.86h-4.71c-.72-.59-1.48-1.53-2.15-2.49l-4.26-6.01 6.01-6.26c.34-.35.61-.69.61-1.04 0-.42-.37-.57-1.82-.64v-.86h5.52v.86c-1.06.05-1.48.32-2.22 1.08l-5 5.27 5.32 7.44.02.02Zm-8.7.07c0 1.35.25 1.5 1.97 1.7v.86h-7.56v-.86c1.72-.2 1.97-.34 1.97-1.7v-12.17c0-1.35-.25-1.5-1.97-1.7v-.86h7.56v.86c-1.73.2-1.97.35-1.97 1.7v12.17ZM147.935 55.116c0 1.35.25 1.5 1.97 1.7v.86h-7.56v-.86c1.72-.2 1.97-.34 1.97-1.7v-12.17c0-1.35-.25-1.5-1.97-1.7v-.86h7.56v.86c-1.73.2-1.97.35-1.97 1.7v12.17ZM165.495 49.746h1.06c2.73 0 3.99-1.55 3.99-4.17 0-2.46-1.33-4.21-3.99-4.21h-1.06v8.38Zm0 5.2c0 1.38.67 1.7 2.96 1.85v.89h-8.55v-.86c1.72-.2 1.97-.34 1.97-1.7v-12.18c0-1.35-.25-1.5-1.97-1.7v-.86h7.54c4.63 0 6.8 2.32 6.8 5.12 0 3.23-2.24 5.3-6.85 5.3h-1.9v4.14ZM182.505 51.416c0 3.01 1.31 4.83 4.02 4.83 2.71 0 4.58-1.43 4.58-4.98v-8.3c0-1.33-.32-1.55-2.34-1.72v-.86h5.64v.86c-1.73.2-1.97.39-1.97 1.72v8.75c0 4.24-2.91 6.21-6.56 6.21-4.36 0-6.97-2.02-6.97-6.26v-8.73c0-1.35-.25-1.5-1.97-1.7v-.86h7.54v.86c-1.72.2-1.97.34-1.97 1.7v8.48ZM202.945 41.386v7.86h1.18c2.59 0 3.87-1.48 3.87-4.04 0-2.22-1.31-3.82-3.92-3.82h-1.13Zm0 13.73c0 1.35.25 1.5 1.97 1.7v.86h-7.56v-.86c1.72-.2 1.97-.34 1.97-1.7v-12.17c0-1.35-.25-1.5-1.97-1.7v-.86h7.86c4.09 0 6.46 1.92 6.46 4.81 0 2.68-2.17 4.09-4.02 4.56l3.72 5.05c1.11 1.5 1.72 1.99 3.01 2.02v.86h-4.68c-.72-.52-1.33-1.31-2.07-2.41l-3.4-4.98h-1.28v4.83l-.01-.01ZM217.035 56.816c1.72-.2 1.97-.34 1.97-1.7v-12.18c0-1.35-.25-1.5-1.97-1.7v-.86h13.53l.12 4.43h-.71c-1.21-2.68-1.92-3.45-3.89-3.45h-3.45v6.85h3.13c1.08 0 1.45-.69 1.7-2.27h.86v5.59h-.86c-.25-1.58-.62-2.24-1.7-2.24h-3.13v5.72c0 1.33.67 1.67 2.19 1.67h1.53c2 0 2.69-1.01 4.34-3.94h.86l-.76 4.93h-13.75v-.86l-.01.01ZM240.255 48.236h7.42v-5.3c0-1.35-.25-1.5-1.97-1.7v-.86h7.54v.86c-1.73.2-1.97.34-1.97 1.7v12.17c0 1.36.25 1.5 1.97 1.7v.86h-7.54v-.86c1.72-.2 1.97-.34 1.97-1.7v-5.69h-7.42v5.69c0 1.36.25 1.5 1.97 1.7v.86h-7.56v-.86c1.72-.2 1.97-.34 1.97-1.7v-12.17c0-1.35-.25-1.5-1.97-1.7v-.86h7.56v.86c-1.73.2-1.97.34-1.97 1.7v5.3ZM261.755 51.416c0 3.01 1.31 4.83 4.02 4.83 2.71 0 4.58-1.43 4.58-4.98v-8.3c0-1.33-.32-1.55-2.34-1.72v-.86h5.64v.86c-1.73.2-1.97.39-1.97 1.72v8.75c0 4.24-2.91 6.21-6.56 6.21-4.36 0-6.97-2.02-6.97-6.26v-8.73c0-1.35-.25-1.5-1.97-1.7v-.86h7.54v.86c-1.72.2-1.97.34-1.97 1.7v8.48ZM282.195 41.386v7.86h1.18c2.59 0 3.87-1.48 3.87-4.04 0-2.22-1.31-3.82-3.92-3.82h-1.13Zm0 13.73c0 1.35.25 1.5 1.97 1.7v.86h-7.56v-.86c1.72-.2 1.97-.34 1.97-1.7v-12.17c0-1.35-.25-1.5-1.97-1.7v-.86h7.86c4.09 0 6.46 1.92 6.46 4.81 0 2.68-2.17 4.09-4.02 4.56l3.72 5.05c1.11 1.5 1.72 1.99 3.01 2.02v.86h-4.68c-.72-.52-1.33-1.31-2.07-2.41l-3.4-4.98h-1.28v4.83l-.01-.01ZM307.985 49.176c0-4.11-1.31-8.03-4.41-8.03-2.88 0-4.19 3.74-4.19 7.74s1.33 8.03 4.41 8.03c2.91 0 4.19-3.75 4.19-7.74m-12.45.2c0-5.64 3.57-9.24 8.3-9.24 5.2 0 8.01 4.02 8.01 8.55 0 5.64-3.57 9.24-8.3 9.24-5.23 0-8.01-4.02-8.01-8.55M318.565 50.926h5.82l-2.96-7.42-2.86 7.42Zm6.23 1.06h-6.63l-1.06 2.76c-.15.37-.22.69-.22.96 0 .79.61 1.06 2.12 1.11v.86h-5.08v-.86c.69-.1 1.18-.25 1.45-.91l5.37-13.8-.76-1.85h3.84l6.34 15.65c.27.66.79.81 1.45.91v.86h-7.54v-.86c1.45-.05 2.07-.3 2.07-1.08 0-.27-.07-.59-.22-.96l-1.13-2.78v-.01ZM140.955 11.086l.43 6.63h-.92c-1.84-4.28-2.53-5.6-4.74-5.6h-1.52v16.22c0 1.58.63 1.67 2.58 1.9v1.01h-9.36v-1.01c1.92-.23 2.59-.31 2.59-1.9v-16.22h-1.52c-2.21 0-2.9 1.32-4.77 5.6h-.92l.43-6.63h17.72ZM144.865 30.236c2.01-.23 2.3-.4 2.3-1.98v-14.19c0-1.58-.29-1.75-2.3-1.98v-1h15.77l.14 5.17h-.83c-1.41-3.13-2.24-4.02-4.54-4.02h-4.02v7.98h3.65c1.26 0 1.69-.8 1.98-2.64h1.01v6.52h-1.01c-.29-1.84-.72-2.61-1.98-2.61h-3.65v6.66c0 1.55.78 1.95 2.56 1.95h1.78c2.33 0 3.13-1.18 5.05-4.59h1.01l-.89 5.74h-16.03v-1.01ZM189.845 28.166c1.15 1.55 1.67 1.98 3.13 2.07v1.01h-5.49c-.83-.69-1.72-1.78-2.5-2.9l-4.97-7.01 7.01-7.29c.4-.4.72-.8.72-1.21 0-.49-.43-.66-2.13-.75v-1.01h6.43v1.01c-1.23.06-1.72.37-2.59 1.26l-5.83 6.15 6.2 8.67h.02Zm-10.14.09c0 1.58.29 1.75 2.3 1.98v1.01h-8.82v-1.01c2.01-.23 2.3-.4 2.3-1.98v-14.19c0-1.58-.29-1.75-2.3-1.98v-1.01h8.82v1.01c-2.01.23-2.3.4-2.3 1.98v14.19ZM202.005 23.946c0 3.5 1.52 5.63 4.68 5.63 3.16 0 5.34-1.66 5.34-5.8v-9.68c0-1.55-.37-1.81-2.73-2.01v-1.01h6.58v1.01c-2.01.23-2.3.46-2.3 2.01v10.19c0 4.94-3.39 7.24-7.64 7.24-5.08 0-8.13-2.35-8.13-7.29v-10.17c0-1.58-.29-1.75-2.3-1.98v-1.01h8.79v1.01c-2.01.23-2.3.4-2.3 1.98v9.88h.01ZM235.645 14.096c0-1.55-.52-1.81-2.87-2.01v-1.01h6.69v1.01c-2.01.23-2.3.46-2.3 2.01v17.21h-1.41l-12.58-15.88v12.81c0 1.55.49 1.81 2.84 2.01v1.01h-6.69v-1.01c2.04-.23 2.3-.46 2.3-2.01v-14.36c-.86-1.23-1.26-1.72-2.33-1.78v-1.01h5.89l10.45 13.3v-10.28l.01-.01ZM243.055 30.236c2.01-.23 2.3-.4 2.3-1.98v-14.19c0-1.58-.29-1.75-2.3-1.98v-1h15.77l.14 5.17h-.83c-1.41-3.13-2.24-4.02-4.54-4.02h-4.02v7.98h3.65c1.26 0 1.69-.8 1.98-2.64h1.01v6.52h-1.01c-.29-1.84-.72-2.61-1.98-2.61h-3.65v6.66c0 1.55.78 1.95 2.56 1.95h1.78c2.33 0 3.13-1.18 5.05-4.59h1.01l-.89 5.74h-16.03v-1.01ZM279.935 14.096c0-1.55-.52-1.81-2.87-2.01v-1.01h6.69v1.01c-2.01.23-2.3.46-2.3 2.01v17.21h-1.41l-12.58-15.88v12.81c0 1.55.49 1.81 2.84 2.01v1.01h-6.69v-1.01c2.04-.23 2.3-.46 2.3-2.01v-14.36c-.86-1.23-1.27-1.72-2.33-1.78v-1.01h5.89l10.45 13.3v-10.28l.01-.01ZM300.685 24.786c0-1.58-.26-1.78-2.3-2.01v-.98h8.56v.98c-2.01.23-2.3.43-2.3 2.01v4.77c-1.87 1.21-4.37 1.98-7.32 1.98-6.38 0-9.94-4.31-9.94-9.88 0-6.66 4.48-10.86 10.31-10.86 2.56 0 4.74.57 6.4 1.66l.03 4.65h-1.09c-.69-3.33-2.36-5.14-5.23-5.14-4.17 0-5.97 3.99-5.97 8.9s1.89 9.45 6 9.45c1.12 0 2.07-.17 2.84-.77v-4.77l.01.01ZM314.475 23.376h6.78l-3.45-8.64-3.33 8.64Zm7.27 1.24h-7.73l-1.23 3.22c-.17.43-.26.8-.26 1.12 0 .92.72 1.23 2.47 1.29v1.01h-5.92v-1.01c.81-.11 1.38-.29 1.69-1.06l6.26-16.08-.89-2.15h4.48l7.38 18.24c.32.78.92.95 1.69 1.06v1.01h-8.79v-1.01c1.69-.06 2.41-.34 2.41-1.26 0-.32-.09-.69-.26-1.12l-1.32-3.24.02-.02ZM362.885 52.166c0 2.66 1.16 4.28 3.56 4.28 2.4 0 4.06-1.27 4.06-4.41v-7.35c0-1.18-.28-1.37-2.07-1.53v-.76h5v.76c-1.53.18-1.75.35-1.75 1.53v7.75c0 3.75-2.57 5.5-5.8 5.5-3.86 0-6.17-1.79-6.17-5.54v-7.72c0-1.2-.22-1.33-1.75-1.51v-.76h6.68v.76c-1.53.18-1.75.31-1.75 1.51v7.51l-.01-.02ZM388.445 44.676c0-1.18-.39-1.37-2.18-1.53v-.76h5.08v.76c-1.53.17-1.75.35-1.75 1.53v13.07h-1.07l-9.56-12.07v9.73c0 1.18.37 1.37 2.16 1.53v.76h-5.08v-.76c1.55-.17 1.75-.35 1.75-1.53v-10.91c-.65-.94-.96-1.31-1.77-1.35v-.76h4.47l7.94 10.1v-7.81h.01ZM399.035 55.436c0 1.2.22 1.33 1.75 1.51v.76h-6.7v-.76c1.53-.18 1.75-.31 1.75-1.51v-10.78c0-1.2-.22-1.33-1.75-1.51v-.76h6.7v.76c-1.53.18-1.75.31-1.75 1.51v10.78ZM415.615 44.986c.13-.33.22-.63.22-.87 0-.68-.39-.92-1.77-.96v-.76h4.43v.76c-.63.09-1.05.22-1.29.81l-5.61 13.88h-.83l-6.26-13.88c-.28-.61-.68-.72-1.29-.81v-.76h6.72v.76c-1.4.04-1.79.28-1.79.94 0 .26.09.54.24.89l3.89 8.62 3.34-8.62ZM420.955 56.936c1.53-.17 1.75-.31 1.75-1.51v-10.78c0-1.2-.22-1.33-1.75-1.5v-.76h11.98l.11 3.93h-.63c-1.07-2.38-1.7-3.05-3.45-3.05h-3.05v6.07h2.77c.96 0 1.29-.61 1.51-2.01h.76v4.95h-.76c-.22-1.4-.55-1.98-1.51-1.98h-2.77v5.06c0 1.18.59 1.48 1.94 1.48h1.35c1.77 0 2.38-.89 3.84-3.49h.76l-.68 4.36h-12.18v-.76l.01-.01ZM441.515 43.286v6.96h1.05c2.29 0 3.43-1.31 3.43-3.58 0-1.96-1.16-3.38-3.47-3.38h-1.01Zm0 12.15c0 1.2.22 1.33 1.75 1.51v.76h-6.7v-.76c1.53-.18 1.75-.31 1.75-1.51v-10.78c0-1.2-.22-1.33-1.75-1.51v-.76h6.96c3.62 0 5.72 1.7 5.72 4.26 0 2.38-1.92 3.62-3.56 4.04l3.3 4.47c.98 1.33 1.53 1.77 2.66 1.79v.76h-4.14c-.63-.46-1.18-1.16-1.83-2.14l-3.01-4.41h-1.13v4.28h-.02ZM454.095 56.486l-.2-3.73h.92c.52 2.6 1.92 4.3 4.12 4.3 1.77 0 2.88-.96 2.88-2.46 0-1.62-.94-2.29-3.56-3.25-2.58-.89-4.23-2.07-4.23-4.65 0-2.58 2.03-4.52 5.09-4.52 1.83 0 3.47.5 4.54 1.29v3.25h-.81c-.42-2.31-1.66-3.67-3.73-3.67-1.53 0-2.49.94-2.49 2.31 0 1.53.83 2.16 3.16 3.01 2.92 1.05 4.69 2.18 4.69 4.93 0 3.06-2.51 4.63-5.54 4.63-2.07 0-3.86-.63-4.84-1.44M472.535 55.436c0 1.2.22 1.33 1.75 1.51v.76h-6.7v-.76c1.53-.18 1.75-.31 1.75-1.51v-10.78c0-1.2-.22-1.33-1.75-1.51v-.76h6.7v.76c-1.53.18-1.75.31-1.75 1.51v10.78ZM490.715 42.386l.33 5.04h-.7c-1.4-3.25-1.92-4.25-3.6-4.25h-1.16v12.33c0 1.2.48 1.27 1.96 1.44v.76h-7.11v-.76c1.46-.17 1.96-.24 1.96-1.44v-12.33h-1.16c-1.68 0-2.2 1-3.62 4.25h-.7l.33-5.04h13.47ZM501.985 55.506c0 1.2.48 1.27 1.94 1.44v.76h-7v-.76c1.48-.17 1.96-.24 1.96-1.44v-3.69l-4.38-7.86c-.33-.59-.68-.72-1.29-.81v-.76h6.57v.76c-1.33.04-1.7.22-1.7.79 0 .41.2.72.46 1.2l3.03 5.3 2.84-5.26c.2-.39.46-.9.46-1.24 0-.57-.48-.74-1.72-.79v-.76h4.39v.76c-.61.09-1 .26-1.29.81l-4.25 7.81v3.73l-.02.01ZM378.965 16.256l-6.35 17.77h-1.65l-6.68-17.77-1.69 13.7c-.03.23-.06.7-.06.79 0 1.62.73 1.95 3.14 2.12v1.16h-7.64v-1.16c1.89-.1 2.58-.46 2.75-1.98l2.05-16.51c0-1.76-.63-2.32-2.81-2.42v-1.16h7.48c.07.76.26 1.29.53 2.02l5.39 14.43 5.03-14.46c.27-.73.46-1.22.53-1.98h7.38v1.16c-2.12.1-2.78.66-2.78 2.42l2.05 16.51c.2 1.59.89 1.89 2.71 1.98v1.16h-10.75v-1.16c2.31-.17 3.11-.5 3.11-2.12 0-.1-.03-.56-.06-.79l-1.65-13.7-.03-.01ZM397.715 24.956h7.81l-3.97-9.96-3.84 9.96Zm8.37 1.42h-8.9l-1.42 3.71c-.2.5-.3.92-.3 1.29 0 1.06.83 1.42 2.85 1.49v1.16h-6.82v-1.16c.93-.13 1.59-.33 1.95-1.22l7.21-18.53-1.03-2.48h5.16l8.5 21.01c.36.89 1.06 1.09 1.95 1.22v1.16h-10.12v-1.16c1.95-.07 2.78-.4 2.78-1.45 0-.36-.1-.79-.3-1.29l-1.52-3.74.01-.01ZM419.275 32.176l-.3-5.66h1.39c.79 3.94 2.91 6.52 6.26 6.52 2.68 0 4.37-1.45 4.37-3.74 0-2.45-1.42-3.48-5.39-4.93-3.91-1.36-6.42-3.14-6.42-7.05 0-3.91 3.08-6.85 7.71-6.85 2.78 0 5.26.76 6.88 1.95v4.93h-1.22c-.63-3.51-2.51-5.56-5.66-5.56-2.32 0-3.77 1.42-3.77 3.51 0 2.32 1.26 3.27 4.8 4.56 4.43 1.59 7.11 3.31 7.11 7.48 0 4.63-3.8 7.01-8.4 7.01-3.14 0-5.86-.96-7.35-2.18M440.215 32.176l-.3-5.66h1.39c.79 3.94 2.91 6.52 6.26 6.52 2.68 0 4.37-1.45 4.37-3.74 0-2.45-1.42-3.48-5.39-4.93-3.91-1.36-6.42-3.14-6.42-7.05 0-3.91 3.08-6.85 7.71-6.85 2.78 0 5.26.76 6.88 1.95v4.93h-1.22c-.63-3.51-2.51-5.56-5.66-5.56-2.32 0-3.77 1.42-3.77 3.51 0 2.32 1.26 3.27 4.8 4.56 4.43 1.59 7.11 3.31 7.11 7.48 0 4.63-3.8 7.01-8.4 7.01-3.14 0-5.86-.96-7.35-2.18M460.655 32.866c2.32-.26 2.65-.46 2.65-2.28v-16.35c0-1.82-.33-2.02-2.65-2.28v-1.16h18.17l.17 5.96h-.96c-1.62-3.61-2.58-4.63-5.23-4.63h-4.63v9.2h4.2c1.46 0 1.95-.93 2.28-3.04h1.16v7.51h-1.16c-.33-2.12-.82-3.01-2.28-3.01h-4.2v7.68c0 1.79.89 2.25 2.94 2.25h2.05c2.68 0 3.61-1.36 5.82-5.29h1.16l-1.02 6.62h-18.46v-1.16l-.01-.02ZM496.385 30.686c0 1.82.73 1.92 2.95 2.18v1.16h-10.62v-1.16c2.25-.26 2.98-.36 2.98-2.18v-5.59l-6.65-11.91c-.5-.89-1.03-1.09-1.95-1.22v-1.16h9.96v1.16c-2.02.07-2.58.33-2.58 1.19 0 .63.3 1.09.69 1.82l4.6 8.04 4.3-7.98c.3-.59.7-1.36.7-1.88 0-.86-.73-1.13-2.62-1.19v-1.16h6.65v1.16c-.92.13-1.52.4-1.95 1.22l-6.45 11.85v5.66l-.01-.01ZM133.235 91.506v-10.61h2.13v10.84c0 4.04-2.44 6.42-6.32 6.42-3.88 0-6.3-2.39-6.3-6.42v-10.84h2.16v10.61c0 3.15 1.42 4.82 4.14 4.82 2.72 0 4.19-1.67 4.19-4.82M151.985 94.246h.05v-13.35h2.08v16.96h-1.95l-8.96-13.48h-.06v13.48h-2.08v-16.96h2.19zM160.065 80.896h2.13v16.96h-2.13zM173.775 95.646h.05l5.01-14.75h2.15l-6.01 16.96h-2.44l-5.99-16.96h2.23zM187.415 95.976h8.58v1.88h-10.66v-16.96h10.66v1.88h-8.58v5.51h7.64v1.88h-7.64zM207.735 82.696h-4.39v6.17h4.42c2.23 0 3.35-1.04 3.35-3.15s-1.14-3.02-3.38-3.02m4.06 15.15c-.33-.41-.56-.84-.69-1.52l-.74-3.1c-.43-1.85-1.34-2.56-3.5-2.56h-3.53v7.18h-2.13v-16.96h6.58c3.68 0 5.61 1.65 5.61 4.72 0 1.22-.38 2.23-1.14 3.02-.74.79-1.7 1.22-2.85 1.25v.05c1.7.2 2.59 1.04 3 2.76l.84 3.43c.13.58.46 1.19.86 1.72h-2.31v.01ZM227.845 96.836c-1.09.89-2.49 1.32-4.19 1.32-3.48 0-5.96-1.9-6.4-4.97l1.96-.61c.3 2.34 2.11 3.83 4.44 3.83 2.33 0 3.76-1.14 3.76-2.97 0-.99-.46-1.7-1.45-2.23-.51-.28-1.04-.51-2.64-.94-1.09-.3-1.88-.56-2.39-.76-.48-.21-.91-.43-1.27-.69-1.12-.81-1.65-1.93-1.65-3.43 0-1.4.53-2.56 1.57-3.45 1.07-.89 2.41-1.35 4.04-1.35 3.35 0 5.4 1.6 5.74 4.54l-1.98.43c-.23-1.95-1.67-3.22-3.73-3.22s-3.58 1.19-3.58 2.94c0 .99.43 1.68 1.42 2.21.51.28 1.07.48 2.62.89 1.09.31 1.9.56 2.41.79.51.2.94.43 1.29.69 1.12.81 1.65 1.95 1.65 3.5 0 1.45-.53 2.59-1.62 3.48M234.375 80.896h2.13v16.96h-2.13zM248.855 82.776v15.08h-2.14v-15.08h-5.81v-1.88h13.76v1.88zM259.825 80.896l4.67 8.28h.08l4.67-8.28h2.26l-5.94 10.31v6.65h-2.13v-6.65l-5.97-10.31zM294.415 84.276c-.91-1.24-2.19-1.88-3.78-1.88-1.59 0-2.87.63-3.81 1.88-.91 1.25-1.37 2.94-1.37 5.1 0 2.16.46 3.86 1.37 5.1.94 1.24 2.21 1.88 3.81 1.88s2.87-.63 3.78-1.88c.94-1.25 1.39-2.95 1.39-5.1 0-2.15-.46-3.85-1.39-5.1m-9.22-1.3c1.34-1.6 3.17-2.39 5.43-2.39s4.09.79 5.43 2.39c1.35 1.58 2.03 3.71 2.03 6.4 0 2.69-.68 4.83-2.03 6.42-1.35 1.58-3.17 2.36-5.43 2.36s-4.09-.79-5.43-2.36c-1.35-1.6-2.03-3.73-2.03-6.42s.69-4.82 2.03-6.4M305.085 90.316v7.54h-2.13v-16.96h10.23v1.88h-8.1v5.66h7.21v1.88zM336.585 94.246h.05v-13.35h2.08v16.96h-1.96l-8.95-13.48h-.06v13.48h-2.08v-16.96h2.18zM346.745 95.976h8.58v1.88h-10.66v-16.96h10.66v1.88h-8.58v5.51h7.64v1.88h-7.64zM364.655 95.136l3.45-14.24h2.26l3.45 14.24h.1l3.45-14.24h2.11l-4.42 16.96h-2.26l-3.55-14.04h-.08l-3.55 14.04h-2.26l-4.42-16.96h2.16l3.48 14.24zM403.315 82.496l-9.44 13.48h9.52v1.88h-12.06v-1.6l9.42-13.48h-9.24v-1.88h11.8zM410.665 95.976h8.58v1.88h-10.66v-16.96h10.66v1.88h-8.58v5.51h7.64v1.88h-7.64zM430.295 83.206h-.05l-2.92 8.1h5.91l-2.94-8.1Zm7.46 14.65h-2.16l-1.73-4.75h-7.21l-1.7 4.75h-2.11l6.27-16.96h2.36l6.27 16.96h.01ZM442.105 97.856v-16.96h2.13v15.08h8.46v1.88zM463.285 83.206h-.05l-2.92 8.1h5.91l-2.94-8.1Zm7.46 14.65h-2.16l-1.73-4.75h-7.21l-1.7 4.75h-2.11l6.27-16.96h2.36l6.27 16.96h.01ZM486.015 94.246h.05v-13.35h2.08v16.96h-1.95l-8.96-13.48h-.06v13.48h-2.08v-16.96h2.18zM496.225 82.726v13.3h2.92c3.86 0 6.14-2.36 6.14-6.7s-2.21-6.6-6.14-6.6h-2.92Zm-2.13 15.13v-16.96h5.05c5.28 0 8.38 3.05 8.38 8.43s-3.17 8.53-8.38 8.53h-5.05ZM344.465 10.936h1v46.98h-1zM124.335 69.086h383.19v1h-383.19z"/>
    <path stroke="#FFF" d="M178.525 37.356h14.86"/>
  </g>
</svg>
