<?xml version="1.0" encoding="UTF-8"?>
<svg width="14px" height="16px" viewBox="0 0 14 16" version="1.1" xmlns="http://www.w3.org/2000/svg" xmlns:xlink="http://www.w3.org/1999/xlink">
    <!-- Generator: Sketch 53.2 (72643) - https://sketchapp.com -->
    <title>Path</title>
    <desc>Created with Sketch.</desc>
    <g id="Page-1" stroke="none" stroke-width="1" fill="none" fill-rule="evenodd">
        <path d="M13.6820144,5.37624593 L10.9343915,3.77755453 C10.6457034,3.60951027 10.2764154,3.69196518 10.086494,3.96664431 L6.45911751,9.21299013 C6.38561814,9.31930516 6.34602187,9.4454503 6.34563806,9.57466591 L6.33188491,13.7384791 L1.27936251,10.7691427 L1.27936251,6.09780638 L4.41488812,1.49075801 L8.47955076,3.83755663 C8.7853184,4.01417263 9.17667539,3.90939284 9.35335536,3.60343329 C9.53003532,3.29747375 9.42519156,2.90624469 9.11923202,2.7296287 L4.54013771,0.0858260673 C4.25004226,-0.0817704218 3.87992269,0.00298734464 3.69147259,0.27990536 L0.110856762,5.54077195 C0.0386367479,5.64695903 1.13686838e-13,5.77240053 1.13686838e-13,5.90072059 L1.13686838e-13,11.1351683 C1.13686838e-13,11.3619353 0.120068172,11.5717508 0.315554764,11.6866375 L6.64379349,15.4056804 C6.74377567,15.4644671 6.85584783,15.4938924 6.96791999,15.4938924 C7.07717754,15.4938924 7.18649907,15.4658744 7.28469014,15.4099663 C7.48369498,15.2965508 7.60683362,15.085392 7.60760124,14.8563861 L7.62436089,9.77744487 L10.8023613,5.18095124 L12.7205735,6.29713106 L12.7205735,10.0347886 L10.0245729,8.48682397 C9.71816558,8.31084766 9.32725636,8.41658697 9.15134402,8.72299429 C8.97543167,9.02940161 9.08117098,9.42031083 9.38751434,9.59622317 L13.0417575,11.6944417 C13.2396749,11.808113 13.4832015,11.8077292 13.6807991,11.6932902 C13.8783326,11.5789152 14,11.3679483 14,11.1397101 L14,5.9291864 C13.999936,5.70139591 13.8788444,5.49081284 13.6820144,5.37624593 Z" id="Path" fill="#464749" fill-rule="nonzero"></path>
    </g>
</svg>