<svg xmlns="http://www.w3.org/2000/svg" width="685.382" height="1094.682"><defs><style>.a,.u{fill:none}.b{fill:#ee4036}.c{fill:#59595c}.f{fill:#fff}.g{fill:#6dc1d2}.k{fill:#417d5b}.p{fill:#464749}.q{fill:#58595b}.s{fill:#7d4260}.u{stroke:#58595b;stroke-linejoin:round}</style><clipPath id="a"><path class="a" d="M751.291 805.989l-9.708 9.708v11.428l15.422-15.425z"/></clipPath><clipPath id="b"><path class="a" d="M731.874 805.989l9.708 9.708v11.428L726.16 811.7z"/></clipPath><clipPath id="c"><path class="a" d="M736.994 876.026v5.511l8.078 3.242v-8.753z"/></clipPath><clipPath id="d"><path class="a" d="M733.178 885.465l3.822-3.928 8.078 3.242-6.1 6.32z"/></clipPath><clipPath id="e"><path class="a" d="M360.888 805.989l-9.708 9.708v11.428L366.6 811.7z"/></clipPath><clipPath id="f"><path class="a" d="M341.471 805.989l9.708 9.708v11.428L335.757 811.7z"/></clipPath><clipPath id="g"><path class="a" d="M359.062 885.465l-3.816-3.929-8.081 3.243 6.1 6.32z"/></clipPath><clipPath id="h"><path class="a" d="M355.246 876.026v5.51l-8.081 3.243v-8.753z"/></clipPath><clipPath id="i"><path class="a" d="M555.019 1130.594l-9.708 9.708v11.429l15.422-15.423z"/></clipPath><clipPath id="j"><path class="a" d="M535.6 1130.594l9.708 9.708v11.429l-15.422-15.423z"/></clipPath></defs><g transform="translate(-218.171 -184.268)"><path class="a" d="M777.143 785.851l-35.56 35.561-36.441-36.441"/><path class="b" d="M752.118 806.816l22.995-22.995 4.06 4.06-22.995 22.995z"/><path class="c" d="M756.178 810.876l22.995-22.995.538.538-22.995 22.995zM751.58 806.278l22.995-22.995.538.538-22.995 22.995z"/><path class="c" d="M773.138 784.142l1.148-1.148 5.714 5.714-1.148 1.148z"/><path class="b" d="M703.112 787.001l4.06-4.06 23.875 23.876-4.06 4.06z"/><path class="c" d="M702.574 787.539l.538-.538 23.872 23.872-.538.538zM707.172 782.941l.538-.538 23.876 23.875-.539.538z"/><path class="c" d="M724.968 810.511l5.714-5.714 1.192 1.192-5.715 5.714z"/><g clip-path="url(#a)"><path class="b" d="M726.987 831.947l25.13-25.13 4.06 4.059-25.13 25.13z"/><path class="c" d="M731.047 836.007l25.13-25.13.539.538-25.13 25.13zM726.449 831.409l25.13-25.13.539.538-25.13 25.13z"/><path class="c" d="M750.036 807.244l1.254-1.254 5.714 5.714-1.254 1.254z"/></g><g clip-path="url(#b)"><path class="b" d="M726.987 810.876l4.06-4.06 25.13 25.131-4.06 4.06z"/><path class="c" d="M726.449 811.414l.538-.538 25.13 25.13-.537.539zM731.047 806.816l.538-.538 25.13 25.13-.537.539z"/><path class="c" d="M750.037 835.58l5.714-5.714 1.254 1.254-5.714 5.714z"/></g><path class="a" d="M545.9 507.722V227.268"/><path class="f" d="M543.034 472.665h5.741v35.057h-5.741z"/><path class="c" d="M542.272 472.665h.761v35.057h-.761zM548.775 472.665h.761v35.057h-.761z"/><path class="c" d="M541.864 505.973h8.081v1.75h-8.081z"/><path class="f" d="M543.034 437.609h5.741v35.057h-5.741z"/><path class="c" d="M542.272 437.609h.761v35.057h-.761zM548.775 437.609h.761v35.057h-.761z"/><path class="c" d="M541.864 470.916h8.081v1.75h-8.081z"/><path class="f" d="M543.034 402.552h5.741v35.057h-5.741z"/><path class="c" d="M542.272 402.552h.761v35.057h-.761zM548.775 402.552h.761v35.057h-.761z"/><path class="c" d="M541.864 435.859h8.081v1.75h-8.081z"/><path class="f" d="M543.034 367.495h5.741v35.057h-5.741z"/><path class="c" d="M542.272 367.495h.761v35.057h-.761zM548.775 367.495h.761v35.057h-.761z"/><path class="c" d="M541.864 400.802h8.081v1.75h-8.081z"/><path class="f" d="M543.034 332.439h5.741v35.057h-5.741z"/><path class="c" d="M542.272 332.439h.761v35.057h-.761zM548.775 332.439h.761v35.057h-.761z"/><path class="c" d="M541.864 365.745h8.081v1.75h-8.081z"/><path class="f" d="M543.034 297.382h5.741v35.057h-5.741z"/><path class="c" d="M542.272 297.382h.761v35.057h-.761zM548.775 297.382h.761v35.057h-.761z"/><path class="c" d="M541.864 330.689h8.081v1.75h-8.081z"/><path class="f" d="M543.034 262.325h5.741v35.057h-5.741z"/><path class="c" d="M542.272 262.325h.761v35.057h-.761zM548.775 262.325h.761v35.057h-.761z"/><path class="c" d="M541.864 295.632h8.081v1.75h-8.081z"/><path class="f" d="M543.034 227.268h5.741v35.057h-5.741z"/><path class="c" d="M542.272 227.268h.761v35.057h-.761zM548.775 227.268h.761v35.057h-.761z"/><path class="c" d="M541.864 260.575h8.081v1.75h-8.081z"/><path class="a" d="M351.206 737.907V552.059a7.735 7.735 0 0 1 7.735-7.735h125.667a7.794 7.794 0 0 0 7.794-7.795v-39.148"/><path class="g" d="M348.335 703.811h5.741v34.095h-5.741z"/><path class="c" d="M347.574 703.811h.761v34.095h-.761zM354.076 703.811h.761v34.095h-.761z"/><path class="c" d="M347.165 736.205h8.081v1.702h-8.081z"/><path class="g" d="M348.335 669.716h5.741v34.096h-5.741z"/><path class="c" d="M347.574 669.716h.761v34.096h-.761zM354.076 669.716h.761v34.096h-.761z"/><path class="c" d="M347.165 702.109h8.081v1.702h-8.081z"/><path class="g" d="M348.335 635.62h5.741v34.095h-5.741z"/><path class="c" d="M347.574 635.62h.761v34.095h-.761zM354.076 635.62h.761v34.095h-.761z"/><path class="c" d="M347.165 668.014h8.081v1.702h-8.081z"/><path class="g" d="M348.335 601.525h5.741v34.096h-5.741z"/><path class="c" d="M347.574 601.525h.761v34.096h-.761zM354.076 601.525h.761v34.096h-.761z"/><path class="c" d="M347.165 633.918h8.081v1.702h-8.081z"/><path class="g" d="M348.335 567.43h5.741v34.095h-5.741z"/><path class="c" d="M347.574 567.43h.761v34.095h-.761zM354.076 567.43h.761v34.095h-.761z"/><path class="c" d="M347.165 599.823h8.081v1.702h-8.081z"/><path class="g" d="M365.519 547.194h-6.393c-.206 0-.288.01-.4.015s-.226 0-.336.02a4.951 4.951 0 0 0-.655.126 4.871 4.871 0 0 0-3.536 3.655 5.439 5.439 0 0 0-.1.662l-.018.337c-.008.119 0 .339 0 .5v14.921h-5.741v-15.479l.036-.728a11.2 11.2 0 0 1 .211-1.443 10.619 10.619 0 0 1 7.717-7.986 10.778 10.778 0 0 1 1.436-.27c.241-.034.484-.035.727-.051s.51-.024.66-.02h6.393z"/><path class="c" d="M365.519 541.453h-6.393c-.15 0-.423.009-.66.02s-.486.017-.727.051a10.778 10.778 0 0 0-1.436.27 10.619 10.619 0 0 0-7.717 7.986 11.2 11.2 0 0 0-.211 1.443l-.036.728v15.479h-.761v-15.487l.038-.779a12.089 12.089 0 0 1 .226-1.547 11.383 11.383 0 0 1 8.272-8.561 11.5 11.5 0 0 1 1.54-.288c.258-.036.518-.039.778-.055s.552-.025.694-.021h6.393z"/><path class="c" d="M365.519 547.955h-6.393c-.214 0-.27.01-.371.014s-.192 0-.284.017a3.893 3.893 0 0 0-.552.107 4.106 4.106 0 0 0-2.982 3.08 4.95 4.95 0 0 0-.08.559l-.016.284c-.007.1 0 .335 0 .5v14.914h-.761v-14.917-.5l.018-.337a5.439 5.439 0 0 1 .1-.662 4.871 4.871 0 0 1 3.536-3.655 4.951 4.951 0 0 1 .655-.126c.11-.019.224-.01.336-.02s.2-.019.4-.015h6.393z"/><path class="c" d="M347.165 565.727h8.081v1.702h-8.081z"/><path class="g" d="M365.519 541.453h34.095v5.741h-34.095z"/><path class="c" d="M365.519 540.692h34.095v.761h-34.095zM365.519 547.194h34.095v.761h-34.095z"/><path class="c" d="M365.519 540.283h1.702v8.081h-1.702z"/><path class="g" d="M399.614 541.453h34.095v5.741h-34.095z"/><path class="c" d="M399.614 540.692h34.095v.761h-34.095zM399.614 547.194h34.095v.761h-34.095z"/><path class="c" d="M399.614 540.283h1.702v8.081h-1.702z"/><path class="g" d="M433.709 541.453h34.095v5.741h-34.095z"/><path class="c" d="M433.709 540.692h34.095v.761h-34.095zM433.709 547.194h34.095v.761h-34.095z"/><path class="c" d="M433.709 540.283h1.702v8.081h-1.702z"/><path class="g" d="M495.273 531.477v5.064l-.016.363a9.158 9.158 0 0 1-.148 1.447 10.238 10.238 0 0 1-.884 2.772 10.659 10.659 0 0 1-9.284 6.058l-17.136.013v-5.741l16.958-.011a4.9 4.9 0 0 0 4.282-2.8 4.481 4.481 0 0 0 .407-1.272 3.74 3.74 0 0 0 .068-.67l.011-.169v-5.058z"/><path class="c" d="M489.532 531.477v5.058l-.011.169a3.74 3.74 0 0 1-.068.67 4.481 4.481 0 0 1-.407 1.272 4.9 4.9 0 0 1-4.282 2.8l-16.958.011v-.761l16.935-.011a4.138 4.138 0 0 0 3.619-2.363 3.741 3.741 0 0 0 .342-1.074 2.884 2.884 0 0 0 .058-.567l.011-.143v-5.057z"/><path class="c" d="M496.034 531.477v5.065l-.016.389a9.891 9.891 0 0 1-.159 1.55 10.985 10.985 0 0 1-.948 2.971 11.392 11.392 0 0 1-9.946 6.489l-17.16.014v-.761l17.136-.013a10.659 10.659 0 0 0 9.284-6.058 10.238 10.238 0 0 0 .884-2.772 9.158 9.158 0 0 0 .148-1.447l.016-.363v-5.064z"/><path class="c" d="M467.805 540.283h1.702v8.081h-1.702z"/><path class="g" d="M489.532 497.382h5.741v34.095h-5.741z"/><path class="c" d="M488.771 497.382h.761v34.095h-.761zM495.273 497.382h.761v34.095h-.761z"/><path class="c" d="M488.362 529.775h8.081v1.702h-8.081z"/><path class="a" d="M593.349 495.784v40.9a7.642 7.642 0 0 0 7.642 7.642H733.3a7.735 7.735 0 0 1 7.735 7.735v331.1c-26.792 28.006-139.374 139.352-195.795 195.054"/><path class="b" d="M590.478 495.784h5.741v34.754h-5.741z"/><path class="c" d="M596.219 495.784h.761v34.754h-.761zM589.717 495.784h.761v34.754h-.761z"/><path class="c" d="M589.308 495.784h8.081v1.735h-8.081z"/><path class="b" d="M617.6 547.194h-15.2c-.739-.007-1.348.025-2.455-.053a10.547 10.547 0 0 1-8.879-7.023 10.139 10.139 0 0 1-.562-2.925c-.032-.554-.019-.851-.022-1.224v-5.431h5.741v5.431c0 .351 0 .779.016.947a4.416 4.416 0 0 0 .253 1.325 4.793 4.793 0 0 0 4.021 3.187c.339.027 1.179.027 1.887.025h15.2z"/><path class="c" d="M617.6 541.453h-15.2c-.708 0-1.548 0-1.887-.025a4.793 4.793 0 0 1-4.021-3.187 4.416 4.416 0 0 1-.253-1.325c-.02-.168-.015-.6-.016-.947v-5.431h.762v5.431c0 .348 0 .794.014.91a3.666 3.666 0 0 0 .212 1.113 4.034 4.034 0 0 0 3.378 2.679l17.017.021z"/><path class="c" d="M617.6 547.955h-15.2c-.743-.008-1.321.028-2.53-.056a11.283 11.283 0 0 1-9.523-7.532 10.881 10.881 0 0 1-.6-3.137c-.034-.606-.02-.885-.023-1.261v-5.431h.761v5.431c0 .373-.01.67.022 1.224a10.139 10.139 0 0 0 .562 2.925 10.547 10.547 0 0 0 8.879 7.023c1.107.078 1.716.046 2.455.053H617.6z"/><path class="c" d="M589.308 530.538h8.081v1.735h-8.081z"/><path class="b" d="M617.602 541.453h34.755v5.741h-34.755z"/><path class="c" d="M617.602 540.692h34.755v.761h-34.755zM617.602 547.194h34.755v.761h-34.755z"/><path class="c" d="M617.602 540.283h1.735v8.081h-1.735z"/><path class="b" d="M652.356 541.453h34.755v5.741h-34.755z"/><path class="c" d="M652.356 540.692h34.755v.761h-34.755zM652.356 547.194h34.755v.761h-34.755z"/><path class="c" d="M652.356 540.283h1.735v8.081h-1.735z"/><path class="b" d="M687.111 541.453h34.755v5.741h-34.755z"/><path class="c" d="M687.111 540.692h34.755v.761h-34.755zM687.111 547.194h34.755v.761h-34.755z"/><path class="c" d="M687.111 540.283h1.735v8.081h-1.735z"/><path class="b" d="M738.164 563.233v-10.861c.007-.425-.025-.542-.025-.8a5.543 5.543 0 0 0-.123-.669 4.842 4.842 0 0 0-1.339-2.335 4.929 4.929 0 0 0-2.377-1.268 5.3 5.3 0 0 0-.677-.085l-.354-.02h-11.4v-5.741h11.4l.731.032a10.992 10.992 0 0 1 1.474.194 10.607 10.607 0 0 1 8.118 7.859 11.217 11.217 0 0 1 .259 1.466c.028.464.062 1.069.053 1.368v10.861z"/><path class="c" d="M743.905 563.233v-10.861c.009-.3-.025-.9-.053-1.368a11.217 11.217 0 0 0-.259-1.466 10.607 10.607 0 0 0-8.118-7.859 10.992 10.992 0 0 0-1.474-.194l-.731-.032h-11.4v-.761h11.4l.781.033a11.931 11.931 0 0 1 1.58.208 11.375 11.375 0 0 1 8.7 8.424 12.171 12.171 0 0 1 .276 1.572l.044.794.013.378v11.132z"/><path class="c" d="M737.4 563.233V552.1c0-.087-.007-.107-.01-.165l-.011-.291a4.861 4.861 0 0 0-.1-.564 4.086 4.086 0 0 0-1.129-1.968 4.168 4.168 0 0 0-2-1.069 4.513 4.513 0 0 0-.571-.071l-.3-.018h-11.4v-.761h11.4l.354.02a5.3 5.3 0 0 1 .677.085 4.929 4.929 0 0 1 2.376 1.267 4.842 4.842 0 0 1 1.339 2.335 5.543 5.543 0 0 1 .123.669c0 .26.032.377.025.8v10.861z"/><path class="c" d="M721.866 540.283h1.735v8.081h-1.735z"/><path class="b" d="M738.164 563.233h5.741v34.755h-5.741z"/><path class="c" d="M743.905 563.233h.761v34.755h-.761zM737.402 563.233h.761v34.755h-.761z"/><path class="c" d="M736.994 563.233h8.081v1.735h-8.081z"/><path class="b" d="M738.164 597.988h5.741v34.754h-5.741z"/><path class="c" d="M743.905 597.988h.761v34.754h-.761zM737.402 597.988h.761v34.754h-.761z"/><path class="c" d="M736.994 597.988h8.081v1.735h-8.081z"/><path class="b" d="M738.164 632.743h5.741v34.755h-5.741z"/><path class="c" d="M743.905 632.743h.761v34.755h-.761zM737.402 632.743h.761v34.755h-.761z"/><path class="c" d="M736.994 632.743h8.081v1.735h-8.081z"/><path class="b" d="M738.164 667.497h5.741v34.755h-5.741z"/><path class="c" d="M743.905 667.497h.761v34.755h-.761zM737.402 667.497h.761v34.755h-.761z"/><path class="c" d="M736.994 667.497h8.081v1.735h-8.081z"/><path class="b" d="M738.164 702.252h5.741v34.755h-5.741z"/><path class="c" d="M743.905 702.252h.761v34.755h-.761zM737.402 702.252h.761v34.755h-.761z"/><path class="c" d="M736.994 702.252h8.081v1.735h-8.081z"/><path class="b" d="M738.164 737.007h5.741v34.754h-5.741z"/><path class="c" d="M743.905 737.007h.761v34.754h-.761zM737.402 737.007h.761v34.754h-.761z"/><path class="c" d="M736.994 737.007h8.081v1.734h-8.081z"/><path class="b" d="M738.164 771.762h5.741v34.755h-5.741z"/><path class="c" d="M743.905 771.762h.761v34.755h-.761zM737.402 771.762h.761v34.755h-.761z"/><path class="c" d="M736.994 771.762h8.081v1.735h-8.081z"/><path class="b" d="M738.164 806.516h5.741v34.755h-5.741z"/><path class="c" d="M743.905 806.516h.761v34.755h-.761zM737.402 806.516h.761v34.755h-.761z"/><path class="c" d="M736.994 806.516h8.081v1.735h-8.081z"/><path class="b" d="M738.164 841.271h5.741v34.754h-5.741z"/><path class="c" d="M743.905 841.271h.761v34.754h-.761zM737.402 841.271h.761v34.754h-.761z"/><path class="c" d="M736.994 841.271h8.081v1.735h-8.081z"/><path class="b" d="M710.4 910.207q11.871-11.916 23.622-23.927l4.116 4q-11.779 12.066-23.668 23.974z"/><path class="c" d="M714.465 914.257q11.881-11.926 23.668-23.974l.546.531q-11.785 12.072-23.674 23.979zM709.855 909.67q11.871-11.914 23.616-23.92l.546.53q-11.73 12.02-23.617 23.927z"/><path class="c" d="M733.178 885.465l-1.164 1.2 5.783 5.644 1.174-1.211z"/><path class="b" d="M686.618 934.013l23.782-23.806 4.07 4.049-23.791 23.819z"/><path class="c" d="M690.674 938.076l23.791-23.819.54.537-23.792 23.821zM686.08 933.474l23.775-23.8.54.537-23.777 23.805z"/><path class="c" d="M708.381 910.572l1.184-1.191 5.73 5.697-1.185 1.191z"/><path class="b" d="M662.781 957.765l23.837-23.752 4.056 4.063-23.844 23.759z"/><path class="c" d="M666.83 961.835l23.845-23.76.537.54-23.845 23.76zM662.244 957.225l23.824-23.757.537.539-23.824 23.757z"/><path class="c" d="M684.603 934.372l1.19-1.186 5.705 5.721-1.19 1.186z"/><path class="b" d="M638.907 981.484l23.875-23.72 4.046 4.072-23.875 23.72z"/><path class="c" d="M642.952 985.558l23.878-23.723.536.54-23.878 23.723zM638.372 980.943l23.873-23.718.536.54-23.873 23.718z"/><path class="c" d="M660.765 958.119l1.191-1.185 5.699 5.73-1.191 1.185z"/><path class="b" d="M615.01 1005.178l23.9-23.697 4.042 4.077-23.9 23.697z"/><path class="c" d="M619.051 1009.256l23.897-23.695.536.54-23.897 23.695zM614.474 1004.637l23.898-23.694.536.54-23.898 23.694z"/><path class="c" d="M636.891 981.837l1.192-1.184 5.694 5.734-1.192 1.184z"/><path class="b" d="M591.094 1028.856l23.916-23.679 4.04 4.08-23.917 23.679z"/><path class="c" d="M595.133 1032.936l23.918-23.68.536.54-23.919 23.68zM590.56 1028.314l23.915-23.677.535.54-23.915 23.678z"/><path class="c" d="M612.994 1005.529l1.194-1.182 5.687 5.74-1.194 1.183z"/><path class="b" d="M567.164 1052.519l23.93-23.66 4.036 4.082-23.93 23.66z"/><path class="c" d="M571.201 1056.602l23.93-23.66.535.54-23.93 23.661zM566.63 1051.977l23.93-23.663.535.54-23.93 23.664z"/><path class="c" d="M589.078 1029.205l1.194-1.181 5.681 5.746-1.194 1.18z"/><path class="b" d="M543.221 1076.169l23.944-23.652 4.035 4.085-23.945 23.651z"/><path class="c" d="M547.255 1080.254l23.945-23.652.535.541-23.945 23.652zM542.687 1075.626l23.928-23.659.535.541-23.928 23.66z"/><path class="c" d="M565.148 1052.866l1.194-1.181 5.681 5.746-1.194 1.18z"/><g clip-path="url(#c)"><path class="b" d="M753.057 896.286l-12.824-12.3-1.6-1.538-.4-.385-.05-.048-.013-.012v-5.979h5.73v8.285l.006.006.025.024.1.1.2.192.8.768 3.21 3.071 6.42 6.142z"/><path class="c" d="M754.671 894.609l-6.42-6.142-3.21-3.071-.8-.768-.2-.192-.1-.1-.025-.024-.006-.006v-8.284h.761v8.592l.006.005.025.024.05.048.1.1.4.384 3.21 3.071 6.42 6.143z"/><path class="c" d="M752.84 896.51l-12.819-12.31-1.6-1.538-.8-.769-.2-.192-.013-.012v.005-5.672h.762v5.979l.012.012.05.048.4.385 1.6 1.537 12.824 12.3z"/><path class="c" d="M736.994 876.026h8.081v.712h-8.081z"/></g><g clip-path="url(#d)"><path class="b" d="M734.017 886.28l2.471-2.554 1.236-1.276.309-.32.077-.079.039-.04.01-.01.01.007H758.8v2.3h-14.9l-.005.005-.019.02-.154.161-.617.644-4.975 5.142z"/><path class="c" d="M738.133 890.283l4.975-5.142.617-.644.154-.161.019-.02.005-.005h14.9v.306H744.66l-.077.081-.308.322-.617.644-4.979 5.146z"/><path class="c" d="M733.471 885.75l2.469-2.552 1.235-1.276.155-.159.038-.04.019-.02.01-.01c0 .011.008.009.008.009h21.4v.3h-20.634l-.01-.007-.01.01-.039.04-.077.079-.309.32-1.236 1.276-2.471 2.554z"/><path class="c" d="M757.03 881.536h1.774v3.243h-1.774z"/></g><circle cx="35" cy="35" r="35" transform="translate(704.143 577.824)" fill="#a33c38"/><path class="f" d="M727.8 614.608v5.684a.514.514 0 0 1-.532.531h-3.388a.514.514 0 0 1-.532-.531v-16.885a.515.515 0 0 1 .532-.531h3.5a.6.6 0 0 1 .56.42l3.3 5.795a28.9 28.9 0 0 1 1.568 2.857c.028.223.056.252.14.252s.112-.084.084-.281c-.028-.391-.028-1.932-.028-2.828v-5.684a.515.515 0 0 1 .532-.531h3.388a.515.515 0 0 1 .532.531v16.885a.514.514 0 0 1-.532.531h-3.472c-.308 0-.42-.111-.588-.42l-3.3-5.8a28.771 28.771 0 0 1-1.564-2.852c-.028-.223-.056-.252-.139-.252s-.113.084-.084.281c.023.391.023 1.932.023 2.828zM739.478 611.835c0-7.084 4-9.238 8.12-9.238s8.12 2.154 8.12 9.238-4 9.269-8.12 9.269-8.12-2.185-8.12-9.269zm11.144 0c0-3.92-1.456-4.647-3.024-4.647s-3.024.727-3.024 4.647 1.456 4.678 3.024 4.678 3.024-.758 3.024-4.678z"/><circle class="k" cx="35" cy="35" r="35" transform="translate(316.143 577.824)"/><path class="f" d="M335.211 620.292v-5.936l-4.7-9.968a2.383 2.383 0 0 1-.335-1.008.485.485 0 0 1 .5-.5h3.781a.726.726 0 0 1 .783.476l1.485 3.668a13.566 13.566 0 0 1 .812 2.268c0 .252.055.336.168.336s.168-.084.168-.336a15.566 15.566 0 0 1 .812-2.268l1.484-3.668c.14-.365.363-.476.784-.476h3.78a.484.484 0 0 1 .5.5 2.369 2.369 0 0 1-.335 1.008l-4.7 9.968v5.936a.513.513 0 0 1-.531.531h-3.92a.514.514 0 0 1-.536-.531zM346.495 620.292v-16.885a.515.515 0 0 1 .532-.531h9.66a.515.515 0 0 1 .532.531v3.3a.514.514 0 0 1-.532.531h-5.208v1.962h4.032a.515.515 0 0 1 .532.531v3.3a.514.514 0 0 1-.532.531h-4.032v2.885h5.292a.515.515 0 0 1 .532.531v3.3a.514.514 0 0 1-.532.531h-9.744a.514.514 0 0 1-.532-.517zM358.815 618.136v-2.268c0-.617.252-.9.643-.9a1.957 1.957 0 0 1 1.065.5 6.937 6.937 0 0 0 3.584 1.344c1.091 0 1.847-.39 1.847-1.455 0-1.008-1.035-1.344-2.015-1.625-2.745-.783-5.013-2.127-5.013-5.6 0-4.061 3.136-5.543 6.216-5.543a10.159 10.159 0 0 1 4.928 1.2 1.353 1.353 0 0 1 .84 1.4v2.268c0 .615-.252.9-.644.9a2.013 2.013 0 0 1-1.008-.5 5.537 5.537 0 0 0-3.248-1.2c-.784 0-1.624.309-1.624 1.344 0 .953.785 1.2 1.9 1.541 2.94.867 5.124 2.016 5.124 5.8 0 3.92-3.22 5.769-6.524 5.769a9.281 9.281 0 0 1-5.208-1.4 1.594 1.594 0 0 1-.863-1.575z"/><path class="a" d="M386.74 785.851l-35.561 35.561-36.44-36.441"/><path class="b" d="M361.715 806.816l22.995-22.995 4.06 4.06-22.995 22.995z"/><path class="c" d="M365.775 810.876l22.995-22.995.538.538-22.995 22.995zM361.177 806.278l22.995-22.995.538.538-22.995 22.995z"/><path class="c" d="M382.735 784.142l1.148-1.148 5.714 5.714-1.148 1.148z"/><path class="b" d="M312.709 787.001l4.06-4.06 23.875 23.876-4.06 4.06z"/><path class="c" d="M312.171 787.539l.538-.538 23.876 23.875-.539.538zM316.769 782.941l.538-.538 23.876 23.875-.539.538z"/><path class="c" d="M334.565 810.511l5.714-5.714 1.192 1.192-5.715 5.714z"/><g clip-path="url(#e)"><path class="b" d="M336.584 831.947l25.13-25.13 4.06 4.059-25.13 25.13z"/><path class="c" d="M340.644 836.007l25.13-25.13.539.538-25.13 25.13zM336.046 831.409l25.13-25.13.539.538-25.13 25.13z"/><path class="c" d="M359.633 807.244l1.254-1.254 5.715 5.714-1.255 1.254z"/></g><g clip-path="url(#f)"><path class="b" d="M336.584 810.876l4.06-4.06 25.13 25.131-4.06 4.06z"/><path class="c" d="M336.046 811.414l.538-.538 25.13 25.13-.537.539zM340.644 806.816l.538-.538 25.13 25.13-.537.539z"/><path class="c" d="M359.633 835.58l5.714-5.714 1.255 1.254-5.715 5.714z"/></g><path class="a" d="M547 1078.211c-56.421-55.7-169-167.048-195.795-195.054v-145.25"/><path class="b" d="M521.04 1056.602l4.034-4.084 23.945 23.651-4.035 4.085z"/><path class="c" d="M520.504 1057.143l.535-.541 23.945 23.652-.535.541zM525.075 1052.518l.535-.541 23.928 23.659-.535.54z"/><path class="c" d="M542.966 1079.905l5.68-5.746 1.195 1.181-5.68 5.746z"/><path class="b" d="M497.107 1032.937l4.037-4.083 23.929 23.66-4.037 4.083z"/><path class="c" d="M496.571 1033.477l.535-.541 23.93 23.662-.534.54zM501.145 1028.855l.535-.541 23.93 23.663-.535.541z"/><path class="c" d="M519.022 1056.253l5.68-5.748 1.195 1.181-5.68 5.748z"/><path class="b" d="M473.189 1009.257l4.04-4.08 23.915 23.679-4.039 4.08z"/><path class="c" d="M472.653 1009.797l.535-.54 23.919 23.68-.536.54zM477.229 1005.177l.535-.54 23.915 23.676-.535.541z"/><path class="c" d="M495.09 1032.587l5.682-5.746 1.195 1.182-5.683 5.745z"/><path class="b" d="M449.288 985.559l4.042-4.077 23.9 23.697-4.042 4.077z"/><path class="c" d="M448.751 986.098l.536-.54 23.897 23.695-.536.54zM453.332 981.483l.536-.54 23.898 23.694-.536.54z"/><path class="c" d="M471.171 1008.904l5.689-5.738 1.193 1.183-5.69 5.738z"/><path class="b" d="M425.411 961.836l4.046-4.073 23.875 23.72-4.046 4.073z"/><path class="c" d="M424.873 962.375l.536-.54 23.878 23.723-.536.54zM429.459 957.765l.536-.54 23.873 23.718-.536.54z"/><path class="c" d="M447.27 985.204l5.694-5.734 1.192 1.184-5.694 5.734z"/><path class="b" d="M405.622 934.013l23.837 23.752-4.049 4.07-23.845-23.759z"/><path class="c" d="M401.028 938.615l.537-.54 23.845 23.76-.537.54zM405.622 934.013l.537-.539 23.824 23.757-.537.539z"/><path class="c" d="M423.394 961.481l5.697-5.731 1.192 1.184-5.698 5.731z"/><path class="b" d="M381.845 910.207l23.777 23.805-4.056 4.063-23.791-23.819z"/><path class="c" d="M377.775 914.257l23.791 23.819-.538.539-23.792-23.821zM382.384 909.67l23.775 23.8-.538.539-23.777-23.805z"/><path class="c" d="M399.55 937.717l5.705-5.721 1.19 1.186-5.706 5.721z"/><path class="b" d="M358.223 886.28q11.73 12.018 23.622 23.927l-4.07 4.05q-11.881-11.926-23.668-23.974z"/><path class="c" d="M354.107 890.283q11.778 12.066 23.668 23.974l-.54.536q-11.883-11.928-23.674-23.979zM358.769 885.75q11.724 12.011 23.615 23.92l-.539.537q-11.873-11.916-23.622-23.927z"/><path class="c" d="M375.76 913.891l5.729-5.7 1.185 1.192-5.73 5.699z"/><path class="b" d="M348.335 841.496h5.741v34.53h-5.741z"/><path class="c" d="M347.574 841.496h.761v34.53h-.761zM354.076 841.496h.761v34.53h-.761z"/><path class="c" d="M347.165 874.302h8.081v1.724h-8.081z"/><path class="b" d="M348.335 806.966h5.741v34.53h-5.741z"/><path class="c" d="M347.574 806.966h.761v34.53h-.761zM354.076 806.966h.761v34.53h-.761z"/><path class="c" d="M347.165 839.772h8.081v1.724h-8.081z"/><path class="b" d="M348.335 772.436h5.741v34.53h-5.741z"/><path class="c" d="M347.574 772.436h.761v34.53h-.761zM354.076 772.436h.761v34.53h-.761z"/><path class="c" d="M347.165 805.243h8.081v1.724h-8.081z"/><path class="b" d="M348.335 737.907h5.741v34.53h-5.741z"/><path class="c" d="M347.574 737.907h.761v34.53h-.761zM354.076 737.907h.761v34.53h-.761z"/><path class="c" d="M347.165 770.713h8.081v1.724h-8.081z"/><g clip-path="url(#g)"><path class="b" d="M333.435 882.005h20.634l.01-.007.01.01.038.04.078.079.309.32 1.235 1.276 2.472 2.554-4.116 4-4.976-5.142-.616-.644-.154-.161-.019-.02-.005-.005h-14.9z"/><path class="c" d="M333.435 884.309h14.9l.005.005.019.02.154.161.616.644 4.976 5.142-.546.531-4.98-5.146-.616-.644-.308-.322-.077-.081h-14.14z"/><path class="c" d="M333.435 881.7h21.4l.008-.009.009.01.02.02.038.04.155.159 1.235 1.28 2.47 2.552-.546.53-2.472-2.554-1.235-1.276-.309-.32-.078-.079-.038-.04-.01-.01-.01.007h-20.637z"/><path class="c" d="M359.062 885.465l-.493-.509-5.8 5.629.5.514z"/></g><g clip-path="url(#h)"><path class="b" d="M354.076 876.026V882l-.013.012-.05.048-.4.385-1.6 1.538-12.824 12.3-1.614-1.677 6.42-6.142 3.21-3.071.8-.768.2-.192.1-.1.025-.024.006-.006v-8.285z"/><path class="c" d="M348.335 876.026v8.284l-.006.006-.025.024-.1.1-.2.192-.8.768-3.21 3.071-6.42 6.142-.211-.22 6.42-6.143 3.21-3.071.4-.384.1-.1.05-.048.025-.024.006-.005v-8.592z"/><path class="c" d="M354.837 876.026V881.695l-.013.012-.2.192-.8.769-1.6 1.538L339.4 896.51l-.216-.224 12.824-12.3 1.6-1.537.4-.385.05-.048.012-.012v-5.979z"/><path class="c" d="M339.516 896.63l1.28-1.229-2.269-2.358-1.282 1.227z"/></g><path class="p" d="M483.337 1176.863c0-7.7 3.976-9.267 8.288-9.267a8.022 8.022 0 0 1 4.256.951c.392.28.7.56.7.952v3.137a.494.494 0 0 1-.532.559 1.972 1.972 0 0 1-.756-.336 6.058 6.058 0 0 0-3.164-.924c-2.464 0-3.7 1.344-3.7 4.928s1.26 4.9 3.7 4.9a6.057 6.057 0 0 0 3.164-.925 1.987 1.987 0 0 1 .756-.336.5.5 0 0 1 .532.56v3.136c0 .392-.308.672-.7.952a8.019 8.019 0 0 1-4.256.952c-4.312-.002-8.288-1.539-8.288-9.239zM497.757 1179.1c0-4.843 3.164-7 7-7s7 2.157 7 7-3.163 7-7 7-7-2.153-7-7zm9.016 0c0-2.24-.868-2.8-2.016-2.8s-2.016.559-2.016 2.8.868 2.8 2.016 2.8 2.016-.557 2.016-2.8zM513.773 1185.291v-12.376a.514.514 0 0 1 .532-.531h1.876c1.316 0 2.38.5 2.548 1.819a5.228 5.228 0 0 1 4.144-1.988c3.051 0 3.892 2.016 3.892 4.676v8.4a.515.515 0 0 1-.532.532h-3.92a.515.515 0 0 1-.533-.532v-7.391c0-.98-.559-1.259-1.064-1.259a5.391 5.391 0 0 0-1.96.475v8.176a.514.514 0 0 1-.531.532H514.3a.515.515 0 0 1-.527-.533zM529.788 1182.911v-7.448H528.5a.515.515 0 0 1-.532-.532v-2.016a.514.514 0 0 1 .532-.531h1.288v-2.717a.514.514 0 0 1 .532-.531h3.92a.514.514 0 0 1 .532.531v2.717h1.928a.514.514 0 0 1 .532.531v2.016a.515.515 0 0 1-.532.532h-1.932v6.133c0 .559.14.867.672.867a3.457 3.457 0 0 0 1.12-.224c.336-.112.672-.028.672.588v.84a1.974 1.974 0 0 1-.336 1.4c-.7.7-1.876.98-3.584.98-2.012 0-3.524-1.035-3.524-3.136zM542.808 1185.963c-2.38 0-4.368-1.148-4.368-4.2 0-2.885 2.268-4.2 5.208-4.2a11.455 11.455 0 0 1 2.408.252v-.336c0-1.175-.14-1.652-1.6-1.652a9.736 9.736 0 0 0-3.416.616 5.008 5.008 0 0 1-1.26.308c-.336 0-.5-.195-.5-.728v-1.679c0-.673.308-1.037 1.092-1.4a13.637 13.637 0 0 1 5.012-.84c3.752 0 5.516 1.344 5.516 4.76v5.768c0 .616.168.9.532.9v.336c0 .98-.364 2.128-2.66 2.128-1.4 0-2.24-.448-2.632-1.288a3.88 3.88 0 0 1-3.332 1.255zm3.248-3.192v-2.8a3.432 3.432 0 0 0-1.232-.225c-1.008 0-1.54.42-1.54 1.652s.532 1.652 1.54 1.652a3.335 3.335 0 0 0 1.232-.279zM552.72 1179.1c0-4.4 2.351-7 6.888-7a7.007 7.007 0 0 1 3.864 1.008c.643.42.783.672.783 1.233v1.96c0 .587-.14.923-.587.923a1.932 1.932 0 0 1-.84-.308 5.94 5.94 0 0 0-2.576-.615c-1.4 0-2.548.559-2.548 2.8s1.148 2.8 2.548 2.8a5.544 5.544 0 0 0 2.576-.616 1.932 1.932 0 0 1 .84-.308c.447 0 .587.336.587.924v1.96c0 .56-.14.812-.783 1.233a7.015 7.015 0 0 1-3.864 1.007c-4.537-.001-6.888-2.601-6.888-7.001zM567.027 1182.911v-7.448h-1.288a.515.515 0 0 1-.531-.532v-2.016a.514.514 0 0 1 .531-.531h1.288v-2.717a.515.515 0 0 1 .533-.531h3.92a.513.513 0 0 1 .531.531v2.717h1.932a.514.514 0 0 1 .533.531v2.016a.515.515 0 0 1-.533.532h-1.932v6.133c0 .559.14.867.673.867a3.451 3.451 0 0 0 1.119-.224c.336-.112.673-.028.673.588v.84a1.973 1.973 0 0 1-.337 1.4c-.7.7-1.876.98-3.584.98-2.015 0-3.528-1.035-3.528-3.136zM581.278 1181.315v-8.4a.515.515 0 0 1 .533-.531h3.92a.514.514 0 0 1 .532.531v7.392c0 .98.56 1.26 1.064 1.26a5.381 5.381 0 0 0 1.96-.476v-8.176a.514.514 0 0 1 .531-.531h3.92a.515.515 0 0 1 .533.531v9.716c0 .616.168.9.532.9v.336c0 .98-.364 2.128-2.66 2.128-1.652 0-2.66-.672-2.828-1.988a5.228 5.228 0 0 1-4.144 1.988c-3.052-.004-3.893-2.02-3.893-4.68zM597.183 1184.955c-.644-.42-.784-.672-.784-1.232v-1.875c0-.589.2-.813.56-.813a1.648 1.648 0 0 1 .783.28 7.328 7.328 0 0 0 3.053 1.036c.784 0 1.372-.168 1.372-.839 0-.645-.5-.785-1.232-.925-2.409-.447-4.452-1.12-4.452-3.976 0-3.08 2.66-4.508 5.348-4.508a8.529 8.529 0 0 1 4.172 1.008 1.23 1.23 0 0 1 .783 1.233v1.792c0 .587-.2.811-.559.811a1.488 1.488 0 0 1-.785-.28 5.552 5.552 0 0 0-2.939-.952c-.533 0-1.009.2-1.009.784 0 .56.421.7 1.288.868 2.6.477 4.425 1.232 4.425 4.088 0 3.276-2.717 4.648-5.6 4.648a8.137 8.137 0 0 1-4.424-1.148z"/><circle class="k" cx="35" cy="35" r="35" transform="translate(510.239 184.268)"/><path class="f" d="M529.307 226.736V220.8l-4.7-9.968a2.358 2.358 0 0 1-.336-1.009.486.486 0 0 1 .5-.5h3.78a.727.727 0 0 1 .783.477l1.484 3.668a13.623 13.623 0 0 1 .813 2.267c0 .252.056.336.168.336s.168-.084.168-.336a15.7 15.7 0 0 1 .811-2.267l1.485-3.668c.139-.365.363-.477.784-.477h3.779a.485.485 0 0 1 .5.5 2.358 2.358 0 0 1-.336 1.009l-4.7 9.968v5.935a.513.513 0 0 1-.531.532h-3.92a.514.514 0 0 1-.532-.531zM540.591 226.736v-16.884a.515.515 0 0 1 .532-.532h9.659a.516.516 0 0 1 .533.532v3.3a.515.515 0 0 1-.533.532h-5.208v1.96h4.033a.516.516 0 0 1 .532.533v3.3a.514.514 0 0 1-.532.532h-4.033v2.891h5.292a.516.516 0 0 1 .533.532v3.3a.515.515 0 0 1-.533.532h-9.743a.514.514 0 0 1-.532-.528zM552.91 224.581v-2.269c0-.616.252-.895.644-.895a1.936 1.936 0 0 1 1.064.5 6.952 6.952 0 0 0 3.584 1.344c1.092 0 1.848-.392 1.848-1.457 0-1.007-1.035-1.343-2.016-1.624-2.744-.784-5.011-2.128-5.011-5.6 0-4.061 3.135-5.544 6.215-5.544a10.146 10.146 0 0 1 4.928 1.2 1.353 1.353 0 0 1 .84 1.4v2.269c0 .615-.252.9-.644.9a2.012 2.012 0 0 1-1.007-.5 5.542 5.542 0 0 0-3.248-1.2c-.785 0-1.624.308-1.624 1.344 0 .952.784 1.2 1.9 1.54 2.94.868 5.124 2.017 5.124 5.8 0 3.92-3.22 5.769-6.524 5.769a9.282 9.282 0 0 1-5.208-1.4 1.591 1.591 0 0 1-.865-1.577zM721.951 823.781h35.055v38.8h-35.055zM721.951 677.163h35.055v80.531h-35.055zM334.972 677.163h35.055v60.744h-35.055zM527.471 293.064h35.055v45h-35.055z"/><path class="p" d="M580.9 843.212c0-7.7 3.976-9.268 8.289-9.268a8.033 8.033 0 0 1 4.255.951c.392.282.7.561.7.953v3.137a.5.5 0 0 1-.533.559 1.963 1.963 0 0 1-.755-.336 6.075 6.075 0 0 0-3.165-.924c-2.463 0-3.7 1.344-3.7 4.928s1.261 4.9 3.7 4.9a6.065 6.065 0 0 0 3.165-.924 2 2 0 0 1 .755-.336.5.5 0 0 1 .533.561v3.135c0 .392-.309.672-.7.953a8.033 8.033 0 0 1-4.255.951c-4.313 0-8.289-1.539-8.289-9.24zM595.32 845.452c0-4.844 3.164-7 7-7s7 2.156 7 7-3.164 7-7 7-7-2.152-7-7zm9.016 0c0-2.24-.867-2.8-2.016-2.8s-2.015.559-2.015 2.8.867 2.8 2.015 2.8 2.016-.56 2.016-2.8zM611.336 851.64v-12.375a.515.515 0 0 1 .532-.532h1.876c1.317 0 2.38.5 2.548 1.819a5.284 5.284 0 0 1 3.864-1.989 3.379 3.379 0 0 1 3.529 2.186 4.981 4.981 0 0 1 4.2-2.186c3.053 0 3.892 2.018 3.892 4.678v8.4a.516.516 0 0 1-.532.533h-3.92a.516.516 0 0 1-.532-.533v-7.391c0-.981-.559-1.26-1.063-1.26a4.313 4.313 0 0 0-1.681.475v8.176a.515.515 0 0 1-.531.533H619.6a.515.515 0 0 1-.532-.533v-7.391c0-.981-.561-1.26-1.065-1.26a4.312 4.312 0 0 0-1.68.475v8.176a.515.515 0 0 1-.532.533h-3.92a.516.516 0 0 1-.535-.534zM634.436 857.688v-18.423a.514.514 0 0 1 .532-.532h1.876a2.4 2.4 0 0 1 2.38 1.371 3.969 3.969 0 0 1 3.584-1.511c2.828 0 5.46 1.875 5.46 6.859s-2.632 6.859-5.46 6.859a4.13 4.13 0 0 1-3.388-1.343v6.72a.514.514 0 0 1-.532.532h-3.92a.514.514 0 0 1-.532-.532zm8.848-12.236c0-2.184-.756-2.8-2.128-2.8a3.785 3.785 0 0 0-1.736.42v4.76a3.785 3.785 0 0 0 1.736.42c1.372.001 2.128-.616 2.128-2.8zM650.284 851.64v-18.983a.515.515 0 0 1 .533-.533h3.919a.515.515 0 0 1 .532.533v18.983a.516.516 0 0 1-.532.533h-3.919a.516.516 0 0 1-.533-.533zM661.651 852.311c-2.379 0-4.367-1.146-4.367-4.2 0-2.885 2.268-4.2 5.207-4.2a11.387 11.387 0 0 1 2.409.252v-.336c0-1.176-.14-1.652-1.6-1.652a9.741 9.741 0 0 0-3.416.615 5.005 5.005 0 0 1-1.26.308c-.336 0-.5-.195-.5-.728v-1.68c0-.672.308-1.035 1.092-1.4a13.632 13.632 0 0 1 5.012-.84c3.752 0 5.516 1.344 5.516 4.76v5.767c0 .618.168.9.531.9v.336c0 .98-.363 2.129-2.66 2.129-1.4 0-2.239-.45-2.631-1.289-.504.616-1.373 1.258-3.333 1.258zm3.249-3.191v-2.8a3.441 3.441 0 0 0-1.232-.224c-1.008 0-1.54.419-1.54 1.652s.532 1.65 1.54 1.65a3.363 3.363 0 0 0 1.232-.278zM672.348 851.64v-12.375a.514.514 0 0 1 .532-.532h3.92a.514.514 0 0 1 .531.532v12.375a.515.515 0 0 1-.531.533h-3.92a.515.515 0 0 1-.532-.533zm2.492-19.516a2.38 2.38 0 1 1-2.38 2.381 2.379 2.379 0 0 1 2.38-2.381zM680.132 851.64v-12.375a.514.514 0 0 1 .532-.532h1.876c1.316 0 2.38.5 2.548 1.819a5.23 5.23 0 0 1 4.144-1.989c3.051 0 3.892 2.018 3.892 4.678v8.4a.516.516 0 0 1-.532.533h-3.92a.515.515 0 0 1-.532-.533v-7.391c0-.981-.56-1.26-1.065-1.26a5.391 5.391 0 0 0-1.96.475v8.176a.515.515 0 0 1-.531.533h-3.92a.516.516 0 0 1-.532-.534zM696.148 849.261v-7.45h-1.289a.513.513 0 0 1-.531-.531v-2.015a.514.514 0 0 1 .531-.532h1.289v-2.717a.514.514 0 0 1 .532-.531h3.92a.514.514 0 0 1 .532.531v2.717h1.932a.514.514 0 0 1 .532.532v2.015a.513.513 0 0 1-.532.531h-1.932v6.133c0 .561.14.867.672.867a3.51 3.51 0 0 0 1.12-.222c.336-.114.672-.03.672.588v.839a1.979 1.979 0 0 1-.336 1.4c-.7.7-1.876.978-3.584.978-2.016.006-3.528-1.034-3.528-3.133zM710.651 851.3c-.644-.42-.784-.672-.784-1.231V848.2c0-.588.2-.812.56-.812a1.648 1.648 0 0 1 .784.281 7.317 7.317 0 0 0 3.052 1.035c.784 0 1.372-.168 1.372-.84 0-.644-.5-.783-1.232-.924-2.408-.447-4.452-1.121-4.452-3.976 0-3.08 2.66-4.508 5.348-4.508a8.525 8.525 0 0 1 4.172 1.008 1.232 1.232 0 0 1 .784 1.232v1.793c0 .588-.2.811-.56.811a1.483 1.483 0 0 1-.784-.28 5.556 5.556 0 0 0-2.94-.953c-.532 0-1.008.2-1.008.785 0 .561.42.7 1.288.868 2.6.476 4.424 1.232 4.424 4.088 0 3.277-2.716 4.648-5.6 4.648a8.15 8.15 0 0 1-4.424-1.156zM723.335 849.261v-7.45h-1.288a.513.513 0 0 1-.532-.531v-2.015a.514.514 0 0 1 .532-.532h1.288v-2.717a.514.514 0 0 1 .532-.531h3.92a.513.513 0 0 1 .531.531v2.717h1.933a.514.514 0 0 1 .532.532v2.015a.513.513 0 0 1-.532.531h-1.933v6.133c0 .561.141.867.673.867a3.493 3.493 0 0 0 1.119-.222c.336-.114.673-.03.673.588v.839a1.972 1.972 0 0 1-.337 1.4c-.7.7-1.876.978-3.584.978-2.015.006-3.527-1.034-3.527-3.133zM732.771 851.64v-12.375a.514.514 0 0 1 .532-.532h3.92a.514.514 0 0 1 .531.532v12.375a.515.515 0 0 1-.531.533H733.3a.515.515 0 0 1-.529-.533zm2.492-19.516a2.38 2.38 0 1 1-2.38 2.381 2.379 2.379 0 0 1 2.38-2.381zM740.554 851.64v-18.983a.515.515 0 0 1 .532-.533h3.92a.515.515 0 0 1 .532.533v18.983a.515.515 0 0 1-.532.533h-3.92a.516.516 0 0 1-.532-.533zM748.338 851.64v-18.983a.516.516 0 0 1 .532-.533h3.92a.515.515 0 0 1 .532.533v18.983a.515.515 0 0 1-.532.533h-3.92a.516.516 0 0 1-.532-.533zM761.078 851.64v-12.375a.514.514 0 0 1 .532-.532h1.876c1.316 0 2.38.5 2.548 1.819a5.232 5.232 0 0 1 4.144-1.989c3.052 0 3.892 2.018 3.892 4.678v8.4a.516.516 0 0 1-.532.533h-3.92a.516.516 0 0 1-.532-.533v-7.391c0-.981-.56-1.26-1.064-1.26a5.384 5.384 0 0 0-1.96.475v8.176a.516.516 0 0 1-.532.533h-3.92a.516.516 0 0 1-.532-.534zM775.945 845.452c0-4.844 3.164-7 7-7s7 2.156 7 7-3.164 7-7 7-7-2.152-7-7zm9.016 0c0-2.24-.867-2.8-2.016-2.8s-2.015.559-2.015 2.8.867 2.8 2.015 2.8 2.016-.56 2.016-2.8zM792.606 849.261v-7.45h-1.289a.513.513 0 0 1-.532-.531v-2.015a.514.514 0 0 1 .532-.532h1.289v-2.717a.513.513 0 0 1 .532-.531h3.92a.514.514 0 0 1 .531.531v2.717h1.933a.515.515 0 0 1 .532.532v2.015a.514.514 0 0 1-.532.531h-1.933v6.133c0 .561.141.867.673.867a3.5 3.5 0 0 0 1.119-.222c.336-.114.673-.03.673.588v.839a1.972 1.972 0 0 1-.337 1.4c-.7.7-1.876.978-3.584.978-2.016.006-3.527-1.034-3.527-3.133zM807.109 851.3c-.644-.42-.785-.672-.785-1.231V848.2c0-.588.2-.812.561-.812a1.641 1.641 0 0 1 .783.281 7.326 7.326 0 0 0 3.053 1.035c.784 0 1.372-.168 1.372-.84 0-.644-.5-.783-1.233-.924-2.408-.447-4.452-1.121-4.452-3.976 0-3.08 2.66-4.508 5.349-4.508a8.525 8.525 0 0 1 4.172 1.008 1.233 1.233 0 0 1 .783 1.232v1.793c0 .588-.195.811-.56.811a1.489 1.489 0 0 1-.784-.28 5.552 5.552 0 0 0-2.939-.953c-.532 0-1.009.2-1.009.785 0 .561.421.7 1.288.868 2.6.476 4.425 1.232 4.425 4.088 0 3.277-2.717 4.648-5.6 4.648a8.142 8.142 0 0 1-4.424-1.156zM818.364 845.452c0-4.844 3.164-7 7-7s7 2.156 7 7-3.164 7-7 7-7-2.152-7-7zm9.016 0c0-2.24-.867-2.8-2.016-2.8s-2.015.559-2.015 2.8.867 2.8 2.015 2.8 2.016-.56 2.016-2.8zM834.38 851.64v-12.375a.514.514 0 0 1 .532-.532h1.788c1.316 0 2.38.5 2.548 1.819a4.156 4.156 0 0 1 3.5-1.905c.784 0 1.651.393 1.651 1.01v4.256a.521.521 0 0 1-.531.559 1.368 1.368 0 0 1-.728-.307 2.677 2.677 0 0 0-1.512-.449 3.847 3.847 0 0 0-2.269.672v7.252a.515.515 0 0 1-.531.533h-3.92a.516.516 0 0 1-.528-.533zM847.12 849.261v-7.45h-1.288a.513.513 0 0 1-.532-.531v-2.015a.514.514 0 0 1 .532-.532h1.288v-2.717a.514.514 0 0 1 .532-.531h3.92a.514.514 0 0 1 .532.531v2.717h1.932a.514.514 0 0 1 .532.532v2.015a.513.513 0 0 1-.532.531H852.1v6.133c0 .561.14.867.672.867a3.5 3.5 0 0 0 1.12-.222c.336-.114.672-.03.672.588v.839a1.979 1.979 0 0 1-.336 1.4c-.7.7-1.876.978-3.584.978-2.012.006-3.524-1.034-3.524-3.133zM855.772 845.452c0-4.088 2.324-7 6.58-7 3.471 0 5.908 1.625 5.908 5.8a15.12 15.12 0 0 1-.141 2.183h-7.363c0 1.764 1.008 2.184 3.332 2.184a8.647 8.647 0 0 0 1.876-.2 15.306 15.306 0 0 1 1.54-.393c.336 0 .56.252.56.756v.813a1.983 1.983 0 0 1-.336 1.4c-.869.867-3.052 1.455-5.292 1.455-4.592.002-6.664-2.91-6.664-6.998zm8.091-1.4c.029-.28.057-.532.057-.756 0-1.2-.589-1.68-1.54-1.68-1.12 0-1.652.645-1.652 2.436zM875.092 852.311c-2.828 0-5.46-1.875-5.46-6.859s2.632-6.859 5.46-6.859a4.131 4.131 0 0 1 3.388 1.343v-7.279a.515.515 0 0 1 .532-.533h3.92a.515.515 0 0 1 .531.533v16.322c0 .618.168.9.532.9v.336c0 .98-.364 2.129-2.66 2.129-1.4 0-2.3-.45-2.659-1.373a4.266 4.266 0 0 1-3.584 1.34zm3.388-4.478v-4.76a3.789 3.789 0 0 0-1.737-.42c-1.372 0-2.128.615-2.128 2.8s.756 2.8 2.128 2.8a3.789 3.789 0 0 0 1.737-.42zM890.1 838.143a4.789 4.789 0 0 0-2.8 1.038 2.734 2.734 0 0 1-1.288.671c-.392 0-.644-.279-.644-.9v-2.408a1.353 1.353 0 0 1 .84-1.4 10.133 10.133 0 0 1 4.928-1.205c3.08 0 6.216.924 6.216 4.985a4.394 4.394 0 0 1-1.708 3.724c-1.119.924-2.38 1.371-2.38 2.574v.7a.514.514 0 0 1-.531.531h-3.361a.515.515 0 0 1-.532-.531v-.756a4.114 4.114 0 0 1 1.484-3.053c.785-.783 1.568-1.428 1.568-2.408-.001-1.112-.673-1.562-1.792-1.562zm.952 9.465a2.436 2.436 0 1 1-2.436 2.436 2.438 2.438 0 0 1 2.435-2.436zM574.755 702.863c0-7.7 3.976-9.267 8.287-9.267a8.03 8.03 0 0 1 4.257.951c.392.28.7.56.7.952v3.137a.494.494 0 0 1-.531.559 1.975 1.975 0 0 1-.757-.336 6.051 6.051 0 0 0-3.163-.924c-2.465 0-3.7 1.344-3.7 4.928s1.259 4.9 3.7 4.9a6.05 6.05 0 0 0 3.163-.925 1.991 1.991 0 0 1 .757-.336.494.494 0 0 1 .531.56v3.138c0 .392-.307.672-.7.952a8.026 8.026 0 0 1-4.257.952c-4.311-.004-8.287-1.541-8.287-9.241zM589.175 705.1c0-4.843 3.163-7 7-7s7 2.157 7 7-3.163 7-7 7-7-2.153-7-7zm9.016 0c0-2.24-.869-2.8-2.016-2.8s-2.017.559-2.017 2.8.868 2.8 2.017 2.8 2.016-.557 2.016-2.8zM605.191 711.291v-12.376a.514.514 0 0 1 .532-.531h1.877c1.315 0 2.38.5 2.548 1.819a5.227 5.227 0 0 1 4.143-1.988c3.052 0 3.893 2.016 3.893 4.676v8.4a.516.516 0 0 1-.533.532h-3.919a.515.515 0 0 1-.533-.532V703.9c0-.98-.559-1.259-1.064-1.259a5.391 5.391 0 0 0-1.96.475v8.176a.515.515 0 0 1-.531.532h-3.92a.514.514 0 0 1-.533-.533zM621.206 708.911v-7.448h-1.288a.515.515 0 0 1-.532-.532v-2.016a.514.514 0 0 1 .532-.531h1.288v-2.717a.514.514 0 0 1 .532-.531h3.92a.514.514 0 0 1 .532.531v2.717h1.932a.514.514 0 0 1 .532.531v2.016a.515.515 0 0 1-.532.532h-1.932v6.137c0 .559.14.867.672.867a3.456 3.456 0 0 0 1.12-.224c.335-.112.672-.028.672.588v.84a1.968 1.968 0 0 1-.337 1.4c-.7.7-1.875.98-3.583.98-2.016-.004-3.528-1.039-3.528-3.14zM634.226 711.963c-2.38 0-4.368-1.148-4.368-4.2 0-2.885 2.267-4.2 5.208-4.2a11.449 11.449 0 0 1 2.408.252v-.336c0-1.175-.141-1.652-1.6-1.652a9.729 9.729 0 0 0-3.415.616 5 5 0 0 1-1.261.308c-.336 0-.5-.195-.5-.728v-1.679c0-.673.309-1.037 1.092-1.4a13.645 13.645 0 0 1 5.013-.84c3.752 0 5.515 1.344 5.515 4.76v5.768c0 .616.168.9.533.9v.336c0 .98-.365 2.128-2.66 2.128-1.4 0-2.241-.448-2.632-1.288a3.88 3.88 0 0 1-3.333 1.255zm3.248-3.192v-2.8a3.439 3.439 0 0 0-1.233-.225c-1.007 0-1.54.42-1.54 1.652s.533 1.652 1.54 1.652a3.342 3.342 0 0 0 1.233-.279zM644.138 705.1c0-4.4 2.351-7 6.887-7a7.01 7.01 0 0 1 3.865 1.008c.643.42.783.672.783 1.233v1.96c0 .587-.14.923-.588.923a1.937 1.937 0 0 1-.84-.308 5.936 5.936 0 0 0-2.576-.615c-1.4 0-2.548.559-2.548 2.8s1.149 2.8 2.548 2.8a5.542 5.542 0 0 0 2.576-.616 1.937 1.937 0 0 1 .84-.308c.448 0 .588.336.588.924v1.96c0 .56-.14.812-.783 1.233a7.02 7.02 0 0 1-3.865 1.007c-4.536-.001-6.887-2.601-6.887-7.001zM658.445 708.911v-7.448h-1.288a.515.515 0 0 1-.532-.532v-2.016a.515.515 0 0 1 .532-.531h1.288v-2.717a.514.514 0 0 1 .533-.531h3.92a.514.514 0 0 1 .531.531v2.717h1.932a.515.515 0 0 1 .533.531v2.016a.516.516 0 0 1-.533.532h-1.932v6.137c0 .559.14.867.673.867a3.451 3.451 0 0 0 1.119-.224c.336-.112.673-.028.673.588v.84a1.973 1.973 0 0 1-.337 1.4c-.7.7-1.876.98-3.584.98-2.016-.004-3.528-1.039-3.528-3.14zM675.58 717.815c-1.008-.224-1.231-.42-1.231-.952V714.2c0-.392.139-.588.5-.588a3 3 0 0 1 .756.2 6.353 6.353 0 0 0 1.9.224c2.8 0 3.191-1.652 3.191-3.64v-.364a5.218 5.218 0 0 1-4.116 1.96c-3.052 0-3.892-2.016-3.892-4.676v-8.4a.514.514 0 0 1 .533-.531h3.92a.515.515 0 0 1 .532.531v7.672c0 .98.559 1.261 1.063 1.261a5.366 5.366 0 0 0 1.96-.477v-8.456a.515.515 0 0 1 .532-.531h3.92a.515.515 0 0 1 .533.531v11.2c0 4.34-1.429 7.952-7.924 7.952a11.858 11.858 0 0 1-2.177-.253zM687.7 705.1c0-4.843 3.164-7 7-7s7 2.157 7 7-3.164 7-7 7-7-2.153-7-7zm9.016 0c0-2.24-.867-2.8-2.016-2.8s-2.015.559-2.015 2.8.867 2.8 2.015 2.8 2.02-.557 2.02-2.8zM703.58 707.315v-8.4a.514.514 0 0 1 .532-.531h3.92a.515.515 0 0 1 .533.531v7.392c0 .98.559 1.26 1.063 1.26a5.375 5.375 0 0 0 1.96-.476v-8.176a.515.515 0 0 1 .532-.531h3.92a.514.514 0 0 1 .532.531v9.716c0 .616.168.9.533.9v.336c0 .98-.365 2.128-2.661 2.128-1.652 0-2.66-.672-2.828-1.988a5.228 5.228 0 0 1-4.144 1.988c-3.052-.004-3.892-2.02-3.892-4.68zM719.371 711.291v-12.376a.515.515 0 0 1 .532-.531h1.797c1.317 0 2.38.5 2.548 1.819a4.157 4.157 0 0 1 3.5-1.9c.784 0 1.653.392 1.653 1.008v4.256a.523.523 0 0 1-.533.56 1.368 1.368 0 0 1-.727-.308 2.686 2.686 0 0 0-1.513-.448 3.837 3.837 0 0 0-2.267.672v7.252a.515.515 0 0 1-.533.532H719.9a.515.515 0 0 1-.529-.536zM735.3 705.1c0-4.4 2.351-7 6.888-7a7.009 7.009 0 0 1 3.864 1.008c.643.42.783.672.783 1.233v1.96c0 .587-.14.923-.588.923a1.937 1.937 0 0 1-.84-.308 5.936 5.936 0 0 0-2.576-.615c-1.4 0-2.548.559-2.548 2.8s1.149 2.8 2.548 2.8a5.542 5.542 0 0 0 2.576-.616 1.937 1.937 0 0 1 .84-.308c.448 0 .588.336.588.924v1.96c0 .56-.14.812-.783 1.233a7.019 7.019 0 0 1-3.864 1.007c-4.533-.001-6.888-2.601-6.888-7.001zM748.184 705.1c0-4.843 3.163-7 7-7s7 2.157 7 7-3.163 7-7 7-7-2.153-7-7zm9.015 0c0-2.24-.868-2.8-2.015-2.8s-2.017.559-2.017 2.8.868 2.8 2.017 2.8 2.016-.557 2.016-2.8zM764.2 711.291v-12.376a.515.515 0 0 1 .533-.531h1.876c1.316 0 2.379.5 2.547 1.819a5.281 5.281 0 0 1 3.865-1.988 3.377 3.377 0 0 1 3.528 2.184 4.981 4.981 0 0 1 4.2-2.184c3.053 0 3.893 2.016 3.893 4.676v8.4a.515.515 0 0 1-.532.532h-3.92a.516.516 0 0 1-.533-.532V703.9c0-.98-.559-1.259-1.063-1.259a4.32 4.32 0 0 0-1.681.475v8.176a.514.514 0 0 1-.531.532h-3.92a.514.514 0 0 1-.532-.532V703.9c0-.98-.561-1.259-1.065-1.259a4.3 4.3 0 0 0-1.679.475v8.176a.515.515 0 0 1-.533.532h-3.919a.516.516 0 0 1-.534-.533zM787.3 717.339v-18.424a.514.514 0 0 1 .532-.531h1.876a2.4 2.4 0 0 1 2.38 1.371 3.968 3.968 0 0 1 3.584-1.512c2.828 0 5.46 1.876 5.46 6.86s-2.632 6.86-5.46 6.86a4.129 4.129 0 0 1-3.389-1.344v6.72a.514.514 0 0 1-.531.532h-3.92a.515.515 0 0 1-.532-.532zm8.848-12.236c0-2.184-.756-2.8-2.128-2.8a3.8 3.8 0 0 0-1.737.419v4.76a3.792 3.792 0 0 0 1.737.42c1.371-.002 2.127-.615 2.127-2.802zM806.731 711.963c-2.38 0-4.369-1.148-4.369-4.2 0-2.885 2.268-4.2 5.208-4.2a11.46 11.46 0 0 1 2.409.252v-.336c0-1.175-.141-1.652-1.6-1.652a9.729 9.729 0 0 0-3.415.616 5 5 0 0 1-1.261.308c-.336 0-.5-.195-.5-.728v-1.679c0-.673.309-1.037 1.092-1.4a13.638 13.638 0 0 1 5.013-.84c3.752 0 5.515 1.344 5.515 4.76v5.768c0 .616.168.9.533.9v.336c0 .98-.365 2.128-2.661 2.128-1.4 0-2.24-.448-2.631-1.288a3.88 3.88 0 0 1-3.333 1.255zm3.248-3.192v-2.8a3.444 3.444 0 0 0-1.233-.225c-1.008 0-1.54.42-1.54 1.652s.532 1.652 1.54 1.652a3.347 3.347 0 0 0 1.233-.279zM817.426 711.291v-12.376a.514.514 0 0 1 .532-.531h1.876c1.316 0 2.38.5 2.548 1.819a5.231 5.231 0 0 1 4.144-1.988c3.052 0 3.892 2.016 3.892 4.676v8.4a.515.515 0 0 1-.532.532h-3.92a.514.514 0 0 1-.531-.532V703.9c0-.98-.561-1.259-1.065-1.259a5.384 5.384 0 0 0-1.96.475v8.176a.514.514 0 0 1-.532.532h-3.92a.515.515 0 0 1-.532-.533zM835.822 717.815c-1.007-.224-1.232-.42-1.232-.952V714.2c0-.392.14-.588.5-.588a2.978 2.978 0 0 1 .756.2 6.359 6.359 0 0 0 1.9.224c2.8 0 3.192-1.652 3.192-3.64v-.364a5.218 5.218 0 0 1-4.116 1.96c-3.052 0-3.892-2.016-3.892-4.676v-8.4a.514.514 0 0 1 .532-.531h3.92a.514.514 0 0 1 .532.531v7.672c0 .98.561 1.261 1.064 1.261a5.366 5.366 0 0 0 1.96-.477v-8.456a.514.514 0 0 1 .532-.531h3.92a.514.514 0 0 1 .532.531v11.2c0 4.34-1.428 7.952-7.924 7.952a11.858 11.858 0 0 1-2.176-.253zM854.274 711.291v-9.828h-1.233a.515.515 0 0 1-.531-.532v-2.016a.514.514 0 0 1 .531-.531h1.233v-2.017c0-2.716.952-4.872 5.236-4.872a7.4 7.4 0 0 1 2.015.225.635.635 0 0 1 .476.7v2.38a.411.411 0 0 1-.447.447 1.4 1.4 0 0 1-.309-.056 4.32 4.32 0 0 0-.811-.112c-.7 0-1.176.309-1.176 1.4v1.9h2.212a.514.514 0 0 1 .531.531v2.016a.515.515 0 0 1-.531.532h-2.212v9.828a.515.515 0 0 1-.532.532h-3.92a.514.514 0 0 1-.532-.527zm9.492 0v-12.376a.513.513 0 0 1 .531-.531h3.921a.514.514 0 0 1 .531.531v12.376a.515.515 0 0 1-.531.532H864.3a.514.514 0 0 1-.534-.532zm2.492-19.516a2.38 2.38 0 1 1-2.381 2.38 2.379 2.379 0 0 1 2.381-2.38zM871.549 711.291v-12.376a.515.515 0 0 1 .532-.531h1.792c1.317 0 2.38.5 2.548 1.819a4.157 4.157 0 0 1 3.5-1.9c.784 0 1.652.392 1.652 1.008v4.256a.522.522 0 0 1-.532.56 1.367 1.367 0 0 1-.727-.308 2.687 2.687 0 0 0-1.513-.448 3.842 3.842 0 0 0-2.268.672v7.252a.514.514 0 0 1-.532.532h-3.92a.515.515 0 0 1-.532-.536zM883.421 710.955c-.644-.42-.784-.672-.784-1.232v-1.875c0-.589.2-.813.56-.813a1.655 1.655 0 0 1 .784.28 7.319 7.319 0 0 0 3.052 1.036c.784 0 1.372-.168 1.372-.839 0-.645-.5-.785-1.232-.925-2.408-.447-4.452-1.12-4.452-3.976 0-3.08 2.66-4.508 5.348-4.508a8.525 8.525 0 0 1 4.172 1.008 1.231 1.231 0 0 1 .784 1.233v1.792c0 .587-.2.811-.56.811a1.483 1.483 0 0 1-.784-.28 5.556 5.556 0 0 0-2.94-.952c-.532 0-1.007.2-1.007.784 0 .56.419.7 1.287.868 2.6.477 4.424 1.232 4.424 4.088 0 3.276-2.716 4.648-5.6 4.648a8.141 8.141 0 0 1-4.424-1.148zM896.1 708.911v-7.448h-1.288a.515.515 0 0 1-.532-.532v-2.016a.514.514 0 0 1 .532-.531h1.288v-2.717a.514.514 0 0 1 .532-.531h3.92a.514.514 0 0 1 .532.531v2.717h1.932a.514.514 0 0 1 .532.531v2.016a.515.515 0 0 1-.532.532h-1.932v6.137c0 .559.14.867.672.867a3.462 3.462 0 0 0 1.12-.224c.336-.112.672-.028.672.588v.84a1.974 1.974 0 0 1-.336 1.4c-.7.7-1.876.98-3.584.98-2.011-.004-3.528-1.039-3.528-3.14zM622.693 726.69v11.086a6.14 6.14 0 0 1-1.711 4.617 6.55 6.55 0 0 1-4.769 1.664 5.792 5.792 0 0 1-6.317-6.328V726.69h1.204v11.086a4.776 4.776 0 0 0 5.25 5.227 4.69 4.69 0 0 0 5.145-5.11v-11.2zM634.963 740.507a3.03 3.03 0 0 1-1.3 2.631 6.335 6.335 0 0 1-3.692.919 8.793 8.793 0 0 1-4.054-.785v-1.254a8.94 8.94 0 0 0 4.054.961 5.352 5.352 0 0 0 2.866-.627 1.906 1.906 0 0 0 .978-1.67 2.037 2.037 0 0 0-.779-1.617 8.587 8.587 0 0 0-2.561-1.289 14.66 14.66 0 0 1-2.683-1.189 3.7 3.7 0 0 1-1.166-1.125 2.825 2.825 0 0 1-.393-1.53 2.61 2.61 0 0 1 1.2-2.261 5.835 5.835 0 0 1 3.358-.832 10.065 10.065 0 0 1 3.914.773l-.434 1.055a9.173 9.173 0 0 0-3.48-.774 5.038 5.038 0 0 0-2.473.516 1.583 1.583 0 0 0-.914 1.43 1.976 1.976 0 0 0 .709 1.593 9.864 9.864 0 0 0 2.771 1.336 13.6 13.6 0 0 1 2.508 1.12 3.65 3.65 0 0 1 1.178 1.13 2.765 2.765 0 0 1 .393 1.489zM643.388 744.057a5.552 5.552 0 0 1-4.33-1.71 6.879 6.879 0 0 1-1.553-4.793 7.47 7.47 0 0 1 1.5-4.881 4.951 4.951 0 0 1 4.043-1.834 4.365 4.365 0 0 1 3.551 1.57 6.487 6.487 0 0 1 1.3 4.266v.937h-9.176a6.028 6.028 0 0 0 1.225 4.008 4.309 4.309 0 0 0 3.44 1.38 10.609 10.609 0 0 0 1.916-.153 11.583 11.583 0 0 0 2.092-.656v1.055a9.415 9.415 0 0 1-1.992.639 11.085 11.085 0 0 1-2.016.172zm-.34-12.187a3.817 3.817 0 0 0-2.953 1.213 5.719 5.719 0 0 0-1.3 3.5h7.875a5.558 5.558 0 0 0-.961-3.463 3.172 3.172 0 0 0-2.661-1.25zM661.013 743.026a8.7 8.7 0 0 0 1.922-.187v.937a6.133 6.133 0 0 1-1.945.281 3.165 3.165 0 0 1-2.49-.9 4.184 4.184 0 0 1-.8-2.836v-8.226h-1.89v-.68l1.887-.527.586-2.883h.6v3.082h3.739v1.008h-3.742v8.062a3.677 3.677 0 0 0 .516 2.168 1.871 1.871 0 0 0 1.617.701zM674.572 743.823v-8.262a4.03 4.03 0 0 0-.809-2.795 3.264 3.264 0 0 0-2.508-.873 4.339 4.339 0 0 0-3.345 1.155 5.44 5.44 0 0 0-1.061 3.744v7.031h-1.16v-18.234h1.16v5.8l-.058 1.628h.082a4.278 4.278 0 0 1 1.8-1.664 6.327 6.327 0 0 1 2.707-.515q4.337 0 4.336 4.652v8.332zM684.99 744.057a5.551 5.551 0 0 1-4.33-1.71 6.879 6.879 0 0 1-1.553-4.793 7.47 7.47 0 0 1 1.5-4.881 4.951 4.951 0 0 1 4.043-1.834 4.365 4.365 0 0 1 3.551 1.57 6.487 6.487 0 0 1 1.3 4.266v.937h-9.176a6.028 6.028 0 0 0 1.224 4.008 4.311 4.311 0 0 0 3.441 1.38 10.625 10.625 0 0 0 1.916-.153 11.583 11.583 0 0 0 2.092-.656v1.055a9.4 9.4 0 0 1-1.993.639 11.081 11.081 0 0 1-2.015.172zm-.34-12.187a3.814 3.814 0 0 0-2.953 1.213 5.719 5.719 0 0 0-1.3 3.5h7.875a5.552 5.552 0 0 0-.961-3.463 3.168 3.168 0 0 0-2.661-1.25zM709.435 743.823l-2.789-8.519q-.27-.869-.691-2.543h-.071l-.246.867-.527 1.7-2.836 8.5h-1.148l-3.645-12.738h1.242l2.039 7.383q.715 2.742.938 4.031h.07q.691-2.742 1.008-3.645l2.625-7.769h1.055l2.5 7.746q.843 2.754 1.031 3.644h.07q.094-.76.938-4.078l1.945-7.312h1.172l-3.457 12.738zM727.142 737.436a7.216 7.216 0 0 1-1.512 4.87 5.219 5.219 0 0 1-4.171 1.751 5.4 5.4 0 0 1-2.954-.808 5.185 5.185 0 0 1-1.957-2.32 8.445 8.445 0 0 1-.679-3.493 7.172 7.172 0 0 1 1.511-4.857 5.21 5.21 0 0 1 4.149-1.74 5.112 5.112 0 0 1 4.119 1.763 7.246 7.246 0 0 1 1.494 4.834zm-10.054 0a6.479 6.479 0 0 0 1.154 4.1 4.356 4.356 0 0 0 6.527 0 6.479 6.479 0 0 0 1.154-4.1 6.375 6.375 0 0 0-1.166-4.089 3.961 3.961 0 0 0-3.275-1.454 3.9 3.9 0 0 0-3.252 1.448 6.467 6.467 0 0 0-1.142 4.095zM735.685 730.839a9.923 9.923 0 0 1 1.735.164l-.223 1.113a6.773 6.773 0 0 0-1.652-.2 3.208 3.208 0 0 0-2.672 1.383 5.633 5.633 0 0 0-1.043 3.492v7.031h-1.16v-12.737h.984l.117 2.3h.082a5.4 5.4 0 0 1 1.676-1.975 3.924 3.924 0 0 1 2.156-.571zM744.673 730.839a5.29 5.29 0 0 1 2.391.5 4.758 4.758 0 0 1 1.8 1.722h.07q-.07-1.476-.07-2.894v-4.582h1.148v18.234h-.762l-.292-1.945h-.094a4.714 4.714 0 0 1-4.172 2.179 4.994 4.994 0 0 1-4.031-1.64 7.2 7.2 0 0 1-1.4-4.781 7.985 7.985 0 0 1 1.383-5.051 4.822 4.822 0 0 1 4.029-1.742zm0 1.054a3.6 3.6 0 0 0-3.134 1.465 7.255 7.255 0 0 0-1.049 4.254q0 5.415 4.207 5.414a3.819 3.819 0 0 0 3.164-1.254 6.654 6.654 0 0 0 1.008-4.136v-.2a7.1 7.1 0 0 0-.99-4.248 3.783 3.783 0 0 0-3.206-1.295zM758.877 732.561l-.141-.234q.375-1.312.955-2.941t1.084-2.7h.762q-.352 1.184-.756 3.012t-.533 2.859zM769.095 744.057a5.455 5.455 0 0 1-4.277-1.722 6.941 6.941 0 0 1-1.547-4.8 7.054 7.054 0 0 1 1.606-4.928 5.646 5.646 0 0 1 4.394-1.763 8.83 8.83 0 0 1 3.164.574l-.316 1.031a9.3 9.3 0 0 0-2.871-.551 4.36 4.36 0 0 0-3.551 1.448 6.342 6.342 0 0 0-1.207 4.166 6.153 6.153 0 0 0 1.207 4.037 4.141 4.141 0 0 0 3.375 1.451 8.29 8.29 0 0 0 3.223-.621v1.078a7.314 7.314 0 0 1-3.2.6zM785.947 737.436a7.216 7.216 0 0 1-1.512 4.87 5.221 5.221 0 0 1-4.172 1.751 5.4 5.4 0 0 1-2.953-.808 5.178 5.178 0 0 1-1.957-2.32 8.444 8.444 0 0 1-.68-3.493 7.167 7.167 0 0 1 1.512-4.857 5.21 5.21 0 0 1 4.149-1.74 5.112 5.112 0 0 1 4.119 1.763 7.246 7.246 0 0 1 1.494 4.834zm-10.055 0a6.485 6.485 0 0 0 1.154 4.1 4.357 4.357 0 0 0 6.528 0 6.485 6.485 0 0 0 1.154-4.1 6.381 6.381 0 0 0-1.166-4.089 3.961 3.961 0 0 0-3.275-1.454 3.9 3.9 0 0 0-3.252 1.448 6.467 6.467 0 0 0-1.143 4.095zM805.388 743.823v-8.355a4.161 4.161 0 0 0-.726-2.719 2.763 2.763 0 0 0-2.227-.856 3.633 3.633 0 0 0-2.894 1.079 5.08 5.08 0 0 0-.938 3.386v7.465h-1.183v-8.707q0-3.222-2.954-3.223a3.482 3.482 0 0 0-2.918 1.166 6.079 6.079 0 0 0-.914 3.733v7.031h-1.16v-12.738h.961l.246 1.746h.071a3.647 3.647 0 0 1 1.5-1.471 4.471 4.471 0 0 1 2.144-.521q3.012 0 3.867 2.261h.047a4.33 4.33 0 0 1 1.67-1.675 4.8 4.8 0 0 1 2.385-.586 4.091 4.091 0 0 1 3.129 1.113 5.057 5.057 0 0 1 1.043 3.539v8.332zM816.111 744.057a4.653 4.653 0 0 1-4.289-2.2h-.082l.035.985q.047.867.047 1.9v4.852h-1.16v-18.5h.984l.223 1.816h.07a4.6 4.6 0 0 1 4.195-2.062 4.735 4.735 0 0 1 3.932 1.693 7.751 7.751 0 0 1 1.354 4.928 7.458 7.458 0 0 1-1.42 4.86 4.766 4.766 0 0 1-3.889 1.728zm-.023-1.031a3.544 3.544 0 0 0 3.029-1.453 6.737 6.737 0 0 0 1.072-4.066q0-5.613-4.055-5.614a4.064 4.064 0 0 0-3.269 1.225 6.13 6.13 0 0 0-1.043 3.99v.375a7.018 7.018 0 0 0 1 4.266 3.9 3.9 0 0 0 3.266 1.277zM826.107 743.823h-1.16v-18.234h1.16zM838.107 743.823l-.293-2.016h-.094a6.045 6.045 0 0 1-1.974 1.741 5.274 5.274 0 0 1-2.4.509 4.15 4.15 0 0 1-2.918-.96 3.44 3.44 0 0 1-1.043-2.661 3.282 3.282 0 0 1 1.553-2.894 8.437 8.437 0 0 1 4.494-1.09l2.426-.07v-.844a4.332 4.332 0 0 0-.738-2.742 2.864 2.864 0 0 0-2.379-.926 7.957 7.957 0 0 0-3.668.984l-.434-1.007a9.7 9.7 0 0 1 4.149-.985 4.131 4.131 0 0 1 3.134 1.09 4.785 4.785 0 0 1 1.038 3.4v8.473zM833.42 743a4.056 4.056 0 0 0 4.394-4.406v-1.254l-2.226.093a8.423 8.423 0 0 0-3.827.838 2.415 2.415 0 0 0-1.142 2.209 2.378 2.378 0 0 0 .732 1.858 2.98 2.98 0 0 0 2.069.662zM842.923 727.546q0-1.125.739-1.125a.654.654 0 0 1 .568.293 1.434 1.434 0 0 1 .205.832 1.471 1.471 0 0 1-.205.832.648.648 0 0 1-.568.3q-.738.004-.739-1.132zm1.325 16.277h-1.16v-12.738h1.16zM857.4 743.823v-8.262a4.03 4.03 0 0 0-.808-2.795 3.266 3.266 0 0 0-2.508-.873 4.34 4.34 0 0 0-3.346 1.155 5.439 5.439 0 0 0-1.061 3.744v7.031h-1.16v-12.738h.985l.222 1.746h.071q1.242-1.992 4.418-1.992 4.335 0 4.336 4.652v8.332zM866.033 743.026a8.709 8.709 0 0 0 1.922-.187v.937a6.139 6.139 0 0 1-1.946.281 3.165 3.165 0 0 1-2.49-.9 4.189 4.189 0 0 1-.8-2.836v-8.226h-1.889v-.68l1.886-.527.584-2.888h.6v3.082h3.738v1.008H863.9v8.062a3.677 3.677 0 0 0 .516 2.168 1.869 1.869 0 0 0 1.617.706zM871.576 726.69l.14.235a39 39 0 0 1-2.039 5.636h-.761q.339-1.125.714-2.83t.575-3.041zM218.171 702.863c0-7.7 3.976-9.267 8.287-9.267a8.029 8.029 0 0 1 4.257.951c.392.28.7.56.7.952v3.137a.494.494 0 0 1-.531.559 1.974 1.974 0 0 1-.757-.336 6.051 6.051 0 0 0-3.163-.924c-2.465 0-3.7 1.344-3.7 4.928s1.259 4.9 3.7 4.9a6.05 6.05 0 0 0 3.163-.925 1.991 1.991 0 0 1 .757-.336.494.494 0 0 1 .531.56v3.138c0 .392-.307.672-.7.952a8.026 8.026 0 0 1-4.257.952c-4.311-.004-8.287-1.541-8.287-9.241zM232.591 705.1c0-4.843 3.163-7 7-7s7 2.157 7 7-3.163 7-7 7-7-2.153-7-7zm9.016 0c0-2.24-.869-2.8-2.016-2.8s-2.017.559-2.017 2.8.868 2.8 2.017 2.8 2.016-.557 2.016-2.8zM248.607 711.291v-12.376a.513.513 0 0 1 .532-.531h1.876c1.315 0 2.38.5 2.548 1.819a5.272 5.272 0 0 1 3.863-1.988 3.377 3.377 0 0 1 3.528 2.184 4.983 4.983 0 0 1 4.2-2.184c3.052 0 3.892 2.016 3.892 4.676v8.4a.515.515 0 0 1-.531.532h-3.921a.514.514 0 0 1-.531-.532V703.9c0-.98-.561-1.259-1.065-1.259a4.312 4.312 0 0 0-1.68.475v8.176a.514.514 0 0 1-.532.532h-3.92a.515.515 0 0 1-.532-.532V703.9c0-.98-.559-1.259-1.063-1.259a4.313 4.313 0 0 0-1.681.475v8.176a.515.515 0 0 1-.531.532h-3.92a.514.514 0 0 1-.532-.533zM271.706 717.339v-18.424a.514.514 0 0 1 .532-.531h1.876a2.4 2.4 0 0 1 2.38 1.371 3.969 3.969 0 0 1 3.584-1.512c2.828 0 5.46 1.876 5.46 6.86s-2.632 6.86-5.46 6.86a4.126 4.126 0 0 1-3.388-1.344v6.72a.515.515 0 0 1-.532.532h-3.92a.515.515 0 0 1-.532-.532zm8.848-12.236c0-2.184-.756-2.8-2.128-2.8a3.8 3.8 0 0 0-1.736.419v4.76a3.785 3.785 0 0 0 1.736.42c1.374-.002 2.128-.615 2.128-2.802zM287.554 711.291v-18.984a.515.515 0 0 1 .532-.532h3.92a.514.514 0 0 1 .532.532v18.984a.514.514 0 0 1-.532.532h-3.92a.515.515 0 0 1-.532-.532zM298.922 711.963c-2.38 0-4.368-1.148-4.368-4.2 0-2.885 2.267-4.2 5.208-4.2a11.449 11.449 0 0 1 2.408.252v-.336c0-1.175-.141-1.652-1.6-1.652a9.734 9.734 0 0 0-3.415.616 5.005 5.005 0 0 1-1.26.308c-.336 0-.5-.195-.5-.728v-1.679c0-.673.308-1.037 1.091-1.4a13.645 13.645 0 0 1 5.013-.84c3.752 0 5.516 1.344 5.516 4.76v5.768c0 .616.168.9.532.9v.336c0 .98-.364 2.128-2.66 2.128-1.4 0-2.24-.448-2.632-1.288a3.88 3.88 0 0 1-3.333 1.255zm3.248-3.192v-2.8a3.438 3.438 0 0 0-1.232-.225c-1.008 0-1.54.42-1.54 1.652s.532 1.652 1.54 1.652a3.341 3.341 0 0 0 1.232-.279zM309.617 711.291v-12.376a.515.515 0 0 1 .533-.531h3.919a.514.514 0 0 1 .533.531v12.376a.515.515 0 0 1-.533.532h-3.919a.516.516 0 0 1-.533-.532zm2.492-19.516a2.38 2.38 0 1 1-2.379 2.38 2.377 2.377 0 0 1 2.379-2.38zM317.4 711.291v-12.376a.515.515 0 0 1 .533-.531h1.876c1.316 0 2.38.5 2.548 1.819a5.229 5.229 0 0 1 4.144-1.988c3.052 0 3.892 2.016 3.892 4.676v8.4a.515.515 0 0 1-.533.532h-3.919a.515.515 0 0 1-.532-.532V703.9c0-.98-.56-1.259-1.064-1.259a5.384 5.384 0 0 0-1.96.475v8.176a.515.515 0 0 1-.532.532h-3.92a.516.516 0 0 1-.533-.533zM333.418 708.911v-7.448h-1.288a.515.515 0 0 1-.532-.532v-2.016a.514.514 0 0 1 .532-.531h1.288v-2.717a.514.514 0 0 1 .532-.531h3.92a.513.513 0 0 1 .531.531v2.717h1.933a.514.514 0 0 1 .532.531v2.016a.515.515 0 0 1-.532.532H338.4v6.137c0 .559.141.867.673.867a3.446 3.446 0 0 0 1.119-.224c.336-.112.673-.028.673.588v.84a1.968 1.968 0 0 1-.337 1.4c-.7.7-1.876.98-3.584.98-2.014-.004-3.526-1.039-3.526-3.14zM347.809 711.291v-12.376a.514.514 0 0 1 .532-.531h1.876c1.316 0 2.38.5 2.548 1.819a5.231 5.231 0 0 1 4.144-1.988c3.052 0 3.892 2.016 3.892 4.676v8.4a.515.515 0 0 1-.532.532h-3.92a.515.515 0 0 1-.532-.532V703.9c0-.98-.56-1.259-1.064-1.259a5.384 5.384 0 0 0-1.96.475v8.176a.515.515 0 0 1-.532.532h-3.92a.515.515 0 0 1-.532-.533zM362.677 705.1c0-4.843 3.164-7 7-7s7 2.157 7 7-3.164 7-7 7-7-2.153-7-7zm9.015 0c0-2.24-.867-2.8-2.015-2.8s-2.016.559-2.016 2.8.867 2.8 2.016 2.8 2.015-.557 2.015-2.8zM379.336 708.911v-7.448h-1.288a.514.514 0 0 1-.531-.532v-2.016a.513.513 0 0 1 .531-.531h1.288v-2.717a.515.515 0 0 1 .532-.531h3.92a.513.513 0 0 1 .532.531v2.717h1.932a.513.513 0 0 1 .532.531v2.016a.514.514 0 0 1-.532.532h-1.932v6.137c0 .559.14.867.672.867a3.456 3.456 0 0 0 1.12-.224c.336-.112.672-.028.672.588v.84a1.974 1.974 0 0 1-.336 1.4c-.7.7-1.876.98-3.584.98-2.015-.004-3.528-1.039-3.528-3.14zM393.84 710.955c-.645-.42-.784-.672-.784-1.232v-1.875c0-.589.2-.813.559-.813a1.657 1.657 0 0 1 .785.28 7.31 7.31 0 0 0 3.051 1.036c.784 0 1.372-.168 1.372-.839 0-.645-.5-.785-1.231-.925-2.408-.447-4.452-1.12-4.452-3.976 0-3.08 2.66-4.508 5.347-4.508a8.525 8.525 0 0 1 4.172 1.008 1.23 1.23 0 0 1 .784 1.233v1.792c0 .587-.2.811-.559.811a1.478 1.478 0 0 1-.784-.28 5.56 5.56 0 0 0-2.941-.952c-.532 0-1.008.2-1.008.784 0 .56.42.7 1.289.868 2.6.477 4.423 1.232 4.423 4.088 0 3.276-2.715 4.648-5.6 4.648a8.141 8.141 0 0 1-4.423-1.148zM405.1 705.1c0-4.843 3.163-7 7-7s7 2.157 7 7-3.163 7-7 7-7-2.153-7-7zm9.015 0c0-2.24-.868-2.8-2.015-2.8s-2.017.559-2.017 2.8.868 2.8 2.017 2.8 2.011-.557 2.011-2.8zM421.111 711.291v-12.376a.514.514 0 0 1 .533-.531h1.792c1.315 0 2.38.5 2.548 1.819a4.154 4.154 0 0 1 3.5-1.9c.784 0 1.651.392 1.651 1.008v4.256a.521.521 0 0 1-.531.56 1.373 1.373 0 0 1-.729-.308 2.685 2.685 0 0 0-1.512-.448 3.845 3.845 0 0 0-2.268.672v7.252a.515.515 0 0 1-.531.532h-3.92a.515.515 0 0 1-.533-.536zM433.851 708.911v-7.448h-1.288a.515.515 0 0 1-.532-.532v-2.016a.514.514 0 0 1 .532-.531h1.288v-2.717a.514.514 0 0 1 .532-.531h3.92a.514.514 0 0 1 .532.531v2.717h1.932a.514.514 0 0 1 .532.531v2.016a.515.515 0 0 1-.532.532h-1.932v6.137c0 .559.14.867.672.867a3.457 3.457 0 0 0 1.12-.224c.336-.112.672-.028.672.588v.84a1.974 1.974 0 0 1-.336 1.4c-.7.7-1.876.98-3.584.98-2.016-.004-3.528-1.039-3.528-3.14zM442.5 705.1c0-4.088 2.323-7 6.579-7 3.473 0 5.908 1.624 5.908 5.8a15.248 15.248 0 0 1-.139 2.184h-7.365c0 1.765 1.008 2.184 3.332 2.184a8.561 8.561 0 0 0 1.876-.2 15.283 15.283 0 0 1 1.54-.391c.336 0 .56.251.56.755v.812a1.969 1.969 0 0 1-.336 1.4c-.867.868-3.052 1.456-5.292 1.456-4.589 0-6.663-2.909-6.663-7zm8.092-1.4c.027-.28.055-.532.055-.756 0-1.2-.587-1.68-1.54-1.68-1.12 0-1.652.644-1.652 2.436zM461.822 711.963c-2.828 0-5.46-1.876-5.46-6.86s2.632-6.86 5.46-6.86a4.128 4.128 0 0 1 3.388 1.344v-7.28a.515.515 0 0 1 .532-.532h3.92a.514.514 0 0 1 .532.532v16.324c0 .616.168.9.533.9v.336c0 .98-.365 2.128-2.66 2.128-1.4 0-2.3-.448-2.661-1.372a4.266 4.266 0 0 1-3.584 1.34zm3.388-4.48v-4.76a3.792 3.792 0 0 0-1.735-.419c-1.372 0-2.128.615-2.128 2.8s.756 2.8 2.128 2.8a3.78 3.78 0 0 0 1.735-.421zM476.83 697.795a4.8 4.8 0 0 0-2.8 1.036 2.728 2.728 0 0 1-1.288.672c-.392 0-.644-.28-.644-.9V696.2a1.352 1.352 0 0 1 .841-1.4 10.137 10.137 0 0 1 4.927-1.2c3.08 0 6.216.923 6.216 4.983a4.4 4.4 0 0 1-1.708 3.725c-1.12.923-2.38 1.371-2.38 2.575v.7a.514.514 0 0 1-.532.532H476.1a.514.514 0 0 1-.532-.532v-.756a4.112 4.112 0 0 1 1.484-3.052c.784-.784 1.568-1.427 1.568-2.408.002-1.124-.67-1.572-1.79-1.572zm.952 9.464a2.436 2.436 0 1 1-2.436 2.436 2.438 2.438 0 0 1 2.436-2.436zM363.2 311.016c0-7.7 3.976-9.267 8.288-9.267a8.012 8.012 0 0 1 4.256.951c.392.279.7.561.7.951v3.137a.5.5 0 0 1-.532.56 2 2 0 0 1-.756-.335 6.04 6.04 0 0 0-3.164-.924c-2.464 0-3.7 1.343-3.7 4.927s1.26 4.9 3.7 4.9a6.047 6.047 0 0 0 3.164-.926 2 2 0 0 1 .756-.336.5.5 0 0 1 .532.561v3.136c0 .391-.308.672-.7.952a8.016 8.016 0 0 1-4.256.953c-4.315.001-8.288-1.54-8.288-9.24zM377.617 313.257c0-4.844 3.164-7 7-7s7 2.156 7 7-3.164 7-7 7-7-2.157-7-7zm9.016 0c0-2.241-.868-2.8-2.016-2.8s-2.016.56-2.016 2.8.868 2.8 2.016 2.8 2.016-.562 2.016-2.8zM393.633 319.444v-12.377a.515.515 0 0 1 .532-.531h1.876c1.316 0 2.38.5 2.548 1.82a5.276 5.276 0 0 1 3.864-1.988 3.378 3.378 0 0 1 3.528 2.184 4.981 4.981 0 0 1 4.2-2.184c3.052 0 3.892 2.016 3.892 4.676v8.4a.513.513 0 0 1-.532.531h-3.92a.513.513 0 0 1-.532-.531v-7.392c0-.981-.56-1.26-1.064-1.26a4.305 4.305 0 0 0-1.68.476v8.176a.513.513 0 0 1-.532.531h-3.92a.513.513 0 0 1-.532-.531v-7.392c0-.981-.56-1.26-1.064-1.26a4.305 4.305 0 0 0-1.68.476v8.176a.513.513 0 0 1-.532.531h-3.92a.513.513 0 0 1-.532-.531zM416.733 325.491v-18.424a.515.515 0 0 1 .532-.531h1.876a2.4 2.4 0 0 1 2.38 1.371 3.974 3.974 0 0 1 3.584-1.512c2.828 0 5.46 1.877 5.46 6.862s-2.632 6.859-5.46 6.859a4.129 4.129 0 0 1-3.389-1.344v6.719a.514.514 0 0 1-.531.533h-3.92a.515.515 0 0 1-.532-.533zm8.848-12.234c0-2.186-.756-2.8-2.128-2.8a3.789 3.789 0 0 0-1.737.42v4.76a3.789 3.789 0 0 0 1.737.42c1.372-.001 2.128-.617 2.128-2.8zM432.581 319.444V300.46a.513.513 0 0 1 .532-.531h3.92a.513.513 0 0 1 .532.531v18.984a.513.513 0 0 1-.532.531h-3.92a.513.513 0 0 1-.532-.531zM443.948 320.116c-2.38 0-4.367-1.148-4.367-4.2 0-2.885 2.267-4.2 5.207-4.2a11.433 11.433 0 0 1 2.408.252v-.336c0-1.176-.14-1.653-1.6-1.653a9.678 9.678 0 0 0-3.415.618 4.99 4.99 0 0 1-1.261.306c-.336 0-.5-.2-.5-.726V308.5c0-.674.308-1.037 1.091-1.4a13.6 13.6 0 0 1 5.013-.84c3.751 0 5.516 1.343 5.516 4.759v5.768c0 .615.168.9.531.9v.335c0 .979-.363 2.127-2.66 2.127-1.4 0-2.24-.447-2.632-1.287a3.88 3.88 0 0 1-3.331 1.254zm3.248-3.191v-2.8a3.477 3.477 0 0 0-1.232-.225c-1.007 0-1.54.42-1.54 1.653s.533 1.652 1.54 1.652a3.357 3.357 0 0 0 1.236-.28zM454.644 319.444v-12.377a.515.515 0 0 1 .532-.531h3.92a.515.515 0 0 1 .532.531v12.377a.513.513 0 0 1-.532.531h-3.92a.513.513 0 0 1-.532-.531zm2.492-19.515a2.38 2.38 0 1 1-2.38 2.378 2.376 2.376 0 0 1 2.38-2.378zM462.428 319.444v-12.377a.515.515 0 0 1 .533-.531h1.876c1.315 0 2.379.5 2.547 1.82a5.231 5.231 0 0 1 4.144-1.988c3.052 0 3.893 2.016 3.893 4.676v8.4a.514.514 0 0 1-.533.531h-3.92a.513.513 0 0 1-.531-.531v-7.392c0-.981-.56-1.26-1.065-1.26a5.382 5.382 0 0 0-1.96.476v8.176a.513.513 0 0 1-.532.531h-3.919a.514.514 0 0 1-.533-.531zM477.3 313.257c0-4.088 2.324-7 6.58-7 3.472 0 5.908 1.623 5.908 5.8a15.233 15.233 0 0 1-.14 2.183h-7.368c0 1.766 1.008 2.186 3.332 2.186a8.433 8.433 0 0 0 1.876-.2 15.4 15.4 0 0 1 1.54-.39c.336 0 .56.252.56.756v.81a1.979 1.979 0 0 1-.336 1.4c-.868.869-3.052 1.457-5.292 1.457-4.592-.002-6.66-2.914-6.66-7.002zm8.092-1.4c.028-.281.056-.533.056-.756 0-1.205-.588-1.679-1.54-1.679-1.12 0-1.652.642-1.652 2.435zM496.616 320.116c-2.828 0-5.46-1.877-5.46-6.859s2.632-6.862 5.46-6.862a4.136 4.136 0 0 1 3.384 1.344v-7.279a.513.513 0 0 1 .532-.531h3.92a.513.513 0 0 1 .532.531v16.324c0 .615.168.9.532.9v.335c0 .979-.364 2.127-2.66 2.127-1.4 0-2.3-.447-2.66-1.371a4.266 4.266 0 0 1-3.58 1.341zm3.388-4.48v-4.76a3.785 3.785 0 0 0-1.736-.42c-1.372 0-2.128.615-2.128 2.8s.756 2.8 2.128 2.8a3.785 3.785 0 0 0 1.732-.42zM513.387 317.063v-7.447H512.1a.515.515 0 0 1-.532-.531v-2.018a.515.515 0 0 1 .532-.531h1.288v-2.717a.515.515 0 0 1 .533-.531h3.919a.515.515 0 0 1 .532.531v2.717h1.928a.516.516 0 0 1 .533.531v2.018a.516.516 0 0 1-.533.531h-1.932v6.133c0 .558.14.867.673.867a3.433 3.433 0 0 0 1.119-.225c.336-.111.673-.027.673.588v.84a1.978 1.978 0 0 1-.337 1.4c-.7.7-1.876.98-3.584.98-2.012.001-3.525-1.034-3.525-3.136zM522.039 313.257c0-4.844 3.164-7 7-7s7 2.156 7 7-3.164 7-7 7-7-2.157-7-7zm9.016 0c0-2.241-.868-2.8-2.016-2.8s-2.016.56-2.016 2.8.868 2.8 2.016 2.8 2.016-.562 2.016-2.8zM545.754 325.968c-1.008-.225-1.231-.42-1.231-.952v-2.66c0-.392.139-.588.5-.588a2.969 2.969 0 0 1 .756.2 6.4 6.4 0 0 0 1.905.224c2.8 0 3.192-1.652 3.192-3.64v-.364a5.222 5.222 0 0 1-4.117 1.959c-3.051 0-3.892-2.015-3.892-4.675v-8.4a.515.515 0 0 1 .532-.531h3.92a.516.516 0 0 1 .533.531v7.672c0 .981.56 1.262 1.064 1.262a5.373 5.373 0 0 0 1.96-.477v-8.457a.515.515 0 0 1 .531-.531h3.92a.515.515 0 0 1 .532.531v11.2c0 4.34-1.428 7.952-7.923 7.952a11.864 11.864 0 0 1-2.182-.256zM557.879 313.257c0-4.844 3.163-7 7-7s7 2.156 7 7-3.164 7-7 7-7-2.157-7-7zm9.015 0c0-2.241-.868-2.8-2.016-2.8s-2.016.56-2.016 2.8.868 2.8 2.016 2.8 2.016-.562 2.016-2.8zM573.754 315.468v-8.4a.515.515 0 0 1 .532-.531h3.92a.515.515 0 0 1 .532.531v7.393c0 .98.56 1.26 1.064 1.26a5.366 5.366 0 0 0 1.96-.477v-8.176a.515.515 0 0 1 .532-.531h3.92a.515.515 0 0 1 .532.531v9.717c0 .615.168.9.532.9v.335c0 .979-.364 2.127-2.66 2.127-1.652 0-2.66-.671-2.828-1.988a5.225 5.225 0 0 1-4.144 1.988c-3.052-.004-3.892-2.019-3.892-4.679zM589.546 319.444v-12.377a.515.515 0 0 1 .532-.531h1.792c1.316 0 2.38.5 2.548 1.82a4.153 4.153 0 0 1 3.5-1.9c.784 0 1.651.393 1.651 1.008v4.256a.521.521 0 0 1-.531.56 1.37 1.37 0 0 1-.728-.308 2.686 2.686 0 0 0-1.513-.448 3.845 3.845 0 0 0-2.268.672v7.252a.513.513 0 0 1-.531.531h-3.92a.513.513 0 0 1-.532-.535zM605.478 313.257c0-4.4 2.351-7 6.887-7a7.007 7.007 0 0 1 3.865 1.008c.643.419.783.671.783 1.232v1.959c0 .588-.14.924-.588.924a1.921 1.921 0 0 1-.839-.309 5.94 5.94 0 0 0-2.577-.615c-1.4 0-2.547.56-2.547 2.8s1.147 2.8 2.547 2.8a5.546 5.546 0 0 0 2.577-.616 1.916 1.916 0 0 1 .839-.308c.448 0 .588.336.588.924v1.96c0 .559-.14.811-.783 1.233a7.007 7.007 0 0 1-3.865 1.008c-4.536 0-6.887-2.606-6.887-7zM618.358 313.257c0-4.844 3.163-7 7-7s7 2.156 7 7-3.164 7-7 7-7-2.157-7-7zm9.015 0c0-2.241-.868-2.8-2.015-2.8s-2.017.56-2.017 2.8.868 2.8 2.017 2.8 2.015-.562 2.015-2.8zM634.373 319.444v-12.377a.515.515 0 0 1 .532-.531h1.876c1.316 0 2.38.5 2.548 1.82a5.276 5.276 0 0 1 3.863-1.988 3.379 3.379 0 0 1 3.529 2.184 4.981 4.981 0 0 1 4.2-2.184c3.052 0 3.892 2.016 3.892 4.676v8.4a.514.514 0 0 1-.532.531h-3.921a.513.513 0 0 1-.531-.531v-7.392c0-.981-.56-1.26-1.064-1.26a4.305 4.305 0 0 0-1.68.476v8.176a.514.514 0 0 1-.532.531h-3.92a.513.513 0 0 1-.532-.531v-7.392c0-.981-.56-1.26-1.064-1.26a4.305 4.305 0 0 0-1.68.476v8.176a.513.513 0 0 1-.532.531h-3.92a.513.513 0 0 1-.532-.531zM657.473 325.491v-18.424a.515.515 0 0 1 .532-.531h1.876a2.4 2.4 0 0 1 2.38 1.371 3.974 3.974 0 0 1 3.584-1.512c2.828 0 5.46 1.877 5.46 6.862s-2.632 6.859-5.46 6.859a4.126 4.126 0 0 1-3.388-1.344v6.719a.515.515 0 0 1-.532.533h-3.92a.515.515 0 0 1-.532-.533zm8.848-12.234c0-2.186-.756-2.8-2.128-2.8a3.785 3.785 0 0 0-1.736.42v4.76a3.785 3.785 0 0 0 1.736.42c1.372-.001 2.128-.617 2.128-2.8zM676.9 320.116c-2.379 0-4.367-1.148-4.367-4.2 0-2.885 2.267-4.2 5.207-4.2a11.432 11.432 0 0 1 2.408.252v-.336c0-1.176-.14-1.653-1.6-1.653a9.678 9.678 0 0 0-3.415.618 4.98 4.98 0 0 1-1.261.306c-.335 0-.5-.2-.5-.726V308.5c0-.674.308-1.037 1.091-1.4a13.6 13.6 0 0 1 5.013-.84c3.752 0 5.516 1.343 5.516 4.759v5.768c0 .615.168.9.531.9v.335c0 .979-.363 2.127-2.66 2.127-1.4 0-2.239-.447-2.632-1.287a3.879 3.879 0 0 1-3.331 1.254zm3.248-3.191v-2.8a3.475 3.475 0 0 0-1.231-.225c-1.008 0-1.541.42-1.541 1.653s.533 1.652 1.541 1.652a3.356 3.356 0 0 0 1.235-.28zM687.6 319.444v-12.377a.515.515 0 0 1 .532-.531h1.876c1.316 0 2.38.5 2.548 1.82a5.231 5.231 0 0 1 4.144-1.988c3.052 0 3.892 2.016 3.892 4.676v8.4a.513.513 0 0 1-.532.531h-3.92a.513.513 0 0 1-.531-.531v-7.392c0-.981-.561-1.26-1.065-1.26a5.375 5.375 0 0 0-1.96.476v8.176a.513.513 0 0 1-.532.531h-3.92a.513.513 0 0 1-.532-.531zM706 325.968c-1.008-.225-1.232-.42-1.232-.952v-2.66c0-.392.14-.588.5-.588a2.979 2.979 0 0 1 .756.2 6.392 6.392 0 0 0 1.9.224c2.8 0 3.192-1.652 3.192-3.64v-.364a5.22 5.22 0 0 1-4.116 1.955c-3.052 0-3.892-2.015-3.892-4.675v-8.4a.515.515 0 0 1 .532-.531h3.92a.515.515 0 0 1 .532.531v7.672c0 .981.56 1.262 1.064 1.262a5.366 5.366 0 0 0 1.96-.477v-8.457a.515.515 0 0 1 .532-.531h3.92a.515.515 0 0 1 .532.531v11.2c0 4.34-1.428 7.952-7.924 7.952a11.856 11.856 0 0 1-2.176-.252zM722.74 305.948a4.808 4.808 0 0 0-2.8 1.035 2.728 2.728 0 0 1-1.288.672c-.392 0-.644-.279-.644-.894v-2.409a1.354 1.354 0 0 1 .84-1.4 10.158 10.158 0 0 1 4.928-1.2c3.08 0 6.216.924 6.216 4.982a4.394 4.394 0 0 1-1.708 3.725c-1.12.924-2.38 1.371-2.38 2.576v.7a.516.516 0 0 1-.532.534h-3.36a.516.516 0 0 1-.532-.534v-.756a4.109 4.109 0 0 1 1.484-3.05c.784-.785 1.568-1.428 1.568-2.409 0-1.125-.672-1.572-1.792-1.572zm.952 9.463a2.436 2.436 0 1 1-2.436 2.437 2.439 2.439 0 0 1 2.436-2.437z"/><path class="q" d="M638.1 1264.228a15.982 15.982 0 0 0 5.917.958 8.523 8.523 0 0 0 5.821-2.01 6.973 6.973 0 0 0 2.3-5.534 7.785 7.785 0 0 0-.689-3.37 6.187 6.187 0 0 0-1.781-2.3 13.459 13.459 0 0 0-2.412-1.474 28.227 28.227 0 0 0-2.662-1.11q-1.341-.478-2.412-.977-2.49-1.187-2.489-3.293a3.883 3.883 0 0 1 1.34-3.2 5.532 5.532 0 0 1 3.6-1.091 8.619 8.619 0 0 1 4.212 1.072 2.656 2.656 0 0 0 .8.383q.267 0 .747-.8a2.766 2.766 0 0 0 .479-1.226q0-.955-2.145-1.646a13.168 13.168 0 0 0-4.021-.689 9.355 9.355 0 0 0-6.165 1.934 6.935 6.935 0 0 0-1.054 9.209 7.748 7.748 0 0 0 3.122 2.374q1.838.766 3.657 1.436a9.58 9.58 0 0 1 3.1 1.819 3.956 3.956 0 0 1 1.282 3.1 4.147 4.147 0 0 1-1.4 3.217 4.849 4.849 0 0 1-3.371 1.264 11.325 11.325 0 0 1-3.5-.5 13.2 13.2 0 0 1-2.373-.977 4.661 4.661 0 0 0-.958-.478q-.306 0-.823.8a2.625 2.625 0 0 0-.517 1.264q0 .881 2.393 1.837m-19.248.728h13.4q.765 0 .766-1.149v-.613q0-1.148-.766-1.148h-11.176v-9.338h9.994q.766 0 .767-1.149v-.613q0-1.147-.767-1.148h-9.994v-8.731h11.143q.767 0 .767-1.149v-.613q0-1.147-.767-1.149h-13.364a1.016 1.016 0 0 0-1.149 1.149v24.508a1.015 1.015 0 0 0 1.149 1.149m-14.864.077h.306q1.531 0 1.532-.843v-23.129h7.237q.766 0 .767-1.149v-.613q0-1.147-.767-1.149H595.1q-.765 0-.765 1.149v.613q0 1.149.765 1.149h7.353v23.129q0 .845 1.532.843m-30.43-2.164q2.7 2.317 7.735 2.317t7.755-2.317a8.066 8.066 0 0 0 2.719-6.491v-17.462q0-.842-1.532-.842h-.307q-1.531 0-1.532.842v17.577a5.119 5.119 0 0 1-2.009 4.156 8.727 8.727 0 0 1-10.149 0 5.117 5.117 0 0 1-2.01-4.156v-17.577c0-.561-.512-.842-1.532-.842h-.307q-1.531 0-1.531.842v17.462a8.091 8.091 0 0 0 2.7 6.491m-20.474-21.808h5.438a6.43 6.43 0 0 1 3.637 1.015 3.972 3.972 0 0 1 1.532 3.58 5.813 5.813 0 0 1-.5 2.508 3.624 3.624 0 0 1-1.263 1.551 5.235 5.235 0 0 1-2.872.919h-5.974zm-1.838 23.972h.306q1.531 0 1.532-.843v-10.646h5.935a9.787 9.787 0 0 0 3.715-.765 7.8 7.8 0 0 0 2.163-1.3 6.4 6.4 0 0 0 1.609-2.316 9.011 9.011 0 0 0 .67-3.657 7.858 7.858 0 0 0-.843-3.734 5.3 5.3 0 0 0-2.258-2.317 11.572 11.572 0 0 0-5.438-1.3h-7.775a1.016 1.016 0 0 0-1.149 1.149v24.891q0 .845 1.533.843m-19.517-.8a15.977 15.977 0 0 0 5.916.958 8.519 8.519 0 0 0 5.821-2.01 6.974 6.974 0 0 0 2.3-5.534 7.8 7.8 0 0 0-.69-3.37 6.185 6.185 0 0 0-1.78-2.3 13.465 13.465 0 0 0-2.413-1.474 28.227 28.227 0 0 0-2.662-1.11q-1.341-.478-2.412-.977-2.49-1.187-2.489-3.293a3.883 3.883 0 0 1 1.34-3.2 5.535 5.535 0 0 1 3.6-1.091 8.62 8.62 0 0 1 4.212 1.072 2.644 2.644 0 0 0 .8.383q.267 0 .746-.8a2.753 2.753 0 0 0 .479-1.226q0-.955-2.145-1.646a13.157 13.157 0 0 0-4.02-.689 9.355 9.355 0 0 0-6.165 1.934 6.932 6.932 0 0 0-1.054 9.209 7.752 7.752 0 0 0 3.121 2.374q1.838.766 3.657 1.436a9.559 9.559 0 0 1 3.1 1.819 3.957 3.957 0 0 1 1.283 3.1 4.145 4.145 0 0 1-1.4 3.217 4.847 4.847 0 0 1-3.37 1.264 11.321 11.321 0 0 1-3.5-.5 13.218 13.218 0 0 1-2.374-.977 4.662 4.662 0 0 0-.958-.478q-.306 0-.823.8a2.634 2.634 0 0 0-.517 1.264q0 .881 2.394 1.837m-8.756.8h.306q1.531 0 1.532-.843v-25.274q0-.842-1.532-.842h-.306q-1.531 0-1.532.842v25.274q0 .845 1.532.843m-24.167-23.967h5.246a8.132 8.132 0 0 1 6.241 2.547q2.375 2.546 2.375 7.965t-2.375 7.945a8.163 8.163 0 0 1-6.241 2.528H498.8zm-2.222 23.9h7.735a11.739 11.739 0 0 0 8.6-3.178q3.235-3.178 3.236-10.2t-3.236-10.225a11.7 11.7 0 0 0-8.6-3.2h-7.735a1.016 1.016 0 0 0-1.149 1.149v24.508a1.015 1.015 0 0 0 1.149 1.149M638.1 1231.84a15.992 15.992 0 0 0 5.916.957 8.513 8.513 0 0 0 5.82-2.011 6.967 6.967 0 0 0 2.3-5.533 7.8 7.8 0 0 0-.689-3.37 6.189 6.189 0 0 0-1.781-2.3 13.439 13.439 0 0 0-2.413-1.474 28.105 28.105 0 0 0-2.661-1.111q-1.341-.478-2.413-.976-2.488-1.187-2.489-3.293a3.883 3.883 0 0 1 1.341-3.2 5.533 5.533 0 0 1 3.6-1.091 8.622 8.622 0 0 1 4.212 1.072 2.646 2.646 0 0 0 .8.383q.269 0 .746-.8a2.736 2.736 0 0 0 .479-1.226q0-.955-2.144-1.646a13.166 13.166 0 0 0-4.021-.69 9.362 9.362 0 0 0-6.166 1.934 6.936 6.936 0 0 0-1.052 9.21 7.758 7.758 0 0 0 3.12 2.374q1.839.767 3.658 1.436a9.53 9.53 0 0 1 3.1 1.819 3.957 3.957 0 0 1 1.283 3.1 4.145 4.145 0 0 1-1.4 3.217 4.849 4.849 0 0 1-3.369 1.264 11.32 11.32 0 0 1-3.5-.5 13.157 13.157 0 0 1-2.375-.977 4.739 4.739 0 0 0-.957-.479q-.306 0-.823.805a2.625 2.625 0 0 0-.517 1.263q0 .882 2.394 1.839m-20.32.728h13.4q.766 0 .766-1.149v-.613q0-1.151-.766-1.149H620v-9.344h10q.764 0 .765-1.149v-.612q0-1.15-.765-1.149h-10v-8.732h11.144q.765 0 .766-1.148v-.613q0-1.149-.766-1.149h-13.362a1.015 1.015 0 0 0-1.149 1.149v24.509a1.016 1.016 0 0 0 1.149 1.149m-10.881.075h.306q1.532 0 1.532-.842v-25.274q0-.842-1.532-.843h-.307q-1.531 0-1.532.843v25.277q0 .843 1.532.842m-16.319 0h.306q1.533 0 1.532-.842v-23.13h7.238q.766 0 .766-1.148v-.613q0-1.149-.766-1.149H581.7q-.766 0-.766 1.149v.613q0 1.148.766 1.148h7.353v23.13q0 .843 1.531.842m-16.433 0h.306q1.531 0 1.532-.842v-25.274q0-.842-1.532-.843h-.306q-1.531 0-1.532.843v25.274q0 .843 1.532.842m-19.381-.075h12.75q.763 0 .765-1.149v-.613q0-1.151-.765-1.149h-10.532v-23.13q0-.842-1.532-.843h-.306c-1.022 0-1.531.282-1.531.843v24.892a1.016 1.016 0 0 0 1.149 1.149m-10.881.075h.306q1.531 0 1.532-.842v-25.274q0-.842-1.532-.843h-.306q-1.533 0-1.532.843v25.274q0 .843 1.532.842m-15.553 0h.307q1.53 0 1.531-.842v-23.13h7.238q.765 0 .766-1.148v-.613q0-1.149-.766-1.149h-17.96q-.766 0-.767 1.149v.613q0 1.148.767 1.148h7.35v23.13q0 .843 1.532.842m-30.732-2.162q2.7 2.318 7.735 2.317t7.755-2.317a8.063 8.063 0 0 0 2.719-6.491v-17.462q0-.842-1.532-.843h-.306q-1.533 0-1.532.843v17.573a5.114 5.114 0 0 1-2.01 4.155 8.721 8.721 0 0 1-10.148 0 5.112 5.112 0 0 1-2.011-4.155v-17.577q0-.842-1.532-.843h-.306c-1.022 0-1.531.282-1.531.843v17.462a8.09 8.09 0 0 0 2.7 6.491"/><path d="M454.747 1262.847a3.222 3.222 0 0 0 4.55-4.548l-19.7-19.7a9.181 9.181 0 0 1-3.059-6.476 9.606 9.606 0 0 1 8.94-9.048h.108a9.235 9.235 0 0 1 6.455 3.08l19.291 19.309a3.229 3.229 0 1 0 4.565-4.568l-5.483-5.481-14.029-14.028a15.062 15.062 0 0 0-5.061-3.417 13.685 13.685 0 0 0-5.121-1.018c-.135 0-.271 0-.406.007a14.525 14.525 0 0 0-5.526 1.307 17.433 17.433 0 0 0-8.52 8.52 14.91 14.91 0 0 0-1.33 5.548 13.418 13.418 0 0 0 .992 5.548 15.058 15.058 0 0 0 3.417 5.061z" fill="#ffd200"/><path class="b" d="M483.838 1231.648a15.049 15.049 0 0 1 3.417 5.061 13.4 13.4 0 0 1 .991 5.548 14.889 14.889 0 0 1-1.329 5.548 17.443 17.443 0 0 1-8.52 8.52 14.552 14.552 0 0 1-5.526 1.308c-.135 0-.27.006-.406.006q-.627 0-1.255-.061a13.722 13.722 0 0 0-.947-3.876 14.965 14.965 0 0 0-3.255-4.9 8.989 8.989 0 0 0 6.075 2.712h.107a9.606 9.606 0 0 0 8.94-9.048 9.181 9.181 0 0 0-3.059-6.476l-19.7-19.7a3.228 3.228 0 0 1 4.559-4.555z"/><path class="g" d="M449.635 1265.428a9.236 9.236 0 0 0 6.455 3.08h.108a9.606 9.606 0 0 0 8.94-9.048 8.944 8.944 0 0 0-2.694-6.1 14.974 14.974 0 0 0 4.9 3.257 13.989 13.989 0 0 0 3.867.958 13.308 13.308 0 0 1 .044 1.671 14.91 14.91 0 0 1-1.33 5.548 17.432 17.432 0 0 1-8.52 8.52 14.543 14.543 0 0 1-5.526 1.308c-.135 0-.271.006-.406.006a13.674 13.674 0 0 1-5.121-1.019 15.06 15.06 0 0 1-5.062-3.416l-19.89-19.952a3.229 3.229 0 1 1 4.565-4.568z"/><path class="s" d="M462.443 1253.363a14.973 14.973 0 0 0 4.9 3.257 13.948 13.948 0 0 0 3.866.958 13.722 13.722 0 0 0-.947-3.876 14.979 14.979 0 0 0-3.255-4.9l-20.081-20.065a3.228 3.228 0 0 0-4.537 4.592z"/><path class="q" d="M497.535 1278.655v-6.865h-2.182a.193.193 0 0 1-.17-.079.451.451 0 0 1-.057-.261v-.182a.454.454 0 0 1 .057-.262.193.193 0 0 1 .17-.079h5.33a.193.193 0 0 1 .176.079.507.507 0 0 1 .051.262v.182a.5.5 0 0 1-.051.261.193.193 0 0 1-.176.079h-2.148v6.865c0 .166-.152.25-.455.25h-.09c-.304 0-.455-.084-.455-.25zM501.149 1278.711a.545.545 0 0 1 .034-.159l2.693-7.466c.046-.121.2-.182.455-.182h.33c.272 0 .424.061.454.182l2.694 7.478a.389.389 0 0 1 .034.147c0 .129-.163.194-.489.194h-.091c-.265 0-.417-.061-.455-.182l-.67-1.864H502.8l-.648 1.864c-.038.121-.189.182-.455.182h-.056c-.329 0-.492-.065-.492-.194zm4.682-2.716l-1.193-3.386a5.663 5.663 0 0 1-.137-.659h-.022a4.412 4.412 0 0 1-.171.659l-1.193 3.386zM510.053 1278.262a2.4 2.4 0 0 1-.8-1.926v-5.182q0-.25.454-.25h.091q.455 0 .455.25v5.216a1.527 1.527 0 0 0 .272.892 1.773 1.773 0 0 0 .751.608 2.588 2.588 0 0 0 1.079.216 2.531 2.531 0 0 0 1.08-.221 1.828 1.828 0 0 0 .75-.614 1.5 1.5 0 0 0 .273-.881v-5.216q0-.25.454-.25H515q.454 0 .455.25v5.182a2.392 2.392 0 0 1-.807 1.926 4.184 4.184 0 0 1-4.6 0zM519.366 1278.655v-6.865h-2.182a.193.193 0 0 1-.17-.079.459.459 0 0 1-.057-.261v-.182a.463.463 0 0 1 .057-.262.193.193 0 0 1 .17-.079h5.33a.193.193 0 0 1 .176.079.507.507 0 0 1 .051.262v.182a.5.5 0 0 1-.051.261.193.193 0 0 1-.176.079h-2.148v6.865c0 .166-.152.25-.454.25h-.091c-.304 0-.455-.084-.455-.25zM524.844 1277.91a4.506 4.506 0 0 1-.9-3.028 4.436 4.436 0 0 1 .892-3.006 3.86 3.86 0 0 1 5.222 0 4.421 4.421 0 0 1 .9 3.006 4.511 4.511 0 0 1-.9 3.028 3.79 3.79 0 0 1-5.216 0zm4.443-.642a3.829 3.829 0 0 0 .637-2.386 3.732 3.732 0 0 0-.637-2.358 2.507 2.507 0 0 0-3.676 0 3.752 3.752 0 0 0-.631 2.358 3.849 3.849 0 0 0 .631 2.386 2.474 2.474 0 0 0 3.676 0zM533.037 1278.655v-7.5q0-.25.455-.25h.091q.454 0 .454.25v3.216h4.114v-3.216q0-.25.455-.25h.091q.454 0 .454.25v7.5c0 .166-.151.25-.454.25h-.091c-.3 0-.455-.084-.455-.25v-3.421h-4.114v3.421c0 .166-.151.25-.454.25h-.091c-.303 0-.455-.084-.455-.25zM541.776 1278.8a.359.359 0 0 1-.079-.261v-7.273a.289.289 0 0 1 .341-.341H546a.193.193 0 0 1 .176.079.507.507 0 0 1 .051.262v.182a.5.5 0 0 1-.051.261.193.193 0 0 1-.176.079h-3.3v2.591h2.966a.193.193 0 0 1 .176.08.5.5 0 0 1 .051.261v.182a.5.5 0 0 1-.051.262.193.193 0 0 1-.176.079H542.7v2.773h3.318a.194.194 0 0 1 .177.08.5.5 0 0 1 .051.261v.182a.5.5 0 0 1-.051.261.194.194 0 0 1-.177.08h-3.977a.362.362 0 0 1-.265-.08zM549.766 1278.655v-6.865h-2.182a.2.2 0 0 1-.171-.079.459.459 0 0 1-.057-.261v-.182a.462.462 0 0 1 .057-.262.2.2 0 0 1 .171-.079h5.33a.193.193 0 0 1 .176.079.507.507 0 0 1 .051.262v.182a.5.5 0 0 1-.051.261.193.193 0 0 1-.176.079h-2.148v6.865c0 .166-.152.25-.455.25h-.091c-.303 0-.454-.084-.454-.25zM555.243 1277.91a4.511 4.511 0 0 1-.9-3.028 4.436 4.436 0 0 1 .893-3.006 3.86 3.86 0 0 1 5.222 0 4.421 4.421 0 0 1 .9 3.006 4.511 4.511 0 0 1-.9 3.028 3.792 3.792 0 0 1-5.217 0zm4.444-.642a3.829 3.829 0 0 0 .636-2.386 3.732 3.732 0 0 0-.636-2.358 2.508 2.508 0 0 0-3.677 0 3.758 3.758 0 0 0-.63 2.358 3.856 3.856 0 0 0 .63 2.386 2.475 2.475 0 0 0 3.677 0zM563.437 1278.655v-7.5q0-.25.454-.25h.091q.454 0 .455.25v3.216h4.114v-3.216q0-.25.454-.25h.091q.454 0 .455.25v7.5c0 .166-.152.25-.455.25h-.091c-.3 0-.454-.084-.454-.25v-3.421h-4.114v3.421c0 .166-.152.25-.455.25h-.091c-.303 0-.454-.084-.454-.25zM572.176 1278.8a.359.359 0 0 1-.08-.261v-7.273a.29.29 0 0 1 .341-.341h3.963a.193.193 0 0 1 .176.079.507.507 0 0 1 .051.262v.182a.5.5 0 0 1-.051.261.193.193 0 0 1-.176.079h-3.3v2.591h2.966a.193.193 0 0 1 .176.08.5.5 0 0 1 .051.261v.182a.5.5 0 0 1-.051.262.193.193 0 0 1-.176.079H573.1v2.773h3.318a.194.194 0 0 1 .176.08.5.5 0 0 1 .051.261v.182a.5.5 0 0 1-.051.261.193.193 0 0 1-.176.08h-3.978a.359.359 0 0 1-.264-.08zM582.733 1278.723l-1.943-7.467a1.134 1.134 0 0 1-.034-.159c0-.128.163-.193.489-.193h.113c.273 0 .425.061.455.182l1.443 5.591q.057.216.125.608c.046.262.072.411.08.449l.273-1.091 1.375-5.546c.03-.128.178-.193.443-.193h.182c.265 0 .413.065.443.193l1.409 5.592a5.808 5.808 0 0 1 .125.6c.038.231.061.381.068.449l.273-1.08 1.375-5.568c.03-.121.182-.182.455-.182h.068c.326 0 .489.065.489.193l-.035.159-1.966 7.467c-.03.121-.181.182-.454.182h-.466c-.273 0-.424-.061-.455-.182l-1.238-4.626-.239-1.477-.239 1.477-1.238 4.626c-.031.121-.182.182-.455.182h-.466c-.273-.004-.424-.065-.455-.186zM592.041 1278.655v-7.5q0-.25.454-.25h.091q.454 0 .455.25v3.216h4.114v-3.216q0-.25.454-.25h.091q.454 0 .455.25v7.5c0 .166-.152.25-.455.25h-.091c-.3 0-.454-.084-.454-.25v-3.421h-4.114v3.421c0 .166-.152.25-.455.25h-.091c-.303 0-.454-.084-.454-.25zM599.735 1278.711a.544.544 0 0 1 .034-.159l2.693-7.466q.068-.182.455-.182h.329c.273 0 .424.061.455.182l2.693 7.478a.371.371 0 0 1 .034.147c0 .129-.163.194-.488.194h-.091c-.266 0-.417-.061-.455-.182l-.67-1.864h-3.342l-.647 1.864c-.038.121-.19.182-.455.182h-.057c-.323 0-.488-.065-.488-.194zm4.682-2.716l-1.194-3.386a5.726 5.726 0 0 1-.136-.659h-.023a4.306 4.306 0 0 1-.17.659l-1.193 3.386zM608 1278.655v-7.5q0-.25.455-.25h.091q.454 0 .454.25v7.5c0 .166-.151.25-.454.25h-.091c-.307 0-.455-.084-.455-.25zM611.406 1278.655v-7.387a.289.289 0 0 1 .341-.341h2.307a3.279 3.279 0 0 1 1.767.477 1.9 1.9 0 0 1 .767 1.75 2.2 2.2 0 0 1-.443 1.466 2.175 2.175 0 0 1-.989.7 3.231 3.231 0 0 1-.989.176h-1.761v3.16c0 .166-.152.25-.455.25h-.091c-.303-.001-.454-.085-.454-.251zm2.773-4.023a1.535 1.535 0 0 0 .931-.33 1.34 1.34 0 0 0 .444-1.148 1.178 1.178 0 0 0-.455-1.062 1.908 1.908 0 0 0-1.08-.3h-1.613v2.842zM617.383 1278.711a.581.581 0 0 1 .034-.159l2.694-7.466c.045-.121.2-.182.454-.182h.33c.273 0 .424.061.454.182l2.694 7.478a.372.372 0 0 1 .034.147c0 .129-.163.194-.489.194h-.088c-.265 0-.416-.061-.454-.182l-.671-1.864h-3.341l-.648 1.864c-.038.121-.189.182-.454.182h-.057c-.329 0-.492-.065-.492-.194zm4.682-2.716l-1.193-3.386a5.717 5.717 0 0 1-.136-.659h-.023a4.578 4.578 0 0 1-.17.659l-1.194 3.386zM625.645 1278.655v-7.5q0-.25.455-.25h.091q.455 0 .454.25v7.5c0 .166-.151.25-.454.25h-.091c-.3 0-.455-.084-.455-.25zM629.111 1278.655v-7.5q0-.25.455-.25h.238a.766.766 0 0 1 .29.045.428.428 0 0 1 .188.171l3.568 5.387a4.618 4.618 0 0 1 .375.682l.046-.012a9.256 9.256 0 0 1-.023-.772v-5.251c0-.167.151-.25.455-.25h.079q.455 0 .455.25v7.5c0 .166-.152.25-.455.25h-.227a.437.437 0 0 1-.4-.16l-3.659-5.523a4.579 4.579 0 0 1-.375-.682l-.046.012q.022.261.023.773v5.33c0 .166-.152.25-.455.25h-.079c-.301 0-.453-.084-.453-.25zM643.2 1274.859a.359.359 0 0 1 .08.261v3.012q0 .443-.711.631a7.327 7.327 0 0 1-1.824.187 3.346 3.346 0 0 1-2.613-.989 4.321 4.321 0 0 1-.9-2.989q0-4.113 3.682-4.113a4.972 4.972 0 0 1 1.04.108 3.057 3.057 0 0 1 .818.278q.312.171.312.318a.885.885 0 0 1-.142.409c-.094.167-.176.25-.244.25a1.436 1.436 0 0 1-.29-.142 3.1 3.1 0 0 0-.625-.25 3.021 3.021 0 0 0-.846-.108 2.441 2.441 0 0 0-2.057.8 3.8 3.8 0 0 0-.614 2.352 4.244 4.244 0 0 0 .568 2.347 2.181 2.181 0 0 0 1.978.869q.42 0 .823-.039a3.9 3.9 0 0 0 .643-.108v-2.3h-1.33a.2.2 0 0 1-.171-.08.458.458 0 0 1-.056-.261v-.182a.46.46 0 0 1 .056-.261.2.2 0 0 1 .171-.08h1.989a.359.359 0 0 1 .263.08zM644.692 1278.711a.544.544 0 0 1 .034-.159l2.693-7.466c.046-.121.2-.182.455-.182h.329q.41 0 .455.182l2.693 7.478a.371.371 0 0 1 .034.147c0 .129-.163.194-.488.194h-.091c-.265 0-.417-.061-.455-.182l-.67-1.864h-3.341l-.648 1.864c-.038.121-.19.182-.455.182h-.057c-.325 0-.488-.065-.488-.194zm4.682-2.716l-1.193-3.386a5.654 5.654 0 0 1-.137-.659h-.022a4.409 4.409 0 0 1-.171.659l-1.193 3.386zM385.095 781.791l5.696 5.696-1.22 1.219-5.695-5.696zM775.44 781.791l5.696 5.696-1.22 1.219-5.695-5.696zM579.139 1106.354l5.696 5.696-1.22 1.219-5.695-5.696z"/><path class="s" d="M639.526 371.268H454.108v150.538H474.3V404.313h165.226z"/><path stroke="#58595b" stroke-linejoin="round" fill="#fff" d="M470.72 404.313h152.194v117.493H470.72z"/><path class="g" d="M493.888 426.824h13.769v17.211h-13.769zM493.888 456.197h13.769v17.211h-13.769zM493.888 485.57h13.769v32.816h-13.769zM508.896 426.824h13.769v17.211h-13.769zM508.896 456.197h13.769v17.211h-13.769zM508.896 485.57h13.769v32.816h-13.769zM538.913 426.824h13.769v17.211h-13.769zM538.913 456.197h13.769v17.211h-13.769zM538.913 485.57h13.769v32.816h-13.769zM568.929 426.824h13.769v17.211h-13.769zM568.929 456.197h13.769v17.211h-13.769zM568.929 485.57h13.769v32.816h-13.769zM598.946 426.824h13.769v17.211h-13.769zM598.946 456.197h13.769v17.211h-13.769zM598.946 485.57h13.769v32.816h-13.769zM523.904 426.824h13.769v17.211h-13.769zM523.904 456.197h13.769v17.211h-13.769zM523.904 485.57h13.769v32.816h-13.769zM553.921 426.824h13.769v17.211h-13.769zM553.921 456.197h13.769v17.211h-13.769zM553.921 485.57h13.769v32.816h-13.769zM583.937 426.824h13.769v17.211h-13.769zM583.937 456.197h13.769v17.211h-13.769zM583.937 485.57h13.769v32.816h-13.769zM613.954 426.824h13.769v17.211h-13.769zM613.954 456.197h13.769v17.211h-13.769zM613.954 485.57h13.769v32.816h-13.769z"/><path class="u" d="M635.944 371.268H450.526v150.538h20.194V404.313h165.224z"/><path class="u" d="M489.078 425.54h133.835v17.211H489.078zM489.078 454.913h133.835v17.211H489.078zM489.078 484.286h133.835v32.815H489.078z"/><path class="u" d="M489.078 425.54h13.769v17.211h-13.769zM489.078 454.913h13.769v17.211h-13.769zM489.078 484.287h13.769v32.816h-13.769zM516.616 425.54h13.769v17.211h-13.769zM516.616 454.913h13.769v17.211h-13.769zM516.616 484.287h13.769v32.816h-13.769zM544.153 425.54h13.769v17.211h-13.769zM544.153 454.913h13.769v17.211h-13.769zM544.153 484.287h13.769v32.816h-13.769zM571.691 425.54h13.769v17.211h-13.769zM571.691 454.913h13.769v17.211h-13.769zM571.691 484.287h13.769v32.816h-13.769zM599.228 425.54h13.769v17.211h-13.769zM599.228 454.913h13.769v17.211h-13.769zM599.228 484.287h13.769v32.816h-13.769z"/><path class="f" d="M488.839 390.248h-2.158v4.716a.409.409 0 0 1-.423.422H484.3a.409.409 0 0 1-.422-.422v-13.412a.408.408 0 0 1 .422-.422h4.493c2.825 0 4.515 1.511 4.515 4.558a4.183 4.183 0 0 1-4.469 4.56zm-.734-6.895h-1.424v4.671h1.468a2.038 2.038 0 0 0 2.335-2.336c0-1.534-.667-2.335-2.379-2.335zM507.167 388.247c0 5.226-2.914 7.361-6.317 7.361s-6.317-2.135-6.317-7.361c0-5.205 2.914-7.341 6.317-7.341s6.317 2.136 6.317 7.341zm-9.765 0c0 3.514 1.469 4.8 3.448 4.8s3.447-1.29 3.447-4.8c0-3.492-1.468-4.782-3.447-4.782s-3.45 1.29-3.45 4.782zM523.337 382.4l-2.958 12.59c-.067.266-.2.4-.445.4h-1.89c-.245 0-.379-.156-.446-.4l-1.445-5.628a18.7 18.7 0 0 1-.423-2.091c0-.177 0-.243-.089-.243s-.088.066-.088.243a18.694 18.694 0 0 1-.423 2.091l-1.446 5.628c-.066.244-.2.4-.445.4h-1.89c-.245 0-.378-.134-.445-.4l-2.958-12.59a4.153 4.153 0 0 1-.156-.867.38.38 0 0 1 .378-.4h1.891a.449.449 0 0 1 .511.377l1.668 7.629a16.3 16.3 0 0 1 .312 1.846c0 .178 0 .245.089.245s.089-.067.089-.245a13.752 13.752 0 0 1 .356-1.846l1.468-5.628a.466.466 0 0 1 .511-.377h1.157a.466.466 0 0 1 .511.377l1.468 5.628a13.745 13.745 0 0 1 .356 1.846c0 .178 0 .245.089.245s.089-.067.089-.245a16.463 16.463 0 0 1 .311-1.846l1.669-7.629a.448.448 0 0 1 .511-.377h1.89a.38.38 0 0 1 .379.4 4.153 4.153 0 0 1-.156.867zM533.035 395.386h-7.362a.409.409 0 0 1-.422-.422v-13.412a.408.408 0 0 1 .422-.422h7.184a.408.408 0 0 1 .423.422v1.6a.41.41 0 0 1-.423.423h-4.8v3.091h3.759a.409.409 0 0 1 .422.423v1.6a.409.409 0 0 1-.422.423h-3.759v3.826h4.982a.408.408 0 0 1 .423.422v1.6a.409.409 0 0 1-.427.426zM545.669 395.386h-2.113c-.712 0-1.023-.356-1.6-1.4l-2.069-3.691c-.178-.311-.311-.445-.623-.445h-1.178v5.116a.409.409 0 0 1-.423.422H535.7a.409.409 0 0 1-.422-.422v-13.414a.408.408 0 0 1 .422-.422h4.939a4.326 4.326 0 0 1 1.423 8.407c.489.222.8.667 1.267 1.445l1.871 3.118a1.048 1.048 0 0 0 .578.511.386.386 0 0 1 .289.378.373.373 0 0 1-.398.397zm-5.938-12.033h-1.646v4.293h1.579c1.623 0 2.468-.579 2.468-2.158 0-1.556-.8-2.135-2.401-2.135zM555.078 395.608a7.461 7.461 0 0 1-3.915-.978 1.135 1.135 0 0 1-.667-1.068v-1.268c0-.4.2-.578.489-.578a1.01 1.01 0 0 1 .623.245 5.8 5.8 0 0 0 3.158 1.111c1.023 0 2.046-.422 2.046-1.8 0-1.178-.822-1.668-2.268-2.046-1.957-.511-3.826-1.6-3.826-4.2 0-2.8 2.158-4.115 4.471-4.115a7.073 7.073 0 0 1 3.581.891 1.032 1.032 0 0 1 .644 1v1.312c0 .379-.2.556-.466.556a.993.993 0 0 1-.6-.245 4.27 4.27 0 0 0-2.735-1.067c-1.046 0-1.891.423-1.891 1.668 0 1 .756 1.468 2 1.8 2.336.623 4.093 1.58 4.093 4.515 0 2.8-2.246 4.267-4.737 4.267zM572.049 395.386h-1.958a.409.409 0 0 1-.423-.422v-5.85H564.6v5.85a.409.409 0 0 1-.423.422h-1.958a.409.409 0 0 1-.422-.422v-13.412a.408.408 0 0 1 .422-.422h1.958a.408.408 0 0 1 .423.422v5.115h5.07v-5.115a.408.408 0 0 1 .423-.422h1.958a.408.408 0 0 1 .422.422v13.412a.409.409 0 0 1-.424.422zM586.951 388.247c0 5.226-2.914 7.361-6.317 7.361s-6.316-2.135-6.316-7.361c0-5.205 2.914-7.341 6.316-7.341s6.317 2.136 6.317 7.341zm-9.764 0c0 3.514 1.468 4.8 3.447 4.8s3.448-1.29 3.448-4.8c0-3.492-1.468-4.782-3.448-4.782s-3.447 1.29-3.447 4.782zM597.984 394.853a6.376 6.376 0 0 1-3.381.755c-3.425 0-6.25-1.89-6.25-7.339s2.825-7.363 6.25-7.363a6.437 6.437 0 0 1 3.381.757c.334.222.556.445.556.756v1.49a.375.375 0 0 1-.378.423 1.019 1.019 0 0 1-.489-.178 5.183 5.183 0 0 0-2.758-.8c-2.291 0-3.692 1.513-3.692 4.916s1.423 4.893 3.692 4.893a5.192 5.192 0 0 0 2.758-.8 1.019 1.019 0 0 1 .489-.178c.245 0 .378.156.378.422v1.493c0 .308-.245.53-.556.753zM610.818 395.386h-2.113c-.6 0-.911-.311-1.423-1.089l-3.136-4.827c-.334-.511-.556-.668-1.046-.668v6.162a.409.409 0 0 1-.422.422h-1.958a.409.409 0 0 1-.422-.422v-13.412a.408.408 0 0 1 .422-.422h1.98a.373.373 0 0 1 .4.4v5.561a1.285 1.285 0 0 0 1.179-.645l3.092-4.226c.667-.889.889-1.089 1.423-1.089h1.913a.373.373 0 0 1 .4.4.387.387 0 0 1-.289.379c-.244.111-.311.222-.533.511l-3.248 4.271c-.556.733-.889 1.067-1.4 1.156.512.089.756.423 1.312 1.224l3.451 5.028a1.171 1.171 0 0 0 .534.511.386.386 0 0 1 .288.378.373.373 0 0 1-.404.397z"/><path class="a" d="M545.239 1074.461v69.748"/><path class="g" d="M542.368 1074.461h5.741v34.874h-5.741z"/><path class="c" d="M548.109 1074.461h.761v34.874h-.761zM541.607 1074.461h.761v34.874h-.761z"/><path class="c" d="M541.198 1074.461h8.081v1.741h-8.081z"/><path class="g" d="M542.368 1109.335h5.741v34.874h-5.741z"/><path class="c" d="M548.109 1109.335h.761v34.874h-.761zM541.607 1109.335h.761v34.874h-.761z"/><path class="c" d="M541.198 1109.335h8.081v1.741h-8.081z"/><path class="a" d="M580.872 1110.456l-35.561 35.56-36.441-36.44"/><path class="g" d="M555.847 1131.421l22.995-22.995 4.06 4.06-22.995 22.995z"/><path class="c" d="M559.906 1135.481l22.995-22.995.538.538-22.995 22.995zM555.308 1130.883l22.995-22.995.538.538-22.995 22.995z"/><path class="c" d="M576.867 1108.746l1.147-1.147 5.714 5.713-1.148 1.147z"/><path class="g" d="M506.841 1111.605l4.06-4.06 23.875 23.876-4.06 4.06z"/><path class="c" d="M506.302 1112.144l.538-.538 23.876 23.875-.539.538zM510.9 1107.546l.538-.538 23.876 23.875-.539.538z"/><path class="c" d="M528.697 1135.116l5.713-5.713 1.192 1.191-5.714 5.713z"/><g clip-path="url(#i)"><path class="g" d="M530.716 1156.552l25.13-25.13 4.06 4.059-25.13 25.13z"/><path class="c" d="M534.776 1160.612l25.13-25.13.539.538-25.13 25.13zM530.177 1156.014l25.13-25.13.539.538-25.13 25.13z"/><path class="c" d="M553.765 1131.848l1.254-1.254 5.714 5.714-1.254 1.254z"/></g><g clip-path="url(#j)"><path class="g" d="M530.716 1135.481l4.06-4.06 25.13 25.131-4.06 4.06z"/><path class="c" d="M530.178 1136.019l.538-.538 25.13 25.13-.537.539zM534.775 1131.421l.538-.538 25.131 25.13-.538.538z"/><path class="c" d="M553.765 1160.184l5.714-5.714 1.255 1.254-5.715 5.714z"/></g></g></svg>