<svg xmlns="http://www.w3.org/2000/svg" xmlns:xlink="http://www.w3.org/1999/xlink" width="109" height="109" viewBox="0 0 109 109"><defs><style>.a{fill:none;}.b{clip-path:url(#a);}.c{fill:#005daa;}.d{clip-path:url(#b);}.e{fill:#004179;}.f{fill:#d1d2d4;}.g{fill:#5ab6c9;}.h{fill:#fff;}.i{clip-path:url(#d);}</style><clipPath id="a"><rect class="a" width="108.778" height="108.845"/></clipPath><clipPath id="b"><path class="a" d="M0,54.5A54.5,54.5,0,1,0,54.5,0,54.5,54.5,0,0,0,0,54.5"/></clipPath><clipPath id="d"><path class="a" d="M15.2,20.628V64.937H29.157v-17.5a1.108,1.108,0,0,1,.665-1.108,52.506,52.506,0,0,1,13.293-5.539,79.979,79.979,0,0,1,15.287,0,1.108,1.108,0,0,0,1.329-1.108v-9.97A1.108,1.108,0,0,0,58.623,28.6a80.2,80.2,0,0,0-15.508,0,47.632,47.632,0,0,0-11.963,4.874,1.108,1.108,0,0,1-1.772-1.108V20.406H56.85a3.766,3.766,0,0,0,3.766-3.766h0a3.766,3.766,0,0,0-3.545-3.766L25.391,11.1h-.443A9.526,9.526,0,0,0,15.2,20.628" transform="translate(-15.2 -11.099)"/></clipPath></defs><g transform="translate(54.5 54.5)"><g transform="translate(-54.5 -54.5)"><g class="b"><path class="c" d="M54.5,108.9A54.5,54.5,0,1,0,0,54.622,54.5,54.5,0,0,0,54.5,108.9" transform="translate(0 -0.122)"/></g><g class="d"><path class="e" d="M59.087,12.2,24.748,16.631,15,63.155,65.512,111.9,114.03,62.712Z" transform="translate(18.232 14.828)"/></g><rect class="f" width="11.52" height="6.336" transform="translate(63.805 52.285)"/><g class="b"><path class="g" d="M38.449,37.533a4.776,4.776,0,0,1-9.526,0,2.437,2.437,0,0,1,.222-1.551,28.135,28.135,0,0,1,3.1-3.988L33.575,30h.443l1.108,1.994,2.659,3.323a4.874,4.874,0,0,1,.665,2.215" transform="translate(35.104 36.463)"/><path class="h" d="M29.157,64.827H15.2V20.518a9.526,9.526,0,0,1,10.191-9.3l31.681,1.772a3.766,3.766,0,0,1,3.545,3.766h0A3.766,3.766,0,0,1,56.85,20.3H29.157V32.7A1.108,1.108,0,0,0,30.93,33.81a47.632,47.632,0,0,1,11.963-5.317,80.2,80.2,0,0,1,15.508,0A1.108,1.108,0,0,1,59.509,29.6v9.97a1.108,1.108,0,0,1-1.329,1.108,79.977,79.977,0,0,0-15.287,0A52.506,52.506,0,0,0,29.6,46.217a1.108,1.108,0,0,0-.665,1.108v17.5Z" transform="translate(18.475 13.6)"/></g><g class="i" transform="translate(33.675 24.589)"><rect class="f" width="54.278" height="19.983" transform="translate(-3.988 -10.632)"/></g></g></g></svg>