<svg xmlns="http://www.w3.org/2000/svg" width="324.182" height="267.339"><defs><style>.b{fill:#fff}</style></defs><path d="M162.09 0C72.57 0 0 54.332 0 121.355c0 37.166 22.335 70.407 57.481 92.669-4.208 27.666-8.681 41.984-18.293 52.481 0 0 29.336 8.4 80.015-28.117a213.592 213.592 0 0 0 42.886 4.325c89.523 0 162.092-54.332 162.092-121.358S251.617 0 162.09 0z" fill="#5ab6c9"/><path class="b" d="M59.534 173.005v-75.4a2.078 2.078 0 0 1 2.182-2.112h16.1a2.08 2.08 0 0 1 2.183 2.112v33.474a18.68 18.68 0 0 1 16.9-10.009c12.531 0 15.982 8.006 15.982 18.573v33.362a2.08 2.08 0 0 1-2.185 2.112H94.599a2.079 2.079 0 0 1-2.185-2.112v-29.362c0-3.891-2.3-5.006-4.37-5.006a22.616 22.616 0 0 0-8.046 1.894v32.474a2.08 2.08 0 0 1-2.185 2.112h-16.1a2.078 2.078 0 0 1-2.179-2.112zM120.007 148.425c0-16.237 9.541-27.8 27.016-27.8 14.256 0 24.26 6.449 24.26 23.019a58.685 58.685 0 0 1-.574 8.673h-30.238c0 7.006 4.138 8.676 13.682 8.676a36.254 36.254 0 0 0 7.7-.779c3.107-.667 5.059-1.558 6.325-1.558 1.378 0 2.3 1 2.3 3v3.224c0 3-.462 4.67-1.381 5.561-3.563 3.448-12.531 5.782-21.73 5.782-18.852.002-27.36-11.562-27.36-27.798zm33.224-5.561a30.029 30.029 0 0 0 .23-3c0-4.782-2.412-6.67-6.323-6.67-4.6 0-6.782 2.558-6.782 9.673zM179.558 173.001V90.526a2.081 2.081 0 0 1 2.185-2.115h16.094a2.083 2.083 0 0 1 2.188 2.115v82.475a2.081 2.081 0 0 1-2.188 2.112h-16.094a2.079 2.079 0 0 1-2.185-2.112zM208.74 197.024v-73.175a2.08 2.08 0 0 1 2.182-2.115h7.7c4.37 0 8.278 1.782 9.774 5.451 2.412-2.894 5.748-6.006 14.716-6.006 11.612 0 22.419 7.452 22.419 27.246s-10.808 27.246-22.419 27.246c-8.278 0-11.726-3.115-13.912-5.339v26.692a2.082 2.082 0 0 1-2.185 2.112h-16.1a2.08 2.08 0 0 1-2.175-2.112zm36.328-48.6c0-8.673-3.1-11.121-8.737-11.121a15.972 15.972 0 0 0-7.127 1.67v18.9a15.935 15.935 0 0 0 7.127 1.67c5.628.003 8.732-2.445 8.732-11.119z"/><g><path class="b" d="M133.86 61.994l-5.992 17.917c-.185.488-.412.8-.916.8h-3.476c-.5 0-.776-.266-.913-.8L120 71.725a42.756 42.756 0 0 1-1.1-4.334c0-.356 0-.487-.182-.487s-.182.132-.182.487a42.767 42.767 0 0 1-1.1 4.334l-2.563 8.186c-.182.53-.412.8-.913.8h-3.474c-.5 0-.731-.308-.916-.8l-5.992-17.917a5.87 5.87 0 0 1-.364-1.726.767.767 0 0 1 .776-.8h3.706a.988.988 0 0 1 1.053.751l2.835 9.735a29.543 29.543 0 0 1 .913 3.67c0 .356 0 .487.185.487s.182-.132.182-.487a25.133 25.133 0 0 1 .824-3.67l2.835-9.735a.958.958 0 0 1 1.053-.751h2.286a.958.958 0 0 1 1.053.751l2.883 9.735a23.6 23.6 0 0 1 .776 3.67c0 .356 0 .487.182.487s.185-.132.185-.487a32.522 32.522 0 0 1 .961-3.67l2.79-9.735a.919.919 0 0 1 1.051-.751h3.706a.767.767 0 0 1 .776.8 6.183 6.183 0 0 1-.365 1.726zM154.215 71.02h-13.312c0 3.936 2.149 5.793 6.5 5.793a11.079 11.079 0 0 0 4.482-.972 5.613 5.613 0 0 1 1.6-.532c.5 0 .779.356.779.975v.972a2.049 2.049 0 0 1-.731 1.86 13.7 13.7 0 0 1-7.732 2.034c-7.227 0-10.522-4.6-10.522-11.06s3.569-11.06 10.2-11.06c5.533 0 9.012 2.829 9.012 8.8a15.929 15.929 0 0 1-.276 3.19zm-8.648-8.186c-3.062 0-4.3 1.9-4.572 5.132h8.323c.048-.488.092-.93.092-1.328a3.568 3.568 0 0 0-3.843-3.804zM159.797 63.585a1.288 1.288 0 0 1-.961.664h-1.559c-.457 0-.731-.353-.412-.927a12.889 12.889 0 0 0 2.2-5.62 3.222 3.222 0 0 1-1.922-2.877 2.9 2.9 0 0 1 2.972-2.787 3.2 3.2 0 0 1 3.112 3.451c-.003 3.054-1.88 6.062-3.43 8.096zM176.166 59.387c1.283 0 2.7.619 2.7 1.591v4.16a.755.755 0 0 1-.824.8 1.6 1.6 0 0 1-.868-.308 4.009 4.009 0 0 0-2.426-.8 6.812 6.812 0 0 0-4.115 1.546v13.491a.828.828 0 0 1-.871.84h-3.933a.827.827 0 0 1-.868-.84V60.313a.827.827 0 0 1 .868-.84h2.241a2.321 2.321 0 0 1 2.516 2.21v.311a7.971 7.971 0 0 1 5.58-2.607zM199.129 71.02h-13.312c0 3.936 2.151 5.793 6.5 5.793a11.079 11.079 0 0 0 4.482-.972 5.625 5.625 0 0 1 1.6-.532c.5 0 .776.356.776.975v.972a2.049 2.049 0 0 1-.731 1.86 13.689 13.689 0 0 1-7.729 2.034c-7.227 0-10.522-4.6-10.522-11.06s3.569-11.06 10.2-11.06c5.535 0 9.012 2.829 9.012 8.8a15.723 15.723 0 0 1-.276 3.19zm-8.645-8.186c-3.065 0-4.3 1.9-4.575 5.132h8.326c.045-.488.09-.93.09-1.328a3.566 3.566 0 0 0-3.839-3.804z"/></g><g><path class="b" d="M109.267 111.474h-3.933a.826.826 0 0 1-.868-.84V97.761a2.505 2.505 0 0 0-2.838-2.832 12.993 12.993 0 0 0-4.849 1.062v14.643a.826.826 0 0 1-.868.84h-3.933a.826.826 0 0 1-.868-.84V80.639a.826.826 0 0 1 .868-.84h3.933a.826.826 0 0 1 .868.84V92.85a9.244 9.244 0 0 1 6.908-2.877c4.393 0 6.449 2.39 6.449 6.947v13.713a.826.826 0 0 1-.869.841zM132.275 101.787h-13.312c0 3.936 2.151 5.8 6.5 5.8a11.069 11.069 0 0 0 4.482-.975 5.588 5.588 0 0 1 1.6-.529c.5 0 .779.353.779.972v.975a2.043 2.043 0 0 1-.731 1.857 13.7 13.7 0 0 1-7.732 2.034c-7.228 0-10.519-4.6-10.519-11.06s3.566-11.06 10.2-11.06c5.535 0 9.012 2.832 9.012 8.8a15.9 15.9 0 0 1-.279 3.186zm-8.645-8.185c-3.065 0-4.3 1.9-4.575 5.132h8.326c.045-.488.09-.93.09-1.328a3.567 3.567 0 0 0-3.841-3.805zM147.276 90.15c1.28 0 2.7.619 2.7 1.594v4.157a.756.756 0 0 1-.821.8 1.6 1.6 0 0 1-.871-.311 4 4 0 0 0-2.423-.8 6.839 6.839 0 0 0-4.118 1.546v13.494a.826.826 0 0 1-.868.84h-3.933a.826.826 0 0 1-.868-.84V91.08a.826.826 0 0 1 .868-.84h2.241a2.321 2.321 0 0 1 2.516 2.21v.311a7.976 7.976 0 0 1 5.577-2.611zM170.239 101.787h-13.312c0 3.936 2.149 5.8 6.5 5.8a11.07 11.07 0 0 0 4.482-.975 5.588 5.588 0 0 1 1.6-.529c.5 0 .779.353.779.972v.975a2.043 2.043 0 0 1-.731 1.857 13.7 13.7 0 0 1-7.732 2.034c-7.227 0-10.522-4.6-10.522-11.06s3.569-11.06 10.2-11.06c5.535 0 9.012 2.832 9.012 8.8a15.9 15.9 0 0 1-.276 3.186zm-8.648-8.185c-3.062 0-4.3 1.9-4.572 5.132h8.323c.048-.488.092-.93.092-1.328a3.568 3.568 0 0 0-3.843-3.805z"/></g><g><path class="b" d="M209.967 93.868a.829.829 0 0 1-.868-.84v-1.947a.827.827 0 0 1 .868-.84h1.922v-4.292a.827.827 0 0 1 .868-.84h3.933a.828.828 0 0 1 .871.84v4.292h3.292a.828.828 0 0 1 .871.84v1.948a.83.83 0 0 1-.871.84h-3.292v12.432c0 .927.412 1.415 1.325 1.415a3.533 3.533 0 0 0 1.328-.221 4.458 4.458 0 0 1 .961-.266c.319 0 .639.134.639.8v.927a1.94 1.94 0 0 1-.594 1.681c-1.053.8-2.471 1.151-4.757 1.151-2.563 0-4.575-1.373-4.575-4.115v-13.8zM234.348 111.918c-6.4 0-10.7-3.981-10.7-11.06s4.3-11.06 10.7-11.06c6.359 0 10.656 3.981 10.656 11.06s-4.297 11.06-10.656 11.06zm0-17.475c-3.065 0-5.031 1.9-5.031 6.415s1.967 6.415 5.031 6.415c3.017 0 4.986-1.9 4.986-6.415s-1.969-6.413-4.986-6.413z"/></g></svg>